<svg width="59" height="58" viewBox="0 0 59 58" fill="none" xmlns="http://www.w3.org/2000/svg">
<mask id="mask0_76_3859" style="mask-type:alpha" maskUnits="userSpaceOnUse" x="0" y="0" width="59" height="58">
<circle cx="29.2891" cy="28.9229" r="28.1178" fill="#D9D9D9" stroke="#2979FF" stroke-width="1.22251"/>
</mask>
<g mask="url(#mask0_76_3859)">
<circle cx="29.2891" cy="28.9229" r="28.1178" stroke="#7DD3FF" stroke-width="1.22251"/>
<path fill-rule="evenodd" clip-rule="evenodd" d="M24.4325 14.984C29.1431 19.8112 29.0819 24.2624 28.9683 32.5285C28.9493 33.9065 28.9289 35.3905 28.9289 37C27.6686 27.1003 25.7026 25.8849 21.5459 23.3154C20.7581 22.8283 19.8916 22.2927 18.9363 21.64C11.9413 17.0322 18.9366 9.35197 24.4325 14.984ZM30 39C30 32.2205 32.4912 23.5045 40.4632 20.5992C50.5102 16.9377 52.9194 31.252 40.9615 31.252C34.9825 31.252 31.4947 34.1572 30 39ZM30 44C30 33.5489 22.0176 27.1874 14.9743 29.4594C7.93104 31.7313 11.2179 39.0016 17.3221 36.7296C23.4263 34.4576 29.5305 39.0017 30 44ZM33 20C34.1046 20 35 19.1046 35 18C35 16.8954 34.1046 16 33 16C31.8954 16 31 16.8954 31 18C31 19.1046 31.8954 20 33 20Z" fill="#7DD3FF"/>
</g>
</svg>
