<?xml version="1.0" encoding="utf-8"?>
<!-- Generator: Adobe Illustrator 26.0.3, SVG Export Plug-In . SVG Version: 6.00 Build 0)  -->
<svg version="1.1" id="Layer_1" xmlns="http://www.w3.org/2000/svg" xmlns:xlink="http://www.w3.org/1999/xlink" x="0px" y="0px"
	 viewBox="0 0 24 24" style="enable-background:new 0 0 24 24;" xml:space="preserve">
<style type="text/css">
	.st0{fill:#707070;}
</style>
<path class="st0" d="M9,10v2H7v-2H9 M13,10v2h-2v-2H13 M17,10v2h-2v-2H17 M19,3c1.1,0,2,0.9,2,2v14c0,1.1-0.9,2-2,2H5
	c-1.1,0-2-0.9-2-2V5c0-1.1,0.9-2,2-2h1V1h2v2h8V1h2v2H19 M19,19V8H5v11H19 M9,14v2H7v-2H9 M13,14v2h-2v-2H13 M17,14v2h-2v-2H17z"/>
</svg>
