<svg width="802" height="798" viewBox="0 0 802 798" fill="none" xmlns="http://www.w3.org/2000/svg">
<path d="M239.934 43.9502C239.24 43.9502 238.545 43.8816 237.851 43.8129C237.157 43.7443 236.463 43.6757 235.768 43.6757C234.38 43.4012 232.991 42.8521 231.603 42.3031C230.214 41.7541 229.104 41.2051 227.715 40.3815C226.604 39.558 225.493 38.7344 224.383 37.6364C223.272 36.5383 222.439 35.4403 221.606 34.3422C220.772 33.2442 220.217 31.8716 219.662 30.499C219.106 29.1266 218.551 27.7538 218.273 26.3813C217.995 25.0087 217.718 23.6362 217.718 21.9891C217.718 16.2243 219.939 10.734 224.105 6.61634C229.104 1.67509 236.879 -0.795529 243.822 0.577039C244.516 0.714296 245.21 0.920181 245.904 1.12607C246.599 1.33195 247.293 1.53784 247.987 1.67509C248.681 1.94961 249.306 2.29275 249.931 2.63589C250.556 2.97903 251.181 3.32218 251.875 3.59669C252.986 4.42013 254.097 5.2439 255.207 6.34182C259.373 10.4595 261.595 15.9498 261.595 21.7146C261.595 23.0872 261.595 24.4597 261.039 26.1068C260.761 27.4794 260.484 28.8519 259.651 30.2245C259.095 31.5971 258.54 32.6951 257.707 34.0677C256.874 35.1657 256.041 36.2638 254.93 37.3619C253.819 38.4598 252.708 39.2833 251.598 40.1067C250.487 40.9302 249.098 41.4796 247.709 42.0286C247.015 42.3031 246.321 42.509 245.627 42.7149C244.932 42.9208 244.238 43.1266 243.544 43.4012C242.711 43.9502 241.322 43.9502 239.934 43.9502Z" fill="#EFF1F1"/>
<path d="M248.543 348.385C237.435 353.327 232.714 366.229 237.99 377.209C241.878 385.17 249.654 389.837 257.707 389.837C261.039 389.837 264.094 389.013 267.149 387.641C278.257 382.7 282.978 369.797 277.701 358.817C272.703 347.836 259.651 343.17 248.543 348.385Z" fill="#EFF1F1"/>
<path d="M217.44 314.62C215.219 302.816 222.994 291.561 234.935 289.365C246.877 287.169 258.262 294.855 260.484 306.659C262.706 318.463 254.93 329.719 242.989 331.915C241.6 332.189 240.212 332.189 238.823 332.189C228.826 332.189 219.384 325.052 217.44 314.62Z" fill="#EFF1F1"/>
<path d="M213.275 248.737C212.442 260.816 221.606 270.973 233.825 271.796H235.213C246.877 271.796 256.596 263.012 257.152 251.482C257.985 239.404 248.821 229.247 236.602 228.423C224.383 227.599 214.108 236.658 213.275 248.737Z" fill="#EFF1F1"/>
<path d="M239.934 211.403C228.271 207.835 221.883 195.481 225.771 183.952C229.381 172.422 241.878 166.383 253.541 169.952C265.205 173.52 271.592 185.873 267.704 197.403C264.649 206.462 256.041 212.501 246.877 212.501C244.377 212.227 242.156 211.952 239.934 211.403Z" fill="#EFF1F1"/>
<path d="M253.819 124.108C247.432 134.265 250.487 147.716 260.762 154.03C264.372 156.5 268.537 157.598 272.425 157.324C279.645 157.324 286.866 153.755 291.031 147.167C297.418 137.01 294.363 123.559 284.089 117.245C273.814 110.931 260.206 113.951 253.819 124.108Z" fill="#EFF1F1"/>
<path d="M295.197 104.068C286.866 95.2839 287.143 81.5582 296.03 73.3228C304.916 65.0874 318.801 65.3619 327.132 74.1464C335.463 82.9308 335.186 96.6565 326.299 104.892C322.134 108.735 316.58 110.931 311.303 110.931C305.472 110.657 299.64 108.461 295.197 104.068Z" fill="#EFF1F1"/>
<path d="M349.626 34.0674C339.073 40.1067 335.463 53.2833 341.295 63.7148C345.461 70.8522 352.958 74.6954 360.456 74.6954C364.344 74.6954 367.954 73.8718 371.287 71.9502C381.839 65.911 385.449 52.7343 379.618 42.3028C373.508 31.8713 360.179 28.3026 349.626 34.0674Z" fill="#EFF1F1"/>
<path d="M396.002 35.989C392.947 24.4594 399.89 12.6553 411.553 9.36115C423.217 6.3415 435.158 13.2043 438.49 24.7339C441.545 36.2635 434.603 48.3421 422.939 51.3617C420.995 51.9108 419.051 52.1853 417.385 52.1853C407.666 52.1853 398.779 45.5969 396.002 35.989Z" fill="#EFF1F1"/>
<path d="M517.358 23.6359C514.858 35.4399 522.078 46.9695 534.02 49.7146C535.686 49.9892 537.352 50.2637 539.018 50.2637C549.015 50.2637 558.18 43.4008 560.401 33.2438C562.901 21.4397 555.68 9.91018 543.739 7.16504C531.798 4.69442 520.135 11.8318 517.358 23.6359Z" fill="#EFF1F1"/>
<path d="M455.986 22.5378C455.986 10.4592 465.705 0.576718 477.646 0.576718C489.865 0.576718 499.585 10.1847 499.862 21.9888C499.862 34.0674 490.143 43.6754 478.202 43.9499H477.924C465.983 43.9499 455.986 34.3419 455.986 22.5378Z" fill="#EFF1F1"/>
<path d="M591.502 71.9511C592.891 72.2256 594.279 72.5001 595.668 72.5001C597.056 72.5001 598.723 72.2256 600.111 71.9511C601.5 71.6766 602.888 71.1276 604.277 70.5786C605.665 70.0295 607.054 69.4805 608.164 68.657C609.275 67.8334 610.386 67.0099 611.497 65.9118C615.662 61.7941 617.884 56.3038 617.884 50.5391C617.884 44.7743 615.662 39.284 611.497 35.1663C610.386 34.0682 609.275 33.2447 608.164 32.4212C606.776 31.5976 605.665 31.0486 604.277 30.4996C602.888 29.676 601.5 29.4015 600.111 29.127C597.334 28.578 594.279 28.578 591.502 29.127C590.114 29.4015 588.725 29.9505 587.337 30.4996C585.948 31.0486 584.56 31.5976 583.449 32.4212C582.338 33.2447 581.227 34.0682 580.117 35.1663C575.951 39.284 573.729 44.7743 573.729 50.5391C573.729 56.3038 575.951 61.7941 580.117 65.9118C581.227 67.0099 582.338 67.8334 583.449 68.657C584.838 69.4805 585.948 70.0295 587.337 70.5786C588.725 71.4021 590.114 71.6766 591.502 71.9511Z" fill="#EFF1F1"/>
<path d="M286.587 440.621C287.975 440.896 289.364 441.17 290.752 441.17C292.141 441.17 293.807 440.896 295.195 440.621C296.584 440.621 297.973 440.072 299.361 439.523C300.75 438.974 302.138 438.425 303.249 437.601C304.36 436.778 305.47 435.954 306.581 434.856C307.692 433.758 308.525 432.66 309.358 431.562C310.191 430.19 310.747 429.092 311.302 427.719C311.858 426.346 312.413 424.974 312.691 423.601C312.968 422.229 313.246 420.856 313.246 419.484C313.246 418.111 312.968 416.738 312.691 415.366C312.413 414.68 312.205 413.993 311.996 413.307C311.788 412.621 311.58 411.934 311.302 411.248C310.747 409.876 310.191 408.503 309.358 407.405C308.525 406.307 307.692 405.209 306.581 404.111C305.471 403.013 304.359 402.189 303.249 401.366C301.86 400.542 300.75 399.993 299.361 399.444C297.973 398.895 296.584 398.346 295.195 398.072C287.975 396.699 280.2 399.17 275.201 404.111C271.035 408.229 268.814 413.719 268.814 419.484C268.814 420.856 269.092 422.229 269.369 423.601C269.647 424.974 269.925 426.346 270.48 427.719C271.035 429.092 271.591 430.464 272.424 431.562C273.257 432.66 274.09 433.758 275.201 434.856C276.312 435.954 277.423 436.778 278.533 437.601C279.922 438.425 281.033 438.974 282.421 439.523C283.81 440.072 285.198 440.347 286.587 440.621Z" fill="#EFF1F1"/>
<path d="M41.2406 590.92C41.9349 590.989 42.6291 591.057 43.3234 591.057C44.7119 591.057 46.1004 590.783 46.9335 590.508C48.322 590.234 49.7105 589.685 51.099 589.135C52.4875 588.586 53.876 588.037 54.9868 587.214C56.0976 586.39 57.2085 585.567 58.3193 584.469C59.4301 583.371 60.2632 582.273 61.0963 581.175C61.9294 579.802 62.4848 578.704 63.0402 577.331C63.8733 575.959 64.151 574.586 64.4287 573.214L64.5494 572.51C64.7815 571.166 64.9841 569.994 64.9841 568.822C64.9841 563.057 62.7625 557.566 58.597 553.449C57.4862 552.351 56.3754 551.527 55.2645 550.704C54.5703 550.429 53.9455 550.086 53.3207 549.743C52.6959 549.4 52.071 549.057 51.3767 548.782C50.6829 548.645 49.9891 548.439 49.2953 548.233C48.601 548.028 47.9055 547.821 47.2112 547.684C40.2687 546.311 32.4931 548.782 27.4944 553.723C23.3289 557.841 21.1073 563.331 21.1073 569.096C21.1073 570.743 21.385 572.116 21.6627 573.488C21.9404 574.861 22.4958 576.233 23.0512 577.606C23.6066 578.978 24.1621 580.351 24.9951 581.449C25.8282 582.547 26.6613 583.645 27.7721 584.743C28.8828 585.841 29.9934 586.665 31.104 587.488C31.7967 587.762 32.4207 588.105 33.0441 588.447C33.6684 588.79 34.2987 589.136 34.9924 589.41C36.3806 589.959 37.7696 590.508 39.1579 590.783C39.8517 590.783 40.5468 590.851 41.2406 590.92Z" fill="#EFF1F1"/>
<path d="M397.666 775.253C397.11 787.332 406.552 797.214 418.771 797.763H419.604C431.268 797.763 440.987 788.704 441.543 776.9C442.098 764.822 432.656 754.939 420.437 754.39C408.218 753.841 398.221 763.175 397.666 775.253Z" fill="#EFF1F1"/>
<path d="M461.259 776.351C460.426 764.273 469.313 753.841 481.254 753.018C493.473 751.919 504.025 760.978 504.858 772.782C505.969 784.861 496.805 795.293 484.864 796.116H483.198C471.812 796.391 462.37 787.881 461.259 776.351Z" fill="#EFF1F1"/>
<path d="M334.628 765.645C332.406 777.724 340.459 788.704 352.401 790.9C353.511 791.175 354.9 791.449 356.011 791.175C366.563 791.175 375.727 783.763 377.671 773.057C379.893 761.253 371.84 749.998 359.898 748.076C347.957 745.88 336.572 753.841 334.628 765.645Z" fill="#EFF1F1"/>
<path d="M524.853 770.312C522.354 758.508 529.852 746.978 541.793 744.508C553.734 742.037 565.397 749.449 567.897 761.253C570.396 773.057 562.898 784.587 550.957 787.057L550.334 787.161C548.934 787.397 547.69 787.606 546.236 787.606C536.239 787.332 527.075 780.469 524.853 770.312Z" fill="#EFF1F1"/>
<path d="M272.978 748.351C269.368 759.606 275.755 771.959 287.418 775.528C289.64 776.077 291.862 776.351 294.083 776.351C303.247 776.351 311.856 770.586 314.911 761.253C318.521 749.998 312.134 737.645 300.47 734.076C289.085 730.507 276.588 736.821 272.978 748.351Z" fill="#EFF1F1"/>
<path d="M587.058 755.488C582.615 744.233 588.169 731.88 599.555 727.488C610.94 723.096 623.715 728.586 627.88 739.841C632.323 751.096 626.769 763.724 615.383 767.841C612.884 768.939 610.107 769.214 607.33 769.214C598.721 769.214 590.39 763.998 587.058 755.488Z" fill="#EFF1F1"/>
<path d="M214.661 722.547C209.662 733.253 214.383 746.155 225.213 751.37C228.268 752.743 231.601 753.292 234.378 753.292C242.709 753.292 250.762 748.9 254.372 740.939C259.371 730.233 254.65 717.331 243.819 712.115C232.989 707.174 219.937 711.566 214.661 722.547Z" fill="#EFF1F1"/>
<path d="M645.931 731.056C639.544 720.899 642.598 707.448 652.873 701.134C663.148 694.821 676.755 697.84 683.143 707.997C689.53 718.154 686.475 731.605 676.2 737.919C672.59 740.115 668.424 741.213 664.537 741.213C657.316 741.213 650.096 737.645 645.931 731.056Z" fill="#EFF1F1"/>
<path d="M160.787 689.056C154.122 699.213 156.899 712.664 167.174 719.252C170.784 721.448 174.95 722.821 179.115 722.821C186.335 722.821 193.278 719.252 197.443 712.939C204.108 702.781 201.331 689.33 191.056 682.742C181.059 676.154 167.452 678.899 160.787 689.056Z" fill="#EFF1F1"/>
<path d="M698.694 695.644C690.085 687.134 690.085 673.409 698.416 664.899C707.025 656.389 720.91 656.389 729.519 664.624C738.127 673.134 738.127 686.86 729.519 695.37C725.353 699.762 719.521 701.683 713.967 701.683C708.691 701.683 703.137 699.762 698.694 695.644Z" fill="#EFF1F1"/>
<path d="M111.356 649.251C103.303 658.31 104.413 672.036 113.578 679.722C117.743 683.291 122.742 684.938 128.018 685.213C134.127 685.213 140.237 682.468 144.68 677.526C152.733 668.193 151.623 654.467 142.458 646.781C133.017 639.094 119.132 640.192 111.356 649.251Z" fill="#EFF1F1"/>
<path d="M742.015 648.977C731.74 642.663 728.408 629.486 734.517 619.055C740.904 608.898 754.234 605.604 764.787 611.643C775.062 617.957 778.394 631.133 772.285 641.565C768.119 648.428 760.899 651.997 753.401 651.997C749.513 652.271 745.625 651.173 742.015 648.977Z" fill="#EFF1F1"/>
<path d="M67.7569 602.584C58.8705 610.545 58.0374 624.271 66.0907 633.33C70.2562 638.271 76.3656 640.741 82.4751 640.467C87.7514 640.467 93.0277 638.545 97.1932 634.977C106.08 627.016 106.913 613.29 98.8594 604.231C90.8061 595.447 76.921 594.623 67.7569 602.584Z" fill="#EFF1F1"/>
<path d="M775.896 594.074C777.285 594.349 778.673 594.623 780.062 594.623C781.45 594.623 782.839 594.623 783.949 594.074C785.338 593.8 786.726 593.525 788.115 592.976C789.503 592.427 790.892 591.878 792.003 591.055C793.114 590.231 794.224 589.408 795.335 588.31C796.446 587.211 797.279 586.113 798.112 585.015C798.945 583.643 799.501 582.545 800.056 581.172C800.612 579.8 801.167 578.427 801.445 577.054C802 575.682 802 574.309 802 572.937C802 567.172 799.778 561.682 795.613 557.564C794.502 556.466 793.391 555.642 792.28 554.819C791.586 554.544 790.961 554.201 790.337 553.858C789.712 553.515 789.087 553.172 788.393 552.897C787.004 552.348 785.616 551.799 784.227 551.525C781.45 550.976 778.395 550.976 775.618 551.525C774.23 551.799 772.841 552.348 771.453 552.897C770.064 553.446 768.676 553.995 767.565 554.819C766.454 555.642 765.344 556.466 764.233 557.564C760.067 561.682 757.846 567.172 757.846 572.937C757.846 574.309 758.123 575.682 758.401 577.054C758.679 578.427 759.234 579.8 759.789 581.172C760.345 582.544 760.9 583.917 761.733 585.015C762.566 586.113 763.4 587.211 764.51 588.31C765.621 589.407 766.732 590.231 767.842 591.054C768.536 591.328 769.161 591.672 769.785 592.015C770.41 592.358 771.036 592.702 771.731 592.976C772.425 593.114 773.119 593.319 773.813 593.525C774.508 593.731 775.202 593.937 775.896 594.074Z" fill="#EFF1F1"/>
<path d="M329.076 595.448C318.246 589.958 313.803 577.056 319.357 566.35C324.911 555.644 337.963 551.252 348.793 556.742C359.623 562.232 364.067 575.134 358.513 585.84C354.625 593.527 346.849 597.919 338.796 597.919C335.741 597.919 332.409 597.095 329.076 595.448Z" fill="#EFF1F1"/>
<path d="M264.927 528.741C257.707 538.349 259.651 552.075 269.371 559.212C273.258 561.958 277.702 563.33 282.423 563.33C289.365 563.33 296.03 560.31 300.195 554.546C307.416 544.938 305.472 531.212 295.752 524.075C286.033 517.212 272.148 519.133 264.927 528.741Z" fill="#EFF1F1"/>
<path d="M216.607 512.82C208.276 504.035 208.832 490.309 217.718 482.074C226.605 473.839 240.49 474.388 248.821 483.172C257.152 491.957 256.596 505.682 247.71 513.918C243.544 517.761 237.99 519.682 232.714 519.682C226.882 519.682 221.051 517.212 216.607 512.82Z" fill="#EFF1F1"/>
<path d="M180.506 427.446C170.231 433.76 167.177 447.211 173.564 457.368C177.729 463.956 184.672 467.525 192.17 467.525C196.057 467.525 200.223 466.427 203.833 464.231C214.108 457.917 217.163 444.466 210.776 434.309C204.389 424.152 190.781 421.132 180.506 427.446Z" fill="#EFF1F1"/>
<path d="M141.628 395.053C137.185 383.798 142.739 371.171 154.125 367.053C165.51 362.661 178.007 368.151 182.45 379.406C186.893 390.661 181.339 403.289 169.954 407.406C167.454 408.504 164.677 408.779 161.9 408.779C153.292 409.053 144.96 403.838 141.628 395.053Z" fill="#EFF1F1"/>
<path d="M139.684 302.817C127.743 305.013 119.967 316.268 122.189 328.072C124.133 338.503 133.297 345.641 143.572 345.641C144.96 345.641 146.349 345.641 147.737 345.366C159.679 343.17 167.454 331.915 165.233 320.111C163.011 308.307 151.625 300.621 139.684 302.817Z" fill="#EFF1F1"/>
<path d="M137.74 280.307C125.521 280.307 115.802 270.424 116.08 258.345C116.08 246.267 126.077 236.659 138.296 236.933C150.514 236.933 160.234 246.816 159.956 258.894C159.956 270.699 149.959 280.307 137.74 280.307Z" fill="#EFF1F1"/>
<path d="M123.855 188.619C121.356 200.423 128.854 211.953 140.795 214.423C141.558 214.574 142.321 214.642 143.176 214.718C143.877 214.781 144.64 214.849 145.516 214.972C155.513 214.972 164.677 207.835 166.899 197.678C169.398 185.874 161.9 174.344 149.959 171.874C138.018 169.403 126.354 176.815 123.855 188.619Z" fill="#EFF1F1"/>
<path d="M156.346 150.462C145.238 145.795 139.962 132.893 144.683 121.912C149.404 110.932 162.456 105.716 173.564 110.383C184.672 115.049 189.948 127.951 185.227 138.932C181.617 147.167 173.564 152.109 164.955 152.109C162.178 152.109 159.401 151.56 156.346 150.462Z" fill="#EFF1F1"/>
<path d="M178.84 60.4212C172.175 70.3036 174.674 83.7548 184.672 90.6176C188.56 93.0883 192.725 94.4608 197.168 94.1863C204.111 94.1863 211.053 90.8922 215.219 84.8529C221.884 74.9704 219.384 61.5192 209.387 54.6564C199.39 48.068 185.783 50.5387 178.84 60.4212Z" fill="#EFF1F1"/>
<path d="M385.447 616.585C389.612 620.702 395.166 622.899 400.998 622.899C406.552 622.899 412.384 620.428 416.549 616.31C420.715 612.193 422.937 606.702 422.937 600.938C422.937 595.173 420.715 589.682 416.549 585.565C415.439 584.467 414.328 583.643 413.217 582.82C412.523 582.545 411.898 582.202 411.273 581.859C410.648 581.516 410.024 581.173 409.329 580.898C408.635 580.761 407.941 580.555 407.246 580.349C406.552 580.143 405.858 579.937 405.164 579.8C398.221 578.427 390.446 580.898 385.447 585.839C381.281 589.957 379.06 595.447 379.06 601.212C379.06 606.977 381.281 612.467 385.447 616.585Z" fill="#EFF1F1"/>
<path d="M17.7729 299.249C19.1614 299.523 20.5499 299.798 21.9384 299.798C22.9148 299.798 23.8913 299.662 25.1575 299.486C25.6918 299.412 26.2778 299.33 26.937 299.249C28.3255 299.249 29.714 298.7 31.1025 298.151C32.491 297.602 33.8795 297.053 34.9903 296.229C36.1011 295.405 37.212 294.582 38.3228 293.484C42.4883 289.366 44.7099 283.876 44.7099 278.111C44.7099 276.739 44.4322 275.366 44.1545 273.993C43.8768 272.621 43.3214 271.248 42.766 269.876C42.2106 268.503 41.6552 267.131 40.8221 266.032C39.989 264.934 39.1559 263.836 38.0451 262.738C36.9342 261.64 35.8234 260.817 34.7126 259.993C33.3241 259.17 32.2133 258.621 30.8248 258.072C29.4363 257.523 28.0478 257.248 26.6593 256.974C23.8823 256.425 20.8276 256.425 18.0506 256.974C16.6621 257.248 15.2736 257.523 13.8851 258.072C12.4967 258.621 11.1079 259.17 9.99724 259.993C8.88644 260.817 7.77563 261.64 6.66483 262.738C5.55402 263.836 4.72092 264.934 3.88782 266.032C3.47126 266.719 3.19356 267.336 2.91586 267.954C2.63819 268.572 2.36042 269.189 1.94391 269.876C1.1108 271.248 0.833103 272.621 0.555402 273.993C0.277705 275.366 0 276.739 0 278.111C0 283.876 2.22161 289.366 6.38713 293.484C7.49793 294.582 8.60874 295.405 9.71954 296.229C11.108 297.053 12.2189 297.602 13.6074 298.151C14.9959 298.7 16.3844 298.974 17.7729 299.249Z" fill="#EFF1F1"/>
<path d="M446.541 662.155C434.322 662.429 424.88 672.312 425.158 684.391C425.436 695.92 435.433 705.254 447.096 705.803H447.652C459.871 705.254 469.312 695.371 469.035 683.292C468.757 671.214 458.76 661.88 446.541 662.155Z" fill="#EFF1F1"/>
<path d="M379.615 701.136C367.674 699.214 359.343 688.234 361.287 676.43C363.231 664.625 374.339 656.39 386.28 658.312C398.221 660.233 406.552 671.214 404.608 683.018C402.942 693.724 393.5 701.41 382.947 701.41C382.392 701.41 381.837 701.342 381.281 701.273C380.726 701.204 380.17 701.136 379.615 701.136Z" fill="#EFF1F1"/>
<path d="M506.247 654.469C494.306 657.214 486.808 668.743 489.585 680.547C491.806 690.43 500.97 697.293 511.245 697.567C512.634 697.567 514.3 697.293 515.966 697.018C527.907 694.273 535.128 682.743 532.628 670.939C529.851 659.135 518.188 651.723 506.247 654.469Z" fill="#EFF1F1"/>
<path d="M313.244 684.665C301.859 680.822 295.749 668.469 299.637 656.939C303.525 645.684 316.021 639.645 327.685 643.488C339.071 647.331 345.18 659.684 341.292 671.214C338.238 680.273 329.629 685.763 320.465 685.763C318.243 685.763 315.744 685.489 313.244 684.665Z" fill="#EFF1F1"/>
<path d="M563.453 636.076C552.345 640.743 547.346 653.645 552.067 664.625C555.677 672.861 563.731 677.802 572.34 677.802C575.117 677.802 578.171 676.979 580.948 675.881C592.056 671.214 597.055 658.312 592.334 647.331C587.613 636.351 574.561 631.409 563.453 636.076Z" fill="#EFF1F1"/>
<path d="M251.317 657.214C240.764 651.449 236.877 638.272 242.708 627.566C248.54 617.135 261.87 613.292 272.7 619.056C283.253 624.821 287.141 637.998 281.309 648.704C277.421 655.841 269.645 659.959 262.147 659.959C258.26 659.959 254.649 659.135 251.317 657.214Z" fill="#EFF1F1"/>
<path d="M190.778 589.958C183.28 599.566 184.946 613.017 194.666 620.429C198.554 623.448 203.275 625.096 208.273 625.096C214.661 625.096 221.048 622.076 225.491 616.586C232.989 607.252 231.045 593.527 221.603 586.115C212.161 578.703 198.276 580.35 190.778 589.958Z" fill="#EFF1F1"/>
<path d="M144.402 575.683C136.071 566.899 136.349 553.173 144.958 544.938C153.844 536.702 167.729 536.977 176.06 545.487C184.391 553.997 184.113 567.997 175.505 576.232C171.339 580.35 165.785 582.271 160.231 582.271C154.399 582.271 148.568 580.075 144.402 575.683Z" fill="#EFF1F1"/>
<path d="M106.357 493.878C96.3598 501.015 94.1382 514.741 101.358 524.349C105.524 530.388 112.189 533.408 119.131 533.408C123.575 533.408 128.018 532.036 131.906 529.29C141.903 522.153 144.124 508.427 136.904 498.819C129.962 488.937 116.077 486.741 106.357 493.878Z" fill="#EFF1F1"/>
<path d="M65.535 468.348C59.7033 457.917 63.5911 444.74 74.4214 438.975C84.9741 433.211 98.3037 437.054 104.135 447.485C109.967 457.917 106.079 471.368 95.5267 476.858C92.1943 478.78 88.5842 479.603 84.9741 479.603C76.9208 479.603 69.4228 475.486 65.535 468.348Z" fill="#EFF1F1"/>
<path d="M49.1506 380.229C37.7649 384.622 32.4886 397.249 36.9318 408.504C40.2642 417.014 48.5952 421.956 57.204 422.23C59.981 422.23 62.758 421.681 65.535 420.583C76.9208 416.191 82.1971 403.563 77.7539 392.308C73.3106 381.053 60.5364 375.837 49.1506 380.229Z" fill="#EFF1F1"/>
<path d="M15.2711 345.915C11.9387 334.386 18.6035 322.307 30.267 319.013C41.9304 315.719 54.1493 322.307 57.4817 333.837C60.8141 345.366 54.1493 357.445 42.2081 360.739C40.2642 361.288 38.0426 361.563 36.0987 361.563C26.9345 361.837 18.0481 355.523 15.2711 345.915Z" fill="#EFF1F1"/>
<path d="M628.992 647.057C627.603 647.057 626.215 647.057 624.548 646.508C623.16 646.234 621.771 645.959 620.383 645.135C618.995 644.586 617.884 644.037 616.495 643.214C615.384 642.39 614.274 641.567 613.163 640.469C612.052 639.371 611.219 638.272 610.386 637.175C609.553 636.077 608.997 634.704 608.442 633.331C608.164 632.646 607.956 631.96 607.748 631.274C607.54 630.588 607.331 629.9 607.053 629.214C606.776 627.841 606.498 626.469 606.498 625.096C606.498 623.723 606.498 622.351 607.053 620.704C607.331 619.331 607.609 617.959 608.442 616.586C608.858 615.9 609.136 615.282 609.414 614.664C609.691 614.047 609.97 613.429 610.386 612.742C611.219 611.644 612.052 610.547 613.163 609.449C614.274 608.351 615.384 607.527 616.495 606.704C617.606 605.88 618.995 605.331 620.384 604.782C621.772 604.233 623.16 603.684 624.548 603.409C631.769 602.037 639.267 604.233 644.265 609.449C645.376 610.547 646.209 611.645 647.042 612.743C647.875 613.841 648.431 615.213 648.986 616.586C649.264 617.272 649.472 617.959 649.681 618.645C649.889 619.331 650.097 620.018 650.375 620.704C650.652 622.076 650.93 623.449 650.93 625.096C650.93 626.469 650.652 627.841 650.375 629.214C650.097 630.586 649.819 631.959 648.986 633.331C648.57 634.018 648.292 634.635 648.014 635.253C647.737 635.871 647.459 636.488 647.042 637.175C646.209 638.273 645.376 639.371 644.265 640.469C643.155 641.567 642.044 642.39 640.933 643.214C639.822 644.037 638.434 644.586 637.046 645.135C635.657 645.684 634.268 646.234 632.88 646.508C631.769 647.057 630.38 647.057 628.992 647.057Z" fill="#EFF1F1"/>
</svg>
