<svg id="Layer_1" data-name="Layer 1" xmlns="http://www.w3.org/2000/svg" viewBox="0 0 470.46 584.94"><defs><style>.cls-1{fill:#c9f1f6;}.cls-2{fill:#deeff9;}.cls-3{fill:#60bca6;}.cls-4{fill:#92cdc0;}.cls-5{fill:#ffd53d;}.cls-6{fill:#fff0c0;}.cls-7{fill:#fff7df;}.cls-8{fill:#5f9bff;}.cls-9{fill:#2979ff;}.cls-10{fill:#f2886e;}.cls-11{fill:#26c6da;}.cls-12{fill:#23376a;}.cls-13{fill:#cadeff;opacity:0.6;}.cls-14{fill:#94bcff;}.cls-15{fill:#fff;}.cls-16{fill:#d87660;}</style></defs><path class="cls-1" d="M362.23,238.6c-20.87-34.5-52.72-54.11-89.59-66.59a306.27,306.27,0,0,0-118.28-13.83c-39.6,3.79-69.69,16.71-86.84,43.53-16.95,26.45-21,66.79-3.73,116.65,17,49.27,53.94,96.93,98.8,124.66,44.63,28.17,97.21,36.42,140.12,17.16,43.43-18.8,68.48-59.44,77.66-101.45C389.53,316.34,382.82,272.59,362.23,238.6Z"/><path class="cls-1" d="M183.83,80.41c4,5.11,9.43,7.65,15.55,9a49.31,49.31,0,0,0,19.14,0c6.25-1.35,10.81-4,13-8.58s2.1-11.06-1.59-18.69a39.59,39.59,0,0,0-18.11-18c-7.65-3.66-16.2-4-22.69-.11s-9.82,10.77-10.5,17.65A26.76,26.76,0,0,0,183.83,80.41Z"/><path class="cls-2" d="M371,140.62H182.36L193,515.25l160.35,2.12Z"/><path class="cls-3" d="M347.49,464.58c1.41-.65,2.75-1.2,4-1.68,4-6.8,8.21-13.62,12.64-20.78,4.56-7.37,9.27-15,14.19-23.3,24-40.61,35.13-76.53,36.65-81.63a16.36,16.36,0,0,0-3.62-1.7s-10.54-3.88-20.73,7.6c0,0-11.38,8.67-17.22,31s-54.09,30.21-58.7,54.47c-3.87,20.36,3.91,45-5.18,66C323.91,480.42,345.68,465.41,347.49,464.58Z"/><path class="cls-3" d="M380.11,419.85c-4.93,8.34-9.65,16-14.21,23.34-4,6.44-7.79,12.6-11.42,18.72,18.25-5.52,24,4.89,40.66-12a61,61,0,0,1,12.05-9.72,39.08,39.08,0,0,0-.9-15.74c-6.38-26.18,7.33-22.67,15.57-46.74s.75-34.81-5.09-39.29C414.64,345.42,403.4,380.46,380.11,419.85Z"/><path class="cls-4" d="M436.19,444.59c-4.74,5.2-28.9,30.86-65.27,55.34-7.7,5.18-14.92,9.83-21.91,14.33S332.4,525,324.75,530.17l33.93,6.47a28.2,28.2,0,0,0,32.9-21.53l.09-.43c5.27-25.27,15.68-16.59,32.72-34S439.39,450.87,436.19,444.59Z"/><path class="cls-4" d="M369.83,498.32c37.49-25.23,61.92-51.71,65.33-55.5a14.85,14.85,0,0,0-2.43-3s-9.18-9.41-25.54.31a61,61,0,0,0-12.05,9.72c-16.7,16.91-22.41,6.5-40.66,12-1,.29-1.93.61-3,1-1.29.48-2.63,1-4,1.68a114.69,114.69,0,0,0-30.32,21.73A106.49,106.49,0,0,0,292.23,524L322,529.64c8-5.38,19.5-12.85,26-17C354.93,508.13,362.15,503.49,369.83,498.32Z"/><circle class="cls-5" cx="364.1" cy="150.07" r="85.67" transform="translate(0.52 301.41) rotate(-45)"/><circle class="cls-6" cx="364.1" cy="150.07" r="76.2" transform="translate(135.72 470.91) rotate(-76.96)"/><circle class="cls-7" cx="364.1" cy="150.07" r="70.54" transform="translate(135.62 470.84) rotate(-76.94)"/><path class="cls-5" d="M373.32,137.52l33.16-31.13a4.07,4.07,0,0,0-.12-6.07,64.89,64.89,0,0,0-37-15.31,4.07,4.07,0,0,0-4.36,4.2l1.44,45.46A4.07,4.07,0,0,0,373.32,137.52Z"/><path class="cls-5" d="M351.54,140.85l-31.12-33.16a4.07,4.07,0,0,0-6.07.12,65,65,0,0,0-15.32,37,4.08,4.08,0,0,0,4.21,4.37l45.46-1.44A4.08,4.08,0,0,0,351.54,140.85Z"/><path class="cls-5" d="M429.17,144.79a65,65,0,0,0-15.32-37,4.07,4.07,0,0,0-6.07-.12l-31.12,33.16a4.08,4.08,0,0,0,2.84,6.87L425,149.16A4.08,4.08,0,0,0,429.17,144.79Z"/><path class="cls-5" d="M358.82,85a65,65,0,0,0-37,15.31,4.09,4.09,0,0,0-.12,6.07l33.17,31.13a4.07,4.07,0,0,0,6.86-2.85l1.44-45.46A4.07,4.07,0,0,0,358.82,85Z"/><path class="cls-5" d="M366.46,165.47,365,210.94a4.07,4.07,0,0,0,4.36,4.2,65,65,0,0,0,37-15.31,4.07,4.07,0,0,0,.12-6.07l-33.16-31.13A4.07,4.07,0,0,0,366.46,165.47Z"/><path class="cls-5" d="M376.66,159.3l31.12,33.16a4.09,4.09,0,0,0,6.07-.12,65,65,0,0,0,15.32-37A4.08,4.08,0,0,0,425,151l-45.46,1.44A4.08,4.08,0,0,0,376.66,159.3Z"/><path class="cls-5" d="M348.7,152.43,303.24,151a4.08,4.08,0,0,0-4.21,4.37,65,65,0,0,0,15.32,37,4.09,4.09,0,0,0,6.07.12l31.12-33.16A4.08,4.08,0,0,0,348.7,152.43Z"/><path class="cls-5" d="M354.88,162.63l-33.17,31.13a4.09,4.09,0,0,0,.12,6.07,65,65,0,0,0,37,15.31,4.07,4.07,0,0,0,4.36-4.2l-1.44-45.47A4.07,4.07,0,0,0,354.88,162.63Z"/><path class="cls-8" d="M137.18,543.3S115.77,462.64,122,429.13s3.89-144,3.89-144-38.05,4.54-54.06-3.46c0,0-2.59,92.33,16,134.5,0,0-9.3,40.21,10.81,78.27l28.11,53.19Z"/><path class="cls-9" d="M126.35,341.45,87.88,416.16a144.69,144.69,0,0,1-10.29-38.49l32.48-91.41,15.86-1.14Z"/><path class="cls-8" d="M44.2,547.62s11-67.84,24.32-98.49,41.55-162.87,41.55-162.87S70,286,44.2,270.74c0,0-14.92,19.3-7.14,59.36s3.57,105.73,3.57,105.73-21.89,31.79-7.46,109Z"/><path class="cls-10" d="M156.42,175.49s14.43,38,18.81,48.71S182,236.52,182,236.52V257s-21.89-12.84-36-43.15L148.15,178Z"/><path class="cls-10" d="M134.36,133.44s-7.83,16.32-4.86,19.46a10.57,10.57,0,0,0,6.38,3.35l7.57,18.16-1.84,10.06H111.34L91.77,162.41,97.61,145s7.62,3.3,12.1-6.27a134.75,134.75,0,0,1,7.9-14.81Z"/><path class="cls-11" d="M131.77,290.2s-7.46-28.22.22-46.81,9.29-25.3,9.29-25.3,7.79-2.05,8-18,0-17.94,0-17.94-.75-3.9,7.14-6.71c0,0-9.41-18.38-22.92-20.54,0,0,6.27,17.3,3.68,24,0,0-19.79,1.84-39.57-14,0,0-.76-15,0-19.9,0,0-37.09-15.24-33.41,28.55,0,0,6.58,38,3.13,46S38.25,254.31,42,270.74c0,0,6.47,14.92,27.13,15.89S131.77,290.2,131.77,290.2Z"/><path class="cls-10" d="M156.42,107.16a73.14,73.14,0,0,1-2.27,10.18c-4.45,15-10,27.74-21.84,18.8C114.74,122.84,113.77,123.06,113,112a16.61,16.61,0,0,1,7.57-15.68l24.75-7.65L148.74,86l9.09,12Z"/><path class="cls-10" d="M178.8,273.82c-6.65-8.19-59.27-37.7-63.41-37.46,0,0-21.81-67.71-26.76-73.3,0,0-15.76-6.9-20.73,9.24s25.27,74.6,28.19,77.85,68.44,21.24,73.3,26.27,4.79,15,10.87,15.24Z"/><path class="cls-12" d="M154.7,115.29a86.63,86.63,0,0,0,5.29-6.94c2.48-3.67,4.16-15.57-6.71-22.92,0,0-13.29-27.35-29.51-19.13,0,0-1.51-20.06-23.14-11.68s-1.35,32.11,5.52,26.7c0,0-15.22,16.65-4.44,30.17,7.91,9.91,15.9,13.08,15.9,13.08s-5.68-22.17,1.73-22.49c5-.21,5.19,4.11,5.19,4.11s19.29-4,23.24-16.65C147.77,89.54,158.65,95.29,154.7,115.29Z"/><path class="cls-12" d="M126.42,110.6c5.67.2,20.92-9.9,21.35-21.06l3,1.43S146.85,110.27,126.42,110.6Z"/><path class="cls-12" d="M118.47,110.6s-1.4,8.67-.86,14l-8-19.78,6,2.42S115.88,110.31,118.47,110.6Z"/><path class="cls-13" d="M367.08,140.62H178.48l10.6,374.63,160.35,2.12Z"/><path class="cls-14" d="M362.53,260.53c-27.31-28.38-53.56-17.74-95.78,0s-82.31-8.76-82.31-8.76L193,515.25l160.35,2.12Z"/><path class="cls-9" d="M184.51,142.7l10.8,345.47a12.41,12.41,0,0,0,12.41,12H338.44a12.43,12.43,0,0,0,12.42-12.06L361.05,142.7a2.15,2.15,0,0,1,2.15-2.08H371a2.15,2.15,0,0,1,2.15,2.21L361.47,537.24a12.43,12.43,0,0,1-12.42,12.06H197.2a12.43,12.43,0,0,1-12.42-12L172.45,142.84a2.15,2.15,0,0,1,2.15-2.22h7.76A2.15,2.15,0,0,1,184.51,142.7Z"/><path class="cls-15" d="M233.41,466.34a13.11,13.11,0,0,0-6.36-6.72,25.47,25.47,0,0,0-9.46-2.83c-3.29-.26-5.93.37-7.71,2.31s-2.67,5.15-2,9.47a20.38,20.38,0,0,0,6.28,11.6c3.24,2.94,7.41,4.37,11.19,3.41a11.57,11.57,0,0,0,7.8-7.17A13.82,13.82,0,0,0,233.41,466.34Z"/><path class="cls-15" d="M205.72,437.83a8.54,8.54,0,0,0,2.09,5.66,16.65,16.65,0,0,0,4.95,4.13c1.9,1,3.65,1.3,5.21.59s2.93-2.4,3.62-5.17a13.28,13.28,0,0,0-.79-8.56,8.1,8.1,0,0,0-5.83-4.92,7.56,7.56,0,0,0-6.52,2.3A8.92,8.92,0,0,0,205.72,437.83Z"/><path class="cls-14" d="M234.64,255.74c28.83-15.35,15.35-29.45,18.1-38.85s29.12-7.76,18.8,21.17C264.09,258.93,234.64,255.74,234.64,255.74Z"/><path class="cls-15" d="M216.36,215c-17.89-1.49-21.77-11-20.28-29.81s-5.36-29.82,5.37-31,21.76,1.2,21,13.72S216.36,215,216.36,215Z"/><path class="cls-9" d="M70.47,563.84s4.46-5.63-3.28-8.21-14.65-4.46-18.29-7.86,1.41-6.15-11.14-5.27-10.84,15.18-11.49,19S39.16,566,49,565.59,70.47,563.84,70.47,563.84Z"/><path class="cls-9" d="M136.63,542.12c2.29,2,5.52,10.11,11.67,12.29s19.18,3,17.09,7.51-11.57,3.69-21.47,3.93-24.18-.28-22.93-5.39.73-14.05,3.55-15.36S136.63,542.12,136.63,542.12Z"/><path class="cls-16" d="M129.85,145s-2.69-12.46-10.73-19c0,0,12.43,9.78,13.82,10.64Z"/></svg>