<svg id="Layer_1" data-name="Layer 1" xmlns="http://www.w3.org/2000/svg" xmlns:xlink="http://www.w3.org/1999/xlink" viewBox="0 0 470.46 584.94"><defs><style>.cls-1,.cls-12{fill:none;}.cls-2{fill:#c9f1f6;}.cls-3{fill:#f2886e;}.cls-4{fill:#da7561;}.cls-5{fill:#2979ff;}.cls-6{fill:#fff;}.cls-7{fill:#cadeff;}.cls-8{clip-path:url(#clip-path);}.cls-9{fill:#5f9bff;}.cls-10{fill:#94bcff;}.cls-11{fill:#26c6da;}.cls-12{stroke:#d87660;stroke-miterlimit:10;stroke-width:2.68px;}.cls-13{fill:#d87660;}.cls-14{fill:#f2fcfe;}</style><clipPath id="clip-path"><path class="cls-1" d="M88.26,258.47l-1-57.34s-3.92-3-4-5.9l.06-10.42s-.31-4.16,3.47-5.75L87,151.89s-4.14-2.85-4.73-6.46-.48-13-.48-13,.08-3.66,4.48-7.41c0,0-.37-12.59,10.2-19.68l28.36-13.14s8.33-3.17,8.15-10.82.19-31.5.19-31.5-.32-2.88,3.34-4.08,20.19-1.44,23.73.13c0,0,2.72.85,2.87,3.46s-.18,31.49-.18,31.49-.54,6.93,9.26,10,29.09,12.81,29.09,12.81,10.89,5.17,11.75,19.81c0,0,4.86,3.3,4.82,10.89l-.05,8.65s-.19,3.22-4.47,6.19l-.15,26a9,9,0,0,1,3.72,7.67c0,5.38,0,10.31,0,10.31a8.44,8.44,0,0,1-3.27,5.93l-.34,58.54a14.41,14.41,0,0,1,3.27,9.55c0,6.08.67,7.87-2.48,12.71,0,0-11.12,24.31-62.43,24-35.61-.21-53.13-12.08-60.52-19.33a17.73,17.73,0,0,1-5.25-11.12C85.37,268.19,85.3,260.67,88.26,258.47Z"/></clipPath></defs><path class="cls-2" d="M52,276.59c24.09-39.81,60.85-62.45,103.4-76.85,42.49-14,90.78-19.72,136.51-16,45.71,4.37,80.43,19.29,100.23,50.25,19.57,30.52,24.21,77.08,4.3,134.63-19.65,56.87-62.25,111.86-114,143.87-51.5,32.52-112.19,42-161.71,19.81-50.13-21.7-79-68.61-89.64-117.09C20.46,366.32,28.21,315.82,52,276.59Z"/><path class="cls-2" d="M424.44,141.78c-9.36,12-22.17,18-36.56,21a115.9,115.9,0,0,1-45,0c-14.69-3.17-25.42-9.35-30.67-20.17-5.2-10.67-4.93-26,3.74-43.94,8.56-17.74,24.52-34,42.58-42.43,18-8.61,38.08-9.39,53.34-.27,15.47,9,23.08,25.33,24.67,41.5S433.66,129.93,424.44,141.78Z"/><path class="cls-3" d="M357,368.37c9.42-40.73-31.05-75.73-57.31-94.65-19.89-2.59-39.84-4.64-59.72-7.29l17.82,30.74,44,72.42-39.14-2.9L218,374.19l-27-2.87-19.15,23.13-3.37-5.7c-4.64,10.58-10.54,20.62-15,31.25l64.54,24.9c24,13.34,55.81,36.35,55.81,36.35l78.47,80.27c81.23.79,95.25-85.42,95.25-85.42Z"/><path class="cls-3" d="M233.51,252.74,251,276c18.46,2.32,30.52-5.93,48.73-2.23-2.4-1.63-15-10.32-16.66-11.45-18.05-12.28-36.7-42-39.76-46.48s-10.25-5.4-15.71-8.9-13.93-14.73-13.93-14.73c-15.23,1.81-12,18.94-12,18.94C208.38,233.75,233.51,252.74,233.51,252.74Z"/><path class="cls-3" d="M357,368.37c7.8-33.72-18.59-63.51-42.81-83.5-23.85-4.28-47.46-10-71.43-13.61l15,25.91,44,72.42-1.37,18.74L221.2,418.28l-45.69-13.1-3.62-10.73-18.3-30.92a68.76,68.76,0,0,0,4.55-18.33c2.14-18.18-15.66-17.78-15.66-17.78-10.81,14.71-13.61,10.07-21.29,26.45s-.58,32.79-.58,32.79c-.37,22.93,8.79,24,8.79,24l88.71,34.22c28.45,13.34,55.81,36.35,55.81,36.35l78.47,80.27c81.23.79,95.25-85.42,95.25-85.42Z"/><path class="cls-4" d="M73.3,261.05l90.05,132s11,18.4,22.64,23.58,31-.75,31-.75l87.37-24.18A16.1,16.1,0,0,0,314.85,383a15.3,15.3,0,0,0,1.38-6.09A20.66,20.66,0,0,0,312.56,365L152.72,152.81s-11.14-12.63-24.79-10.65S73.3,261.05,73.3,261.05Z"/><path class="cls-5" d="M17.57,172.07,163.35,385.68s11,18.4,22.64,23.57,31-.74,31-.74l87.37-24.18a16.13,16.13,0,0,0,10.44-8.64,15.34,15.34,0,0,0,1.38-6.09,20.66,20.66,0,0,0-3.67-11.93L152.72,145.49s-11.14-12.63-24.79-10.65S27,148.71,27,148.71,16.62,149.87,15.52,160C14.65,167.94,17.57,172.07,17.57,172.07Z"/><path class="cls-6" d="M27.91,162.26,183,384.08s8.76,12.45,23.22,10.81l96.59-25.4s10.58-3.22,3.64-14.61L149.94,147.53s-8.11-11.63-21.84-8.87l-12.58,1.92,1.37,2.89a3.26,3.26,0,0,1-2,4.76l-49.3,7.2s-9,.35-14.14-6.72l-19,2.93s-4.62.78-5.8,4.85S27.91,162.26,27.91,162.26Z"/><path class="cls-6" d="M57.09,219.27a1.81,1.81,0,0,1,2.53.49l16.6,24.68a1.83,1.83,0,0,1,.25.6,1.81,1.81,0,0,0-.18-1.68L59.7,218.68a1.83,1.83,0,0,0-3.3,1.44A1.77,1.77,0,0,1,57.09,219.27Z"/><path class="cls-6" d="M269.1,390.92l-13.67,3.7a1,1,0,0,1-1.1-1.36l1.29-2.6a1,1,0,0,1,.6-.5l13.67-3.69a1,1,0,0,1,1.11,1.35l-1.29,2.6A.93.93,0,0,1,269.1,390.92Z"/><ellipse class="cls-6" cx="225.99" cy="400.57" rx="2.33" ry="1.08" transform="translate(-214.3 267.61) rotate(-43.77)"/><ellipse class="cls-6" cx="230.88" cy="399.21" rx="2.33" ry="1.08" transform="translate(-211.99 270.61) rotate(-43.77)"/><ellipse class="cls-6" cx="235.76" cy="397.84" rx="2.33" ry="1.08" transform="translate(-209.69 273.61) rotate(-43.77)"/><ellipse class="cls-6" cx="240.65" cy="396.48" rx="2.33" ry="1.08" transform="translate(-207.39 276.61) rotate(-43.77)"/><ellipse class="cls-6" cx="281.46" cy="384.97" rx="2.33" ry="1.08" transform="translate(-188.09 301.65) rotate(-43.77)"/><ellipse class="cls-6" cx="286.35" cy="383.61" rx="2.33" ry="1.08" transform="translate(-185.79 304.65) rotate(-43.77)"/><ellipse class="cls-6" cx="291.24" cy="382.24" rx="2.33" ry="1.08" transform="translate(-183.49 307.65) rotate(-43.77)"/><ellipse class="cls-6" cx="296.13" cy="380.88" rx="2.33" ry="1.08" transform="translate(-181.18 310.65) rotate(-43.77)"/><polygon class="cls-7" points="49.47 193.11 213.37 273.24 121.04 295.5 49.47 193.11"/><g class="cls-8"><path class="cls-9" d="M88.26,258.47l-1-57.34s-3.92-3-4-5.9l.06-10.42s-.31-4.16,3.47-5.75L87,151.89s-4.14-2.85-4.73-6.46-.48-13-.48-13,.08-3.66,4.48-7.41c0,0-.37-12.59,10.2-19.68l28.36-13.14s8.33-3.17,8.15-10.82.19-31.5.19-31.5-.32-2.88,3.34-4.08,20.19-1.44,23.73.13c0,0,2.72.85,2.87,3.46s-.18,31.49-.18,31.49-.54,6.93,9.26,10,29.09,12.81,29.09,12.81,10.89,5.17,11.75,19.81c0,0,4.86,3.3,4.82,10.89l-.05,8.65s-.19,3.22-4.47,6.19l-.15,26a9,9,0,0,1,3.72,7.67c0,5.38,0,10.31,0,10.31a8.44,8.44,0,0,1-3.27,5.93l-.34,58.54a14.41,14.41,0,0,1,3.27,9.55c0,6.08.67,7.87-2.48,12.71,0,0-11.12,24.31-62.43,24-35.61-.21-53.13-12.08-60.52-19.33a17.73,17.73,0,0,1-5.25-11.12C85.37,268.19,85.3,260.67,88.26,258.47Z"/><path class="cls-10" d="M143.65,57.85c.8,22.8,7.93,28.2-3.64,40s-33,13.39-32,32-.2,21.39,2,26,4.81,24.8,2.11,27.6-4.31,18.79-2.11,21.19,2.3,2,2.55,6.3-.86,85.82-.86,85.82L66.48,239.46l-14-153.21Z"/><path class="cls-11" d="M163,70.75c-4.6,4.93-21.88,5.27-30.09,1.71s-1.79-28.12-1.79-28.12l13.1-4,17,3.28,4.75,4.1Z"/></g><polygon class="cls-5" points="61.91 210.91 162.4 354.66 153.59 363.53 70.31 232.92 61.91 210.91"/><path class="cls-3" d="M123,387.2s-20.73-3.43-30.87-16-2.82-53,5.75-58.44,39.4-20.93,39.4-20.93,15.89,13.83,5.2,35.61a403.42,403.42,0,0,0-18.15,44.28Z"/><path class="cls-3" d="M89.83,342.7a26,26,0,0,1-15.65-22,228.08,228.08,0,0,1-.47-33.78c.32-5,3.42-15.75,12.75-21s27-15.53,27-15.53,18.32,10.92,13.07,26.28-14.74,20-14.74,20l5,7.23Z"/><path class="cls-3" d="M65.82,219.42c-3.19,6.77-14.24,34.84,12.17,57.42l17.89-13.19s1-21.08-8.67-31.31A47.25,47.25,0,0,0,65.82,219.42Z"/><path class="cls-12" d="M141,329a6.66,6.66,0,0,1,.82-.17l.7-1.44c10.69-21.78-5.2-35.61-5.2-35.61s-30.83,15.5-39.4,20.93c-5.12,3.23-9.78,18.94-10.56,33.75"/><path class="cls-12" d="M116.71,304l-5-7.23s9.49-4.67,14.74-20-13.07-26.28-13.07-26.28S95.8,260.73,86.46,266s-12.43,16-12.75,21c-.16,2.46-.39,6.65-.41,12.26"/><path class="cls-13" d="M86.46,266c2.82,7.68,9,9.41,19.09,2.06s14.55-10.95,14.55-10.95l-6.69-6.64Z"/><path class="cls-13" d="M112.6,304.75c5.48,6.6,12.45,10.5,21.6,5.25s9.45-6.9,9.45-6.9l-6.37-11.29Z"/><path class="cls-3" d="M159.9,374.19l-6.31-10.66a68.76,68.76,0,0,0,4.55-18.33c2.14-18.18-15.66-17.78-15.66-17.78-10.81,14.71-13.61,10.07-21.29,26.45s-.58,32.79-.58,32.79c-.37,22.93,8.79,24,8.79,24l11.75,4.53C146.87,401.81,169.94,395,159.9,374.19Z"/><path class="cls-12" d="M157.06,369.4l-3.47-5.87a68.76,68.76,0,0,0,4.55-18.33c2.14-18.18-15.66-17.78-15.66-17.78-10.81,14.71-13.61,10.07-21.29,26.45a40.59,40.59,0,0,0-3,23.4"/><path class="cls-13" d="M138,333s-11.49,16.6-6.47,19.32,18.3-16.26,18.3-16.26Z"/><path class="cls-13" d="M69.71,251.21a28.93,28.93,0,0,0,.6-18.29c-3.2-10.76-6.21-9.34-6.21-9.34s-4.85,14.49-2.43,26.84S69.71,251.21,69.71,251.21Z"/><ellipse class="cls-11" cx="233.93" cy="347.33" rx="13.02" ry="17.8" transform="translate(-182.08 395.33) rotate(-62.62)"/><path class="cls-6" d="M238.73,344.63l-4.13,1-2.26-3.83a2.27,2.27,0,0,0-2.31-1,1.09,1.09,0,0,0-.68,1.73l2.26,3.83-4.13,1a1.08,1.08,0,0,0-.67,1.73,2.26,2.26,0,0,0,2.31,1l4.13-1,2.26,3.82a2.27,2.27,0,0,0,2.31,1,1.09,1.09,0,0,0,.68-1.74l-2.26-3.82,4.13-1a1.09,1.09,0,0,0,.68-1.74A2.29,2.29,0,0,0,238.73,344.63Z"/><path class="cls-14" d="M196.74,117.14c3.44-2.25-6.6-9.9-6.6-9.9a64,64,0,0,1-27.74,6.9s2.24,2,1.64,6.3C164,120.44,188.22,122.69,196.74,117.14Z"/><path class="cls-14" d="M199.58,133.79s-12.89,4-25.19,4.45v2.15s16.27-1.13,25.94-4.5Z"/><path class="cls-14" d="M201.38,183.83a132.12,132.12,0,0,1-22.54,5.2v2s14-.2,23.19-3.6Z"/><polygon class="cls-14" points="197.46 203.52 197.46 263.21 200.33 261.56 200.33 201.72 197.46 203.52"/><polygon class="cls-14" points="195.86 153.47 196.44 183.2 199.63 182.2 198.9 152.23 195.86 153.47"/><path class="cls-14" d="M167.56,108.54c-5.26,2.48,19.23-1.7,16.08-4.1s-6.45-5.14-12.6-9.39-12.55-4.4-10.1-1.1S180.84,102.28,167.56,108.54Z"/></svg>