<svg id="Layer_1" data-name="Layer 1" xmlns="http://www.w3.org/2000/svg" xmlns:xlink="http://www.w3.org/1999/xlink" viewBox="0 0 470.46 584.94"><defs><style>.cls-1{fill:#5f9bff;}.cls-2{fill:none;}.cls-3{fill:#f2886e;}.cls-4{fill:#c6ff00;}.cls-5{fill:#c9f1f6;}.cls-6{fill:#2979ff;}.cls-7{fill:#fff;}.cls-8{fill:#26c6da;}.cls-9{clip-path:url(#clip-path);}.cls-10{fill:#5cd4e3;}.cls-11{opacity:0.2;}.cls-12{clip-path:url(#clip-path-2);}.cls-13{fill:#94bcff;}.cls-14{fill:#cadeff;}.cls-15{clip-path:url(#clip-path-3);}.cls-16{fill:#d87660;}.cls-17{clip-path:url(#clip-path-4);}.cls-18{clip-path:url(#clip-path-5);}.cls-19{opacity:0.5;}.cls-20{fill:#9b4f43;}.cls-21{fill:#93e3ed;}</style><clipPath id="clip-path"><path class="cls-1" d="M339.61,245.15c-12.07-24.9-17.28-27.07-25.3-27.44s-27-2.77-48.09.61c0,0-58.91-1-104.48,26.57C114.16,273.71,91,299,87.77,312.15s-14.3,47.32-19.54,66.92-8.83,36.87-2.14,52.74c4,9.59,8.35,12.48,13.89,12.43a41,41,0,0,1-2.24-4.7c-5.49-13.61-4.83-33.1,1.44-34.4s10,11.78,13.81,26A56.76,56.76,0,0,0,96,440.29c9.37-3.54,24.4-11.46,44.36-19.67a129.13,129.13,0,0,1-.12-37.7c2.95-19.54,15.44-23.86,20.89-12,4.49,9.8,6.17,31.74,6.62,39.13,8-2.75,14.72-4.6,18.85-4.83,0,0,68.34-15.43,118.71-16.67s75.53-2.44,75.53-2.44S351.68,270.05,339.61,245.15Z"/></clipPath><clipPath id="clip-path-2"><path class="cls-2" d="M200,259.7l3.25,49.18a10.47,10.47,0,0,0,11.65,9.78l109.37-14.19a10.47,10.47,0,0,0,8.88-13.25l-13.8-48.82a10.47,10.47,0,0,0-10.84-7.59c-17.73,1.3-60.24,5.11-100.36,14.06A10.46,10.46,0,0,0,200,259.7Z"/></clipPath><clipPath id="clip-path-3"><path class="cls-3" d="M80,323.66a26.3,26.3,0,0,1,5.29,1.62A13.63,13.63,0,0,1,89,328l5.71-7.57s-8.39-3.51-10-5.66l-1.58-2.14Z"/></clipPath><clipPath id="clip-path-4"><path class="cls-3" d="M87.91,353.24s-.67,5.93-1.47,6.76-21.63-16.67-22.89-18.27-.39-7.54,0-9.38-.27-2.85-2.28-1.58-1.47,6.56-1.47,6.56-6.16-1.48-7.38-1.65-2.34,1.36-2.11,2.57,1.8,1.31,1.8,1.31a9.27,9.27,0,0,0,.33,5.3c1.07,2.21,2.33,3.61,4.59,4.16a38.46,38.46,0,0,0,7.15.44S74.8,359.6,78,363.39s9.6,8.94,12.84,8.05,6.34-17.11,6.34-17.11Z"/></clipPath><clipPath id="clip-path-5"><path class="cls-3" d="M63.26,314.21s.7,1.73,1.87,4.77,7.45,9.43,10.52,9.79S82.39,318,83,315.69c.19-.76.39-2,.39-2s3.85-1.81,3-4-2.71-3.22-3.56-2.54-1,3.52-2.32,3.56-2-.39-3.11-1.89S64.48,310.46,63.26,314.21Z"/></clipPath></defs><path class="cls-4" d="M373.19,453.28s35.11-9.16,62.6-55c30.8-51.33,17.59-140.93-23.44-184.45C374.29,173.51,290,166.41,241.13,186.11c-46.2,18.62-81.68,63.36-109.92,69.47s-63.36-3.82-101.53,38.16S-.09,430.38,43.42,461.68s107.64-5.34,163.36-30.53S271.67,460.92,373.19,453.28Z"/><path class="cls-5" d="M373.19,453.28s35.11-9.16,62.6-55c30.8-51.33,17.59-140.93-23.44-184.45C374.29,173.51,290,166.41,241.13,186.11c-46.2,18.62-81.68,63.36-109.92,69.47s-63.36-3.82-101.53,38.16S-.09,430.38,43.42,461.68s107.64-5.34,163.36-30.53S271.67,460.92,373.19,453.28Z"/><path class="cls-6" d="M361.56,360.8v-.08c-9.35-3.1-23.68-2.05-25.81-.77a20.79,20.79,0,0,0-5.78,5.67c-4.53,6.07-8.37,14.57-10.63,23.7l-101.63,9.44c-3.73-8.08-9.38-15.33-15-19.7a16.15,16.15,0,0,0-5.5-3,8.47,8.47,0,0,0-2.66.08c-3.69-10.67-8.91-21-15.43-21.63-13.78-1.38-37.72,3.22-44.26,16.55s-8.59,46.6-8.59,46.6l-4.6,4.59A53.33,53.33,0,0,0,108,405.33a16.13,16.13,0,0,0-5.5-3c-1.14-.32-5.7.39-10.52,1.95l-.58-.52c-4.54-3.85-14-5.94-19.21,3.84s1,28.29,4.19,32.48A20.8,20.8,0,0,0,82,445.46c3.7,9.18,10.25,20.84,20.47,21.38a24.26,24.26,0,0,0,18.81-7.4c6.6-6.9,7.32-16.52,4.83-26l1.06-1.55s2.37,3.37,11.5,2a13.49,13.49,0,0,0,7.17-3c4.27,10.87,11.15,21.72,22.08,23.38a33.07,33.07,0,0,0,26.46-7.53,29.24,29.24,0,0,0,5.44-6.24,24.18,24.18,0,0,0,16.14-7.4,22.55,22.55,0,0,0,6.12-14.94l13.52-1.58a59.18,59.18,0,0,0,27,5.06,38.41,38.41,0,0,0,23.8-10.32l30.81-2.63c.53,11.94,4.81,22.89,14.88,28.94A31.14,31.14,0,0,0,358,440.46c14.22-4.77,17.59-25.88,18.5-38.72C378,381.22,371.38,363.75,361.56,360.8Z"/><path class="cls-7" d="M169,451.67a.28.28,0,0,1-.25-.16.29.29,0,0,1,.13-.39,12.68,12.68,0,0,0,4.31-3.51.28.28,0,0,1,.44.36,13.17,13.17,0,0,1-4.5,3.67A.28.28,0,0,1,169,451.67Z"/><path class="cls-7" d="M175.27,445.27a.31.31,0,0,1-.13,0,.3.3,0,0,1-.12-.39c5-9.29,3.69-24,3.68-24.17a.28.28,0,0,1,.26-.31.29.29,0,0,1,.31.26c0,.15,1.31,15.05-3.75,24.49A.27.27,0,0,1,175.27,445.27Z"/><path class="cls-7" d="M174.14,451.1a.28.28,0,0,1-.25-.16.28.28,0,0,1,.13-.38c4.2-2.06,7.13-6.61,8.71-13.52a.29.29,0,0,1,.34-.22.3.3,0,0,1,.22.35c-1.62,7.09-4.65,11.77-9,13.9A.28.28,0,0,1,174.14,451.1Z"/><path class="cls-7" d="M179.27,450.53a.29.29,0,0,1-.26-.16.28.28,0,0,1,.13-.38c11.92-5.82,9.82-30.2,9.8-30.45a.29.29,0,0,1,.26-.31.29.29,0,0,1,.31.26c.09,1,2.15,25-10.12,31Z"/><path class="cls-7" d="M184.39,450a.29.29,0,0,1-.26-.16.28.28,0,0,1,.13-.38c11.92-5.82,9.82-30.2,9.8-30.45a.29.29,0,0,1,.26-.31.28.28,0,0,1,.31.26c.09,1,2.15,25-10.12,31Z"/><path class="cls-7" d="M344,440.65a.3.3,0,0,1-.26-.16.28.28,0,0,1,.12-.38,15.63,15.63,0,0,0,4.72-4,.29.29,0,0,1,.4,0,.27.27,0,0,1,0,.4,15.93,15.93,0,0,1-4.89,4.14A.33.33,0,0,1,344,440.65Z"/><path class="cls-7" d="M351,433.38a.27.27,0,0,1-.14,0,.28.28,0,0,1-.1-.39c6.17-10.58,7-27.4,7-27.57a.3.3,0,0,1,.3-.27.27.27,0,0,1,.27.29c0,.17-.81,17.13-7.05,27.84A.29.29,0,0,1,351,433.38Z"/><path class="cls-7" d="M349.1,440a.29.29,0,0,1-.13-.54c4.41-2.33,7.92-7.52,10.43-15.42a.3.3,0,0,1,.36-.19.28.28,0,0,1,.18.36c-2.55,8-6.15,13.35-10.7,15.76A.35.35,0,0,1,349.1,440Z"/><path class="cls-7" d="M354.19,439.39a.28.28,0,0,1-.26-.15.3.3,0,0,1,.12-.39c12.5-6.6,13.85-34.44,13.86-34.72a.32.32,0,0,1,.3-.28.29.29,0,0,1,.27.3c-.05,1.16-1.38,28.45-14.16,35.21A.31.31,0,0,1,354.19,439.39Z"/><path class="cls-7" d="M359.27,438.76a.28.28,0,0,1-.13-.53C371.63,431.62,373,403.78,373,403.5a.29.29,0,1,1,.58,0c-.05,1.16-1.38,28.46-14.17,35.21A.28.28,0,0,1,359.27,438.76Z"/><path class="cls-7" d="M102,467.1a.3.3,0,0,1-.25-.14.28.28,0,0,1,.1-.39,12.32,12.32,0,0,0,3.67-3.63.28.28,0,0,1,.39-.08.29.29,0,0,1,.09.4,12.75,12.75,0,0,1-3.85,3.79A.3.3,0,0,1,102,467.1Z"/><path class="cls-7" d="M107.17,460.71l-.11,0a.29.29,0,0,1-.16-.38c3.56-8.66.43-21.09.4-21.22a.27.27,0,0,1,.2-.34.28.28,0,0,1,.35.2c0,.13,3.22,12.74-.42,21.58A.28.28,0,0,1,107.17,460.71Z"/><path class="cls-7" d="M106.84,465.87a.29.29,0,0,1-.15-.53c3.76-2.37,6-6.68,6.59-12.82a.27.27,0,0,1,.31-.26.28.28,0,0,1,.26.31c-.63,6.33-2.94,10.79-6.86,13.26A.37.37,0,0,1,106.84,465.87Z"/><path class="cls-7" d="M111.68,464.64a.31.31,0,0,1-.25-.13.3.3,0,0,1,.09-.4c10.65-6.7,5.5-27.27,5.45-27.47a.29.29,0,1,1,.55-.15c.06.22,5.31,21.18-5.69,28.11A.28.28,0,0,1,111.68,464.64Z"/><path class="cls-7" d="M116.51,463.41a.27.27,0,0,1-.24-.13.3.3,0,0,1,.09-.4c10.65-6.7,5.5-27.26,5.44-27.47a.29.29,0,0,1,.21-.35.28.28,0,0,1,.35.21c0,.21,5.31,21.17-5.7,28.1A.26.26,0,0,1,116.51,463.41Z"/><path class="cls-8" d="M161.54,412.17c2.72,15.59,1,28.91-3.79,29.75s-10.93-11.12-13.65-26.71-1-28.91,3.79-29.75S158.82,396.58,161.54,412.17Z"/><path class="cls-7" d="M157.43,424.13c-1,0-1.91-1.09-2.77-3.18a30.47,30.47,0,0,1-1.87-7.65c-.71-5.59-.27-11.39,2-11.67,1-.13,2,1,2.94,3.16a31.57,31.57,0,0,1,1.87,7.66c.7,5.58.26,11.39-2,11.67Zm-2.53-21.65h-.05c-1,.13-2,4.27-1.21,10.71a30.7,30.7,0,0,0,1.81,7.44c.84,2,1.59,2.7,2,2.64,1-.13,2-4.28,1.2-10.72a30.29,30.29,0,0,0-1.8-7.43C156.08,403.16,155.32,402.48,154.9,402.48Z"/><path class="cls-7" d="M147.64,398.64h0a.43.43,0,0,1-.39-.46,39.44,39.44,0,0,1,.95-6,.43.43,0,0,1,.84.21,37.71,37.71,0,0,0-.94,5.89A.42.42,0,0,1,147.64,398.64Z"/><path class="cls-7" d="M155.23,436.75a.44.44,0,0,1-.39-.24,76.41,76.41,0,0,1-6.77-20.19,73,73,0,0,1-1-15,.44.44,0,0,1,.44-.42.43.43,0,0,1,.41.45,72.59,72.59,0,0,0,1,14.85,75.67,75.67,0,0,0,6.69,20,.42.42,0,0,1-.19.57A.45.45,0,0,1,155.23,436.75Z"/><ellipse class="cls-8" cx="88.52" cy="438.2" rx="6.51" ry="21.06" transform="translate(-113.8 39.55) rotate(-15.49)"/><path class="cls-7" d="M93.37,445.6c-.71,0-1.47-.71-2.27-2.12a25.66,25.66,0,0,1-2.84-11.12c0-1.82.44-2.85,1.23-3.05s1.65.5,2.55,2.09a22.78,22.78,0,0,1,2,5.39h0c1,4,1.21,8.35-.44,8.77A1.26,1.26,0,0,1,93.37,445.6Zm-3.62-15.46h0c-.2,0-.56.57-.59,2.22a21.53,21.53,0,0,0,.76,5.5,22.31,22.31,0,0,0,2,5.19c.82,1.43,1.39,1.72,1.59,1.67.57-.15,1-3-.18-7.72h0a21.54,21.54,0,0,0-2-5.19C90.53,430.48,90,430.14,89.75,430.14Z"/><path class="cls-7" d="M84.07,428a.44.44,0,0,1-.43-.42,29.48,29.48,0,0,1,.15-4.46.43.43,0,0,1,.86.1,26.56,26.56,0,0,0-.15,4.33.43.43,0,0,1-.41.45Z"/><path class="cls-7" d="M93,454.92a.44.44,0,0,1-.36-.19,56.2,56.2,0,0,1-6.74-14,54.23,54.23,0,0,1-2.12-10.81.44.44,0,0,1,.39-.47.43.43,0,0,1,.47.39,52.33,52.33,0,0,0,2.09,10.63,54.81,54.81,0,0,0,6.62,13.81.43.43,0,0,1-.12.6A.39.39,0,0,1,93,454.92Z"/><path class="cls-1" d="M339.61,245.15c-12.07-24.9-17.28-27.07-25.3-27.44s-27-2.77-48.09.61c0,0-58.91-1-104.48,26.57C114.16,273.71,91,299,87.77,312.15s-14.3,47.32-19.54,66.92-8.83,36.87-2.14,52.74c4,9.59,8.35,12.48,13.89,12.43a41,41,0,0,1-2.24-4.7c-5.49-13.61-4.83-33.1,1.44-34.4s10,11.78,13.81,26A56.76,56.76,0,0,0,96,440.29c9.37-3.54,24.4-11.46,44.36-19.67a129.13,129.13,0,0,1-.12-37.7c2.95-19.54,15.44-23.86,20.89-12,4.49,9.8,6.17,31.74,6.62,39.13,8-2.75,14.72-4.6,18.85-4.83,0,0,68.34-15.43,118.71-16.67s75.53-2.44,75.53-2.44S351.68,270.05,339.61,245.15Z"/><g class="cls-9"><path class="cls-10" d="M178.57,365.35s-6.93,9.48-15.35,11.51c3,10.92,4.19,27.09,4.57,33.23,7.15-2.45,13.24-4.18,17.4-4.69.6-3.57,1-5.85,1-5.85Z"/><path class="cls-10" d="M93.29,432.22c3.18.32,5.3,1.69,11.77.08,11.4-2.86,3.22-24.95,22.22-34A31.91,31.91,0,0,1,139.09,395a118.5,118.5,0,0,1,1.19-12.08,35.25,35.25,0,0,1,3.48-11.29c-5.18-1.6-6.12-3.12-15,1.09-19,9-16.15,32.3-27.55,35.15-9.08,2.27-9.58-1.37-16.5.33,3.24,4.56,5.74,13.5,8.25,22.94C93.1,431.52,93.19,431.87,93.29,432.22Z"/><g class="cls-11"><path class="cls-10" d="M74.59,412.65c-5.33,3.67-8.5,9.14-10.34,13.8a45.26,45.26,0,0,0,1.84,5.36c4,9.59,8.35,12.48,13.88,12.43a42.81,42.81,0,0,1-2.23-4.7C74.25,430.89,73.25,419.87,74.59,412.65Z"/></g><path class="cls-10" d="M314.31,217.71l-2.08-.12C228.73,239,194.76,339.6,183.06,388.1c.63,4.82,1.31,9.56,2.06,14.16,1.42-.28.43,3.06,1.52,3,0,0,68.34-15.43,118.71-16.67s75.53-2.44,75.53-2.44-29.2-116.1-41.27-141S322.33,218.08,314.31,217.71Z"/></g><g class="cls-11"><path class="cls-6" d="M89.65,370.86a5.36,5.36,0,0,0,5.77.73c3.61-1.45,4-6.86,4-6.86l5.41-.36,1.08-16.95L94,352.11S90.73,368.7,89.65,370.86Z"/></g><path class="cls-6" d="M74,420.46a59.86,59.86,0,0,0-9.65,6.42,46.46,46.46,0,0,0,1.71,4.93c4,9.59,8.35,12.48,13.89,12.43a41,41,0,0,1-2.24-4.7A55.57,55.57,0,0,1,74,420.46Z"/><path class="cls-7" d="M92.27,411a1.72,1.72,0,0,1-.82-3.23c.27-.15,22.55-14,41-23.76a1.72,1.72,0,1,1,1.61,3c-18.44,9.8-40.71,23.6-41,23.75A1.75,1.75,0,0,1,92.27,411Z"/><path class="cls-6" d="M121.4,296.22l-.79,19.66c-.17,2.69,1.39,4,3.4,2.83l31.66-20.61a8.37,8.37,0,0,0,3.57-7.28l-.2-21.93c-.22-2-1.57-2.8-3.24-1.94-5.94,3.08-17.44,13.5-31.19,23.2A8.65,8.65,0,0,0,121.4,296.22Z"/><path class="cls-6" d="M200,259.7l3.25,49.18a10.47,10.47,0,0,0,11.65,9.78l109.37-14.19a10.47,10.47,0,0,0,8.88-13.25l-13.8-48.82a10.47,10.47,0,0,0-10.84-7.59c-17.73,1.3-60.24,5.11-100.36,14.06A10.46,10.46,0,0,0,200,259.7Z"/><g class="cls-12"><path class="cls-13" d="M205.24,325.52l-1.92-14.46s-1.07-.65-1.17-1.38l-.29-2.64a1.53,1.53,0,0,1,.71-1.55l-.75-6.87a3,3,0,0,1-1.38-1.5,30.94,30.94,0,0,1-.5-3.26,2.85,2.85,0,0,1,.92-2,6.23,6.23,0,0,1,2-5.28l6.78-4.14s2-1,1.75-3-.87-8-.87-8a1,1,0,0,1,.73-1.13,17.2,17.2,0,0,1,6-.65,1,1,0,0,1,.82.79c.12.65.87,8,.87,8s.07,1.77,2.63,2.27a73.08,73.08,0,0,1,7.73,2.39,6,6,0,0,1,3.55,4.67,3.34,3.34,0,0,1,1.53,2.61l.24,2.19a2.35,2.35,0,0,1-.95,1.69l.71,6.56a2.29,2.29,0,0,1,1.17,1.83l.29,2.61a2.14,2.14,0,0,1-.66,1.6l1.62,14.8a3.66,3.66,0,0,1,1.11,2.32c.16,1.54.39,2-.26,3.29,0,0-2.11,6.46-15.09,7.88-9,1-13.77-1.51-15.85-3.13a4.47,4.47,0,0,1-1.65-2.66C204.79,328.06,204.56,326.16,205.24,325.52Z"/><path class="cls-13" d="M260.75,311.87,259,298.35s-1-.61-1.1-1.29l-.26-2.46a1.4,1.4,0,0,1,.66-1.45l-.7-6.43a2.88,2.88,0,0,1-1.3-1.4,29.3,29.3,0,0,1-.46-3.05,2.64,2.64,0,0,1,.86-1.87,5.83,5.83,0,0,1,1.87-4.93l6.34-3.87s1.89-1,1.64-2.78-.81-7.45-.81-7.45a1,1,0,0,1,.68-1.05,16.18,16.18,0,0,1,5.61-.62,1,1,0,0,1,.77.74c.1.61.81,7.45.81,7.45s.06,1.65,2.46,2.12a69.21,69.21,0,0,1,7.22,2.23,5.56,5.56,0,0,1,3.32,4.36,3.12,3.12,0,0,1,1.43,2.45l.22,2a2.15,2.15,0,0,1-.88,1.59l.67,6.13a2.12,2.12,0,0,1,1.08,1.71c.14,1.27.28,2.44.28,2.44a2,2,0,0,1-.62,1.49l1.51,13.84a3.43,3.43,0,0,1,1,2.17c.15,1.44.37,1.84-.24,3.07,0,0-2,6.05-14.1,7.37-8.42.92-12.88-1.41-14.83-2.92a4.23,4.23,0,0,1-1.54-2.49C260.33,314.25,260.12,312.47,260.75,311.87Z"/><path class="cls-14" d="M225.05,327.79l-2.63-19.88s-1.49-.89-1.61-1.89l-.4-3.62a2.08,2.08,0,0,1,1-2.13l-1-9.45a4.21,4.21,0,0,1-1.91-2.05,43.28,43.28,0,0,1-.68-4.49,3.88,3.88,0,0,1,1.26-2.75,8.54,8.54,0,0,1,2.76-7.24l9.32-5.7s2.77-1.43,2.4-4.08-1.19-10.95-1.19-10.95a1.42,1.42,0,0,1,1-1.55c1.22-.56,7-1.31,8.24-.9a1.47,1.47,0,0,1,1.14,1.08c.15.9,1.19,10.95,1.19,10.95s.09,2.43,3.62,3.12a99.39,99.39,0,0,1,10.61,3.28A8.17,8.17,0,0,1,263,276a4.57,4.57,0,0,1,2.1,3.59l.33,3a3.17,3.17,0,0,1-1.3,2.33l1,9a3.14,3.14,0,0,1,1.6,2.52l.4,3.58a2.94,2.94,0,0,1-.9,2.19l2.22,20.35a5.06,5.06,0,0,1,1.52,3.19c.23,2.11.54,2.7-.36,4.51,0,0-2.89,8.89-20.72,10.83-12.37,1.35-18.93-2.07-21.79-4.29a6.2,6.2,0,0,1-2.27-3.66C224.44,331.28,224.11,328.67,225.05,327.79Z"/><path class="cls-14" d="M283.11,319.68l-2.64-19.87s-1.48-.89-1.61-1.89l-.39-3.63a2.08,2.08,0,0,1,1-2.13l-1-9.44a4.25,4.25,0,0,1-1.9-2.06,40.64,40.64,0,0,1-.68-4.49,3.88,3.88,0,0,1,1.26-2.75,8.55,8.55,0,0,1,2.76-7.24l9.32-5.7s2.77-1.43,2.4-4.08-1.19-10.95-1.19-10.95a1.42,1.42,0,0,1,1-1.55c1.22-.56,6.95-1.3,8.24-.9a1.47,1.47,0,0,1,1.14,1.09C300.91,245,302,255,302,255s.09,2.43,3.62,3.12a99.39,99.39,0,0,1,10.61,3.28,8.15,8.15,0,0,1,4.87,6.41,4.63,4.63,0,0,1,2.11,3.6l.33,3a3.2,3.2,0,0,1-1.31,2.33l1,9a3.12,3.12,0,0,1,1.6,2.51c.2,1.87.4,3.59.4,3.59a3,3,0,0,1-.9,2.19l2.22,20.34a5.06,5.06,0,0,1,1.52,3.19c.23,2.11.54,2.7-.36,4.51,0,0-2.89,8.89-20.72,10.83-12.38,1.35-18.94-2.07-21.79-4.29a6.21,6.21,0,0,1-2.27-3.65C282.5,323.17,282.17,320.56,283.11,319.68Z"/></g><ellipse class="cls-7" cx="320.75" cy="293.18" rx="18.62" ry="18.3" transform="translate(-7.14 8.01) rotate(-1.41)"/><path class="cls-6" d="M318.72,301.94h-.05a2.3,2.3,0,0,1-1.86-.94l-7.31-10.1a2.29,2.29,0,1,1,3.71-2.68l5.45,7.53,13-18a2.3,2.3,0,0,1,3.72,2.69L320.52,301A2.27,2.27,0,0,1,318.72,301.94Z"/><path class="cls-6" d="M318.66,302.52a2.86,2.86,0,0,1-2.31-1.19L309,291.24a2.88,2.88,0,0,1,.64-4,2.86,2.86,0,0,1,4,.64l5,6.89,12.59-17.39a2.86,2.86,0,1,1,4.64,3.35L321,301.33a2.9,2.9,0,0,1-2.24,1.19h-.08Zm0-1.15.06.57v-.57a1.74,1.74,0,0,0,1.35-.71l14.9-20.6a1.7,1.7,0,0,0,.31-1.27,1.75,1.75,0,0,0-.69-1.13,1.77,1.77,0,0,0-1.28-.3,1.69,1.69,0,0,0-1.12.69l-13.05,18a.59.59,0,0,1-.93,0l-5.46-7.53a1.72,1.72,0,0,0-2.78,2l7.31,10.09a1.7,1.7,0,0,0,1.39.71Z"/><path class="cls-6" d="M249.56,351.29s38.94-7.47,65.61-6.93l1.6,6.4s-56,2.66-66.68,8Z"/><path class="cls-6" d="M254,368a3.33,3.33,0,0,1-3.29-2.77l-1.13-6.41a.56.56,0,0,1,.46-.66.57.57,0,0,1,.67.46l1.13,6.41a2.19,2.19,0,0,0,2.48,1.8c10-1.44,44.17-6.1,61.89-5.68a2.14,2.14,0,0,0,1.82-.86,2.17,2.17,0,0,0,.38-1.95l-2.14-7.47a.57.57,0,0,1,.4-.7.58.58,0,0,1,.71.39l2.13,7.46a3.33,3.33,0,0,1-.57,3,3.37,3.37,0,0,1-2.67,1.31h-.09c-17.68-.44-51.69,4.24-61.7,5.68Z"/><path class="cls-6" d="M108,347.44,107.81,321l1.31-27.19a1.29,1.29,0,0,0-2.21-1c-4.92,5-13.35,12.67-15.84,18.92C87.83,319.83,84,359.69,84,359.69Z"/><rect class="cls-6" x="70.16" y="342.12" width="10.91" height="26.84" rx="3.09"/><path class="cls-3" d="M80,323.66a26.3,26.3,0,0,1,5.29,1.62A13.63,13.63,0,0,1,89,328l5.71-7.57s-8.39-3.51-10-5.66l-1.58-2.14Z"/><g class="cls-15"><path class="cls-16" d="M84.76,314.79l-1.48-2-.17.11L80,323.66s.6.11,1.47.33l8.18-5.94C87.53,317,85.47,315.75,84.76,314.79Z"/></g><polygon class="cls-10" points="90.48 317.46 84.3 324.65 85.99 329.19 96.66 318.13 90.48 317.46"/><path class="cls-6" d="M86,329.77l-.11,0a.54.54,0,0,1-.42-.36l-1.69-4.55a.54.54,0,0,1,.1-.57l6.18-7.18a.53.53,0,0,1,.49-.2l6.18.67a.55.55,0,0,1,.47.37.56.56,0,0,1-.12.59L86.41,329.59A.6.6,0,0,1,86,329.77Zm-1-5,1.25,3.38,9.22-9.57-4.71-.51Z"/><path class="cls-6" d="M80.84,292c-4.73-3.67-17.05-1.33-19.47,7.35-1.48,5.29-.66,13.36-.66,13.36l14.05-3c.33.53.7,1.09,1.12,1.73,2.27,3.44,7.24,1.13,8.52,0,.71-.61.66-2.39.47-3.87l.56-.12S85.56,295.71,80.84,292Z"/><path class="cls-6" d="M75.55,308.72a44.81,44.81,0,0,0-18.32,1.77c-9.11,3.06-10.58,5.72-4,5.56S75.55,308.72,75.55,308.72Z"/><ellipse class="cls-6" cx="64.29" cy="302.75" rx="1.93" ry="2.65"/><path class="cls-7" d="M64.29,306c-1.38,0-2.51-1.45-2.51-3.22s1.13-3.22,2.51-3.22,2.5,1.44,2.5,3.22S65.67,306,64.29,306Zm0-5.3c-.74,0-1.36.95-1.36,2.08s.62,2.07,1.36,2.07,1.36-.95,1.36-2.07S65,300.67,64.29,300.67Z"/><path class="cls-6" d="M107.81,321s-12.54-3.18-16.4-.25-4.84,7.77-3.6,13.65,4.24,21.32,4.24,21.32l16-8.26Z"/><path class="cls-3" d="M87.91,353.24s-.67,5.93-1.47,6.76-21.63-16.67-22.89-18.27-.39-7.54,0-9.38-.27-2.85-2.28-1.58-1.47,6.56-1.47,6.56-6.16-1.48-7.38-1.65-2.34,1.36-2.11,2.57,1.8,1.31,1.8,1.31a9.27,9.27,0,0,0,.33,5.3c1.07,2.21,2.33,3.61,4.59,4.16a38.46,38.46,0,0,0,7.15.44S74.8,359.6,78,363.39s9.6,8.94,12.84,8.05,6.34-17.11,6.34-17.11Z"/><g class="cls-17"><path class="cls-16" d="M86.44,360l6.09,2a5.4,5.4,0,0,1-3.73,6c-2.69.9-7.52-2.15-11-4.73l.11.12c3.15,3.8,9.6,8.94,12.84,8.05s6.34-17.11,6.34-17.11l-9.22-1.09S87.24,359.17,86.44,360Z"/></g><polygon class="cls-6" points="67.07 344.96 64.15 349.46 65.62 350.87 68.62 346.29 67.07 344.96"/><circle class="cls-7" cx="66.38" cy="348.05" r="1.15"/><path class="cls-6" d="M66.38,349.62A1.58,1.58,0,1,1,68,348.05,1.57,1.57,0,0,1,66.38,349.62Zm0-2.29a.72.72,0,1,0,.72.72A.71.71,0,0,0,66.38,347.33Z"/><path class="cls-3" d="M63.26,314.21s.7,1.73,1.87,4.77,7.45,9.43,10.52,9.79S82.39,318,83,315.69c.19-.76.39-2,.39-2s3.85-1.81,3-4-2.71-3.22-3.56-2.54-1,3.52-2.32,3.56-2-.39-3.11-1.89S64.48,310.46,63.26,314.21Z"/><g class="cls-18"><path class="cls-16" d="M77.34,308.84c-1.13-1.51-12.86,1.62-14.08,5.37,0,0,.25.61.68,1.7A50.79,50.79,0,0,1,78.36,310,7.73,7.73,0,0,1,77.34,308.84Z"/><g class="cls-19"><path class="cls-16" d="M86.18,309.4c-.94-2-2.6-2.87-3.41-2.23a6.78,6.78,0,0,0-1.1,2.29A22.66,22.66,0,0,1,86.18,309.4Z"/></g></g><path class="cls-20" d="M67.43,315.06c.2.7.14,1.34-.14,1.42s-.68-.42-.88-1.12-.14-1.34.14-1.42S67.22,314.36,67.43,315.06Z"/><path class="cls-20" d="M69.11,321.65a.2.2,0,0,1-.13,0,.29.29,0,0,1-.15-.19L67.54,315a2.54,2.54,0,0,0-.91-1.57,1.59,1.59,0,0,0-1.23-.08.27.27,0,0,1-.35-.19.3.3,0,0,1,.2-.36,2.1,2.1,0,0,1,1.67.14,2.84,2.84,0,0,1,1.17,1.94l.3,1.32.93,4.75,1.19-.51a.31.31,0,0,1,.38.16.28.28,0,0,1-.16.37l-1.51.65Z"/><path class="cls-20" d="M71.82,313.77a.32.32,0,0,1-.18-.06.3.3,0,0,1,0-.4,3.6,3.6,0,0,1,3-1.17.29.29,0,1,1,0,.57,3.08,3.08,0,0,0-2.53,1A.31.31,0,0,1,71.82,313.77Z"/><path class="cls-20" d="M70.49,313.24h0a.29.29,0,0,1-.23-.33A3.73,3.73,0,0,1,73.09,310a.29.29,0,0,1,.34.23.3.3,0,0,1-.23.34A3,3,0,0,0,70.78,313,.3.3,0,0,1,70.49,313.24Z"/><path class="cls-20" d="M72,322.65a.29.29,0,0,1-.28-.23.3.3,0,0,1,.23-.34s3.11-.65,3.35-2.79a.27.27,0,0,1,.31-.26.28.28,0,0,1,.25.32c-.28,2.56-3.66,3.27-3.8,3.3Z"/><path class="cls-10" d="M100.14,361.83l-16.77-4.68s1.48-28.63,4.07-33.46c4-7.53,13.27-4.14,15,5.31C104.08,337.89,100.14,361.83,100.14,361.83Z"/><path class="cls-6" d="M100.14,362.4l-.16,0L83.22,357.7a.56.56,0,0,1-.42-.58c.06-1.18,1.51-28.81,4.13-33.7,1.74-3.25,4.53-4.83,7.67-4.34,4.07.64,7.45,4.58,8.41,9.82,1.63,8.89-2.15,32-2.31,33a.55.55,0,0,1-.26.39A.53.53,0,0,1,100.14,362.4ZM84,356.72l15.7,4.38c.61-3.83,3.66-24.1,2.21-32-1-5.49-4.47-8.42-7.45-8.89-2.64-.41-5,1-6.49,3.75C85.62,328.3,84.17,353,84,356.72Z"/><path class="cls-6" d="M98.51,358.17l-.09,0c-5.45-1.82-14.62-3.92-14.71-3.94a.29.29,0,0,1,.12-.56c.1,0,9.29,2.13,14.77,4a.28.28,0,0,1,.18.36A.29.29,0,0,1,98.51,358.17Z"/><path class="cls-10" d="M107.29,322.61a.53.53,0,0,1-.36-.13c-3.38-2.78-8.64-3.22-8.7-3.23a.56.56,0,0,1-.52-.61.58.58,0,0,1,.61-.53c.23,0,5.67.47,9.33,3.49a.57.57,0,0,1-.36,1Z"/><path class="cls-6" d="M194.33,391.9s-24.41,8.62-26.65,11-2,11.5,3.26,15.95,42.81-5.64,69.66-8.59,85.72-7.27,109.74-8.43,35,2,37.09-5.5,1.91-15.51-2.71-17.11S296.73,364.18,194.33,391.9Z"/><path class="cls-7" d="M174.69,419.72a6.76,6.76,0,0,1-1.57-.13c-6.22-1.55-7.42-11.28-7.46-11.69a.28.28,0,0,1,.25-.32.29.29,0,0,1,.32.25c0,.1,1.19,9.75,7,11.21,2.51.62,17.07-1.47,35.51-4.11,25.72-3.7,61-8.75,85.79-9.64,42.26-1.51,79.77-2.66,80.15-2.67a.29.29,0,0,1,.29.27.28.28,0,0,1-.27.3c-.38,0-37.9,1.16-80.15,2.67-24.81.89-60,5.94-85.73,9.63C192.11,417.9,179.42,419.72,174.69,419.72Z"/><path class="cls-7" d="M201.36,413.19a.28.28,0,0,1-.06-.56c26.13-6.38,84.92-16.65,184.88-13.83a.28.28,0,0,1,.27.29.3.3,0,0,1-.29.28c-99.9-2.82-158.62,7.45-184.73,13.81Z"/><path class="cls-7" d="M178.13,419.23a.28.28,0,0,1-.28-.22.28.28,0,0,1,.21-.34c.06,0,6.62-1.61,16.41-4.28a.28.28,0,0,1,.35.2.28.28,0,0,1-.2.35c-9.8,2.67-16.36,4.27-16.43,4.29Z"/><path class="cls-7" d="M183.76,433.13h0a.29.29,0,0,1-.24-.32,65.93,65.93,0,0,0,.34-12.7.29.29,0,1,1,.57-.05,65.78,65.78,0,0,1-.35,12.82A.27.27,0,0,1,183.76,433.13Z"/><path class="cls-6" d="M177.74,249.16l-1.14-.08c.44-5.86,5.8-12.2,6-12.47l.87.74C183.45,237.41,178.15,243.68,177.74,249.16Z"/><path class="cls-6" d="M182.8,388.82C172,320,176,254.37,176,253.71l1.15.07c0,.66-4,66.13,6.76,134.87Z"/><path class="cls-7" d="M177.9,329.31s-8.88,3.09-9,7.09c-.3,10.78.83,33.77,3.18,36s9.64-3.67,9.64-3.67,10.33.89,11.42-1.43-3.15-34.85-3.79-37.7S177.9,329.31,177.9,329.31Z"/><path class="cls-7" d="M363.25,344.78a19.41,19.41,0,0,0,7.39,2c-2.84-10.68-6.06-22.56-9.38-34.42-3-.21-6.83-.21-6.79,1.18C354.52,315.79,360.35,343.14,363.25,344.78Z"/><path class="cls-6" d="M178.54,361.73a.41.41,0,0,1-.42-.35c-1.52-8-1.92-28.49-1.92-28.7a.42.42,0,0,1,.42-.43.41.41,0,0,1,.44.42c0,.2.4,20.66,1.9,28.55a.43.43,0,0,1-.34.5Z"/><path class="cls-6" d="M394.28,340.26h-.1c-58.74-10.35-109.92-2.34-110.43-2.26a.57.57,0,0,1-.66-.47.58.58,0,0,1,.48-.66c.51-.08,51.87-8.12,110.81,2.26a.57.57,0,0,1-.1,1.13Z"/><path class="cls-6" d="M449.54,373.64a.43.43,0,0,1-.19,0c-3.27-1.14-6.74-2.27-10.31-3.33a.57.57,0,1,1,.32-1.1c3.6,1.07,7.08,2.2,10.37,3.35a.58.58,0,0,1-.19,1.12Z"/><path class="cls-6" d="M426.78,366.9l-.14,0c-38.3-9.58-78.8-12.12-79.2-12.14a.57.57,0,0,1-.54-.61.56.56,0,0,1,.61-.54c.4,0,41,2.58,79.41,12.18a.57.57,0,0,1-.14,1.13Z"/><path class="cls-6" d="M224.18,449.08a.57.57,0,0,1-.1-1.14c.47-.08,47.46-8.33,100.89-1.8a.57.57,0,0,1,.5.64.55.55,0,0,1-.64.49c-53.24-6.5-100.08,1.72-100.55,1.8Z"/><path class="cls-6" d="M220,443.68a.56.56,0,0,1-.56-.5.57.57,0,0,1,.49-.64c.24,0,24.09-3,31.81-3.6a.58.58,0,0,1,.61.53.57.57,0,0,1-.53.61c-7.69.59-31.5,3.57-31.74,3.6Z"/><path class="cls-6" d="M390.55,223.19l-.14,0c-3-.73-6.33-1.37-9.93-1.89a.56.56,0,0,1-.48-.64.58.58,0,0,1,.65-.49c3.63.52,7,1.17,10,1.91a.57.57,0,0,1-.13,1.13Z"/><path class="cls-6" d="M373.57,220.45h-.06a277.13,277.13,0,0,0-42.26-.29.58.58,0,0,1-.62-.52.59.59,0,0,1,.53-.62,278.26,278.26,0,0,1,42.46.29.57.57,0,0,1-.05,1.14Z"/><path class="cls-6" d="M146.46,358.87a.57.57,0,0,1-.24-1.09c.34-.16,34.87-16.3,83.92-20.76a.59.59,0,0,1,.62.52.57.57,0,0,1-.52.62c-48.83,4.44-83.19,20.49-83.53,20.65A.57.57,0,0,1,146.46,358.87Z"/><path class="cls-6" d="M204.08,329.16a.57.57,0,0,1-.14-1.13c.2,0,21.12-5.43,52.33-7.22a.55.55,0,0,1,.6.54.57.57,0,0,1-.54.61c-31.08,1.77-51.9,7.13-52.1,7.18Z"/><path class="cls-6" d="M164.8,459.58a.64.64,0,0,1-.2,0c-13.8-5.18-19-15.87-19.21-16.33a.56.56,0,0,1,.27-.76.58.58,0,0,1,.76.27A35.07,35.07,0,0,0,165,458.47a.58.58,0,0,1,.33.74A.56.56,0,0,1,164.8,459.58Z"/><path class="cls-6" d="M156.78,460.15a.46.46,0,0,1-.25-.06c-6.93-3.46-12-11.32-12.25-11.65a.57.57,0,0,1,.17-.79.58.58,0,0,1,.79.17c0,.08,5.15,7.93,11.8,11.25a.58.58,0,0,1,.25.77A.56.56,0,0,1,156.78,460.15Z"/><path class="cls-6" d="M330.83,443a.58.58,0,0,1-.26-.06c-13.83-6.91-17.44-23.13-17.48-23.29a.57.57,0,1,1,1.12-.24c0,.15,3.55,15.84,16.87,22.5a.57.57,0,0,1-.25,1.09Z"/><path class="cls-6" d="M326.24,443.55a.6.6,0,0,1-.22,0,26.89,26.89,0,0,1-11.14-9.38.58.58,0,0,1,1-.62,26.15,26.15,0,0,0,10.62,8.94.57.57,0,0,1,.3.75A.56.56,0,0,1,326.24,443.55Z"/><path class="cls-6" d="M104.29,471c-12.21,0-15.8-5.76-16-6a.58.58,0,0,1,.2-.79.57.57,0,0,1,.78.2c.05.07,3.49,5.45,15,5.45a.57.57,0,0,1,0,1.14Z"/><path class="cls-6" d="M102,475h0a27.91,27.91,0,0,1-15.81-6.45.57.57,0,1,1,.77-.84A27.39,27.39,0,0,0,102,473.86a.57.57,0,0,1,0,1.14Z"/><path class="cls-4" d="M225.84,459.13a485.22,485.22,0,0,0-90.22,13.49l.71,1.07s25.19-5.35,71.76,6.1,49.62,20.61,100.76,20.61,100.76-12.21,100.76-12.21l-6.21-3.44C357.55,465.33,294.61,455.23,225.84,459.13Z"/><path class="cls-21" d="M225.84,459.13a485.22,485.22,0,0,0-90.22,13.49l.71,1.07s25.19-5.35,71.76,6.1,49.62,20.61,100.76,20.61,100.76-12.21,100.76-12.21l-6.21-3.44C357.55,465.33,294.61,455.23,225.84,459.13Z"/><path class="cls-6" d="M226,511.66a.62.62,0,0,1-.32-.09C174.4,477.18,114.5,485.8,113.9,485.89a.57.57,0,0,1-.65-.48.57.57,0,0,1,.48-.65c.6-.09,60.93-8.79,112.62,25.85a.58.58,0,0,1-.32,1.05Z"/><path class="cls-6" d="M216.29,522.54a.59.59,0,0,1-.42-.18c-14.6-15.73-39-23.24-39.24-23.32a.57.57,0,0,1-.39-.71A.58.58,0,0,1,177,498c.24.07,24.93,7.67,39.75,23.63a.56.56,0,0,1,0,.81A.58.58,0,0,1,216.29,522.54Z"/><path class="cls-6" d="M388.62,492.2a.6.6,0,0,1-.29-.08c-31-18.61-65.83-22.22-66.18-22.25a.57.57,0,0,1-.51-.63.58.58,0,0,1,.62-.51c.36,0,35.42,3.66,66.65,22.4a.58.58,0,0,1-.29,1.07Z"/><path class="cls-6" d="M449,512.38a.58.58,0,0,1-.37-.13,143.14,143.14,0,0,0-17.84-12.87.57.57,0,1,1,.6-1,147.34,147.34,0,0,1,18,13,.58.58,0,0,1,.06.81A.57.57,0,0,1,449,512.38Z"/><path class="cls-6" d="M21.43,526.47a.57.57,0,0,1-.38-1c43.57-37.09,120.11-62.1,204.76-66.9,77.33-4.39,149.62,8.59,198.34,35.59a.58.58,0,0,1,.23.78.57.57,0,0,1-.78.22C375.06,468.25,303,455.33,225.87,459.7c-84.4,4.79-160.69,29.7-204.07,66.63A.59.59,0,0,1,21.43,526.47Z"/><path class="cls-6" d="M336,479l-.18,0c-23.7-7.9-59.6-9.69-60-9.7a.58.58,0,0,1,.05-1.15c.36,0,36.43,1.82,60.27,9.76a.58.58,0,0,1,.36.73A.57.57,0,0,1,336,479Z"/><path class="cls-5" d="M65.57,75.75s1.75-24.51,37.63-25.39S129.46,74.87,139.09,81s12.25-3.5,21.88,2.62,5.25,18.38,13.13,20.13,18.38-7.87,28-1.75,9.63,11.38,14,11.38,13.13-3.5,18.38,0,11.38,7.88,11.38,7.88H24.43s-2.63-7.88,7-13.13,14-.87,17.51-5.25S39.31,87.12,65.57,75.75Z"/><path class="cls-5" d="M54.05,157.72s.63-8.88,13.63-9.19,9.51,8.87,13,11.09,4.44-1.26,7.93.95,1.9,6.66,4.75,7.3,6.66-2.86,10.15-.64,3.48,4.12,5.07,4.12,4.75-1.26,6.66,0,4.12,2.86,4.12,2.86H39.15s-.95-2.86,2.54-4.76,5.07-.32,6.34-1.9S44.54,161.84,54.05,157.72Z"/></svg>