<svg width="802" height="798" viewBox="0 0 802 798" fill="none" xmlns="http://www.w3.org/2000/svg">
<path d="M239.934 43.749C239.24 43.749 238.545 43.6804 237.851 43.6118C237.157 43.5431 236.463 43.4745 235.768 43.4745C234.38 43.2 232.991 42.651 231.603 42.1019C230.214 41.5529 229.104 41.0039 227.715 40.1803C226.604 39.3568 225.493 38.5332 224.383 37.4352C223.272 36.3371 222.439 35.2391 221.606 34.141C220.772 33.043 220.217 31.6704 219.662 30.2978C219.106 28.9254 218.551 27.5526 218.273 26.1801C217.995 24.8076 217.718 23.435 217.718 21.7879C217.718 16.0231 219.939 10.5329 224.105 6.41517C229.104 1.47392 236.879 -0.996701 243.822 0.375867C244.516 0.513124 245.21 0.719009 245.904 0.924895C246.599 1.13078 247.293 1.33667 247.987 1.47392C248.681 1.74844 249.306 2.09158 249.931 2.43472C250.556 2.77786 251.181 3.121 251.875 3.39552C252.986 4.21896 254.097 5.04273 255.207 6.14065C259.373 10.2584 261.595 15.7486 261.595 21.5134C261.595 22.886 261.595 24.2585 261.039 25.9056C260.761 27.2782 260.484 28.6508 259.651 30.0233C259.095 31.3959 258.54 32.494 257.707 33.8665C256.874 34.9646 256.041 36.0626 254.93 37.1607C253.819 38.2586 252.708 39.0821 251.598 39.9055C250.487 40.7291 249.098 41.2784 247.709 41.8274C247.015 42.1019 246.321 42.3078 245.627 42.5137C244.932 42.7196 244.238 42.9255 243.544 43.2C242.711 43.749 241.322 43.749 239.934 43.749Z" fill="#0C4EA9"/>
<path d="M248.543 348.184C237.435 353.125 232.714 366.028 237.99 377.008C241.878 384.969 249.654 389.636 257.707 389.636C261.039 389.636 264.094 388.812 267.149 387.44C278.257 382.498 282.978 369.596 277.701 358.616C272.703 347.635 259.651 342.969 248.543 348.184Z" fill="#0C4EA9"/>
<path d="M217.44 314.419C215.219 302.615 222.994 291.36 234.935 289.164C246.877 286.968 258.262 294.654 260.484 306.458C262.706 318.262 254.93 329.517 242.989 331.713C241.6 331.988 240.212 331.988 238.823 331.988C228.826 331.988 219.384 324.851 217.44 314.419Z" fill="#0C4EA9"/>
<path d="M213.275 248.536C212.442 260.614 221.606 270.771 233.825 271.595H235.213C246.877 271.595 256.596 262.811 257.152 251.281C257.985 239.202 248.821 229.045 236.602 228.222C224.383 227.398 214.108 236.457 213.275 248.536Z" fill="#0C4EA9"/>
<path d="M239.934 211.202C228.271 207.633 221.884 195.28 225.771 183.751C229.381 172.221 241.878 166.182 253.541 169.75C265.205 173.319 271.592 185.672 267.704 197.202C264.649 206.261 256.041 212.3 246.877 212.3C244.377 212.026 242.156 211.751 239.934 211.202Z" fill="#0C4EA9"/>
<path d="M253.819 123.907C247.432 134.064 250.487 147.515 260.762 153.829C264.372 156.299 268.537 157.397 272.425 157.123C279.645 157.123 286.866 153.554 291.031 146.966C297.418 136.809 294.364 123.358 284.089 117.044C273.814 110.73 260.206 113.75 253.819 123.907Z" fill="#0C4EA9"/>
<path d="M295.197 103.867C286.866 95.0827 287.143 81.3571 296.03 73.1216C304.916 64.8862 318.801 65.1607 327.132 73.9452C335.463 82.7296 335.186 96.4553 326.299 104.691C322.134 108.534 316.58 110.73 311.303 110.73C305.472 110.455 299.64 108.259 295.197 103.867Z" fill="#0C4EA9"/>
<path d="M349.626 33.8662C339.073 39.9055 335.463 53.0822 341.295 63.5137C345.461 70.651 352.958 74.4942 360.456 74.4942C364.344 74.4942 367.954 73.6707 371.287 71.7491C381.839 65.7098 385.449 52.5331 379.618 42.1016C373.508 31.6701 360.179 28.1014 349.626 33.8662Z" fill="#0C4EA9"/>
<path d="M396.002 35.7878C392.947 24.2582 399.89 12.4541 411.553 9.15998C423.217 6.14033 435.158 13.0032 438.49 24.5327C441.545 36.0623 434.603 48.1409 422.939 51.1606C420.995 51.7096 419.051 51.9841 417.385 51.9841C407.666 51.9841 398.779 45.3958 396.002 35.7878Z" fill="#0C4EA9"/>
<path d="M517.358 23.4347C514.858 35.2388 522.078 46.7683 534.02 49.5135C535.686 49.788 537.352 50.0625 539.018 50.0625C549.015 50.0625 558.18 43.1997 560.401 33.0427C562.9 21.2386 555.68 9.70901 543.739 6.96387C531.798 4.49325 520.135 11.6306 517.358 23.4347Z" fill="#0C4EA9"/>
<path d="M455.986 22.3366C455.986 10.258 465.705 0.375546 477.646 0.375546C489.865 0.375546 499.585 9.98352 499.862 21.7876C499.862 33.8662 490.143 43.4742 478.202 43.7487H477.924C465.983 43.7487 455.986 34.1407 455.986 22.3366Z" fill="#0C4EA9"/>
<path d="M591.502 71.7499C592.891 72.0245 594.279 72.299 595.668 72.299C597.056 72.299 598.723 72.0245 600.111 71.7499C601.5 71.4754 602.888 70.9264 604.277 70.3774C605.665 69.8283 607.054 69.2793 608.164 68.4558C609.275 67.6322 610.386 66.8087 611.497 65.7106C615.662 61.5929 617.884 56.1027 617.884 50.3379C617.884 44.5731 615.662 39.0828 611.497 34.9651C610.386 33.8671 609.275 33.0435 608.164 32.22C606.776 31.3965 605.665 30.8474 604.277 30.2984C602.888 29.4749 601.5 29.2003 600.111 28.9258C597.334 28.3768 594.279 28.3768 591.502 28.9258C590.114 29.2003 588.725 29.7494 587.337 30.2984C585.948 30.8474 584.56 31.3965 583.449 32.22C582.338 33.0435 581.227 33.8671 580.117 34.9651C575.951 39.0828 573.73 44.5731 573.73 50.3379C573.73 56.1027 575.951 61.5929 580.117 65.7106C581.227 66.8087 582.338 67.6322 583.449 68.4558C584.838 69.2793 585.948 69.8283 587.337 70.3774C588.725 71.2009 590.114 71.4754 591.502 71.7499Z" fill="#0C4EA9"/>
<path d="M286.587 440.42C287.975 440.694 289.364 440.969 290.752 440.969C292.141 440.969 293.807 440.694 295.196 440.42C296.584 440.42 297.973 439.871 299.361 439.322C300.75 438.773 302.138 438.224 303.249 437.4C304.36 436.577 305.47 435.753 306.581 434.655C307.692 433.557 308.525 432.459 309.358 431.361C310.191 429.988 310.747 428.89 311.302 427.518C311.858 426.145 312.413 424.773 312.691 423.4C312.968 422.028 313.246 420.655 313.246 419.282C313.246 417.91 312.968 416.537 312.691 415.165C312.413 414.478 312.205 413.792 311.996 413.106C311.788 412.42 311.58 411.733 311.302 411.047C310.747 409.674 310.191 408.302 309.358 407.204C308.525 406.106 307.692 405.008 306.581 403.91C305.471 402.812 304.359 401.988 303.249 401.165C301.86 400.341 300.75 399.792 299.361 399.243C297.973 398.694 296.584 398.145 295.196 397.87C287.975 396.498 280.2 398.968 275.201 403.91C271.035 408.027 268.814 413.518 268.814 419.282C268.814 420.655 269.092 422.028 269.369 423.4C269.647 424.773 269.925 426.145 270.48 427.518C271.035 428.89 271.591 430.263 272.424 431.361C273.257 432.459 274.09 433.557 275.201 434.655C276.312 435.753 277.423 436.577 278.533 437.4C279.922 438.224 281.033 438.773 282.421 439.322C283.81 439.871 285.198 440.145 286.587 440.42Z" fill="#0C4EA9"/>
<path d="M41.2406 590.719C41.9349 590.787 42.6291 590.856 43.3234 590.856C44.7119 590.856 46.1004 590.581 46.9335 590.307C48.322 590.032 49.7105 589.483 51.099 588.934C52.4875 588.385 53.876 587.836 54.9868 587.013C56.0976 586.189 57.2085 585.366 58.3193 584.268C59.4301 583.17 60.2632 582.072 61.0963 580.973C61.9294 579.601 62.4848 578.503 63.0402 577.13C63.8733 575.758 64.151 574.385 64.4287 573.013L64.5494 572.308C64.7815 570.965 64.9841 569.793 64.9841 568.62C64.9841 562.856 62.7625 557.365 58.597 553.248C57.4862 552.15 56.3754 551.326 55.2645 550.502C54.5703 550.228 53.9455 549.885 53.3207 549.542C52.6959 549.199 52.071 548.855 51.3767 548.581C50.6829 548.444 49.9891 548.238 49.2953 548.032C48.601 547.826 47.9055 547.62 47.2112 547.483C40.2687 546.11 32.4931 548.581 27.4944 553.522C23.3289 557.64 21.1073 563.13 21.1073 568.895C21.1073 570.542 21.385 571.914 21.6627 573.287C21.9404 574.66 22.4958 576.032 23.0512 577.405C23.6066 578.777 24.1621 580.15 24.9951 581.248C25.8282 582.346 26.6613 583.444 27.7721 584.542C28.8828 585.64 29.9934 586.463 31.104 587.287C31.7967 587.561 32.4207 587.903 33.0441 588.246C33.6684 588.589 34.2987 588.935 34.9924 589.209C36.3807 589.758 37.7696 590.307 39.1579 590.581C39.8517 590.581 40.5468 590.65 41.2406 590.719Z" fill="#0C4EA9"/>
<path d="M397.666 775.052C397.11 787.131 406.552 797.013 418.771 797.562H419.604C431.268 797.562 440.987 788.503 441.543 776.699C442.098 764.62 432.656 754.738 420.437 754.189C408.218 753.64 398.221 762.973 397.666 775.052Z" fill="#0C4EA9"/>
<path d="M461.259 776.15C460.426 764.071 469.313 753.64 481.254 752.816C493.473 751.718 504.025 760.777 504.858 772.581C505.969 784.66 496.805 795.091 484.864 795.915H483.198C471.812 796.189 462.37 787.68 461.259 776.15Z" fill="#0C4EA9"/>
<path d="M334.628 765.444C332.406 777.523 340.459 788.503 352.401 790.699C353.511 790.974 354.9 791.248 356.011 790.974C366.563 790.974 375.727 783.562 377.671 772.856C379.893 761.052 371.84 749.797 359.898 747.875C347.957 745.679 336.572 753.64 334.628 765.444Z" fill="#0C4EA9"/>
<path d="M524.853 770.111C522.354 758.307 529.852 746.777 541.793 744.306C553.734 741.836 565.397 749.248 567.897 761.052C570.396 772.856 562.898 784.385 550.957 786.856L550.334 786.96C548.934 787.196 547.69 787.405 546.236 787.405C536.239 787.131 527.075 780.268 524.853 770.111Z" fill="#0C4EA9"/>
<path d="M272.978 748.15C269.368 759.405 275.755 771.758 287.418 775.326C289.64 775.875 291.862 776.15 294.083 776.15C303.247 776.15 311.856 770.385 314.911 761.052C318.521 749.797 312.134 737.444 300.47 733.875C289.085 730.306 276.588 736.62 272.978 748.15Z" fill="#0C4EA9"/>
<path d="M587.058 755.287C582.615 744.032 588.169 731.679 599.555 727.287C610.94 722.894 623.715 728.385 627.88 739.64C632.323 750.895 626.769 763.522 615.384 767.64C612.884 768.738 610.107 769.013 607.33 769.013C598.721 769.013 590.39 763.797 587.058 755.287Z" fill="#0C4EA9"/>
<path d="M214.661 722.345C209.662 733.051 214.383 745.953 225.213 751.169C228.268 752.542 231.601 753.091 234.378 753.091C242.709 753.091 250.762 748.699 254.372 740.738C259.371 730.032 254.65 717.13 243.819 711.914C232.989 706.973 219.937 711.365 214.661 722.345Z" fill="#0C4EA9"/>
<path d="M645.931 730.855C639.543 720.698 642.598 707.247 652.873 700.933C663.148 694.619 676.755 697.639 683.143 707.796C689.53 717.953 686.475 731.404 676.2 737.718C672.59 739.914 668.424 741.012 664.537 741.012C657.316 741.012 650.096 737.444 645.931 730.855Z" fill="#0C4EA9"/>
<path d="M160.787 688.855C154.122 699.012 156.899 712.463 167.174 719.051C170.784 721.247 174.95 722.62 179.115 722.62C186.335 722.62 193.278 719.051 197.443 712.737C204.108 702.58 201.331 689.129 191.056 682.541C181.059 675.952 167.452 678.698 160.787 688.855Z" fill="#0C4EA9"/>
<path d="M698.694 695.443C690.085 686.933 690.085 673.207 698.416 664.697C707.025 656.188 720.91 656.188 729.519 664.423C738.127 672.933 738.127 686.659 729.519 695.169C725.353 699.561 719.521 701.482 713.967 701.482C708.691 701.482 703.137 699.561 698.694 695.443Z" fill="#0C4EA9"/>
<path d="M111.356 649.05C103.303 658.109 104.413 671.835 113.578 679.521C117.743 683.09 122.742 684.737 128.018 685.011C134.127 685.011 140.237 682.266 144.68 677.325C152.733 667.992 151.623 654.266 142.458 646.58C133.017 638.893 119.132 639.991 111.356 649.05Z" fill="#0C4EA9"/>
<path d="M742.015 648.776C731.74 642.462 728.408 629.285 734.517 618.854C740.904 608.697 754.234 605.403 764.787 611.442C775.062 617.756 778.394 630.932 772.285 641.364C768.119 648.227 760.899 651.795 753.401 651.795C749.513 652.07 745.625 650.972 742.015 648.776Z" fill="#0C4EA9"/>
<path d="M67.7569 602.383C58.8705 610.344 58.0374 624.069 66.0907 633.128C70.2562 638.07 76.3656 640.54 82.4751 640.266C87.7514 640.266 93.0277 638.344 97.1932 634.775C106.08 626.815 106.913 613.089 98.8594 604.03C90.8061 595.245 76.921 594.422 67.7569 602.383Z" fill="#0C4EA9"/>
<path d="M775.896 593.873C777.285 594.148 778.673 594.422 780.062 594.422C781.45 594.422 782.839 594.422 783.949 593.873C785.338 593.599 786.726 593.324 788.115 592.775C789.503 592.226 790.892 591.677 792.003 590.854C793.114 590.03 794.224 589.206 795.335 588.108C796.446 587.01 797.279 585.912 798.112 584.814C798.945 583.442 799.501 582.344 800.056 580.971C800.612 579.598 801.167 578.226 801.445 576.853C802 575.481 802 574.108 802 572.736C802 566.971 799.778 561.481 795.613 557.363C794.502 556.265 793.391 555.441 792.28 554.618C791.586 554.343 790.961 554 790.337 553.657C789.712 553.314 789.087 552.971 788.393 552.696C787.004 552.147 785.616 551.598 784.227 551.324C781.45 550.774 778.395 550.774 775.618 551.324C774.23 551.598 772.841 552.147 771.453 552.696C770.064 553.245 768.676 553.794 767.565 554.618C766.454 555.441 765.344 556.265 764.233 557.363C760.067 561.481 757.846 566.971 757.846 572.736C757.846 574.108 758.123 575.481 758.401 576.853C758.679 578.226 759.234 579.598 759.789 580.971C760.345 582.343 760.9 583.716 761.733 584.814C762.566 585.912 763.4 587.01 764.51 588.108C765.621 589.206 766.732 590.03 767.842 590.853C768.536 591.127 769.161 591.471 769.785 591.813C770.41 592.157 771.036 592.501 771.731 592.775C772.425 592.912 773.119 593.118 773.813 593.324C774.508 593.53 775.202 593.736 775.896 593.873Z" fill="#0C4EA9"/>
<path d="M329.076 595.247C318.246 589.757 313.803 576.855 319.357 566.149C324.911 555.443 337.963 551.05 348.793 556.541C359.623 562.031 364.067 574.933 358.513 585.639C354.625 593.325 346.849 597.718 338.796 597.718C335.741 597.718 332.409 596.894 329.076 595.247Z" fill="#0C4EA9"/>
<path d="M264.927 528.54C257.707 538.148 259.651 551.874 269.371 559.011C273.258 561.756 277.702 563.129 282.423 563.129C289.365 563.129 296.03 560.109 300.195 554.344C307.416 544.736 305.472 531.011 295.752 523.873C286.033 517.011 272.148 518.932 264.927 528.54Z" fill="#0C4EA9"/>
<path d="M216.607 512.618C208.276 503.834 208.832 490.108 217.718 481.873C226.605 473.637 240.49 474.186 248.821 482.971C257.152 491.755 256.596 505.481 247.71 513.716C243.544 517.56 237.99 519.481 232.714 519.481C226.882 519.481 221.051 517.011 216.607 512.618Z" fill="#0C4EA9"/>
<path d="M180.506 427.245C170.231 433.558 167.177 447.01 173.564 457.167C177.729 463.755 184.672 467.324 192.17 467.324C196.057 467.324 200.223 466.226 203.833 464.029C214.108 457.716 217.163 444.265 210.776 434.107C204.389 423.951 190.781 420.931 180.506 427.245Z" fill="#0C4EA9"/>
<path d="M141.628 394.852C137.185 383.597 142.739 370.969 154.125 366.852C165.51 362.459 178.007 367.95 182.45 379.205C186.893 390.46 181.339 403.087 169.954 407.205C167.454 408.303 164.677 408.578 161.9 408.578C153.291 408.852 144.96 403.636 141.628 394.852Z" fill="#0C4EA9"/>
<path d="M139.684 302.615C127.743 304.812 119.967 316.067 122.189 327.871C124.133 338.302 133.297 345.44 143.572 345.44C144.96 345.44 146.349 345.44 147.737 345.165C159.679 342.969 167.454 331.714 165.233 319.91C163.011 308.106 151.625 300.419 139.684 302.615Z" fill="#0C4EA9"/>
<path d="M137.74 280.105C125.521 280.105 115.802 270.223 116.08 258.144C116.08 246.066 126.077 236.458 138.296 236.732C150.514 236.732 160.234 246.615 159.956 258.693C159.956 270.497 149.959 280.105 137.74 280.105Z" fill="#0C4EA9"/>
<path d="M123.855 188.418C121.356 200.222 128.854 211.751 140.795 214.222C141.558 214.373 142.321 214.441 143.176 214.517C143.877 214.579 144.64 214.648 145.516 214.771C155.513 214.771 164.677 207.634 166.899 197.477C169.398 185.673 161.9 174.143 149.959 171.672C138.018 169.202 126.354 176.614 123.855 188.418Z" fill="#0C4EA9"/>
<path d="M156.346 150.26C145.238 145.594 139.962 132.692 144.683 121.711C149.404 110.73 162.456 105.515 173.564 110.181C184.672 114.848 189.948 127.75 185.227 138.731C181.617 146.966 173.564 151.908 164.955 151.908C162.178 151.908 159.401 151.358 156.346 150.26Z" fill="#0C4EA9"/>
<path d="M178.84 60.22C172.175 70.1025 174.674 83.5536 184.672 90.4165C188.56 92.8871 192.725 94.2597 197.168 93.9851C204.111 93.9851 211.053 90.691 215.219 84.6517C221.884 74.7692 219.384 61.318 209.387 54.4552C199.39 47.8669 185.783 50.3375 178.84 60.22Z" fill="#0C4EA9"/>
<path d="M385.447 616.384C389.612 620.501 395.166 622.697 400.998 622.697C406.552 622.697 412.384 620.227 416.55 616.109C420.715 611.991 422.937 606.501 422.937 600.736C422.937 594.972 420.715 589.481 416.55 585.364C415.439 584.266 414.328 583.442 413.217 582.618C412.523 582.344 411.898 582.001 411.273 581.658C410.648 581.315 410.024 580.971 409.329 580.697C408.635 580.56 407.941 580.354 407.246 580.148C406.552 579.942 405.858 579.736 405.164 579.599C398.221 578.226 390.446 580.697 385.447 585.638C381.281 589.756 379.06 595.246 379.06 601.011C379.06 606.776 381.281 612.266 385.447 616.384Z" fill="#0C4EA9"/>
<path d="M17.7729 299.047C19.1614 299.322 20.5499 299.596 21.9384 299.596C22.9148 299.596 23.8913 299.461 25.1575 299.285C25.6918 299.21 26.2778 299.129 26.937 299.047C28.3255 299.047 29.714 298.498 31.1025 297.949C32.491 297.4 33.8795 296.851 34.9903 296.028C36.1011 295.204 37.212 294.381 38.3228 293.283C42.4883 289.165 44.7099 283.675 44.7099 277.91C44.7099 276.537 44.4322 275.165 44.1545 273.792C43.8768 272.42 43.3214 271.047 42.766 269.675C42.2106 268.302 41.6552 266.929 40.8221 265.831C39.989 264.733 39.1559 263.635 38.0451 262.537C36.9342 261.439 35.8234 260.616 34.7126 259.792C33.3241 258.968 32.2133 258.419 30.8248 257.87C29.4363 257.321 28.0478 257.047 26.6593 256.772C23.8823 256.223 20.8276 256.223 18.0506 256.772C16.6621 257.047 15.2736 257.321 13.8851 257.87C12.4967 258.419 11.1079 258.969 9.99724 259.792C8.88644 260.616 7.77563 261.439 6.66483 262.537C5.55402 263.635 4.72092 264.733 3.88782 265.831C3.47126 266.518 3.19356 267.135 2.91586 267.753C2.63819 268.37 2.36042 268.988 1.94391 269.675C1.1108 271.047 0.833103 272.42 0.555402 273.792C0.277705 275.165 0 276.537 0 277.91C0 283.675 2.22161 289.165 6.38713 293.283C7.49793 294.381 8.60873 295.204 9.71954 296.028C11.108 296.851 12.2188 297.4 13.6074 297.949C14.9959 298.498 16.3844 298.773 17.7729 299.047Z" fill="#0C4EA9"/>
<path d="M446.541 661.954C434.322 662.228 424.88 672.111 425.158 684.189C425.436 695.719 435.433 705.052 447.096 705.601H447.652C459.871 705.052 469.312 695.17 469.035 683.091C468.757 671.013 458.76 661.679 446.541 661.954Z" fill="#0C4EA9"/>
<path d="M379.615 700.935C367.674 699.013 359.343 688.033 361.287 676.228C363.231 664.424 374.339 656.189 386.28 658.111C398.221 660.032 406.552 671.013 404.608 682.817C402.942 693.523 393.5 701.209 382.947 701.209C382.392 701.209 381.837 701.141 381.281 701.072C380.726 701.003 380.17 700.935 379.615 700.935Z" fill="#0C4EA9"/>
<path d="M506.247 654.267C494.306 657.013 486.808 668.542 489.585 680.346C491.806 690.229 500.97 697.091 511.245 697.366C512.634 697.366 514.3 697.091 515.966 696.817C527.907 694.072 535.128 682.542 532.628 670.738C529.851 658.934 518.188 651.522 506.247 654.267Z" fill="#0C4EA9"/>
<path d="M313.244 684.464C301.859 680.621 295.749 668.268 299.637 656.738C303.525 645.483 316.021 639.444 327.685 643.287C339.071 647.13 345.18 659.483 341.292 671.013C338.238 680.072 329.629 685.562 320.465 685.562C318.243 685.562 315.744 685.287 313.244 684.464Z" fill="#0C4EA9"/>
<path d="M563.453 635.875C552.345 640.542 547.346 653.444 552.067 664.424C555.677 672.66 563.731 677.601 572.34 677.601C575.117 677.601 578.171 676.777 580.948 675.679C592.056 671.013 597.055 658.111 592.334 647.13C587.613 636.149 574.561 631.208 563.453 635.875Z" fill="#0C4EA9"/>
<path d="M251.317 657.013C240.764 651.248 236.877 638.071 242.708 627.365C248.54 616.933 261.87 613.09 272.7 618.855C283.253 624.62 287.141 637.797 281.309 648.503C277.421 655.64 269.645 659.758 262.147 659.758C258.26 659.758 254.649 658.934 251.317 657.013Z" fill="#0C4EA9"/>
<path d="M190.778 589.757C183.28 599.365 184.946 612.816 194.666 620.228C198.554 623.247 203.275 624.894 208.273 624.894C214.661 624.894 221.048 621.875 225.491 616.384C232.989 607.051 231.045 593.325 221.603 585.913C212.161 578.502 198.276 580.149 190.778 589.757Z" fill="#0C4EA9"/>
<path d="M144.402 575.482C136.071 566.698 136.349 552.972 144.958 544.736C153.844 536.501 167.729 536.776 176.06 545.285C184.391 553.795 184.113 567.796 175.505 576.031C171.339 580.149 165.785 582.07 160.231 582.07C154.399 582.07 148.568 579.874 144.402 575.482Z" fill="#0C4EA9"/>
<path d="M106.357 493.677C96.3598 500.814 94.1382 514.54 101.358 524.148C105.524 530.187 112.189 533.207 119.131 533.207C123.575 533.207 128.018 531.834 131.906 529.089C141.903 521.952 144.124 508.226 136.904 498.618C129.962 488.736 116.077 486.54 106.357 493.677Z" fill="#0C4EA9"/>
<path d="M65.535 468.147C59.7033 457.716 63.5911 444.539 74.4214 438.774C84.9741 433.009 98.3037 436.853 104.135 447.284C109.967 457.716 106.079 471.167 95.5267 476.657C92.1943 478.579 88.5842 479.402 84.9741 479.402C76.9208 479.402 69.4228 475.284 65.535 468.147Z" fill="#0C4EA9"/>
<path d="M49.1506 380.028C37.7649 384.421 32.4886 397.048 36.9318 408.303C40.2642 416.813 48.5952 421.754 57.204 422.029C59.981 422.029 62.758 421.48 65.535 420.382C76.9208 415.99 82.1971 403.362 77.7539 392.107C73.3106 380.852 60.5364 375.636 49.1506 380.028Z" fill="#0C4EA9"/>
<path d="M15.2711 345.714C11.9387 334.185 18.6035 322.106 30.267 318.812C41.9304 315.518 54.1493 322.106 57.4817 333.636C60.8141 345.165 54.1493 357.244 42.2081 360.538C40.2642 361.087 38.0426 361.361 36.0987 361.361C26.9345 361.636 18.0481 355.322 15.2711 345.714Z" fill="#0C4EA9"/>
<path d="M628.992 646.856C627.603 646.856 626.215 646.856 624.548 646.307C623.16 646.032 621.771 645.758 620.383 644.934C618.994 644.385 617.884 643.836 616.495 643.013C615.384 642.189 614.274 641.366 613.163 640.268C612.052 639.17 611.219 638.071 610.386 636.973C609.553 635.875 608.997 634.503 608.442 633.13C608.164 632.444 607.956 631.759 607.748 631.073C607.54 630.387 607.331 629.698 607.053 629.013C606.776 627.64 606.498 626.267 606.498 624.895C606.498 623.522 606.498 622.15 607.053 620.503C607.331 619.13 607.609 617.757 608.442 616.385C608.858 615.699 609.136 615.081 609.414 614.463C609.691 613.846 609.97 613.227 610.386 612.541C611.219 611.443 612.052 610.345 613.163 609.248C614.274 608.149 615.384 607.326 616.495 606.502C617.606 605.679 618.995 605.13 620.384 604.581C621.772 604.032 623.16 603.483 624.548 603.208C631.769 601.836 639.267 604.032 644.265 609.248C645.376 610.346 646.209 611.444 647.042 612.542C647.875 613.64 648.431 615.012 648.986 616.385C649.264 617.071 649.472 617.758 649.681 618.444C649.889 619.13 650.097 619.816 650.375 620.503C650.652 621.875 650.93 623.248 650.93 624.895C650.93 626.267 650.652 627.64 650.375 629.013C650.097 630.385 649.819 631.758 648.986 633.13C648.57 633.816 648.292 634.434 648.014 635.052C647.737 635.669 647.459 636.287 647.042 636.973C646.209 638.071 645.376 639.17 644.265 640.268C643.155 641.365 642.044 642.189 640.933 643.013C639.822 643.836 638.434 644.385 637.046 644.934C635.657 645.483 634.268 646.032 632.88 646.307C631.769 646.856 630.38 646.856 628.992 646.856Z" fill="#0C4EA9"/>
</svg>
