<svg width="213" height="72" viewBox="0 0 213 72" fill="none" xmlns="http://www.w3.org/2000/svg">
<path fill-rule="evenodd" clip-rule="evenodd" d="M85.8111 16.8303C85.8915 16.8242 85.9718 16.8181 86.046 16.8181C91.4378 16.8181 95.8403 21.1211 95.8403 26.451C95.8403 31.7809 91.4626 36.1083 86.0708 36.1083C80.679 36.1083 76.3013 31.7809 76.3013 26.451C76.3013 26.1087 76.3013 25.742 76.3507 25.3997V11.4148C76.3507 8.30979 79.0219 5.76709 82.3361 5.76709C84.661 5.76709 86.7386 7.01399 87.7526 9.01881C88.7172 10.9258 88.4946 13.0529 87.1838 14.7643L85.5761 16.8425C85.6503 16.8425 85.7307 16.8364 85.8111 16.8303ZM82.3361 9.3611C81.0253 9.3611 79.9617 10.2902 79.9617 11.4393V18.2116L84.3147 12.5884C84.9578 11.7327 84.661 10.9258 84.5126 10.608C84.2158 9.99677 83.4738 9.3611 82.3361 9.3611ZM80.0112 26.4754C80.0112 29.776 82.7318 32.441 86.046 32.441C89.385 32.441 92.0809 29.776 92.0809 26.4754C92.0809 23.1748 89.385 20.5099 86.046 20.5099C82.7071 20.5099 80.0112 23.1993 80.0112 26.4754Z" fill="#2979FF"/>
<path fill-rule="evenodd" clip-rule="evenodd" d="M45.3603 16.8181C39.9685 16.8181 35.5908 21.1456 35.5908 26.4755C35.5908 31.8054 39.9685 36.1329 45.3603 36.1329H55.1298V26.4755C55.1298 21.1456 50.7521 16.8181 45.3603 16.8181ZM51.3952 32.441H45.3603C42.0461 32.441 39.3255 29.7761 39.3255 26.4755C39.3255 23.1993 42.0214 20.5099 45.3603 20.5099C48.6745 20.5099 51.3952 23.1749 51.3952 26.4755V32.441Z" fill="#2979FF"/>
<path fill-rule="evenodd" clip-rule="evenodd" d="M148.373 16.8181C142.981 16.8181 138.604 21.1456 138.604 26.4755C138.604 31.8054 142.981 36.1329 148.373 36.1329C153.765 36.1329 158.143 31.8054 158.143 26.4755C158.143 21.1456 153.765 16.8181 148.373 16.8181ZM148.373 32.441C145.059 32.441 142.338 29.7761 142.338 26.4755C142.338 23.1993 145.034 20.5099 148.373 20.5099C151.687 20.5099 154.408 23.1749 154.408 26.4755C154.408 29.7761 151.687 32.441 148.373 32.441Z" fill="#2979FF"/>
<path fill-rule="evenodd" clip-rule="evenodd" d="M96.6812 26.4755C96.6812 21.1456 101.059 16.8181 106.451 16.8181C111.842 16.8181 116.245 21.1456 116.245 26.4755V36.1329H106.451C101.059 36.1329 96.6812 31.8054 96.6812 26.4755ZM106.451 32.441H112.485V26.4755C112.485 23.1749 109.765 20.5099 106.451 20.5099C103.112 20.5099 100.416 23.1993 100.416 26.4755C100.416 29.7761 103.136 32.441 106.451 32.441Z" fill="#2979FF"/>
<path d="M72.616 17.1115C71.7998 17.1115 71.0825 17.6494 70.8352 18.4318C70.5384 19.4097 69.8706 20.5344 68.7576 21.6101C66.9521 23.346 64.4294 24.3729 61.5109 24.6174V18.6762C61.5109 17.6494 60.67 16.8181 59.6312 16.8181C58.5924 16.8181 57.7515 17.6494 57.7515 18.6762V34.0791C57.7515 35.106 58.5924 35.9373 59.6312 35.9373C60.67 35.9373 61.5109 35.106 61.5109 34.0791V28.3336C63.5142 28.2114 65.4187 27.7713 67.1005 27.0378C69.5243 28.1869 70.3653 31.2675 70.5879 34.1769C70.6621 35.1549 71.4782 35.9128 72.4676 35.9128C73.5558 35.9128 74.4215 35.0082 74.3473 33.9324C74.001 29.2138 72.4428 26.4999 70.6373 24.9352C70.7608 24.8253 70.8905 24.7154 71.0202 24.6055L71.0212 24.6047C71.1508 24.4948 71.2805 24.385 71.404 24.2751C72.8633 22.8815 73.9021 21.2189 74.4462 19.5564C74.7925 18.3584 73.9021 17.1115 72.616 17.1115Z" fill="#2979FF"/>
<path d="M136.971 23.6149V34.0791C136.971 34.5925 136.748 35.0571 136.427 35.3993C136.081 35.7416 135.611 35.9372 135.091 35.9372C134.052 35.9372 133.211 35.106 133.211 34.0791V23.6149C133.211 21.9279 131.826 20.5588 130.095 20.5588H125.198C123.491 20.5588 122.082 21.9279 122.082 23.6149V34.0791C122.082 35.106 121.241 35.9372 120.202 35.9372C119.163 35.9372 118.322 35.106 118.322 34.0791V23.6149C118.322 21.6101 119.188 19.8253 120.573 18.5784C121.785 17.5027 123.393 16.8425 125.173 16.8425H130.07C131.826 16.8425 133.434 17.5027 134.671 18.5784C136.105 19.8253 136.971 21.6101 136.971 23.6149Z" fill="#2979FF"/>
<path d="M212.159 32.9301C212.431 32.6367 213.47 31.4876 212.728 30.2896C212.481 29.8984 212.085 29.605 211.664 29.4828C211.649 29.4777 211.635 29.4726 211.621 29.4677C211.568 29.4492 211.525 29.4339 211.467 29.4339C210.799 29.3116 210.082 29.605 209.661 30.1429L209.608 30.2055C209.508 30.325 209.42 30.4298 209.315 30.5341C208.202 31.7076 206.644 32.4411 204.888 32.4411C201.623 32.4411 198.952 29.874 198.853 26.6711C198.754 23.395 201.524 20.5589 204.838 20.5589C206.025 20.5344 207.114 20.8767 208.053 21.439C208.251 21.5613 208.573 21.7813 208.771 21.9525C208.919 22.0747 209.092 22.1725 209.29 22.197C209.463 22.2214 209.636 22.2459 209.809 22.2214C210.725 22.1481 211.467 21.4635 211.615 20.5833C211.64 20.51 211.64 20.4611 211.64 20.4122C211.689 19.801 211.392 19.2386 210.922 18.8719C210.7 18.6763 210.453 18.5052 210.205 18.3585C208.548 17.3072 206.545 16.7204 204.418 16.8182C199.521 17.0382 195.514 20.9256 195.143 25.7421C194.722 31.3898 199.249 36.1329 204.888 36.1329C207.781 36.1329 210.378 34.9105 212.159 32.9301Z" fill="#2979FF"/>
<path d="M159.132 36.3039C158.86 36.3039 158.588 36.255 158.34 36.1327C157.425 35.6926 157.03 34.5924 157.475 33.6878L164.697 18.7739C164.994 18.1627 165.637 17.747 166.329 17.7226C167.022 17.6981 167.665 18.0649 168.011 18.6761L176.049 33.3455C176.544 34.2257 176.198 35.3503 175.307 35.8393C174.417 36.3283 173.279 35.986 172.784 35.1059L166.453 23.6148L160.789 35.277C160.492 35.9371 159.824 36.3039 159.132 36.3039Z" fill="#2979FF"/>
<path d="M179.116 36.2061C179.314 36.2794 179.512 36.3039 179.709 36.3039C180.278 36.3039 180.822 36.0594 181.193 35.5949L189.479 24.9595V34.4947C189.479 35.4971 190.32 36.3283 191.334 36.3283C192.348 36.3283 193.189 35.4971 193.189 34.4947V19.5807C193.189 18.7984 192.67 18.0894 191.928 17.8449C191.161 17.5759 190.345 17.8449 189.85 18.4561L181.564 29.0914V19.5807C181.564 18.5783 180.724 17.7471 179.709 17.7471C178.695 17.7471 177.854 18.5783 177.854 19.5807V34.4702C177.854 35.2526 178.374 35.9616 179.116 36.2061Z" fill="#2979FF"/>
<path d="M21.3693 4.86273C21.3074 4.86273 21.2456 4.85662 21.1838 4.85051C21.1219 4.8444 21.0601 4.83828 20.9983 4.83828C20.8746 4.81383 20.7509 4.76494 20.6273 4.71604C20.5036 4.66714 20.4047 4.61824 20.281 4.54489C20.1821 4.47155 20.0831 4.39819 19.9842 4.3004C19.8853 4.20261 19.8111 4.10481 19.7369 4.00702C19.6627 3.90922 19.6132 3.78697 19.5638 3.66473C19.5143 3.54249 19.4648 3.42023 19.4401 3.29799C19.4154 3.17575 19.3906 3.0535 19.3906 2.90681C19.3906 2.39338 19.5885 1.9044 19.9595 1.53766C20.4047 1.09758 21.0972 0.877539 21.7155 0.999785C21.7774 1.01201 21.8392 1.03035 21.901 1.04868C21.9629 1.06702 22.0247 1.08536 22.0865 1.09758C22.1483 1.12203 22.204 1.15259 22.2596 1.18315C22.3153 1.21371 22.3709 1.24427 22.4328 1.26872C22.5317 1.34206 22.6307 1.41543 22.7296 1.51321C23.1006 1.87995 23.2984 2.36893 23.2984 2.88236C23.2984 3.00461 23.2984 3.12685 23.249 3.27355C23.2242 3.39579 23.1995 3.51804 23.1253 3.64028C23.0758 3.76253 23.0264 3.86032 22.9522 3.98257C22.878 4.08036 22.8038 4.17816 22.7048 4.27596C22.6059 4.37374 22.507 4.44708 22.4081 4.52042C22.3091 4.59377 22.1854 4.64269 22.0618 4.69159C21.9999 4.71604 21.9381 4.73437 21.8763 4.75271C21.8145 4.77105 21.7526 4.78939 21.6908 4.81383C21.6166 4.86273 21.4929 4.86273 21.3693 4.86273Z" fill="#26C6DA"/>
<path d="M22.136 31.9767C21.1467 32.4168 20.7262 33.5659 21.1961 34.5438C21.5424 35.2529 22.2349 35.6685 22.9522 35.6685C23.249 35.6685 23.521 35.5951 23.7931 35.4729C24.7824 35.0328 25.2029 33.8837 24.733 32.9057C24.2878 31.9278 23.1253 31.5122 22.136 31.9767Z" fill="#26C6DA"/>
<path d="M19.3659 28.9695C19.168 27.9181 19.8606 26.9157 20.9241 26.7201C21.9876 26.5245 23.0017 27.2091 23.1995 28.2604C23.3974 29.3117 22.7049 30.3141 21.6413 30.5097C21.5177 30.5342 21.394 30.5342 21.2703 30.5342C20.38 30.5342 19.539 29.8985 19.3659 28.9695Z" fill="#26C6DA"/>
<path d="M18.9949 23.1017C18.9207 24.1774 19.7369 25.0821 20.8252 25.1554H20.9488C21.9876 25.1554 22.8533 24.373 22.9027 23.3462C22.9769 22.2704 22.1607 21.3658 21.0725 21.2925C19.9842 21.2191 19.0691 22.0259 18.9949 23.1017Z" fill="#26C6DA"/>
<path d="M21.3693 19.7766C20.3305 19.4588 19.7616 18.3586 20.1079 17.3317C20.4294 16.3049 21.5424 15.767 22.5812 16.0848C23.62 16.4026 24.1888 17.5029 23.8426 18.5297C23.5705 19.3365 22.8038 19.8744 21.9876 19.8744C21.765 19.85 21.5671 19.8255 21.3693 19.7766Z" fill="#26C6DA"/>
<path d="M22.6059 12.0018C22.0371 12.9064 22.3091 14.1044 23.2242 14.6668C23.5458 14.8868 23.9168 14.9846 24.263 14.9602C24.9061 14.9602 25.5491 14.6423 25.9201 14.0555C26.489 13.1509 26.2169 11.9529 25.3018 11.3906C24.3867 10.8283 23.1748 11.0972 22.6059 12.0018Z" fill="#26C6DA"/>
<path d="M26.2911 10.217C25.5491 9.43467 25.5739 8.21222 26.3653 7.47875C27.1568 6.74528 28.3934 6.76973 29.1354 7.5521C29.8774 8.33447 29.8527 9.55692 29.0612 10.2904C28.6902 10.6327 28.1956 10.8283 27.7256 10.8283C27.2063 10.8038 26.6869 10.6082 26.2911 10.217Z" fill="#26C6DA"/>
<path d="M31.1388 3.98254C30.1989 4.52042 29.8774 5.69397 30.3968 6.62303C30.7678 7.25871 31.4356 7.601 32.1034 7.601C32.4496 7.601 32.7712 7.52765 33.068 7.35651C34.0078 6.81863 34.3293 5.64507 33.8099 4.71601C33.2658 3.78695 32.0786 3.46911 31.1388 3.98254Z" fill="#26C6DA"/>
<path d="M35.2692 4.15368C34.9971 3.12682 35.6154 2.07551 36.6542 1.78213C37.693 1.51319 38.7565 2.12441 39.0533 3.15127C39.3254 4.17813 38.7071 5.25389 37.6683 5.52283C37.4952 5.57173 37.322 5.59617 37.1736 5.59617C36.308 5.59617 35.5165 5.0094 35.2692 4.15368Z" fill="#26C6DA"/>
<path d="M46.0775 3.05347C45.8549 4.10478 46.4979 5.13164 47.5615 5.37613C47.7099 5.40058 47.8582 5.42503 48.0066 5.42503C48.897 5.42503 49.7132 4.81381 49.9111 3.90919C50.1337 2.85788 49.4906 1.83102 48.4271 1.58653C47.3636 1.36649 46.3248 2.00217 46.0775 3.05347Z" fill="#26C6DA"/>
<path d="M40.6115 2.95568C40.6115 1.87992 41.4772 0.999756 42.5407 0.999756C43.6289 0.999756 44.4946 1.85547 44.5193 2.90678C44.5193 3.98254 43.6536 4.83825 42.5901 4.8627H42.5654C41.5019 4.8627 40.6115 4.00699 40.6115 2.95568Z" fill="#26C6DA"/>
<path d="M52.681 7.35658C52.8047 7.38103 52.9284 7.40548 53.052 7.40548C53.1757 7.40548 53.3241 7.38103 53.4478 7.35658C53.5714 7.33213 53.6951 7.28324 53.8188 7.23434C53.9424 7.18544 54.0661 7.13654 54.165 7.06319C54.264 6.98985 54.3629 6.9165 54.4618 6.8187C54.8328 6.45197 55.0307 5.96299 55.0307 5.44956C55.0307 4.93613 54.8328 4.44715 54.4618 4.08041C54.3629 3.98262 54.264 3.90927 54.165 3.83592C54.0414 3.76257 53.9424 3.71368 53.8188 3.66478C53.6951 3.59143 53.5714 3.56698 53.4478 3.54253C53.2004 3.49363 52.9284 3.49363 52.681 3.54253C52.5574 3.56698 52.4337 3.61588 52.3101 3.66478C52.1864 3.71368 52.0627 3.76257 51.9638 3.83592C51.8649 3.90927 51.7659 3.98262 51.667 4.08041C51.296 4.44715 51.0981 4.93613 51.0981 5.44956C51.0981 5.96299 51.296 6.45197 51.667 6.8187C51.7659 6.9165 51.8649 6.98985 51.9638 7.06319C52.0875 7.13654 52.1864 7.18544 52.3101 7.23434C52.4337 7.30768 52.5574 7.33213 52.681 7.35658Z" fill="#26C6DA"/>
<path d="M25.5243 40.1915C25.648 40.2159 25.7716 40.2404 25.8953 40.2404C26.019 40.2404 26.1674 40.2159 26.291 40.1915C26.4147 40.1915 26.5384 40.1426 26.662 40.0937C26.7857 40.0448 26.9094 39.9959 27.0083 39.9225C27.1072 39.8492 27.2062 39.7758 27.3051 39.6781C27.404 39.5803 27.4782 39.4825 27.5524 39.3847C27.6266 39.2624 27.6761 39.1646 27.7255 39.0424C27.775 38.9201 27.8245 38.7979 27.8492 38.6756C27.8739 38.5534 27.8987 38.4312 27.8987 38.3089C27.8987 38.1867 27.8739 38.0644 27.8492 37.9422C27.8245 37.881 27.8059 37.8199 27.7874 37.7588C27.7688 37.6977 27.7503 37.6366 27.7255 37.5754C27.6761 37.4532 27.6266 37.3309 27.5524 37.2332C27.4782 37.1354 27.404 37.0376 27.3051 36.9398C27.2062 36.842 27.1072 36.7686 27.0083 36.6953C26.8846 36.6219 26.7857 36.573 26.662 36.5241C26.5384 36.4752 26.4147 36.4263 26.291 36.4019C25.648 36.2796 24.9555 36.4997 24.5103 36.9398C24.1393 37.3065 23.9414 37.7955 23.9414 38.3089C23.9414 38.4312 23.9661 38.5534 23.9909 38.6756C24.0156 38.7979 24.0403 38.9201 24.0898 39.0424C24.1393 39.1646 24.1887 39.2869 24.2629 39.3847C24.3371 39.4825 24.4113 39.5803 24.5103 39.6781C24.6092 39.7758 24.7081 39.8492 24.8071 39.9225C24.9307 39.9959 25.0297 40.0448 25.1533 40.0937C25.277 40.1426 25.4007 40.167 25.5243 40.1915Z" fill="#26C6DA"/>
<path d="M3.67302 53.5776C3.73485 53.5837 3.79669 53.5898 3.85852 53.5898C3.98218 53.5898 4.10585 53.5653 4.18005 53.5409C4.30371 53.5164 4.42737 53.4675 4.55104 53.4186C4.6747 53.3697 4.79837 53.3208 4.8973 53.2475C4.99623 53.1741 5.09516 53.1008 5.1941 53.003C5.29303 52.9052 5.36723 52.8074 5.44142 52.7096C5.51562 52.5874 5.56509 52.4896 5.61456 52.3673C5.68875 52.2451 5.71349 52.1228 5.73822 52.0006L5.74897 51.9379C5.76964 51.8182 5.78769 51.7138 5.78769 51.6094C5.78769 51.096 5.58982 50.607 5.21883 50.2403C5.1199 50.1425 5.02097 50.0691 4.92203 49.9958C4.8602 49.9713 4.80456 49.9408 4.74891 49.9102C4.69326 49.8796 4.63761 49.8491 4.57577 49.8246C4.51398 49.8124 4.45219 49.7941 4.39039 49.7758C4.32856 49.7574 4.26661 49.7391 4.20478 49.7268C3.58646 49.6046 2.89393 49.8246 2.44874 50.2647C2.07775 50.6315 1.87988 51.1204 1.87988 51.6339C1.87988 51.7806 1.90462 51.9028 1.92935 52.025C1.95408 52.1473 2.00355 52.2695 2.05301 52.3918C2.10248 52.514 2.15195 52.6363 2.22614 52.7341C2.30034 52.8319 2.37454 52.9297 2.47347 53.0275C2.57239 53.1252 2.67131 53.1986 2.77022 53.2719C2.83191 53.2963 2.88749 53.3268 2.94301 53.3573C2.99861 53.3879 3.05475 53.4187 3.11653 53.4431C3.24017 53.492 3.36388 53.5409 3.48752 53.5653C3.54932 53.5653 3.61123 53.5715 3.67302 53.5776Z" fill="#26C6DA"/>
<path d="M35.4174 69.9949C35.3679 71.0706 36.2088 71.9508 37.2971 71.9997H37.3713C38.41 71.9997 39.2757 71.1928 39.3252 70.1415C39.3746 69.0658 38.5337 68.1856 37.4455 68.1367C36.3572 68.0878 35.4668 68.9191 35.4174 69.9949Z" fill="#26C6DA"/>
<path d="M41.0812 70.0927C41.007 69.0169 41.7985 68.0878 42.862 68.0145C43.9502 67.9167 44.8901 68.7235 44.9643 69.7748C45.0632 70.8506 44.247 71.7796 43.1835 71.853H43.0351C42.0211 71.8774 41.1801 71.1195 41.0812 70.0927Z" fill="#26C6DA"/>
<path d="M29.803 69.1391C29.6051 70.2149 30.3224 71.1929 31.3859 71.3884C31.4848 71.4129 31.6085 71.4373 31.7074 71.4129C32.6473 71.4129 33.4635 70.7528 33.6366 69.7993C33.8345 68.7479 33.1172 67.7455 32.0537 67.5744C30.9902 67.3788 29.9761 68.0878 29.803 69.1391Z" fill="#26C6DA"/>
<path d="M46.745 69.5548C46.5224 68.5035 47.1902 67.4766 48.2538 67.2566C49.3173 67.0365 50.3561 67.6966 50.5786 68.7479C50.8012 69.7993 50.1335 70.8261 49.0699 71.0462L49.0145 71.0554C48.8898 71.0764 48.779 71.0951 48.6495 71.0951C47.7591 71.0706 46.9429 70.4594 46.745 69.5548Z" fill="#26C6DA"/>
<path d="M24.3123 67.5988C23.9907 68.6013 24.5596 69.7015 25.5984 70.0193C25.7963 70.0682 25.9941 70.0927 26.192 70.0927C27.0082 70.0927 27.7749 69.5792 28.0469 68.7479C28.3685 67.7455 27.7996 66.6453 26.7608 66.3275C25.7468 66.0097 24.6338 66.572 24.3123 67.5988Z" fill="#26C6DA"/>
<path d="M52.2852 68.2345C51.8895 67.2321 52.3842 66.1319 53.3982 65.7407C54.4123 65.3495 55.55 65.8385 55.921 66.8409C56.3167 67.8433 55.822 68.968 54.808 69.3347C54.5854 69.4325 54.3381 69.457 54.0907 69.457C53.324 69.457 52.582 68.9924 52.2852 68.2345Z" fill="#26C6DA"/>
<path d="M19.1184 65.3006C18.6732 66.2542 19.0936 67.4033 20.0582 67.8678C20.3303 67.99 20.6271 68.0389 20.8744 68.0389C21.6164 68.0389 22.3336 67.6477 22.6552 66.9387C23.1004 65.9852 22.6799 64.8361 21.7153 64.3716C20.7507 63.9315 19.5883 64.3227 19.1184 65.3006Z" fill="#26C6DA"/>
<path d="M57.5286 66.0586C56.9597 65.1539 57.2318 63.9559 58.1469 63.3936C59.062 62.8313 60.274 63.1002 60.8428 64.0048C61.4117 64.9095 61.1396 66.1075 60.2245 66.6698C59.903 66.8654 59.532 66.9632 59.1857 66.9632C58.5427 66.9632 57.8996 66.6453 57.5286 66.0586Z" fill="#26C6DA"/>
<path d="M14.3202 62.3179C13.7266 63.2225 13.9739 64.4205 14.889 65.0072C15.2106 65.2028 15.5816 65.3251 15.9525 65.3251C16.5956 65.3251 17.2139 65.0072 17.5849 64.4449C18.1785 63.5403 17.9312 62.3423 17.0161 61.7555C16.1257 61.1687 14.9138 61.4132 14.3202 62.3179Z" fill="#26C6DA"/>
<path d="M62.2279 62.9046C61.4611 62.1467 61.4611 60.9243 62.2031 60.1663C62.9698 59.4084 64.2065 59.4084 64.9732 60.1419C65.7399 60.8998 65.7399 62.1223 64.9732 62.8802C64.6022 63.2714 64.0828 63.4425 63.5882 63.4425C63.1182 63.4425 62.6236 63.2714 62.2279 62.9046Z" fill="#26C6DA"/>
<path d="M9.91771 58.7727C9.20046 59.5796 9.29939 60.802 10.1156 61.4866C10.4866 61.8044 10.9318 61.9511 11.4017 61.9756C11.9458 61.9756 12.4899 61.7311 12.8857 61.291C13.6029 60.4597 13.504 59.2373 12.6878 58.5527C11.8469 57.8681 10.6102 57.9659 9.91771 58.7727Z" fill="#26C6DA"/>
<path d="M66.0862 58.7483C65.1711 58.186 64.8743 57.0124 65.4184 56.0833C65.9873 55.1787 67.1744 54.8853 68.1143 55.4232C69.0294 55.9856 69.3262 57.1591 68.7821 58.0882C68.4111 58.6994 67.768 59.0172 67.1002 59.0172C66.754 59.0417 66.4077 58.9439 66.0862 58.7483Z" fill="#26C6DA"/>
<path d="M6.03464 54.6164C5.24319 55.3254 5.16899 56.5479 5.88624 57.3547C6.25724 57.7948 6.80136 58.0148 7.34549 57.9904C7.81541 57.9904 8.28534 57.8192 8.65633 57.5014C9.44779 56.7924 9.52198 55.5699 8.80473 54.7631C8.08747 53.9807 6.85083 53.9074 6.03464 54.6164Z" fill="#26C6DA"/>
<path d="M69.1037 53.8585C69.2274 53.8829 69.3511 53.9074 69.4747 53.9074C69.5984 53.9074 69.7221 53.9074 69.821 53.8585C69.9446 53.8341 70.0683 53.8096 70.192 53.7607C70.3156 53.7118 70.4393 53.6629 70.5382 53.5896C70.6372 53.5162 70.7361 53.4429 70.835 53.3451C70.934 53.2473 71.0082 53.1495 71.0824 53.0517C71.1566 52.9294 71.206 52.8316 71.2555 52.7094C71.305 52.5872 71.3544 52.4649 71.3792 52.3427C71.4286 52.2204 71.4286 52.0982 71.4286 51.9759C71.4286 51.4625 71.2308 50.9735 70.8598 50.6068C70.7608 50.509 70.6619 50.4356 70.563 50.3623C70.5011 50.3378 70.4455 50.3073 70.3898 50.2767C70.3342 50.2462 70.2785 50.2156 70.2167 50.1911C70.093 50.1422 69.9694 50.0933 69.8457 50.0689C69.5984 50.02 69.3263 50.02 69.079 50.0689C68.9553 50.0933 68.8317 50.1422 68.708 50.1911C68.5843 50.24 68.4607 50.2889 68.3617 50.3623C68.2628 50.4356 68.1639 50.509 68.065 50.6068C67.694 50.9735 67.4961 51.4625 67.4961 51.9759C67.4961 52.0982 67.5208 52.2204 67.5456 52.3427C67.5703 52.4649 67.6198 52.5872 67.6692 52.7094C67.7187 52.8316 67.7682 52.9539 67.8424 53.0517C67.9165 53.1495 67.9908 53.2473 68.0897 53.3451C68.1886 53.4428 68.2875 53.5162 68.3864 53.5895C68.4482 53.6139 68.5039 53.6445 68.5595 53.6751C68.6151 53.7056 68.6709 53.7363 68.7327 53.7607C68.7946 53.7729 68.8564 53.7913 68.9182 53.8096C68.9801 53.8279 69.0419 53.8463 69.1037 53.8585Z" fill="#26C6DA"/>
<path d="M29.3086 53.9809C28.344 53.4919 27.9483 52.3428 28.4429 51.3893C28.9376 50.4358 30.1 50.0446 31.0646 50.5336C32.0292 51.0225 32.4249 52.1716 31.9303 53.1251C31.584 53.8097 30.8915 54.2009 30.1742 54.2009C29.9022 54.2009 29.6054 54.1276 29.3086 53.9809Z" fill="#26C6DA"/>
<path d="M23.5953 48.0397C22.9522 48.8955 23.1253 50.1179 23.991 50.7536C24.3372 50.9981 24.733 51.1203 25.1534 51.1203C25.7718 51.1203 26.3653 50.8514 26.7363 50.338C27.3794 49.4822 27.2063 48.2598 26.3406 47.6241C25.475 47.0129 24.2383 47.184 23.5953 48.0397Z" fill="#26C6DA"/>
<path d="M19.2917 46.6217C18.5497 45.8393 18.5992 44.6169 19.3907 43.8834C20.1821 43.1499 21.4188 43.1988 22.1607 43.9812C22.9027 44.7636 22.8533 45.986 22.0618 46.7195C21.6908 47.0618 21.1962 47.2329 20.7262 47.2329C20.2068 47.2329 19.6875 47.0129 19.2917 46.6217Z" fill="#26C6DA"/>
<path d="M16.0764 39.0181C15.1613 39.5804 14.8893 40.7784 15.4581 41.683C15.8291 42.2698 16.4474 42.5876 17.1152 42.5876C17.4615 42.5876 17.8325 42.4898 18.154 42.2942C19.0691 41.7319 19.3412 40.5339 18.7723 39.6293C18.2035 38.7247 16.9916 38.4557 16.0764 39.0181Z" fill="#26C6DA"/>
<path d="M12.6138 36.1331C12.2181 35.1307 12.7128 34.006 13.7268 33.6393C14.7409 33.2481 15.8539 33.7371 16.2496 34.7395C16.6453 35.7419 16.1506 36.8665 15.1366 37.2333C14.914 37.3311 14.6667 37.3555 14.4193 37.3555C13.6526 37.38 12.9106 36.9154 12.6138 36.1331Z" fill="#26C6DA"/>
<path d="M12.4407 27.9182C11.3772 28.1138 10.6847 29.1162 10.8825 30.1675C11.0557 31.0966 11.8719 31.7322 12.787 31.7322C12.9106 31.7322 13.0343 31.7322 13.158 31.7078C14.2215 31.5122 14.914 30.5098 14.7161 29.4585C14.5183 28.4072 13.5042 27.7226 12.4407 27.9182Z" fill="#26C6DA"/>
<path d="M12.2676 25.9134C11.1793 25.9134 10.3137 25.0332 10.3384 23.9574C10.3384 22.8817 11.2288 22.026 12.317 22.0504C13.4053 22.0504 14.2709 22.9306 14.2462 24.0063C14.2462 25.0576 13.3558 25.9134 12.2676 25.9134Z" fill="#26C6DA"/>
<path d="M11.0309 17.7474C10.8083 18.7987 11.4761 19.8256 12.5396 20.0456C12.6076 20.059 12.6755 20.0651 12.7517 20.0719C12.8141 20.0774 12.8821 20.0835 12.9601 20.0945C13.8505 20.0945 14.6667 19.4588 14.8645 18.5542C15.0871 17.5029 14.4193 16.476 13.3558 16.256C12.2923 16.036 11.2535 16.6961 11.0309 17.7474Z" fill="#26C6DA"/>
<path d="M13.9247 14.349C12.9354 13.9333 12.4654 12.7842 12.8859 11.8063C13.3064 10.8283 14.4688 10.3638 15.4581 10.7794C16.4474 11.195 16.9174 12.3442 16.4969 13.3221C16.1754 14.0556 15.4581 14.4957 14.6914 14.4957C14.4441 14.4957 14.1967 14.4468 13.9247 14.349Z" fill="#26C6DA"/>
<path d="M15.9281 6.32969C15.3345 7.20985 15.5571 8.40786 16.4474 9.01908C16.7937 9.23912 17.1647 9.36137 17.5604 9.33692C18.1787 9.33692 18.7971 9.04353 19.1681 8.50565C19.7617 7.62549 19.5391 6.42748 18.6487 5.81626C17.7583 5.22948 16.5464 5.44952 15.9281 6.32969Z" fill="#26C6DA"/>
<path d="M34.3291 55.8634C34.7001 56.2301 35.1948 56.4257 35.7142 56.4257C36.2088 56.4257 36.7282 56.2056 37.0992 55.8389C37.4702 55.4722 37.6681 54.9832 37.6681 54.4698C37.6681 53.9563 37.4702 53.4674 37.0992 53.1006C37.0003 53.0028 36.9013 52.9295 36.8024 52.8561C36.7406 52.8317 36.6849 52.8011 36.6293 52.7706C36.5736 52.74 36.518 52.7094 36.4561 52.685C36.3943 52.6728 36.3325 52.6544 36.2706 52.6361C36.2088 52.6177 36.147 52.5994 36.0851 52.5872C35.4668 52.4649 34.7743 52.685 34.3291 53.1251C33.9581 53.4918 33.7603 53.9808 33.7603 54.4942C33.7603 55.0076 33.9581 55.4966 34.3291 55.8634Z" fill="#26C6DA"/>
<path d="M1.58291 27.6004C1.70657 27.6249 1.83024 27.6493 1.9539 27.6493C2.04087 27.6493 2.12783 27.6372 2.24061 27.6215C2.28819 27.6149 2.34039 27.6077 2.39909 27.6004C2.52276 27.6004 2.64642 27.5515 2.77009 27.5026C2.89375 27.4537 3.01742 27.4048 3.11635 27.3315C3.21528 27.2581 3.31421 27.1848 3.41314 27.087C3.78414 26.7202 3.982 26.2313 3.982 25.7178C3.982 25.5956 3.95727 25.4733 3.93254 25.3511C3.9078 25.2289 3.85834 25.1066 3.80887 24.9844C3.75941 24.8621 3.70994 24.7399 3.63574 24.6421C3.56154 24.5443 3.48734 24.4465 3.38841 24.3487C3.28948 24.2509 3.19055 24.1775 3.09162 24.1042C2.96795 24.0308 2.86902 23.982 2.74536 23.9331C2.62169 23.8842 2.49803 23.8597 2.37436 23.8353C2.12703 23.7864 1.85497 23.7864 1.60764 23.8353C1.48398 23.8597 1.36031 23.8842 1.23665 23.9331C1.113 23.9819 0.989306 24.0309 0.890386 24.1042C0.791454 24.1775 0.692522 24.2509 0.59359 24.3487C0.494659 24.4465 0.42046 24.5443 0.346261 24.6421C0.309162 24.7032 0.284429 24.7582 0.259696 24.8132C0.234965 24.8682 0.210227 24.9232 0.173131 24.9844C0.0989317 25.1066 0.0741988 25.2289 0.0494659 25.3511C0.0247333 25.4733 0 25.5956 0 25.7178C0 26.2313 0.197863 26.7202 0.568857 27.087C0.667789 27.1848 0.766721 27.2581 0.865653 27.3315C0.989317 27.4048 1.08825 27.4537 1.21191 27.5026C1.33558 27.5515 1.45924 27.576 1.58291 27.6004Z" fill="#26C6DA"/>
<path d="M39.7703 59.922C38.6821 59.9464 37.8412 60.8266 37.8659 61.9023C37.8906 62.9292 38.781 63.7605 39.8198 63.8094H39.8693C40.9575 63.7605 41.7984 62.8803 41.7737 61.8046C41.749 60.7288 40.8586 59.8975 39.7703 59.922Z" fill="#26C6DA"/>
<path d="M33.8097 63.3937C32.7462 63.2226 32.0042 62.2446 32.1773 61.1933C32.3505 60.142 33.3398 59.4085 34.4033 59.5797C35.4668 59.7508 36.2088 60.7288 36.0357 61.7801C35.8873 62.7336 35.0463 63.4182 34.1065 63.4182C34.057 63.4182 34.0076 63.4121 33.9581 63.406C33.9086 63.3998 33.8592 63.3937 33.8097 63.3937Z" fill="#26C6DA"/>
<path d="M45.0879 59.2374C44.0244 59.4819 43.3566 60.5088 43.6039 61.5601C43.8018 62.4402 44.618 63.0514 45.5331 63.0759C45.6568 63.0759 45.8052 63.0514 45.9536 63.027C47.0171 62.7825 47.6601 61.7556 47.4375 60.7043C47.1902 59.653 46.1514 58.9929 45.0879 59.2374Z" fill="#26C6DA"/>
<path d="M27.8985 61.9268C26.8845 61.5845 26.3404 60.4843 26.6866 59.4574C27.0329 58.455 28.1459 57.9172 29.1846 58.2594C30.1987 58.6017 30.7428 59.7019 30.3966 60.7288C30.1245 61.5356 29.3578 62.0246 28.5416 62.0246C28.3437 62.0246 28.1211 62.0001 27.8985 61.9268Z" fill="#26C6DA"/>
<path d="M50.1829 57.5993C49.1936 58.0149 48.7484 59.1641 49.1688 60.142C49.4904 60.8755 50.2076 61.3156 50.9744 61.3156C51.2217 61.3156 51.4937 61.2422 51.7411 61.1444C52.7304 60.7288 53.1756 59.5797 52.7551 58.6017C52.3347 57.6238 51.1722 57.1837 50.1829 57.5993Z" fill="#26C6DA"/>
<path d="M22.3831 59.4819C21.4432 58.9685 21.097 57.7949 21.6164 56.8414C22.1358 55.9123 23.3229 55.57 24.2875 56.0835C25.2274 56.5969 25.5736 57.7705 25.0542 58.724C24.708 59.3596 24.0155 59.7264 23.3477 59.7264C23.0014 59.7264 22.6799 59.653 22.3831 59.4819Z" fill="#26C6DA"/>
<path d="M16.9913 53.4919C16.3235 54.3476 16.4719 55.5456 17.3376 56.2057C17.6838 56.4747 18.1043 56.6214 18.5495 56.6214C19.1183 56.6214 19.6872 56.3524 20.0829 55.8634C20.7507 55.0322 20.5776 53.8097 19.7367 53.1496C18.8957 52.4895 17.6591 52.6362 16.9913 53.4919Z" fill="#26C6DA"/>
<path d="M12.8609 52.2205C12.1189 51.4382 12.1437 50.2157 12.9104 49.4822C13.7018 48.7488 14.9385 48.7732 15.6805 49.5311C16.4224 50.2891 16.3977 51.536 15.631 52.2694C15.26 52.6362 14.7653 52.8073 14.2707 52.8073C13.7513 52.8073 13.2319 52.6117 12.8609 52.2205Z" fill="#26C6DA"/>
<path d="M9.47249 44.9347C8.58211 45.5704 8.38424 46.7928 9.0273 47.6486C9.39829 48.1864 9.99189 48.4554 10.6102 48.4554C11.0059 48.4554 11.4017 48.3331 11.7479 48.0886C12.6383 47.453 12.8362 46.2305 12.1931 45.3748C11.5748 44.4946 10.3381 44.299 9.47249 44.9347Z" fill="#26C6DA"/>
<path d="M5.83675 42.661C5.31736 41.7319 5.66362 40.5583 6.62821 40.0449C7.56806 39.5315 8.75524 39.8738 9.27463 40.8028C9.79402 41.7319 9.44776 42.9299 8.50791 43.4189C8.21111 43.59 7.88959 43.6634 7.56806 43.6634C6.8508 43.6634 6.18301 43.2966 5.83675 42.661Z" fill="#26C6DA"/>
<path d="M4.37751 34.8128C3.36346 35.204 2.89353 36.3287 3.28926 37.3311C3.58606 38.089 4.32804 38.5291 5.09476 38.5535C5.34209 38.5535 5.58942 38.5046 5.83675 38.4068C6.8508 38.0156 7.32073 36.891 6.925 35.8886C6.52927 34.8862 5.39156 34.4216 4.37751 34.8128Z" fill="#26C6DA"/>
<path d="M1.36009 31.7567C1.0633 30.7298 1.65689 29.6541 2.69567 29.3607C3.73445 29.0673 4.8227 29.6541 5.1195 30.6809C5.41629 31.7078 4.8227 32.7835 3.75919 33.0769C3.58606 33.1258 3.38819 33.1503 3.21506 33.1503C2.39887 33.1747 1.60742 32.6124 1.36009 31.7567Z" fill="#26C6DA"/>
<path d="M56.02 58.5773C55.8963 58.5773 55.7726 58.5773 55.6242 58.5284C55.5006 58.504 55.3769 58.4795 55.2532 58.4062C55.1296 58.3573 55.0307 58.3084 54.907 58.235C54.8081 58.1617 54.7091 58.0883 54.6102 57.9905C54.5113 57.8928 54.4371 57.7949 54.3629 57.6971C54.2887 57.5993 54.2392 57.4771 54.1897 57.3549C54.165 57.2938 54.1465 57.2327 54.1279 57.1716C54.1094 57.1106 54.0908 57.0492 54.0661 56.9881C54.0413 56.8659 54.0166 56.7436 54.0166 56.6214C54.0166 56.4991 54.0166 56.3769 54.0661 56.2302C54.0908 56.108 54.1155 55.9857 54.1897 55.8635C54.2268 55.8023 54.2516 55.7473 54.2763 55.6923C54.301 55.6373 54.3258 55.5823 54.3629 55.5211C54.4371 55.4234 54.5113 55.3256 54.6102 55.2278C54.7091 55.13 54.8081 55.0567 54.907 54.9833C55.0059 54.91 55.1296 54.861 55.2533 54.8121C55.3769 54.7632 55.5006 54.7144 55.6242 54.6899C56.2673 54.5677 56.9351 54.7633 57.3803 55.2278C57.4792 55.3256 57.5534 55.4234 57.6276 55.5212C57.7018 55.619 57.7513 55.7412 57.8007 55.8635C57.8255 55.9246 57.844 55.9857 57.8626 56.0469C57.8811 56.108 57.8997 56.1691 57.9244 56.2302C57.9491 56.3524 57.9739 56.4747 57.9739 56.6214C57.9739 56.7436 57.9491 56.8659 57.9244 56.9881C57.8997 57.1104 57.8749 57.2326 57.8007 57.3549C57.7636 57.416 57.7389 57.471 57.7142 57.526C57.6894 57.581 57.6647 57.636 57.6276 57.6971C57.5534 57.7949 57.4792 57.8927 57.3803 57.9905C57.2814 58.0883 57.1824 58.1617 57.0835 58.235C56.9846 58.3084 56.8609 58.3573 56.7373 58.4061C56.6136 58.455 56.4899 58.504 56.3662 58.5284C56.2673 58.5773 56.1436 58.5773 56.02 58.5773Z" fill="#26C6DA"/>
<path d="M115.305 40.4116C115.156 40.4116 115.033 40.3627 114.934 40.2649C114.835 40.1671 114.785 40.0449 114.785 39.8982C114.785 39.7515 114.835 39.6293 114.934 39.5315C115.033 39.4337 115.156 39.3848 115.305 39.3848H116.591C116.739 39.3848 116.863 39.4337 116.962 39.5315C117.061 39.6293 117.11 39.7515 117.11 39.8982C117.11 40.0449 117.061 40.1671 116.962 40.2649C116.863 40.3627 116.739 40.4116 116.591 40.4116H115.305Z" fill="#26C6DA"/>
<path d="M114.167 45.7415C114.068 45.6926 113.969 45.6437 113.92 45.5459C113.846 45.4481 113.821 45.3503 113.821 45.2525V41.414C113.821 41.2673 113.87 41.1451 113.969 41.0473C114.068 40.9495 114.192 40.9006 114.34 40.9006C114.489 40.9006 114.612 40.9495 114.711 41.0473C114.81 41.1451 114.86 41.2673 114.86 41.414V43.8345L117.184 41.0717C117.259 40.9984 117.333 40.9251 117.457 40.9006C117.555 40.8762 117.654 40.8762 117.778 40.9251C117.902 40.974 117.976 41.0229 118.025 41.1206C118.1 41.2184 118.124 41.3162 118.124 41.414V45.2525C118.124 45.3992 118.075 45.5215 117.976 45.6193C117.877 45.7171 117.753 45.766 117.605 45.766C117.457 45.766 117.333 45.7171 117.234 45.6193C117.135 45.5215 117.086 45.3992 117.086 45.2525V42.8321L114.761 45.5948C114.662 45.7171 114.513 45.7904 114.365 45.7904C114.291 45.7904 114.217 45.766 114.167 45.7415Z" fill="#26C6DA"/>
<path d="M83.9437 45.5459C83.9931 45.6437 84.0921 45.6926 84.191 45.7415C84.2405 45.7659 84.2899 45.7904 84.3889 45.7904C84.5373 45.7904 84.6856 45.717 84.7846 45.5948L87.1095 42.8321V45.2525C87.1095 45.3992 87.1589 45.5215 87.2579 45.6192C87.3568 45.717 87.4805 45.7659 87.6289 45.7659C87.7773 45.7659 87.9009 45.717 87.9999 45.6192C88.0988 45.5215 88.1483 45.3992 88.1483 45.2525V41.414C88.1483 41.3162 88.1235 41.2184 88.0493 41.1206C87.9751 41.0228 87.9009 40.9739 87.802 40.925C87.6783 40.8761 87.5794 40.8761 87.4805 40.9006C87.3568 40.925 87.2826 40.9984 87.2084 41.0717L84.8835 43.8345V41.414C84.8835 41.2673 84.834 41.1451 84.7351 41.0473C84.6362 40.9495 84.5125 40.9006 84.3641 40.9006C84.2157 40.9006 84.0921 40.9495 83.9931 41.0473C83.8942 41.1451 83.8447 41.2673 83.8447 41.414V45.2525C83.8447 45.3503 83.8695 45.4481 83.9437 45.5459Z" fill="#26C6DA"/>
<path d="M51.6175 41.9275C51.4691 41.9275 51.3455 41.8786 51.2465 41.7808C51.1476 41.683 51.0981 41.5608 51.0981 41.4141C51.0981 41.2674 51.1476 41.1451 51.2465 41.0473C51.3455 40.9495 51.4691 40.9006 51.6175 40.9006H54.8575C55.0059 40.9006 55.1296 40.9495 55.2285 41.0473C55.3275 41.1451 55.3769 41.2674 55.3769 41.4141C55.3769 41.5608 55.3275 41.683 55.2285 41.7808C55.1296 41.8786 55.0059 41.9275 54.8575 41.9275H53.7446V45.2526C53.7446 45.3993 53.6951 45.5215 53.5962 45.6193C53.4972 45.7171 53.3736 45.766 53.2252 45.766C53.0768 45.766 52.9531 45.7171 52.8542 45.6193C52.7552 45.5215 52.7058 45.3993 52.7058 45.2526V41.9275H51.6175Z" fill="#26C6DA"/>
<path fill-rule="evenodd" clip-rule="evenodd" d="M39.8697 45.7904V45.9127C39.8697 46.0593 39.9192 46.1816 40.0181 46.2794C40.117 46.3772 40.2407 46.4261 40.3891 46.4261C40.5375 46.4261 40.6612 46.3772 40.7601 46.2794C40.859 46.1816 40.9085 46.0593 40.9085 45.9127V45.277C40.9085 45.1303 40.859 45.008 40.7601 44.9102C40.6612 44.8124 40.5375 44.7635 40.3891 44.7635L38.5836 41.2184C38.5341 41.1206 38.4599 41.0473 38.3857 40.9984C38.3115 40.9495 38.2126 40.925 38.1137 40.925C38.0147 40.925 37.9158 40.9495 37.8416 40.9984C37.7427 41.0717 37.6932 41.1206 37.6437 41.2184L35.8382 44.7635C35.6898 44.7635 35.5662 44.8124 35.4672 44.9102C35.3683 45.008 35.3188 45.1303 35.3188 45.277V45.9127C35.3188 46.0593 35.3683 46.1816 35.4672 46.2794C35.5662 46.3772 35.6898 46.4261 35.8382 46.4261C35.9866 46.4261 36.1103 46.3772 36.2092 46.2794C36.3082 46.1816 36.3576 46.0593 36.3576 45.9127V45.7904H39.8697ZM39.2019 44.7635H37.0007L38.0889 42.5631L39.2019 44.7635Z" fill="#26C6DA"/>
<path fill-rule="evenodd" clip-rule="evenodd" d="M41.0073 43.3455C41.0073 42.6609 41.2547 42.0986 41.7246 41.6341C42.2192 41.1451 42.7881 40.925 43.4559 40.925C44.1484 40.925 44.7173 41.1695 45.1872 41.6341C45.6818 42.0986 45.9044 42.6854 45.9044 43.3455C45.9044 44.0056 45.6571 44.5924 45.1872 45.0569C44.7173 45.5215 44.1237 45.766 43.4559 45.766C42.7881 45.766 42.1945 45.5215 41.7246 45.0569C41.2299 44.5924 41.0073 44.0301 41.0073 43.3455ZM44.8904 43.3455C44.8904 42.9543 44.742 42.6365 44.4699 42.3431C44.1979 42.0742 43.8516 41.9275 43.4559 41.9275C43.0602 41.9275 42.7386 42.0742 42.4418 42.3431C42.1698 42.612 42.0214 42.9543 42.0214 43.3455C42.0214 43.7367 42.1698 44.0545 42.4418 44.3479C42.7139 44.6413 43.0602 44.7635 43.4559 44.7635C43.8516 44.7635 44.1979 44.6169 44.4699 44.3479C44.742 44.079 44.8904 43.7367 44.8904 43.3455Z" fill="#26C6DA"/>
<path d="M48.8724 45.7904C48.1799 45.7904 47.611 45.5459 47.1411 45.0814C46.6712 44.6168 46.4238 44.03 46.4238 43.3699C46.4238 42.6853 46.6712 42.123 47.1411 41.6585C47.611 41.1695 48.2046 40.9495 48.8724 40.9495C49.5649 40.9495 50.1338 41.194 50.6037 41.6585C50.7026 41.7563 50.7521 41.8785 50.7521 42.0252C50.7521 42.1719 50.7026 42.2942 50.6037 42.392C50.5048 42.4898 50.3811 42.5387 50.2327 42.5387C50.0843 42.5387 49.9606 42.4898 49.8617 42.392C49.5896 42.123 49.2434 41.9763 48.8477 41.9763C48.4519 41.9763 48.1304 42.123 47.8336 42.392C47.5368 42.6609 47.4131 43.0032 47.4131 43.3944C47.4131 43.7856 47.5615 44.1034 47.8336 44.3968C48.1057 44.6902 48.4519 44.8124 48.8477 44.8124C49.2434 44.8124 49.5649 44.6657 49.8617 44.3968C49.9606 44.299 50.0843 44.2501 50.2327 44.2501C50.3811 44.2501 50.5048 44.299 50.6037 44.3968C50.7026 44.4946 50.7521 44.6168 50.7521 44.7635C50.7521 44.9102 50.7026 45.0325 50.6037 45.1302C50.1338 45.5459 49.5649 45.7904 48.8724 45.7904Z" fill="#26C6DA"/>
<path fill-rule="evenodd" clip-rule="evenodd" d="M54.9563 45.4237C55.0058 45.546 55.1047 45.6437 55.2284 45.7171C55.3521 45.7904 55.4757 45.7904 55.6241 45.7415C55.7478 45.6926 55.8467 45.5948 55.9209 45.4726L56.2672 44.788H58.5426L58.8889 45.4726C58.9384 45.5704 59.0126 45.6437 59.0867 45.6926C59.1609 45.7415 59.2599 45.766 59.3588 45.766C59.433 45.766 59.5072 45.766 59.5814 45.7171C59.7298 45.6682 59.804 45.5704 59.8535 45.4237C59.9029 45.277 59.9029 45.1548 59.8287 45.0325L57.8748 41.194C57.8254 41.0962 57.7512 41.0229 57.677 40.974C57.6028 40.9251 57.5038 40.9006 57.4049 40.9006C57.306 40.9006 57.207 40.9251 57.1328 40.974C57.0339 41.0473 56.9844 41.0962 56.935 41.194L54.9811 45.0325C54.9069 45.1548 54.9069 45.3015 54.9563 45.4237ZM57.4049 42.5632L58.0232 43.7856H56.7866L57.4049 42.5632Z" fill="#26C6DA"/>
<path fill-rule="evenodd" clip-rule="evenodd" d="M60.5708 45.6437C60.6697 45.7415 60.7934 45.7904 60.9418 45.7904V45.8393H63.1925C63.6129 45.8393 63.9592 45.6926 64.256 45.3992C64.5528 45.1058 64.7012 44.7635 64.7012 44.3479C64.7012 44.079 64.627 43.8345 64.4786 43.59C64.3302 43.3455 64.157 43.1744 63.9097 43.0521C64.0086 42.8321 64.0581 42.6365 64.0581 42.4164C64.0581 42.0008 63.9097 41.6585 63.6129 41.3651C63.3161 41.0717 62.9699 40.925 62.5494 40.925H60.9418C60.7934 40.925 60.6697 40.9739 60.5708 41.0717C60.4718 41.1695 60.4224 41.2918 60.4224 41.4385V45.277C60.4224 45.4237 60.4718 45.5459 60.5708 45.6437ZM62.5741 42.8321H61.4611V41.9519H62.5741C62.6978 41.9519 62.7967 41.9764 62.8957 42.0742C62.9699 42.1719 63.0193 42.2697 63.0193 42.392C63.0193 42.5142 62.9946 42.612 62.8957 42.7098C62.7967 42.7832 62.6978 42.8321 62.5741 42.8321ZM63.2172 44.7635H61.4611V43.8834H63.2172C63.3409 43.8834 63.4398 43.9078 63.5387 44.0056C63.6129 44.1034 63.6624 44.2012 63.6624 44.3235C63.6624 44.4457 63.6376 44.5435 63.5387 44.6413C63.4398 44.7146 63.3409 44.7635 63.2172 44.7635Z" fill="#26C6DA"/>
<path d="M69.6725 41.3162C69.6478 41.194 69.5736 41.0718 69.4499 40.9984C69.351 40.9251 69.2026 40.9006 69.0542 40.9495C68.9305 40.974 68.8069 41.0473 68.7327 41.1696L67.595 42.8565H66.4572V41.4385C66.4572 41.2918 66.4078 41.1696 66.3088 41.0718C66.2099 40.974 66.0863 40.9251 65.9379 40.9251C65.7895 40.9251 65.6658 40.974 65.5669 41.0718C65.4679 41.1696 65.4185 41.2918 65.4185 41.4385V45.277C65.4185 45.4237 65.4679 45.5459 65.5669 45.6437C65.6658 45.7415 65.7895 45.7904 65.9379 45.7904C66.0863 45.7904 66.2099 45.7415 66.3088 45.6437C66.4078 45.5459 66.4572 45.4237 66.4572 45.277V43.8589H67.595L68.7327 45.5459C68.8316 45.6926 68.98 45.766 69.1531 45.766C69.2768 45.766 69.351 45.7415 69.4499 45.6926C69.5736 45.6193 69.6478 45.5215 69.6725 45.3748C69.6973 45.2281 69.6725 45.1058 69.5983 44.9836L68.4853 43.3455L69.5983 41.7074C69.6725 41.5852 69.6973 41.4629 69.6725 41.3162Z" fill="#26C6DA"/>
<path fill-rule="evenodd" clip-rule="evenodd" d="M70.1424 45.4237C70.1918 45.546 70.2908 45.6437 70.4145 45.7171C70.5381 45.7904 70.6618 45.7904 70.8102 45.7415C70.9338 45.6926 71.0328 45.5948 71.107 45.4726L71.4532 44.788H73.7287L74.0749 45.4726C74.1244 45.5704 74.1986 45.6437 74.2728 45.6926C74.347 45.7415 74.4459 45.766 74.5448 45.766C74.619 45.766 74.6932 45.766 74.7674 45.7171C74.9158 45.6682 74.99 45.5704 75.0395 45.4237C75.089 45.277 75.089 45.1548 75.0148 45.0325L73.0609 41.194C73.0114 41.0962 72.9372 41.0229 72.863 40.974C72.7888 40.9251 72.6899 40.9006 72.5909 40.9006C72.492 40.9006 72.3931 40.9251 72.3189 40.974C72.2199 41.0473 72.1705 41.0962 72.121 41.194L70.1671 45.0325C70.0929 45.1548 70.0929 45.3015 70.1424 45.4237ZM72.5662 42.5632L73.1845 43.7856H71.9479L72.5662 42.5632Z" fill="#26C6DA"/>
<path d="M82.6822 41.0473C82.5832 40.9495 82.4596 40.9006 82.3112 40.9006H79.0712C78.9228 40.9006 78.7991 40.9495 78.7002 41.0473C78.6012 41.1451 78.5518 41.2674 78.5518 41.4141V45.2526C78.5518 45.3993 78.6012 45.5215 78.7002 45.6193C78.7991 45.7171 78.9228 45.766 79.0712 45.766C79.2196 45.766 79.3432 45.7171 79.4421 45.6193C79.5411 45.5215 79.5905 45.3993 79.5905 45.2526V41.9275H81.7918V45.2526C81.7918 45.3993 81.8412 45.5215 81.9402 45.6193C82.0391 45.7171 82.1628 45.766 82.3112 45.766C82.4596 45.766 82.5832 45.7171 82.6822 45.6193C82.7811 45.5215 82.8306 45.3993 82.8306 45.2526V41.4141C82.8306 41.2674 82.7811 41.1451 82.6822 41.0473Z" fill="#26C6DA"/>
<path d="M89.1869 41.9275C89.0385 41.9275 88.9148 41.8786 88.8159 41.7808C88.7169 41.683 88.6675 41.5608 88.6675 41.4141C88.6675 41.2674 88.7169 41.1451 88.8159 41.0473C88.9148 40.9495 89.0385 40.9006 89.1869 40.9006H92.4269C92.5753 40.9006 92.699 40.9495 92.7979 41.0473C92.8968 41.1451 92.9463 41.2674 92.9463 41.4141C92.9463 41.5608 92.8968 41.683 92.7979 41.7808C92.699 41.8786 92.5753 41.9275 92.4269 41.9275H91.3139V45.2526C91.3139 45.3993 91.2644 45.5215 91.1655 45.6193C91.0666 45.7171 90.9429 45.766 90.7945 45.766C90.6461 45.766 90.5225 45.7171 90.4235 45.6193C90.3246 45.5215 90.2751 45.3993 90.2751 45.2526V41.9275H89.1869Z" fill="#26C6DA"/>
<path fill-rule="evenodd" clip-rule="evenodd" d="M95.9635 42.1964C96.4582 42.1964 96.9034 42.3675 97.2496 42.7342C97.5959 43.0765 97.7938 43.5166 97.7938 44.0056C97.7938 44.4946 97.6206 44.9102 97.2496 45.2769C96.9034 45.6192 96.4582 45.8148 95.9635 45.8148H94.0096C93.8612 45.8148 93.7376 45.7659 93.6386 45.6681C93.5397 45.5703 93.4902 45.4481 93.4902 45.3014V41.4629C93.4902 41.3162 93.5397 41.194 93.6386 41.0962C93.7376 40.9984 93.8612 40.9495 94.0096 40.9495C94.158 40.9495 94.2817 40.9984 94.3806 41.0962C94.4796 41.194 94.529 41.3162 94.529 41.4629V42.2208H95.9635V42.1964ZM95.9635 44.7635C96.1861 44.7635 96.3593 44.6902 96.5077 44.5435C96.6561 44.3968 96.7302 44.2012 96.7302 44.0056C96.7302 43.7855 96.6561 43.6144 96.5077 43.4677C96.3593 43.321 96.1614 43.2477 95.9635 43.2477H94.529V44.788H95.9635V44.7635Z" fill="#26C6DA"/>
<path d="M98.9813 45.7904C98.8329 45.7904 98.7092 45.7415 98.6103 45.6437C98.5114 45.5459 98.4619 45.4237 98.4619 45.277V41.4385C98.4619 41.2918 98.5114 41.1695 98.6103 41.0717C98.7092 40.9739 98.8329 40.925 98.9813 40.925H102.221C102.37 40.925 102.493 40.9739 102.592 41.0717C102.691 41.1695 102.741 41.2918 102.741 41.4385C102.741 41.5852 102.691 41.7074 102.592 41.8052C102.493 41.903 102.37 41.9519 102.221 41.9519H99.5007V42.8565H101.578C101.727 42.8565 101.85 42.9054 101.949 43.0032C102.048 43.101 102.098 43.2233 102.098 43.37C102.098 43.5166 102.048 43.6389 101.949 43.7367C101.85 43.8345 101.727 43.8834 101.578 43.8834H99.5007V44.788H102.221C102.37 44.788 102.493 44.8369 102.592 44.9347C102.691 45.0325 102.741 45.1547 102.741 45.3014C102.741 45.4481 102.691 45.5704 102.592 45.6682C102.493 45.766 102.37 45.8149 102.221 45.8149H98.9813V45.7904Z" fill="#26C6DA"/>
<path fill-rule="evenodd" clip-rule="evenodd" d="M103.952 45.7904C103.804 45.7904 103.68 45.7415 103.581 45.6437C103.483 45.5459 103.433 45.4237 103.433 45.277V41.4385C103.433 41.2918 103.483 41.1695 103.581 41.0717C103.68 40.9739 103.804 40.925 103.952 40.925H105.56C105.981 40.925 106.327 41.0717 106.624 41.3651C106.92 41.6585 107.069 42.0008 107.069 42.4164C107.069 42.6365 107.019 42.8321 106.92 43.0521C107.168 43.1744 107.341 43.3455 107.489 43.59C107.638 43.8345 107.712 44.079 107.712 44.3479C107.712 44.7635 107.564 45.1058 107.267 45.3992C106.97 45.6926 106.624 45.8393 106.203 45.8393H103.952V45.7904ZM104.472 42.8321H105.585C105.709 42.8321 105.807 42.7832 105.906 42.7098C106.005 42.612 106.03 42.5142 106.03 42.392C106.03 42.2697 105.981 42.1719 105.906 42.0742C105.807 41.9764 105.709 41.9519 105.585 41.9519H104.472V42.8321ZM104.472 44.7635H106.228C106.352 44.7635 106.451 44.7146 106.549 44.6413C106.648 44.5435 106.673 44.4457 106.673 44.3235C106.673 44.2012 106.624 44.1034 106.549 44.0056C106.451 43.9078 106.352 43.8834 106.228 43.8834H104.472V44.7635Z" fill="#26C6DA"/>
<path fill-rule="evenodd" clip-rule="evenodd" d="M108.157 43.3455C108.157 42.6609 108.405 42.0986 108.874 41.6341C109.369 41.1451 109.938 40.925 110.606 40.925C111.298 40.925 111.867 41.1695 112.337 41.6341C112.832 42.0986 113.054 42.6854 113.054 43.3455C113.054 44.0056 112.807 44.5924 112.337 45.0569C111.867 45.5215 111.274 45.766 110.606 45.766C109.938 45.766 109.344 45.5215 108.874 45.0569C108.38 44.5924 108.157 44.0301 108.157 43.3455ZM112.04 43.3455C112.04 42.9543 111.892 42.6365 111.62 42.3431C111.348 42.0742 111.002 41.9275 110.606 41.9275C110.21 41.9275 109.889 42.0742 109.592 42.3431C109.32 42.612 109.171 42.9543 109.171 43.3455C109.171 43.7367 109.32 44.0545 109.592 44.3479C109.864 44.6413 110.21 44.7635 110.606 44.7635C111.002 44.7635 111.323 44.6169 111.62 44.3479C111.892 44.079 112.04 43.7367 112.04 43.3455Z" fill="#26C6DA"/>
<path fill-rule="evenodd" clip-rule="evenodd" d="M122.131 45.6437C122.23 45.7415 122.354 45.7904 122.502 45.7904V45.8393H124.753C125.173 45.8393 125.52 45.6926 125.817 45.3992C126.113 45.1058 126.262 44.7635 126.262 44.3479C126.262 44.079 126.188 43.8345 126.039 43.59C125.891 43.3455 125.718 43.1744 125.47 43.0521C125.569 42.8321 125.619 42.6365 125.619 42.4164C125.619 42.0008 125.47 41.6585 125.173 41.3651C124.877 41.0717 124.53 40.925 124.11 40.925H122.502C122.354 40.925 122.23 40.9739 122.131 41.0717C122.032 41.1695 121.983 41.2918 121.983 41.4385V45.277C121.983 45.4237 122.032 45.5459 122.131 45.6437ZM124.135 42.8321H123.022V41.9519H124.135C124.258 41.9519 124.357 41.9764 124.456 42.0742C124.53 42.1719 124.58 42.2697 124.58 42.392C124.58 42.5142 124.555 42.612 124.456 42.7098C124.357 42.7832 124.258 42.8321 124.135 42.8321ZM124.778 44.7635H123.022V43.8834H124.778C124.901 43.8834 125 43.9078 125.099 44.0056C125.173 44.1034 125.223 44.2012 125.223 44.3235C125.223 44.4457 125.198 44.5435 125.099 44.6413C125 44.7146 124.901 44.7635 124.778 44.7635Z" fill="#26C6DA"/>
<path fill-rule="evenodd" clip-rule="evenodd" d="M127.424 41.6341C126.954 42.0986 126.707 42.6609 126.707 43.3455C126.707 44.0301 126.954 44.5924 127.424 45.0569C127.894 45.5215 128.488 45.766 129.156 45.766C129.823 45.766 130.417 45.5215 130.887 45.0569C131.357 44.5924 131.604 44.0056 131.604 43.3455C131.604 42.6854 131.382 42.0986 130.887 41.6341C130.417 41.1695 129.848 40.925 129.156 40.925C128.488 40.925 127.919 41.1451 127.424 41.6341ZM130.17 42.3431C130.442 42.6365 130.59 42.9543 130.59 43.3455C130.59 43.7367 130.466 44.079 130.17 44.3479C129.898 44.6169 129.551 44.7635 129.156 44.7635C128.76 44.7635 128.414 44.6413 128.142 44.3479C127.869 44.0545 127.721 43.7367 127.721 43.3455C127.721 42.9543 127.869 42.612 128.142 42.3431C128.438 42.0742 128.76 41.9275 129.156 41.9275C129.551 41.9275 129.898 42.0742 130.17 42.3431Z" fill="#26C6DA"/>
<path fill-rule="evenodd" clip-rule="evenodd" d="M132.791 45.9127V45.7904H136.303V45.9127C136.303 46.0593 136.353 46.1816 136.452 46.2794C136.551 46.3772 136.674 46.4261 136.823 46.4261C136.971 46.4261 137.095 46.3772 137.194 46.2794C137.293 46.1816 137.342 46.0593 137.342 45.9127V45.277C137.342 45.1303 137.293 45.008 137.194 44.9102C137.095 44.8124 136.971 44.7635 136.823 44.7635L135.017 41.2184C134.968 41.1206 134.894 41.0473 134.819 40.9984C134.745 40.9495 134.646 40.925 134.547 40.925C134.448 40.925 134.349 40.9495 134.275 40.9984C134.176 41.0717 134.127 41.1206 134.077 41.2184L132.272 44.7635C132.123 44.7635 132 44.8124 131.901 44.9102C131.802 45.008 131.752 45.1303 131.752 45.277V45.9127C131.752 46.0593 131.802 46.1816 131.901 46.2794C132 46.3772 132.123 46.4261 132.272 46.4261C132.42 46.4261 132.544 46.3772 132.643 46.2794C132.742 46.1816 132.791 46.0593 132.791 45.9127ZM135.636 44.7635H133.434L134.523 42.5876L135.636 44.7635Z" fill="#26C6DA"/>
<path fill-rule="evenodd" clip-rule="evenodd" d="M141.621 42.7343C141.274 42.3676 140.829 42.1964 140.335 42.1964V42.2209H138.9V41.463C138.9 41.3163 138.851 41.194 138.752 41.0962C138.653 40.9984 138.529 40.9495 138.381 40.9495C138.232 40.9495 138.109 40.9984 138.01 41.0962C137.911 41.194 137.861 41.3163 137.861 41.463V45.3015C137.861 45.4482 137.911 45.5704 138.01 45.6682C138.109 45.766 138.232 45.8149 138.381 45.8149H140.335C140.829 45.8149 141.274 45.6193 141.621 45.277C141.992 44.9103 142.165 44.4946 142.165 44.0057C142.165 43.5167 141.967 43.101 141.621 42.7343ZM140.879 44.5435C140.73 44.6902 140.557 44.7636 140.335 44.7636V44.788H138.9V43.2477H140.335C140.532 43.2477 140.73 43.3211 140.879 43.4678C141.027 43.6145 141.101 43.7856 141.101 44.0057C141.101 44.2013 141.027 44.3969 140.879 44.5435Z" fill="#26C6DA"/>
<path d="M142.66 41.4141C142.66 41.2674 142.709 41.1451 142.808 41.0473C142.907 40.9495 143.031 40.9006 143.179 40.9006C143.327 40.9006 143.451 40.9495 143.55 41.0473C143.649 41.1451 143.698 41.2674 143.698 41.4141V45.2526C143.698 45.3993 143.649 45.5215 143.55 45.6193C143.451 45.7171 143.327 45.766 143.179 45.766C143.031 45.766 142.907 45.7171 142.808 45.6193C142.709 45.5215 142.66 45.3993 142.66 45.2526V41.4141Z" fill="#26C6DA"/>
</svg>
