<svg width="294" height="99" viewBox="0 0 294 99" fill="none" xmlns="http://www.w3.org/2000/svg">
<path fill-rule="evenodd" clip-rule="evenodd" d="M118.449 22.5646C118.56 22.5562 118.671 22.5478 118.773 22.5478C126.216 22.5478 132.293 28.4874 132.293 35.8445C132.293 43.2016 126.25 49.175 118.808 49.175C111.365 49.175 105.322 43.2016 105.322 35.8445C105.322 35.372 105.322 34.8658 105.391 34.3933V15.0894C105.391 10.8034 109.078 7.29362 113.652 7.29362C116.862 7.29362 119.729 9.01478 121.129 11.7821C122.461 14.4145 122.153 17.3506 120.344 19.7129L118.125 22.5815C118.227 22.5815 118.338 22.5731 118.449 22.5646ZM113.652 12.2546C111.843 12.2546 110.375 13.537 110.375 15.1232V24.4714L116.384 16.7093C117.271 15.5282 116.862 14.4145 116.657 13.9757C116.247 13.132 115.223 12.2546 113.652 12.2546ZM110.443 35.8782C110.443 40.4342 114.199 44.1128 118.773 44.1128C123.382 44.1128 127.104 40.4342 127.104 35.8782C127.104 31.3223 123.382 27.6437 118.773 27.6437C114.165 27.6437 110.443 31.356 110.443 35.8782Z" fill="white"/>
<path fill-rule="evenodd" clip-rule="evenodd" d="M62.6132 22.5478C55.1707 22.5478 49.1279 28.5212 49.1279 35.8783C49.1279 43.2354 55.1707 49.2088 62.6132 49.2088H76.0985V35.8783C76.0985 28.5212 70.0557 22.5478 62.6132 22.5478ZM70.9434 44.1129H62.6132C58.0385 44.1129 54.2831 40.4343 54.2831 35.8783C54.2831 31.3561 58.0043 27.6438 62.6132 27.6438C67.188 27.6438 70.9434 31.3223 70.9434 35.8783V44.1129Z" fill="white"/>
<path fill-rule="evenodd" clip-rule="evenodd" d="M204.806 22.5478C197.364 22.5478 191.321 28.5212 191.321 35.8783C191.321 43.2354 197.364 49.2088 204.806 49.2088C212.249 49.2088 218.291 43.2354 218.291 35.8783C218.291 28.5212 212.249 22.5478 204.806 22.5478ZM204.806 44.1129C200.231 44.1129 196.476 40.4343 196.476 35.8783C196.476 31.3561 200.197 27.6438 204.806 27.6438C209.381 27.6438 213.136 31.3223 213.136 35.8783C213.136 40.4343 209.381 44.1129 204.806 44.1129Z" fill="white"/>
<path fill-rule="evenodd" clip-rule="evenodd" d="M133.454 35.8783C133.454 28.5212 139.496 22.5478 146.939 22.5478C154.381 22.5478 160.458 28.5212 160.458 35.8783V49.2088H146.939C139.496 49.2088 133.454 43.2354 133.454 35.8783ZM146.939 44.1129H155.269V35.8783C155.269 31.3223 151.514 27.6438 146.939 27.6438C142.33 27.6438 138.609 31.3561 138.609 35.8783C138.609 40.4343 142.364 44.1129 146.939 44.1129Z" fill="white"/>
<path d="M100.235 22.9528C99.1087 22.9528 98.1187 23.6953 97.7773 24.7752C97.3676 26.1251 96.4458 27.6776 94.9095 29.1625C92.4173 31.5586 88.935 32.976 84.9065 33.3135V25.1127C84.9065 23.6953 83.7458 22.5478 82.3119 22.5478C80.878 22.5478 79.7172 23.6953 79.7172 25.1127V46.374C79.7172 47.7914 80.878 48.9388 82.3119 48.9388C83.7458 48.9388 84.9065 47.7914 84.9065 46.374V38.4432C87.6718 38.2744 90.3006 37.667 92.6221 36.6545C95.9678 38.2407 97.1286 42.493 97.4359 46.509C97.5383 47.8589 98.6649 48.9051 100.031 48.9051C101.533 48.9051 102.728 47.6564 102.625 46.1715C102.147 39.6581 99.9964 35.9121 97.5042 33.7522C97.6746 33.6005 97.8536 33.4488 98.0327 33.2972L98.034 33.296C98.213 33.1444 98.392 32.9927 98.5625 32.841C100.577 30.9174 102.011 28.6225 102.762 26.3276C103.24 24.674 102.011 22.9528 100.235 22.9528Z" fill="white"/>
<path d="M189.067 31.9298V46.3739C189.067 47.0826 188.76 47.7239 188.316 48.1963C187.838 48.6688 187.19 48.9388 186.473 48.9388C185.039 48.9388 183.878 47.7914 183.878 46.3739V31.9298C183.878 29.6011 181.966 27.7112 179.576 27.7112H172.817C170.461 27.7112 168.515 29.6011 168.515 31.9298V46.3739C168.515 47.7914 167.354 48.9388 165.92 48.9388C164.487 48.9388 163.326 47.7914 163.326 46.3739V31.9298C163.326 29.1624 164.521 26.6988 166.433 24.9777C168.105 23.4927 170.324 22.5815 172.783 22.5815H179.542C181.966 22.5815 184.185 23.4927 185.892 24.9777C187.872 26.6988 189.067 29.1624 189.067 31.9298Z" fill="white"/>
<path d="M292.853 44.7879C293.228 44.3829 294.662 42.7968 293.638 41.1431C293.297 40.6031 292.75 40.1982 292.17 40.0294C292.149 40.0224 292.129 40.0153 292.11 40.0086C292.038 39.9831 291.978 39.9619 291.897 39.9619C290.975 39.7932 289.985 40.1982 289.405 40.9406L289.332 41.027C289.194 41.192 289.072 41.3366 288.927 41.4806C287.39 43.1005 285.24 44.113 282.816 44.113C278.309 44.113 274.622 40.5694 274.486 36.1484C274.349 31.6262 278.173 27.7114 282.747 27.7114C284.386 27.6776 285.888 28.1501 287.186 28.9263C287.459 29.0951 287.903 29.3988 288.176 29.635C288.38 29.8038 288.619 29.9388 288.893 29.9725C289.132 30.0063 289.371 30.04 289.61 30.0063C290.873 29.905 291.897 28.9601 292.102 27.7451C292.136 27.6439 292.136 27.5764 292.136 27.5089C292.204 26.6652 291.794 25.889 291.146 25.3828C290.839 25.1128 290.497 24.8765 290.156 24.6741C287.868 23.2229 285.103 22.4129 282.167 22.5479C275.407 22.8517 269.877 28.2176 269.365 34.866C268.784 42.6618 275.032 49.2089 282.816 49.2089C286.81 49.2089 290.395 47.5215 292.853 44.7879Z" fill="white"/>
<path d="M219.657 49.4449C219.281 49.4449 218.906 49.3774 218.565 49.2086C217.301 48.6012 216.755 47.0825 217.37 45.8338L227.339 25.2475C227.748 24.4038 228.636 23.8301 229.592 23.7963C230.548 23.7626 231.435 24.2688 231.913 25.1125L243.009 45.3613C243.692 46.5763 243.214 48.1287 241.985 48.8036C240.755 49.4786 239.185 49.0061 238.502 47.7912L229.762 31.9296L221.944 48.0274C221.535 48.9386 220.613 49.4449 219.657 49.4449Z" fill="white"/>
<path d="M247.242 49.3099C247.515 49.4112 247.788 49.4449 248.061 49.4449C248.846 49.4449 249.598 49.1074 250.11 48.4662L261.546 33.7858V46.9475C261.546 48.3312 262.707 49.4786 264.107 49.4786C265.507 49.4786 266.667 48.3312 266.667 46.9475V26.3612C266.667 25.2813 265.951 24.3026 264.926 23.9651C263.868 23.5939 262.741 23.9651 262.059 24.8088L250.622 39.4892V26.3612C250.622 24.9775 249.461 23.8301 248.061 23.8301C246.661 23.8301 245.501 24.9775 245.501 26.3612V46.9138C245.501 47.9937 246.218 48.9724 247.242 49.3099Z" fill="white"/>
<path d="M29.4969 6.0454C29.4116 6.0454 29.3262 6.03696 29.2409 6.02852C29.1555 6.02009 29.0702 6.01165 28.9848 6.01165C28.8141 5.9779 28.6434 5.9104 28.4727 5.84291C28.302 5.77541 28.1655 5.70792 27.9948 5.60667C27.8582 5.50543 27.7216 5.40418 27.5851 5.26919C27.4485 5.1342 27.3461 4.99921 27.2437 4.86421C27.1413 4.72922 27.073 4.56048 27.0047 4.39174C26.9364 4.22301 26.8681 4.05425 26.834 3.88552C26.7999 3.71678 26.7657 3.54804 26.7657 3.34555C26.7657 2.63684 27.0388 1.96188 27.5509 1.45566C28.1655 0.848193 29.1214 0.54446 29.9749 0.7132C30.0602 0.730075 30.1456 0.755386 30.2309 0.780697C30.3163 0.806008 30.4016 0.831319 30.487 0.848193C30.5723 0.881941 30.6491 0.924126 30.726 0.966311C30.8028 1.0085 30.8796 1.05068 30.9649 1.08443C31.1015 1.18566 31.2381 1.28693 31.3746 1.42191C31.8867 1.92813 32.1598 2.60309 32.1598 3.3118C32.1598 3.48054 32.1598 3.64928 32.0916 3.85177C32.0574 4.02051 32.0233 4.18925 31.9209 4.35799C31.8526 4.52673 31.7843 4.66173 31.6819 4.83047C31.5795 4.96546 31.477 5.10045 31.3405 5.23544C31.2039 5.37042 31.0674 5.47166 30.9309 5.57289C30.7943 5.67413 30.6235 5.74166 30.4528 5.80916C30.3675 5.84291 30.2821 5.86822 30.1968 5.89353C30.1114 5.91884 30.0261 5.94415 29.9407 5.9779C29.8383 6.0454 29.6676 6.0454 29.4969 6.0454Z" fill="#26C6DA"/>
<path d="M30.5553 43.472C29.1897 44.0794 28.6093 45.6656 29.258 47.0155C29.7359 47.9942 30.6919 48.5679 31.6819 48.5679C32.0916 48.5679 32.4671 48.4667 32.8427 48.298C34.2083 47.6905 34.7886 46.1043 34.14 44.7544C33.5255 43.4045 31.9209 42.8308 30.5553 43.472Z" fill="#26C6DA"/>
<path d="M26.7316 39.321C26.4585 37.8698 27.4144 36.4861 28.8824 36.2161C30.3504 35.9462 31.7502 36.8911 32.0233 38.3423C32.2964 39.7934 31.3405 41.1771 29.8725 41.4471C29.7018 41.4808 29.5311 41.4808 29.3604 41.4808C28.1314 41.4808 26.9706 40.6034 26.7316 39.321Z" fill="#26C6DA"/>
<path d="M26.2195 31.2214C26.1171 32.7063 27.2437 33.955 28.7459 34.0563H28.9166C30.3504 34.0563 31.5453 32.9763 31.6136 31.5589C31.716 30.074 30.5894 28.8253 29.0873 28.7241C27.5851 28.6228 26.3219 29.7365 26.2195 31.2214Z" fill="#26C6DA"/>
<path d="M29.497 26.6317C28.0631 26.193 27.2779 24.6743 27.7558 23.2569C28.1996 21.8395 29.7359 21.097 31.1698 21.5357C32.6037 21.9745 33.3889 23.4931 32.9109 24.9105C32.5354 26.0242 31.4771 26.7667 30.3505 26.7667C30.0432 26.7329 29.7701 26.6992 29.497 26.6317Z" fill="#26C6DA"/>
<path d="M31.2039 15.8998C30.4187 17.1485 30.7943 18.8021 32.0574 19.5783C32.5013 19.8821 33.0134 20.0171 33.4913 19.9833C34.379 19.9833 35.2666 19.5446 35.7787 18.7346C36.5639 17.486 36.1884 15.8323 34.9252 15.0561C33.662 14.2799 31.9892 14.6511 31.2039 15.8998Z" fill="#26C6DA"/>
<path d="M36.2908 13.4362C35.2666 12.3562 35.3007 10.6688 36.3932 9.6564C37.4857 8.64396 39.1927 8.67771 40.2169 9.75765C41.2411 10.8376 41.207 12.525 40.1145 13.5374C39.6024 14.0099 38.9196 14.2799 38.2709 14.2799C37.554 14.2461 36.837 13.9762 36.2908 13.4362Z" fill="#26C6DA"/>
<path d="M42.9822 4.83043C41.6849 5.57288 41.2411 7.19279 41.958 8.47522C42.4701 9.35267 43.3919 9.82514 44.3137 9.82514C44.7917 9.82514 45.2355 9.7239 45.6451 9.48766C46.9425 8.7452 47.3863 7.1253 46.6693 5.84287C45.9183 4.56044 44.2796 4.12172 42.9822 4.83043Z" fill="#26C6DA"/>
<path d="M48.6836 5.06666C48.3081 3.64924 49.1616 2.19808 50.5954 1.7931C52.0293 1.42187 53.4973 2.26557 53.907 3.68299C54.2826 5.10041 53.4291 6.58533 51.9952 6.95656C51.7562 7.02405 51.5172 7.0578 51.3124 7.0578C50.1175 7.0578 49.025 6.24785 48.6836 5.06666Z" fill="#26C6DA"/>
<path d="M63.6028 3.548C63.2955 4.99917 64.1831 6.41659 65.6512 6.75407C65.856 6.78782 66.0608 6.82156 66.2657 6.82156C67.4947 6.82156 68.6213 5.97786 68.8945 4.72918C69.2017 3.27801 68.3141 1.8606 66.8461 1.52311C65.378 1.21938 63.9442 2.09683 63.6028 3.548Z" fill="#26C6DA"/>
<path d="M56.0578 3.41301C56.0578 1.92809 57.2527 0.713161 58.7207 0.713161C60.2229 0.713161 61.4178 1.89434 61.4519 3.34551C61.4519 4.83043 60.257 6.01161 58.789 6.04536H58.7549C57.2869 6.04536 56.0578 4.86417 56.0578 3.41301Z" fill="#26C6DA"/>
<path d="M72.718 9.48777C72.8887 9.52152 73.0594 9.55526 73.2301 9.55526C73.4008 9.55526 73.6056 9.52152 73.7763 9.48777C73.947 9.45402 74.1177 9.38652 74.2884 9.31903C74.4591 9.25153 74.6298 9.18403 74.7664 9.08279C74.9029 8.98155 75.0395 8.8803 75.176 8.74531C75.6881 8.23909 75.9613 7.56413 75.9613 6.85542C75.9613 6.14671 75.6881 5.47175 75.176 4.96553C75.0395 4.83053 74.9029 4.72929 74.7664 4.62804C74.5957 4.5268 74.4591 4.4593 74.2884 4.39181C74.1177 4.29056 73.947 4.25682 73.7763 4.22307C73.4349 4.15557 73.0594 4.15557 72.718 4.22307C72.5473 4.25682 72.3766 4.32431 72.2059 4.39181C72.0352 4.4593 71.8645 4.5268 71.7279 4.62804C71.5913 4.72929 71.4548 4.83053 71.3182 4.96553C70.8061 5.47175 70.533 6.14671 70.533 6.85542C70.533 7.56413 70.8061 8.23909 71.3182 8.74531C71.4548 8.8803 71.5913 8.98155 71.7279 9.08279C71.8986 9.18403 72.0352 9.25153 72.2059 9.31903C72.3766 9.42027 72.5473 9.45402 72.718 9.48777Z" fill="#26C6DA"/>
<path d="M35.2323 54.8112C35.403 54.845 35.5737 54.8787 35.7444 54.8787C35.9151 54.8787 36.12 54.845 36.2907 54.8112C36.4614 54.8112 36.6321 54.7437 36.8028 54.6762C36.9735 54.6087 37.1442 54.5412 37.2807 54.44C37.4173 54.3388 37.5538 54.2375 37.6904 54.1025C37.827 53.9675 37.9294 53.8325 38.0318 53.6975C38.1342 53.5288 38.2025 53.3938 38.2708 53.2251C38.3391 53.0563 38.4073 52.8876 38.4415 52.7188C38.4756 52.5501 38.5098 52.3814 38.5098 52.2126C38.5098 52.0439 38.4756 51.8751 38.4415 51.7064C38.4073 51.622 38.3817 51.5377 38.3561 51.4533C38.3305 51.3689 38.3049 51.2845 38.2708 51.2002C38.2025 51.0314 38.1342 50.8627 38.0318 50.7277C37.9294 50.5927 37.827 50.4577 37.6904 50.3227C37.5539 50.1878 37.4173 50.0865 37.2807 49.9852C37.11 49.884 36.9735 49.8165 36.8028 49.749C36.6321 49.6815 36.4614 49.614 36.2907 49.5803C35.403 49.4115 34.4471 49.7153 33.8326 50.3227C33.3205 50.829 33.0474 51.5039 33.0474 52.2126C33.0474 52.3814 33.0815 52.5501 33.1157 52.7188C33.1498 52.8876 33.1839 53.0563 33.2522 53.2251C33.3205 53.3938 33.3888 53.5625 33.4912 53.6975C33.5936 53.8325 33.696 53.9675 33.8326 54.1025C33.9691 54.2375 34.1057 54.3388 34.2423 54.44C34.413 54.5412 34.5495 54.6087 34.7202 54.6762C34.8909 54.7437 35.0617 54.7775 35.2323 54.8112Z" fill="#26C6DA"/>
<path d="M5.07003 73.2886C5.15538 73.2971 5.24073 73.3055 5.32608 73.3055C5.49678 73.3055 5.66748 73.2717 5.7699 73.238C5.9406 73.2042 6.1113 73.1367 6.282 73.0692C6.4527 73.0017 6.6234 72.9343 6.75996 72.833C6.89652 72.7318 7.03308 72.6305 7.16964 72.4955C7.3062 72.3605 7.40862 72.2255 7.51104 72.0906C7.61346 71.9218 7.68174 71.7868 7.75002 71.6181C7.85244 71.4493 7.88658 71.2806 7.92072 71.1119L7.93555 71.0253C7.96409 70.8601 7.989 70.716 7.989 70.5719C7.989 69.8632 7.71588 69.1882 7.20378 68.682C7.06722 68.547 6.93066 68.4458 6.7941 68.3445C6.70875 68.3108 6.63194 68.2686 6.55513 68.2264C6.47831 68.1842 6.40149 68.142 6.31614 68.1083C6.23084 68.0914 6.14555 68.0661 6.06025 68.0408C5.9749 68.0155 5.88939 67.9902 5.80404 67.9733C4.95054 67.8046 3.99462 68.1083 3.3801 68.7157C2.868 69.222 2.59488 69.8969 2.59488 70.6056C2.59488 70.8081 2.62902 70.9769 2.66316 71.1456C2.6973 71.3143 2.76558 71.4831 2.83386 71.6518C2.90214 71.8205 2.97043 71.9893 3.07284 72.1243C3.17526 72.2593 3.27768 72.3943 3.41424 72.5293C3.55078 72.6643 3.68732 72.7655 3.82386 72.8667C3.90901 72.9004 3.98573 72.9425 4.06237 72.9846C4.13912 73.0268 4.2166 73.0693 4.30188 73.103C4.47255 73.1705 4.64331 73.238 4.81398 73.2717C4.89928 73.2717 4.98473 73.2802 5.07003 73.2886Z" fill="#26C6DA"/>
<path d="M48.8881 95.9501C48.8199 97.435 49.9806 98.65 51.4828 98.7175H51.5852C53.0191 98.7175 54.214 97.6038 54.2822 96.1526C54.3505 94.6677 53.1898 93.4528 51.6876 93.3853C50.1855 93.3178 48.9564 94.4652 48.8881 95.9501Z" fill="#26C6DA"/>
<path d="M56.7062 96.0851C56.6038 94.6002 57.6962 93.3178 59.1643 93.2165C60.6664 93.0815 61.9637 94.1952 62.0662 95.6464C62.2027 97.1313 61.0761 98.4137 59.6081 98.515H59.4032C58.0035 98.5487 56.8427 97.5025 56.7062 96.0851Z" fill="#26C6DA"/>
<path d="M41.1384 94.7689C40.8652 96.2539 41.8553 97.6038 43.3233 97.8738C43.4599 97.9075 43.6306 97.9413 43.7671 97.9075C45.0645 97.9075 46.1911 96.9963 46.4301 95.6801C46.7032 94.229 45.7131 92.8453 44.2451 92.6091C42.7771 92.3391 41.3773 93.3178 41.1384 94.7689Z" fill="#26C6DA"/>
<path d="M64.5242 95.3427C64.217 93.8915 65.1388 92.4741 66.6068 92.1703C68.0748 91.8666 69.5087 92.7778 69.8159 94.229C70.1232 95.6801 69.2014 97.0976 67.7334 97.4013L67.6568 97.4141C67.4847 97.4431 67.3317 97.4688 67.153 97.4688C65.924 97.435 64.7973 96.5913 64.5242 95.3427Z" fill="#26C6DA"/>
<path d="M33.5593 92.6428C33.1155 94.0265 33.9007 95.5451 35.3346 95.9839C35.6077 96.0514 35.8808 96.0851 36.1539 96.0851C37.2806 96.0851 38.3389 95.3764 38.7144 94.229C39.1583 92.8453 38.373 91.3266 36.9392 90.8879C35.5394 90.4492 34.0031 91.2254 33.5593 92.6428Z" fill="#26C6DA"/>
<path d="M72.1716 93.5203C71.6253 92.1366 72.3081 90.6179 73.7079 90.0779C75.1076 89.538 76.6781 90.2129 77.1902 91.5966C77.7364 92.9803 77.0536 94.5327 75.6539 95.0389C75.3466 95.1739 75.0052 95.2077 74.6638 95.2077C73.6055 95.2077 72.5813 94.5664 72.1716 93.5203Z" fill="#26C6DA"/>
<path d="M26.3899 89.4705C25.7754 90.7867 26.3558 92.3728 27.6872 93.014C28.0628 93.1828 28.4725 93.2503 28.8138 93.2503C29.838 93.2503 30.8281 92.7103 31.2719 91.7316C31.8864 90.4154 31.3061 88.8293 29.9746 88.1881C28.6432 87.5806 27.0386 88.1206 26.3899 89.4705Z" fill="#26C6DA"/>
<path d="M79.4092 90.5167C78.624 89.268 78.9996 87.6143 80.2627 86.8381C81.5259 86.0619 83.1988 86.4332 83.984 87.6818C84.7692 88.9305 84.3937 90.5842 83.1305 91.3604C82.6867 91.6304 82.1746 91.7654 81.6966 91.7654C80.809 91.7654 79.9213 91.3266 79.4092 90.5167Z" fill="#26C6DA"/>
<path d="M19.7668 85.3532C18.9474 86.6019 19.2888 88.2556 20.552 89.0655C20.9958 89.3355 21.5079 89.5042 22.02 89.5042C22.9076 89.5042 23.7611 89.0655 24.2732 88.2893C25.0926 87.0406 24.7512 85.387 23.488 84.577C22.259 83.7671 20.5861 84.1045 19.7668 85.3532Z" fill="#26C6DA"/>
<path d="M85.8958 86.1632C84.8375 85.117 84.8375 83.4296 85.8617 82.3834C86.92 81.3372 88.627 81.3372 89.6854 82.3496C90.7437 83.3958 90.7437 85.0832 89.6854 86.1294C89.1733 86.6694 88.4563 86.9056 87.7735 86.9056C87.1249 86.9056 86.4421 86.6694 85.8958 86.1632Z" fill="#26C6DA"/>
<path d="M13.6899 80.4598C12.6998 81.5734 12.8364 83.2608 13.963 84.2058C14.4751 84.6445 15.0896 84.847 15.7382 84.8808C16.4893 84.8808 17.2404 84.5433 17.7866 83.9358C18.7767 82.7884 18.6401 81.101 17.5135 80.156C16.3528 79.2111 14.6458 79.3461 13.6899 80.4598Z" fill="#26C6DA"/>
<path d="M91.2217 80.426C89.9585 79.6498 89.5488 78.0299 90.2999 76.7475C91.0851 75.4988 92.7238 75.0938 94.0211 75.8363C95.2843 76.6125 95.694 78.2324 94.9429 79.5148C94.4308 80.3585 93.5432 80.7972 92.6214 80.7972C92.1434 80.831 91.6655 80.696 91.2217 80.426Z" fill="#26C6DA"/>
<path d="M8.32988 74.7226C7.2374 75.7013 7.13498 77.3887 8.12504 78.5024C8.63714 79.1098 9.38822 79.4136 10.1393 79.3798C10.788 79.3798 11.4366 79.1436 11.9487 78.7048C13.0412 77.7262 13.1436 76.0387 12.1536 74.9251C11.1635 73.8451 9.4565 73.7439 8.32988 74.7226Z" fill="#26C6DA"/>
<path d="M95.3869 73.6764C95.5576 73.7102 95.7283 73.7439 95.899 73.7439C96.0697 73.7439 96.2404 73.7439 96.377 73.6764C96.5477 73.6427 96.7184 73.6089 96.8891 73.5414C97.0598 73.4739 97.2305 73.4064 97.367 73.3052C97.5036 73.2039 97.6401 73.1027 97.7767 72.9677C97.9133 72.8327 98.0157 72.6977 98.1181 72.5627C98.2205 72.394 98.2888 72.259 98.3571 72.0902C98.4254 71.9215 98.4936 71.7528 98.5278 71.584C98.5961 71.4153 98.5961 71.2465 98.5961 71.0778C98.5961 70.3691 98.3229 69.6941 97.8108 69.1879C97.6743 69.0529 97.5377 68.9517 97.4012 68.8504C97.3158 68.8167 97.239 68.7745 97.1622 68.7323C97.0854 68.6901 97.0086 68.6479 96.9232 68.6142C96.7525 68.5467 96.5818 68.4792 96.4111 68.4455C96.0697 68.378 95.6942 68.378 95.3528 68.4455C95.1821 68.4792 95.0114 68.5467 94.8407 68.6142C94.67 68.6817 94.4993 68.7492 94.3627 68.8504C94.2262 68.9517 94.0896 69.0529 93.953 69.1879C93.4409 69.6941 93.1678 70.3691 93.1678 71.0778C93.1678 71.2465 93.202 71.4153 93.2361 71.584C93.2702 71.7528 93.3385 71.9215 93.4068 72.0902C93.4751 72.259 93.5434 72.4277 93.6458 72.5627C93.7482 72.6977 93.8506 72.8327 93.9872 72.9677C94.1237 73.1027 94.2602 73.2039 94.3968 73.3051C94.482 73.3388 94.5589 73.381 94.6357 73.4232C94.7125 73.4654 94.7895 73.5077 94.8748 73.5414C94.9602 73.5583 95.0455 73.5836 95.1309 73.6089C95.2162 73.6342 95.3016 73.6595 95.3869 73.6764Z" fill="#26C6DA"/>
<path d="M40.4559 73.8453C39.1244 73.1703 38.5782 71.5842 39.261 70.268C39.9438 68.9518 41.5484 68.4119 42.8798 69.0868C44.2113 69.7618 44.7575 71.348 44.0747 72.6641C43.5968 73.6091 42.6409 74.149 41.6508 74.149C41.2753 74.149 40.8656 74.0478 40.4559 73.8453Z" fill="#26C6DA"/>
<path d="M32.5696 65.6445C31.6819 66.8257 31.9209 68.5131 33.1158 69.3906C33.5938 69.728 34.14 69.8968 34.7204 69.8968C35.5739 69.8968 36.3932 69.5256 36.9053 68.8168C37.793 67.6357 37.554 65.9483 36.3591 65.0708C35.1642 64.2271 33.4572 64.4633 32.5696 65.6445Z" fill="#26C6DA"/>
<path d="M26.6292 63.6871C25.605 62.6072 25.6733 60.9198 26.7658 59.9073C27.8583 58.8949 29.5653 58.9624 30.5895 60.0423C31.6137 61.1223 31.5454 62.8097 30.4529 63.8221C29.9408 64.2946 29.258 64.5308 28.6093 64.5308C27.8924 64.5308 27.1755 64.2271 26.6292 63.6871Z" fill="#26C6DA"/>
<path d="M22.191 53.1915C20.9278 53.9677 20.5523 55.6213 21.3375 56.87C21.8496 57.68 22.7031 58.1187 23.6249 58.1187C24.1029 58.1187 24.615 57.9837 25.0588 57.7137C26.322 56.9375 26.6975 55.2839 25.9123 54.0352C25.1271 52.7865 23.4542 52.4153 22.191 53.1915Z" fill="#26C6DA"/>
<path d="M17.4114 49.2092C16.8652 47.8255 17.548 46.2731 18.9477 45.7669C20.3475 45.2269 21.8838 45.9019 22.43 47.2856C22.9762 48.6692 22.2934 50.2217 20.8937 50.7279C20.5864 50.8629 20.245 50.8966 19.9036 50.8966C18.8453 50.9304 17.8211 50.2891 17.4114 49.2092Z" fill="#26C6DA"/>
<path d="M17.1725 37.8699C15.7044 38.1398 14.7485 39.5235 15.0216 40.9747C15.2606 42.2571 16.3872 43.1346 17.6504 43.1346C17.8211 43.1346 17.9918 43.1346 18.1625 43.1008C19.6305 42.8308 20.5864 41.4472 20.3133 39.996C20.0402 38.5448 18.6405 37.5999 17.1725 37.8699Z" fill="#26C6DA"/>
<path d="M16.9335 35.1025C15.4313 35.1025 14.2364 33.8876 14.2706 32.4027C14.2706 30.9177 15.4996 29.7366 17.0018 29.7703C18.5039 29.7703 19.6988 30.9852 19.6647 32.4702C19.6647 33.9213 18.4356 35.1025 16.9335 35.1025Z" fill="#26C6DA"/>
<path d="M15.2265 23.8307C14.9192 25.2818 15.841 26.6992 17.309 27.003C17.4028 27.0215 17.4966 27.0299 17.6017 27.0392C17.6879 27.0469 17.7818 27.0553 17.8894 27.0705C19.1184 27.0705 20.245 26.193 20.5182 24.9443C20.8254 23.4932 19.9036 22.0758 18.4356 21.772C16.9676 21.4683 15.5337 22.3795 15.2265 23.8307Z" fill="#26C6DA"/>
<path d="M19.2208 19.1397C17.8553 18.566 17.2066 16.9798 17.787 15.6299C18.3673 14.2799 19.9719 13.6387 21.3375 14.2125C22.7031 14.7862 23.3518 16.3723 22.7714 17.7222C22.3276 18.7347 21.3375 19.3422 20.2792 19.3422C19.9378 19.3422 19.5964 19.2747 19.2208 19.1397Z" fill="#26C6DA"/>
<path d="M21.9862 8.0703C21.1668 9.28523 21.4741 10.9389 22.7031 11.7826C23.1811 12.0863 23.6932 12.2551 24.2394 12.2213C25.0929 12.2213 25.9464 11.8163 26.4585 11.0739C27.2779 9.85895 26.9706 8.20529 25.7416 7.36159C24.5125 6.55164 22.8397 6.85537 21.9862 8.0703Z" fill="#26C6DA"/>
<path d="M47.386 76.4438C47.8981 76.95 48.5809 77.22 49.2978 77.22C49.9806 77.22 50.6976 76.9163 51.2097 76.41C51.7217 75.9038 51.9949 75.2289 51.9949 74.5202C51.9949 73.8114 51.7217 73.1365 51.2097 72.6303C51.0731 72.4953 50.9365 72.394 50.8 72.2928C50.7147 72.2591 50.6378 72.2168 50.561 72.1747C50.4842 72.1325 50.4074 72.0903 50.322 72.0565C50.2367 72.0397 50.1513 72.0144 50.066 71.9891C49.9806 71.9637 49.8953 71.9384 49.8099 71.9216C48.9564 71.7528 48.0005 72.0565 47.386 72.664C46.8739 73.1702 46.6008 73.8452 46.6008 74.5539C46.6008 75.2626 46.8739 75.9376 47.386 76.4438Z" fill="#26C6DA"/>
<path d="M2.18496 37.4312C2.35566 37.465 2.52636 37.4987 2.69706 37.4987C2.8171 37.4987 2.93714 37.482 3.09281 37.4604C3.15849 37.4512 3.23054 37.4412 3.31157 37.4312C3.48227 37.4312 3.65297 37.3637 3.82367 37.2962C3.99437 37.2287 4.16507 37.1612 4.30163 37.06C4.43819 36.9587 4.57475 36.8575 4.71131 36.7225C5.22341 36.2163 5.49653 35.5413 5.49653 34.8326C5.49653 34.6639 5.46239 34.4951 5.42825 34.3264C5.39411 34.1576 5.32583 33.9889 5.25755 33.8202C5.18927 33.6514 5.12099 33.4827 5.01857 33.3477C4.91615 33.2127 4.81373 33.0777 4.67717 32.9427C4.54061 32.8077 4.40405 32.7065 4.26749 32.6052C4.09679 32.504 3.96023 32.4365 3.78953 32.369C3.61883 32.3015 3.44813 32.2678 3.27744 32.234C2.93604 32.1665 2.5605 32.1665 2.2191 32.234C2.0484 32.2678 1.8777 32.3015 1.707 32.369C1.53632 32.4365 1.36558 32.504 1.22904 32.6052C1.09248 32.7065 0.955919 32.8077 0.819359 32.9427C0.682799 33.0777 0.580379 33.2127 0.477959 33.3477C0.426749 33.4321 0.392609 33.508 0.358469 33.5839C0.324333 33.6599 0.290185 33.7358 0.23898 33.8202C0.13656 33.9889 0.10242 34.1576 0.0682799 34.3264C0.0341405 34.4951 0 34.6639 0 34.8326C0 35.5413 0.27312 36.2163 0.785219 36.7225C0.921779 36.8575 1.05834 36.9587 1.1949 37.06C1.3656 37.1612 1.50216 37.2287 1.67286 37.2962C1.84356 37.3637 2.01426 37.3975 2.18496 37.4312Z" fill="#26C6DA"/>
<path d="M54.8967 82.0461C53.3946 82.0798 52.2338 83.2948 52.268 84.7797C52.3021 86.1971 53.5311 87.3445 54.965 87.412H55.0333C56.5354 87.3445 57.6962 86.1296 57.6621 84.6447C57.6279 83.1598 56.3989 82.0123 54.8967 82.0461Z" fill="#26C6DA"/>
<path d="M46.669 86.8383C45.201 86.6021 44.1768 85.2522 44.4158 83.801C44.6548 82.3498 46.0203 81.3374 47.4884 81.5736C48.9564 81.8099 49.9806 83.1598 49.7416 84.6109C49.5368 85.9271 48.376 86.8721 47.0787 86.8721C47.0104 86.8721 46.9421 86.8636 46.8738 86.8552C46.8056 86.8467 46.7373 86.8383 46.669 86.8383Z" fill="#26C6DA"/>
<path d="M62.2368 81.1011C60.7688 81.4386 59.847 82.856 60.1884 84.3072C60.4615 85.5221 61.5882 86.3658 62.8513 86.3996C63.022 86.3996 63.2269 86.3658 63.4317 86.3321C64.8997 85.9946 65.7874 84.5772 65.4801 83.126C65.1387 81.6749 63.7048 80.7637 62.2368 81.1011Z" fill="#26C6DA"/>
<path d="M38.5096 84.8134C37.1098 84.341 36.3587 82.8223 36.8367 81.4049C37.3147 80.0212 38.851 79.2787 40.2848 79.7512C41.6846 80.2237 42.4356 81.7424 41.9577 83.1598C41.5822 84.2735 40.5238 84.9484 39.3972 84.9484C39.1241 84.9484 38.8168 84.9147 38.5096 84.8134Z" fill="#26C6DA"/>
<path d="M69.2696 78.84C67.904 79.4137 67.2895 80.9999 67.8699 82.3498C68.3137 83.3623 69.3038 83.9697 70.3621 83.9697C70.7035 83.9697 71.0791 83.8685 71.4205 83.7335C72.7861 83.1598 73.4006 81.5736 72.8202 80.2237C72.2398 78.8738 70.6352 78.2663 69.2696 78.84Z" fill="#26C6DA"/>
<path d="M30.8964 81.4386C29.599 80.7299 29.1211 79.11 29.838 77.7938C30.555 76.5114 32.1937 76.0389 33.5251 76.7476C34.8224 77.4563 35.3004 79.0763 34.5835 80.3924C34.1055 81.2699 33.1496 81.7761 32.2278 81.7761C31.7498 81.7761 31.306 81.6749 30.8964 81.4386Z" fill="#26C6DA"/>
<path d="M23.4538 73.1703C22.5321 74.3515 22.7369 76.0052 23.9318 76.9164C24.4098 77.2876 24.9901 77.4901 25.6047 77.4901C26.3899 77.4901 27.1751 77.1189 27.7213 76.4439C28.6431 75.2965 28.4041 73.6091 27.2434 72.6979C26.0826 71.7867 24.3756 71.9892 23.4538 73.1703Z" fill="#26C6DA"/>
<path d="M17.7525 71.4154C16.7283 70.3355 16.7624 68.6481 17.8208 67.6357C18.9132 66.6232 20.6202 66.657 21.6444 67.7031C22.6686 68.7493 22.6345 70.4705 21.5761 71.4829C21.064 71.9892 20.3812 72.2254 19.6984 72.2254C18.9815 72.2254 18.2646 71.9554 17.7525 71.4154Z" fill="#26C6DA"/>
<path d="M13.0753 61.3585C11.8463 62.236 11.5731 63.9234 12.4608 65.1046C12.9729 65.847 13.7922 66.2182 14.6457 66.2182C15.192 66.2182 15.7382 66.0495 16.2162 65.712C17.4452 64.8346 17.7183 63.1472 16.8307 61.966C15.9772 60.751 14.2702 60.4811 13.0753 61.3585Z" fill="#26C6DA"/>
<path d="M8.05673 58.2199C7.33979 56.9375 7.81775 55.3176 9.1492 54.6089C10.4465 53.9002 12.0852 54.3727 12.8022 55.6551C13.5191 56.9375 13.0412 58.5912 11.7438 59.2661C11.3342 59.5024 10.8903 59.6036 10.4465 59.6036C9.45646 59.6036 8.53469 59.0974 8.05673 58.2199Z" fill="#26C6DA"/>
<path d="M6.04247 47.3868C4.64273 47.9268 3.99407 49.4792 4.54031 50.8629C4.94999 51.9091 5.97419 52.5165 7.03253 52.5503C7.37393 52.5503 7.71533 52.4828 8.05673 52.3478C9.45646 51.8078 10.1051 50.2554 9.55888 48.8717C9.01264 47.4881 7.44221 46.8468 6.04247 47.3868Z" fill="#26C6DA"/>
<path d="M1.87739 43.1683C1.46772 41.7509 2.28707 40.266 3.72095 39.861C5.15483 39.456 6.65699 40.266 7.06667 41.6834C7.47635 43.1008 6.65699 44.5857 5.18897 44.9907C4.94999 45.0582 4.67687 45.0919 4.43789 45.0919C3.31127 45.1257 2.21879 44.3495 1.87739 43.1683Z" fill="#26C6DA"/>
<path d="M77.3268 80.19C77.1561 80.19 76.9854 80.19 76.7806 80.1225C76.6099 80.0888 76.4392 80.055 76.2685 79.9538C76.0978 79.8863 75.9612 79.8188 75.7905 79.7175C75.654 79.6163 75.5174 79.515 75.3808 79.38C75.2443 79.2451 75.1418 79.11 75.0394 78.9751C74.937 78.8401 74.8687 78.6713 74.8005 78.5026C74.7663 78.4183 74.7408 78.334 74.7152 78.2497C74.6896 78.1654 74.6639 78.0807 74.6298 77.9964C74.5956 77.8276 74.5615 77.6589 74.5615 77.4901C74.5615 77.3214 74.5615 77.1527 74.6298 76.9502C74.6639 76.7814 74.698 76.6127 74.8005 76.444C74.8517 76.3596 74.8858 76.2837 74.9199 76.2077C74.9541 76.1318 74.9883 76.0558 75.0395 75.9714C75.1419 75.8364 75.2443 75.7015 75.3808 75.5665C75.5174 75.4315 75.654 75.3303 75.7905 75.229C75.9271 75.1278 76.0979 75.0602 76.2686 74.9928C76.4392 74.9253 76.6099 74.8578 76.7806 74.824C77.6682 74.6553 78.59 74.9253 79.2045 75.5665C79.3411 75.7015 79.4435 75.8365 79.5459 75.9715C79.6483 76.1065 79.7166 76.2752 79.7849 76.444C79.819 76.5283 79.8446 76.6127 79.8703 76.6971C79.8959 76.7814 79.9215 76.8658 79.9556 76.9502C79.9897 77.1189 80.0239 77.2877 80.0239 77.4901C80.0239 77.6589 79.9897 77.8276 79.9556 77.9964C79.9215 78.1651 79.8873 78.3338 79.7849 78.5026C79.7337 78.587 79.6995 78.6629 79.6654 78.7388C79.6313 78.8147 79.5971 78.8907 79.5459 78.9751C79.4435 79.11 79.3411 79.245 79.2045 79.38C79.068 79.515 78.9314 79.6163 78.7948 79.7175C78.6583 79.8187 78.4876 79.8862 78.317 79.9537C78.1463 80.0212 77.9755 80.0887 77.8048 80.1225C77.6682 80.19 77.4975 80.19 77.3268 80.19Z" fill="#26C6DA"/>
<path d="M159.16 55.1151C158.955 55.1151 158.785 55.0476 158.648 54.9126C158.512 54.7776 158.443 54.6089 158.443 54.4064C158.443 54.2039 158.512 54.0352 158.648 53.9002C158.785 53.7652 158.955 53.6977 159.16 53.6977H160.936C161.14 53.6977 161.311 53.7652 161.448 53.9002C161.584 54.0352 161.652 54.2039 161.652 54.4064C161.652 54.6089 161.584 54.7776 161.448 54.9126C161.311 55.0476 161.14 55.1151 160.936 55.1151H159.16Z" fill="#26C6DA"/>
<path d="M157.59 62.4722C157.453 62.4047 157.317 62.3372 157.248 62.2022C157.146 62.0672 157.112 61.9322 157.112 61.7972V56.4988C157.112 56.2963 157.18 56.1275 157.317 55.9925C157.453 55.8576 157.624 55.7901 157.829 55.7901C158.034 55.7901 158.204 55.8576 158.341 55.9925C158.477 56.1275 158.546 56.2963 158.546 56.4988V59.8398L161.755 56.0263C161.857 55.925 161.96 55.8238 162.13 55.7901C162.267 55.7563 162.404 55.7563 162.574 55.8238C162.745 55.8913 162.847 55.9588 162.916 56.0938C163.018 56.2288 163.052 56.3638 163.052 56.4988V61.7972C163.052 61.9997 162.984 62.1684 162.847 62.3034C162.711 62.4384 162.54 62.5059 162.335 62.5059C162.13 62.5059 161.96 62.4384 161.823 62.3034C161.687 62.1684 161.618 61.9997 161.618 61.7972V58.4562L158.409 62.2697C158.273 62.4384 158.068 62.5397 157.863 62.5397C157.76 62.5397 157.658 62.5059 157.59 62.4722Z" fill="#26C6DA"/>
<path d="M115.871 62.2022C115.939 62.3371 116.076 62.4046 116.213 62.4721C116.281 62.5059 116.349 62.5396 116.486 62.5396C116.69 62.5396 116.895 62.4384 117.032 62.2697L120.241 58.4561V61.7972C120.241 61.9997 120.309 62.1684 120.446 62.3034C120.582 62.4384 120.753 62.5059 120.958 62.5059C121.163 62.5059 121.333 62.4384 121.47 62.3034C121.607 62.1684 121.675 61.9997 121.675 61.7972V56.4987C121.675 56.3637 121.641 56.2288 121.538 56.0938C121.436 55.9588 121.333 55.8913 121.197 55.8238C121.026 55.7563 120.89 55.7563 120.753 55.79C120.582 55.8238 120.48 55.925 120.378 56.0263L117.168 59.8398V56.4987C117.168 56.2962 117.1 56.1275 116.964 55.9925C116.827 55.8575 116.656 55.79 116.451 55.79C116.247 55.79 116.076 55.8575 115.939 55.9925C115.803 56.1275 115.735 56.2962 115.735 56.4987V61.7972C115.735 61.9322 115.769 62.0672 115.871 62.2022Z" fill="#26C6DA"/>
<path d="M71.2499 57.2075C71.0451 57.2075 70.8744 57.14 70.7378 57.005C70.6013 56.87 70.533 56.7013 70.533 56.4988C70.533 56.2963 70.6013 56.1276 70.7378 55.9926C70.8744 55.8576 71.0451 55.7901 71.2499 55.7901H75.7223C75.9271 55.7901 76.0978 55.8576 76.2344 55.9926C76.3709 56.1276 76.4392 56.2963 76.4392 56.4988C76.4392 56.7013 76.3709 56.87 76.2344 57.005C76.0978 57.14 75.9271 57.2075 75.7223 57.2075H74.186V61.7973C74.186 61.9997 74.1177 62.1685 73.9811 62.3035C73.8446 62.4385 73.6739 62.506 73.469 62.506C73.2642 62.506 73.0935 62.4385 72.9569 62.3035C72.8204 62.1685 72.7521 61.9997 72.7521 61.7973V57.2075H71.2499Z" fill="#26C6DA"/>
<path fill-rule="evenodd" clip-rule="evenodd" d="M55.0339 62.5397V62.7084C55.0339 62.9109 55.1022 63.0796 55.2387 63.2146C55.3753 63.3496 55.546 63.4171 55.7508 63.4171C55.9557 63.4171 56.1264 63.3496 56.2629 63.2146C56.3995 63.0796 56.4678 62.9109 56.4678 62.7084V61.831C56.4678 61.6285 56.3995 61.4597 56.2629 61.3247C56.1264 61.1897 55.9557 61.1222 55.7508 61.1222L53.2586 56.2288C53.1903 56.0938 53.0879 55.9925 52.9855 55.925C52.8831 55.8575 52.7465 55.8238 52.61 55.8238C52.4734 55.8238 52.3368 55.8575 52.2344 55.925C52.0979 56.0263 52.0296 56.0938 51.9613 56.2288L49.4691 61.1222C49.2642 61.1222 49.0935 61.1897 48.957 61.3247C48.8204 61.4597 48.7522 61.6285 48.7522 61.831V62.7084C48.7522 62.9109 48.8204 63.0796 48.957 63.2146C49.0935 63.3496 49.2642 63.4171 49.4691 63.4171C49.6739 63.4171 49.8446 63.3496 49.9812 63.2146C50.1177 63.0796 50.186 62.9109 50.186 62.7084V62.5397H55.0339ZM54.1121 61.1222H51.0737L52.5758 58.0849L54.1121 61.1222Z" fill="#26C6DA"/>
<path fill-rule="evenodd" clip-rule="evenodd" d="M56.6042 59.1649C56.6042 58.2199 56.9456 57.4437 57.5943 56.8025C58.2771 56.1275 59.0623 55.8238 59.9841 55.8238C60.94 55.8238 61.7252 56.1613 62.3739 56.8025C63.0567 57.4437 63.3639 58.2537 63.3639 59.1649C63.3639 60.0761 63.0225 60.886 62.3739 61.5272C61.7252 62.1684 60.9058 62.5059 59.9841 62.5059C59.0623 62.5059 58.2429 62.1684 57.5943 61.5272C56.9115 60.886 56.6042 60.1098 56.6042 59.1649ZM61.9642 59.1649C61.9642 58.6249 61.7593 58.1862 61.3838 57.7812C61.0083 57.41 60.5303 57.2075 59.9841 57.2075C59.4378 57.2075 58.994 57.41 58.5843 57.7812C58.2088 58.1524 58.0039 58.6249 58.0039 59.1649C58.0039 59.7048 58.2088 60.1436 58.5843 60.5485C58.9599 60.9535 59.4378 61.1222 59.9841 61.1222C60.5303 61.1222 61.0083 60.9198 61.3838 60.5485C61.7593 60.1773 61.9642 59.7048 61.9642 59.1649Z" fill="#26C6DA"/>
<path d="M67.4607 62.5396C66.5048 62.5396 65.7196 62.2021 65.0709 61.5609C64.4222 60.9197 64.0808 60.1098 64.0808 59.1986C64.0808 58.2536 64.4222 57.4774 65.0709 56.8362C65.7196 56.1612 66.5389 55.8575 67.4607 55.8575C68.4166 55.8575 69.2018 56.195 69.8505 56.8362C69.9871 56.9712 70.0553 57.1399 70.0553 57.3424C70.0553 57.5449 69.9871 57.7136 69.8505 57.8486C69.7139 57.9836 69.5432 58.0511 69.3384 58.0511C69.1336 58.0511 68.9629 57.9836 68.8263 57.8486C68.4508 57.4774 67.9728 57.2749 67.4266 57.2749C66.8803 57.2749 66.4365 57.4774 66.0268 57.8486C65.6171 58.2199 65.4464 58.6923 65.4464 59.2323C65.4464 59.7723 65.6513 60.211 66.0268 60.616C66.4024 61.021 66.8803 61.1897 67.4266 61.1897C67.9728 61.1897 68.4166 60.9872 68.8263 60.616C68.9629 60.481 69.1336 60.4135 69.3384 60.4135C69.5432 60.4135 69.7139 60.481 69.8505 60.616C69.9871 60.751 70.0553 60.9197 70.0553 61.1222C70.0553 61.3247 69.9871 61.4934 69.8505 61.6284C69.2018 62.2021 68.4166 62.5396 67.4607 62.5396Z" fill="#26C6DA"/>
<path fill-rule="evenodd" clip-rule="evenodd" d="M75.8587 62.0335C75.9269 62.2022 76.0635 62.3372 76.2342 62.4385C76.4049 62.5397 76.5756 62.5397 76.7804 62.4722C76.9511 62.4047 77.0877 62.2697 77.1901 62.101L77.6681 61.156H80.809L81.2869 62.101C81.3552 62.236 81.4576 62.3372 81.56 62.4047C81.6624 62.4722 81.799 62.506 81.9356 62.506C82.038 62.506 82.1404 62.506 82.2428 62.4385C82.4477 62.371 82.5501 62.236 82.6184 62.0335C82.6866 61.831 82.6866 61.6623 82.5842 61.4935L79.8872 56.1951C79.8189 56.0601 79.7165 55.9588 79.6141 55.8913C79.5116 55.8238 79.3751 55.7901 79.2385 55.7901C79.102 55.7901 78.9654 55.8238 78.863 55.8913C78.7264 55.9926 78.6581 56.0601 78.5899 56.1951L75.8928 61.4935C75.7904 61.6623 75.7904 61.8647 75.8587 62.0335ZM79.2385 58.085L80.092 59.7724H78.385L79.2385 58.085Z" fill="#26C6DA"/>
<path fill-rule="evenodd" clip-rule="evenodd" d="M83.6085 62.3372C83.745 62.4722 83.9157 62.5397 84.1206 62.5397V62.6072H87.2273C87.8077 62.6072 88.2856 62.4047 88.6953 61.9997C89.105 61.5947 89.3099 61.1222 89.3099 60.5485C89.3099 60.1773 89.2074 59.8398 89.0026 59.5023C88.7978 59.1649 88.5588 58.9286 88.2174 58.7599C88.3539 58.4561 88.4222 58.1862 88.4222 57.8824C88.4222 57.3087 88.2174 56.8362 87.8077 56.4313C87.398 56.0263 86.92 55.8238 86.3397 55.8238H84.1206C83.9157 55.8238 83.745 55.8913 83.6085 56.0263C83.4719 56.1613 83.4036 56.33 83.4036 56.5325V61.831C83.4036 62.0334 83.4719 62.2022 83.6085 62.3372ZM86.3738 58.4561H84.8375V57.2412H86.3738C86.5445 57.2412 86.6811 57.275 86.8176 57.41C86.9201 57.5449 86.9883 57.6799 86.9883 57.8487C86.9883 58.0174 86.9542 58.1524 86.8176 58.2874C86.6811 58.3887 86.5445 58.4561 86.3738 58.4561ZM87.2615 61.1222H84.8375V59.9073H87.2615C87.4322 59.9073 87.5687 59.9411 87.7053 60.0761C87.8077 60.211 87.876 60.346 87.876 60.5148C87.876 60.6835 87.8418 60.8185 87.7053 60.9535C87.5687 61.0547 87.4322 61.1222 87.2615 61.1222Z" fill="#26C6DA"/>
<path d="M96.172 56.3638C96.1379 56.195 96.0355 56.0263 95.8648 55.9251C95.7282 55.8238 95.5234 55.7901 95.3185 55.8576C95.1478 55.8913 94.9771 55.9926 94.8747 56.1613L93.3043 58.4899H91.7338V56.5325C91.7338 56.33 91.6656 56.1613 91.529 56.0263C91.3924 55.8913 91.2217 55.8238 91.0169 55.8238C90.8121 55.8238 90.6414 55.8913 90.5048 56.0263C90.3682 56.1613 90.3 56.33 90.3 56.5325V61.831C90.3 62.0335 90.3682 62.2022 90.5048 62.3372C90.6414 62.4722 90.8121 62.5397 91.0169 62.5397C91.2217 62.5397 91.3924 62.4722 91.529 62.3372C91.6656 62.2022 91.7338 62.0335 91.7338 61.831V59.8736H93.3043L94.8747 62.2022C95.0113 62.4047 95.2161 62.5059 95.4551 62.5059C95.6258 62.5059 95.7282 62.4722 95.8648 62.4047C96.0355 62.3034 96.1379 62.1685 96.172 61.966C96.2062 61.7635 96.172 61.5947 96.0696 61.426L94.5333 59.1649L96.0696 56.9038C96.172 56.735 96.2062 56.5663 96.172 56.3638Z" fill="#26C6DA"/>
<path fill-rule="evenodd" clip-rule="evenodd" d="M96.8206 62.0335C96.8889 62.2022 97.0255 62.3372 97.1962 62.4385C97.3668 62.5397 97.5375 62.5397 97.7424 62.4722C97.9131 62.4047 98.0496 62.2697 98.1521 62.101L98.63 61.156H101.771L102.249 62.101C102.317 62.236 102.42 62.3372 102.522 62.4047C102.624 62.4722 102.761 62.506 102.898 62.506C103 62.506 103.102 62.506 103.205 62.4385C103.41 62.371 103.512 62.236 103.58 62.0335C103.649 61.831 103.649 61.6623 103.546 61.4935L100.849 56.1951C100.781 56.0601 100.678 55.9588 100.576 55.8913C100.474 55.8238 100.337 55.7901 100.2 55.7901C100.064 55.7901 99.9273 55.8238 99.8249 55.8913C99.6884 55.9926 99.6201 56.0601 99.5518 56.1951L96.8548 61.4935C96.7523 61.6623 96.7523 61.8647 96.8206 62.0335ZM100.166 58.085L101.02 59.7724H99.3128L100.166 58.085Z" fill="#26C6DA"/>
<path d="M114.13 55.9926C113.993 55.8576 113.823 55.7901 113.618 55.7901H109.145C108.941 55.7901 108.77 55.8576 108.633 55.9926C108.497 56.1276 108.428 56.2963 108.428 56.4988V61.7973C108.428 61.9997 108.497 62.1685 108.633 62.3035C108.77 62.4385 108.941 62.506 109.145 62.506C109.35 62.506 109.521 62.4385 109.657 62.3035C109.794 62.1685 109.862 61.9997 109.862 61.7973V57.2075H112.901V61.7973C112.901 61.9997 112.969 62.1685 113.106 62.3035C113.242 62.4385 113.413 62.506 113.618 62.506C113.823 62.506 113.993 62.4385 114.13 62.3035C114.266 62.1685 114.335 61.9997 114.335 61.7973V56.4988C114.335 56.2963 114.266 56.1276 114.13 55.9926Z" fill="#26C6DA"/>
<path d="M123.109 57.2075C122.904 57.2075 122.733 57.14 122.596 57.005C122.46 56.87 122.392 56.7013 122.392 56.4988C122.392 56.2963 122.46 56.1276 122.596 55.9926C122.733 55.8576 122.904 55.7901 123.109 55.7901H127.581C127.786 55.7901 127.956 55.8576 128.093 55.9926C128.23 56.1276 128.298 56.2963 128.298 56.4988C128.298 56.7013 128.23 56.87 128.093 57.005C127.956 57.14 127.786 57.2075 127.581 57.2075H126.045V61.7973C126.045 61.9997 125.976 62.1685 125.84 62.3035C125.703 62.4385 125.532 62.506 125.328 62.506C125.123 62.506 124.952 62.4385 124.816 62.3035C124.679 62.1685 124.611 61.9997 124.611 61.7973V57.2075H123.109Z" fill="#26C6DA"/>
<path fill-rule="evenodd" clip-rule="evenodd" d="M132.463 57.5787C133.145 57.5787 133.76 57.8149 134.238 58.3211C134.716 58.7936 134.989 59.401 134.989 60.076C134.989 60.751 134.75 61.3247 134.238 61.8309C133.76 62.3034 133.145 62.5734 132.463 62.5734H129.766C129.561 62.5734 129.39 62.5059 129.254 62.3709C129.117 62.2359 129.049 62.0671 129.049 61.8647V56.5662C129.049 56.3637 129.117 56.195 129.254 56.06C129.39 55.925 129.561 55.8575 129.766 55.8575C129.97 55.8575 130.141 55.925 130.278 56.06C130.414 56.195 130.483 56.3637 130.483 56.5662V57.6124H132.463V57.5787ZM132.463 61.1222C132.77 61.1222 133.009 61.021 133.214 60.8185C133.419 60.616 133.521 60.346 133.521 60.076C133.521 59.7723 133.419 59.536 133.214 59.3335C133.009 59.1311 132.736 59.0298 132.463 59.0298H130.483V61.1559H132.463V61.1222Z" fill="#26C6DA"/>
<path d="M136.628 62.5397C136.423 62.5397 136.253 62.4722 136.116 62.3372C135.98 62.2022 135.911 62.0334 135.911 61.831V56.5325C135.911 56.33 135.98 56.1613 136.116 56.0263C136.253 55.8913 136.423 55.8238 136.628 55.8238H141.101C141.305 55.8238 141.476 55.8913 141.613 56.0263C141.749 56.1613 141.818 56.33 141.818 56.5325C141.818 56.735 141.749 56.9037 141.613 57.0387C141.476 57.1737 141.305 57.2412 141.101 57.2412H137.345V58.4899H140.213C140.418 58.4899 140.588 58.5574 140.725 58.6924C140.862 58.8274 140.93 58.9961 140.93 59.1986C140.93 59.4011 140.862 59.5698 140.725 59.7048C140.588 59.8398 140.418 59.9073 140.213 59.9073H137.345V61.156H141.101C141.305 61.156 141.476 61.2235 141.613 61.3585C141.749 61.4935 141.818 61.6622 141.818 61.8647C141.818 62.0672 141.749 62.2359 141.613 62.3709C141.476 62.5059 141.305 62.5734 141.101 62.5734H136.628V62.5397Z" fill="#26C6DA"/>
<path fill-rule="evenodd" clip-rule="evenodd" d="M143.49 62.5397C143.285 62.5397 143.115 62.4722 142.978 62.3372C142.842 62.2022 142.773 62.0334 142.773 61.831V56.5325C142.773 56.33 142.842 56.1613 142.978 56.0263C143.115 55.8913 143.285 55.8238 143.49 55.8238H145.709C146.29 55.8238 146.768 56.0263 147.177 56.4313C147.587 56.8362 147.792 57.3087 147.792 57.8824C147.792 58.1862 147.724 58.4561 147.587 58.7599C147.928 58.9286 148.167 59.1649 148.372 59.5023C148.577 59.8398 148.679 60.1773 148.679 60.5485C148.679 61.1222 148.475 61.5947 148.065 61.9997C147.655 62.4047 147.177 62.6072 146.597 62.6072H143.49V62.5397ZM144.207 58.4561H145.743C145.914 58.4561 146.051 58.3887 146.187 58.2874C146.324 58.1524 146.358 58.0174 146.358 57.8487C146.358 57.6799 146.29 57.5449 146.187 57.41C146.051 57.275 145.914 57.2412 145.743 57.2412H144.207V58.4561ZM144.207 61.1222H146.631C146.802 61.1222 146.938 61.0547 147.075 60.9535C147.211 60.8185 147.246 60.6835 147.246 60.5148C147.246 60.346 147.177 60.211 147.075 60.0761C146.938 59.9411 146.802 59.9073 146.631 59.9073H144.207V61.1222Z" fill="#26C6DA"/>
<path fill-rule="evenodd" clip-rule="evenodd" d="M149.294 59.1649C149.294 58.2199 149.636 57.4437 150.284 56.8025C150.967 56.1275 151.752 55.8238 152.674 55.8238C153.63 55.8238 154.415 56.1613 155.064 56.8025C155.747 57.4437 156.054 58.2537 156.054 59.1649C156.054 60.0761 155.712 60.886 155.064 61.5272C154.415 62.1684 153.596 62.5059 152.674 62.5059C151.752 62.5059 150.933 62.1684 150.284 61.5272C149.601 60.886 149.294 60.1098 149.294 59.1649ZM154.654 59.1649C154.654 58.6249 154.449 58.1862 154.074 57.7812C153.698 57.41 153.22 57.2075 152.674 57.2075C152.128 57.2075 151.684 57.41 151.274 57.7812C150.899 58.1524 150.694 58.6249 150.694 59.1649C150.694 59.7048 150.899 60.1436 151.274 60.5485C151.65 60.9535 152.128 61.1222 152.674 61.1222C153.22 61.1222 153.664 60.9198 154.074 60.5485C154.449 60.1773 154.654 59.7048 154.654 59.1649Z" fill="#26C6DA"/>
<path fill-rule="evenodd" clip-rule="evenodd" d="M168.583 62.3372C168.72 62.4722 168.89 62.5397 169.095 62.5397V62.6072H172.202C172.782 62.6072 173.26 62.4047 173.67 61.9997C174.08 61.5947 174.285 61.1222 174.285 60.5485C174.285 60.1773 174.182 59.8398 173.977 59.5023C173.772 59.1649 173.533 58.9286 173.192 58.7599C173.329 58.4561 173.397 58.1862 173.397 57.8824C173.397 57.3087 173.192 56.8362 172.782 56.4313C172.373 56.0263 171.895 55.8238 171.314 55.8238H169.095C168.89 55.8238 168.72 55.8913 168.583 56.0263C168.447 56.1613 168.378 56.33 168.378 56.5325V61.831C168.378 62.0334 168.447 62.2022 168.583 62.3372ZM171.349 58.4561H169.812V57.2412H171.349C171.519 57.2412 171.656 57.275 171.792 57.41C171.895 57.5449 171.963 57.6799 171.963 57.8487C171.963 58.0174 171.929 58.1524 171.792 58.2874C171.656 58.3887 171.519 58.4561 171.349 58.4561ZM172.236 61.1222H169.812V59.9073H172.236C172.407 59.9073 172.543 59.9411 172.68 60.0761C172.782 60.211 172.851 60.346 172.851 60.5148C172.851 60.6835 172.817 60.8185 172.68 60.9535C172.543 61.0547 172.407 61.1222 172.236 61.1222Z" fill="#26C6DA"/>
<path fill-rule="evenodd" clip-rule="evenodd" d="M175.889 56.8025C175.241 57.4437 174.899 58.2199 174.899 59.1649C174.899 60.1098 175.241 60.886 175.889 61.5272C176.538 62.1684 177.357 62.5059 178.279 62.5059C179.201 62.5059 180.02 62.1684 180.669 61.5272C181.318 60.886 181.659 60.0761 181.659 59.1649C181.659 58.2537 181.352 57.4437 180.669 56.8025C180.02 56.1613 179.235 55.8238 178.279 55.8238C177.357 55.8238 176.572 56.1275 175.889 56.8025ZM179.679 57.7812C180.054 58.1862 180.259 58.6249 180.259 59.1649C180.259 59.7048 180.089 60.1773 179.679 60.5485C179.303 60.9198 178.825 61.1222 178.279 61.1222C177.733 61.1222 177.255 60.9535 176.879 60.5485C176.504 60.1436 176.299 59.7048 176.299 59.1649C176.299 58.6249 176.504 58.1524 176.879 57.7812C177.289 57.41 177.733 57.2075 178.279 57.2075C178.825 57.2075 179.303 57.41 179.679 57.7812Z" fill="#26C6DA"/>
<path fill-rule="evenodd" clip-rule="evenodd" d="M183.298 62.7084V62.5397H188.145V62.7084C188.145 62.9109 188.214 63.0796 188.35 63.2146C188.487 63.3496 188.658 63.4171 188.862 63.4171C189.067 63.4171 189.238 63.3496 189.374 63.2146C189.511 63.0796 189.579 62.9109 189.579 62.7084V61.831C189.579 61.6285 189.511 61.4597 189.374 61.3247C189.238 61.1897 189.067 61.1222 188.862 61.1222L186.37 56.2288C186.302 56.0938 186.199 55.9925 186.097 55.925C185.995 55.8575 185.858 55.8238 185.721 55.8238C185.585 55.8238 185.448 55.8575 185.346 55.925C185.209 56.0263 185.141 56.0938 185.073 56.2288L182.581 61.1222C182.376 61.1222 182.205 61.1897 182.068 61.3247C181.932 61.4597 181.864 61.6285 181.864 61.831V62.7084C181.864 62.9109 181.932 63.0796 182.068 63.2146C182.205 63.3496 182.376 63.4171 182.581 63.4171C182.785 63.4171 182.956 63.3496 183.093 63.2146C183.229 63.0796 183.298 62.9109 183.298 62.7084ZM187.224 61.1222H184.185L185.687 58.1187L187.224 61.1222Z" fill="#26C6DA"/>
<path fill-rule="evenodd" clip-rule="evenodd" d="M195.485 58.3212C195.007 57.815 194.393 57.5787 193.71 57.5787V57.6125H191.73V56.5663C191.73 56.3638 191.662 56.1951 191.525 56.0601C191.388 55.9251 191.218 55.8576 191.013 55.8576C190.808 55.8576 190.637 55.9251 190.501 56.0601C190.364 56.1951 190.296 56.3638 190.296 56.5663V61.8647C190.296 62.0672 190.364 62.236 190.501 62.371C190.637 62.506 190.808 62.5735 191.013 62.5735H193.71C194.393 62.5735 195.007 62.3035 195.485 61.831C195.997 61.3248 196.236 60.7511 196.236 60.0761C196.236 59.4011 195.963 58.8274 195.485 58.3212ZM194.461 60.8186C194.256 61.0211 194.017 61.1223 193.71 61.1223V61.156H191.73V59.0299H193.71C193.983 59.0299 194.256 59.1312 194.461 59.3336C194.666 59.5361 194.768 59.7724 194.768 60.0761C194.768 60.3461 194.666 60.6161 194.461 60.8186Z" fill="#26C6DA"/>
<path d="M196.919 56.4988C196.919 56.2963 196.987 56.1276 197.124 55.9926C197.261 55.8576 197.431 55.7901 197.636 55.7901C197.841 55.7901 198.012 55.8576 198.148 55.9926C198.285 56.1276 198.353 56.2963 198.353 56.4988V61.7973C198.353 61.9997 198.285 62.1685 198.148 62.3035C198.012 62.4385 197.841 62.506 197.636 62.506C197.431 62.506 197.261 62.4385 197.124 62.3035C196.987 62.1685 196.919 61.9997 196.919 61.7973V56.4988Z" fill="#26C6DA"/>
</svg>
