<svg width="59" height="58" viewBox="0 0 59 58" fill="none" xmlns="http://www.w3.org/2000/svg">
<mask id="mask0_72_2267" style="mask-type:alpha" maskUnits="userSpaceOnUse" x="0" y="0" width="59" height="58">
<circle cx="29.2891" cy="28.9229" r="28.1178" fill="#D9D9D9" stroke="#2979FF" stroke-width="1.22251"/>
</mask>
<g mask="url(#mask0_72_2267)">
<circle cx="29.2891" cy="28.9229" r="28.1178" stroke="#7DD3FF" stroke-width="1.22251"/>
<mask id="path-3-inside-1_72_2267" fill="white">
<path d="M47.6307 27.5074H44.346L45.8185 26.0349C46.2097 25.6439 46.2097 25.01 45.8187 24.6191C45.4277 24.2281 44.7937 24.228 44.4028 24.619L41.5141 27.5074H36.6591L38.8193 25.1857C39.1959 24.7809 39.1731 24.1475 38.7682 23.7706C38.6022 23.6163 38.3977 23.5301 38.1881 23.5088C38.0611 23.5026 35.3187 23.5084 35.3187 23.5084L38.5284 20.2987H42.5579C43.111 20.2987 43.5591 19.8506 43.5591 19.2975C43.5591 18.7444 43.111 18.2963 42.5579 18.2963H40.5307L42.8922 15.9348C43.2832 15.5436 43.2832 14.9098 42.8922 14.5187C42.5011 14.1278 41.8451 14.1278 41.4539 14.5187L39.0426 16.908V14.8254C39.0426 14.2724 38.5945 13.8242 38.0414 13.8242C37.4884 13.8242 37.0402 14.2724 37.0402 14.8254V18.9105L33.7246 22.2484L33.6692 19.2254C33.6691 19.2206 33.6739 19.2161 33.6738 19.2113C33.6691 18.9678 33.5798 18.7252 33.3974 18.5359C33.0139 18.1378 32.3591 18.1261 31.9609 18.51L29.8316 20.5426V15.8409L32.6977 12.997C33.0887 12.6058 33.0998 11.972 32.7087 11.581C32.3176 11.1901 31.6671 11.1901 31.2761 11.581L29.8316 13.0089V9.75267C29.8316 9.1996 29.3834 8.75146 28.8303 8.75146C28.2773 8.75146 27.8291 9.1996 27.8291 9.75267V13.009L26.4234 11.5811C26.0323 11.1903 25.4097 11.1903 25.0186 11.5811C24.6276 11.9723 24.6109 12.6061 25.0019 12.9971L27.8291 15.8411V20.5696L25.6697 18.5037C25.2681 18.1237 24.6458 18.1409 24.2654 18.5423C24.1219 18.694 24.0407 18.8787 24.0099 19.0703C23.9909 19.1481 23.9828 19.2289 23.983 19.312L23.9713 22.146L20.6206 18.8161V14.8254C20.6206 14.2724 20.1725 13.8242 19.6194 13.8242C19.0663 13.8242 18.6182 14.2724 18.6182 14.8254V16.8137L16.3453 14.5187C15.9542 14.1278 15.3316 14.1278 14.9404 14.5187C14.5494 14.9098 14.555 15.5436 14.946 15.9348L17.3131 18.2963H15.1917C14.6386 18.2963 14.1905 18.7444 14.1905 19.2975C14.1905 19.8506 14.6386 20.2987 15.1917 20.2987H19.3156L22.6187 23.6019L19.5408 23.7128C19.004 23.7323 18.5363 24.1714 18.5311 24.7031C18.5306 24.718 18.4846 24.7331 18.4846 24.7481C18.4846 24.7485 18.4846 24.749 18.4846 24.7495C18.4846 24.7506 18.5306 24.7518 18.5306 24.7527C18.5366 25.003 18.6581 25.2515 18.8503 25.4413L20.965 27.5074H16.3297L13.4411 24.6188C13.05 24.228 12.4162 24.228 12.0252 24.6188C11.6342 25.01 11.6342 25.6438 12.0252 26.0348L13.4976 27.5072H10.1189C9.56582 27.5072 9.11768 27.9554 9.11768 28.5085C9.11768 29.0615 9.56582 29.5097 10.1189 29.5097H13.4589L12.0252 30.9434C11.6342 31.3345 11.6342 31.9684 12.0252 32.3594C12.2207 32.5548 12.4771 32.6525 12.7332 32.6525C12.9894 32.6525 13.2457 32.5548 13.4413 32.3594L16.2908 29.5098H20.9667L18.9306 31.6983C18.554 32.103 18.5768 32.7365 18.9817 33.1133C19.1745 33.2927 19.4191 33.3815 19.6633 33.3815C19.6678 33.3815 19.6724 33.3809 19.6771 33.3809C19.68 33.3809 19.6829 33.3813 19.6857 33.3813C19.6881 33.3813 19.6907 33.3813 19.6931 33.3813L22.6306 33.3646L19.2767 36.7185H15.1917C14.6386 36.7185 14.1905 37.1666 14.1905 37.7197C14.1905 38.2727 14.6386 38.7209 15.1917 38.7209H17.2743L14.9516 41.0435C14.5606 41.4347 14.5606 42.0685 14.9516 42.4595C15.1472 42.655 15.4035 42.7527 15.6597 42.7527C15.9159 42.7527 16.1499 42.655 16.3454 42.4595L18.6182 40.1646V42.1917C18.6182 42.7448 19.0663 43.1929 19.6194 43.1929C20.1725 43.1929 20.6206 42.7448 20.6206 42.1917V38.1622L24.0173 34.7877L24.1478 38.0437C24.1675 38.5838 24.6173 39.019 25.1532 39.0082C25.3353 39.0046 25.5329 38.9461 25.7289 38.8022C25.8708 38.6979 27.8293 36.6914 27.8293 36.6914V41.4151L25.0298 44.2367C24.6386 44.6277 24.6498 45.2617 25.0407 45.6527C25.2363 45.8483 25.4979 45.946 25.7542 45.946C26.0104 45.946 26.2472 45.8483 26.4427 45.6528L27.8293 44.2469V47.5315C27.8293 48.0846 28.2774 48.5327 28.8305 48.5327C29.3835 48.5327 29.8317 48.0846 29.8317 47.5315V44.1528L31.354 45.6528C31.5496 45.8483 31.817 45.946 32.0732 45.946C32.3294 45.946 32.5913 45.8483 32.7867 45.6528C33.1777 45.2617 33.1582 44.6279 32.7672 44.2369L29.8317 41.3207V36.5549C29.8317 36.5549 31.6644 38.2765 31.9537 38.5541C32.243 38.8318 32.4799 38.988 32.8248 38.988C32.8268 38.988 32.8288 38.988 32.8309 38.988C33.3838 38.988 33.8294 38.5069 33.8261 37.954L33.7852 34.7907L37.0404 38.0681V42.1917C37.0404 42.7448 37.4885 43.1929 38.0416 43.1929C38.5946 43.1929 39.0428 42.7448 39.0428 42.1917V40.0704L41.4542 42.4595C41.6498 42.655 41.917 42.7527 42.1733 42.7527C42.4295 42.7527 42.6913 42.655 42.8869 42.4595C43.2779 42.0684 43.2807 41.4346 42.8897 41.0435L40.5695 38.7209H42.5579C43.111 38.7209 43.5591 38.2727 43.5591 37.7197C43.5591 37.1666 43.111 36.7185 42.5579 36.7185H38.5673L35.1309 33.2821L38.2091 33.1711C38.22 33.1707 38.2307 33.169 38.2415 33.1683C38.2455 33.1681 38.2496 33.1677 38.2536 33.1673C38.7845 33.1247 39.193 32.6721 39.1736 32.1346C39.162 31.811 38.9974 31.5297 38.7524 31.3553L36.9029 29.5098H41.5531L44.4026 32.3594C44.5981 32.5549 44.8543 32.6526 45.1106 32.6526C45.3668 32.6526 45.6231 32.5549 45.8185 32.3595C46.2097 31.9685 46.2097 31.3345 45.8187 30.9437L44.3849 29.5099H47.6307C48.1838 29.5099 48.6319 29.0618 48.6319 28.5087C48.6319 27.9557 48.1838 27.5074 47.6307 27.5074ZM35.7891 25.5027L33.9239 27.5074H31.3199L33.3226 25.5047L35.7891 25.5027ZM31.7062 21.5381L31.7537 24.2082L29.8316 26.1192V23.3237L31.7062 21.5381ZM25.973 21.5489L27.8291 23.3274V26.0247L25.9702 24.1547L25.973 21.5489ZM21.9147 25.631L24.5528 25.5359L26.5242 27.5074H23.8144L21.9147 25.631ZM21.9659 31.3756L23.7019 29.5098H26.4854L24.6377 31.3575L21.9659 31.3756ZM26.0531 35.6637L25.9391 32.8548L27.8291 30.9537V33.8377L26.0531 35.6637ZM31.7875 35.619L29.8316 33.8198V30.859L31.7595 32.7759L31.7875 35.619ZM35.8153 31.2538L33.1969 31.348L31.3587 29.5098H34.0676L35.8153 31.2538Z"/>
</mask>
<path d="M47.6307 27.5074H44.346L45.8185 26.0349C46.2097 25.6439 46.2097 25.01 45.8187 24.6191C45.4277 24.2281 44.7937 24.228 44.4028 24.619L41.5141 27.5074H36.6591L38.8193 25.1857C39.1959 24.7809 39.1731 24.1475 38.7682 23.7706C38.6022 23.6163 38.3977 23.5301 38.1881 23.5088C38.0611 23.5026 35.3187 23.5084 35.3187 23.5084L38.5284 20.2987H42.5579C43.111 20.2987 43.5591 19.8506 43.5591 19.2975C43.5591 18.7444 43.111 18.2963 42.5579 18.2963H40.5307L42.8922 15.9348C43.2832 15.5436 43.2832 14.9098 42.8922 14.5187C42.5011 14.1278 41.8451 14.1278 41.4539 14.5187L39.0426 16.908V14.8254C39.0426 14.2724 38.5945 13.8242 38.0414 13.8242C37.4884 13.8242 37.0402 14.2724 37.0402 14.8254V18.9105L33.7246 22.2484L33.6692 19.2254C33.6691 19.2206 33.6739 19.2161 33.6738 19.2113C33.6691 18.9678 33.5798 18.7252 33.3974 18.5359C33.0139 18.1378 32.3591 18.1261 31.9609 18.51L29.8316 20.5426V15.8409L32.6977 12.997C33.0887 12.6058 33.0998 11.972 32.7087 11.581C32.3176 11.1901 31.6671 11.1901 31.2761 11.581L29.8316 13.0089V9.75267C29.8316 9.1996 29.3834 8.75146 28.8303 8.75146C28.2773 8.75146 27.8291 9.1996 27.8291 9.75267V13.009L26.4234 11.5811C26.0323 11.1903 25.4097 11.1903 25.0186 11.5811C24.6276 11.9723 24.6109 12.6061 25.0019 12.9971L27.8291 15.8411V20.5696L25.6697 18.5037C25.2681 18.1237 24.6458 18.1409 24.2654 18.5423C24.1219 18.694 24.0407 18.8787 24.0099 19.0703C23.9909 19.1481 23.9828 19.2289 23.983 19.312L23.9713 22.146L20.6206 18.8161V14.8254C20.6206 14.2724 20.1725 13.8242 19.6194 13.8242C19.0663 13.8242 18.6182 14.2724 18.6182 14.8254V16.8137L16.3453 14.5187C15.9542 14.1278 15.3316 14.1278 14.9404 14.5187C14.5494 14.9098 14.555 15.5436 14.946 15.9348L17.3131 18.2963H15.1917C14.6386 18.2963 14.1905 18.7444 14.1905 19.2975C14.1905 19.8506 14.6386 20.2987 15.1917 20.2987H19.3156L22.6187 23.6019L19.5408 23.7128C19.004 23.7323 18.5363 24.1714 18.5311 24.7031C18.5306 24.718 18.4846 24.7331 18.4846 24.7481C18.4846 24.7485 18.4846 24.749 18.4846 24.7495C18.4846 24.7506 18.5306 24.7518 18.5306 24.7527C18.5366 25.003 18.6581 25.2515 18.8503 25.4413L20.965 27.5074H16.3297L13.4411 24.6188C13.05 24.228 12.4162 24.228 12.0252 24.6188C11.6342 25.01 11.6342 25.6438 12.0252 26.0348L13.4976 27.5072H10.1189C9.56582 27.5072 9.11768 27.9554 9.11768 28.5085C9.11768 29.0615 9.56582 29.5097 10.1189 29.5097H13.4589L12.0252 30.9434C11.6342 31.3345 11.6342 31.9684 12.0252 32.3594C12.2207 32.5548 12.4771 32.6525 12.7332 32.6525C12.9894 32.6525 13.2457 32.5548 13.4413 32.3594L16.2908 29.5098H20.9667L18.9306 31.6983C18.554 32.103 18.5768 32.7365 18.9817 33.1133C19.1745 33.2927 19.4191 33.3815 19.6633 33.3815C19.6678 33.3815 19.6724 33.3809 19.6771 33.3809C19.68 33.3809 19.6829 33.3813 19.6857 33.3813C19.6881 33.3813 19.6907 33.3813 19.6931 33.3813L22.6306 33.3646L19.2767 36.7185H15.1917C14.6386 36.7185 14.1905 37.1666 14.1905 37.7197C14.1905 38.2727 14.6386 38.7209 15.1917 38.7209H17.2743L14.9516 41.0435C14.5606 41.4347 14.5606 42.0685 14.9516 42.4595C15.1472 42.655 15.4035 42.7527 15.6597 42.7527C15.9159 42.7527 16.1499 42.655 16.3454 42.4595L18.6182 40.1646V42.1917C18.6182 42.7448 19.0663 43.1929 19.6194 43.1929C20.1725 43.1929 20.6206 42.7448 20.6206 42.1917V38.1622L24.0173 34.7877L24.1478 38.0437C24.1675 38.5838 24.6173 39.019 25.1532 39.0082C25.3353 39.0046 25.5329 38.9461 25.7289 38.8022C25.8708 38.6979 27.8293 36.6914 27.8293 36.6914V41.4151L25.0298 44.2367C24.6386 44.6277 24.6498 45.2617 25.0407 45.6527C25.2363 45.8483 25.4979 45.946 25.7542 45.946C26.0104 45.946 26.2472 45.8483 26.4427 45.6528L27.8293 44.2469V47.5315C27.8293 48.0846 28.2774 48.5327 28.8305 48.5327C29.3835 48.5327 29.8317 48.0846 29.8317 47.5315V44.1528L31.354 45.6528C31.5496 45.8483 31.817 45.946 32.0732 45.946C32.3294 45.946 32.5913 45.8483 32.7867 45.6528C33.1777 45.2617 33.1582 44.6279 32.7672 44.2369L29.8317 41.3207V36.5549C29.8317 36.5549 31.6644 38.2765 31.9537 38.5541C32.243 38.8318 32.4799 38.988 32.8248 38.988C32.8268 38.988 32.8288 38.988 32.8309 38.988C33.3838 38.988 33.8294 38.5069 33.8261 37.954L33.7852 34.7907L37.0404 38.0681V42.1917C37.0404 42.7448 37.4885 43.1929 38.0416 43.1929C38.5946 43.1929 39.0428 42.7448 39.0428 42.1917V40.0704L41.4542 42.4595C41.6498 42.655 41.917 42.7527 42.1733 42.7527C42.4295 42.7527 42.6913 42.655 42.8869 42.4595C43.2779 42.0684 43.2807 41.4346 42.8897 41.0435L40.5695 38.7209H42.5579C43.111 38.7209 43.5591 38.2727 43.5591 37.7197C43.5591 37.1666 43.111 36.7185 42.5579 36.7185H38.5673L35.1309 33.2821L38.2091 33.1711C38.22 33.1707 38.2307 33.169 38.2415 33.1683C38.2455 33.1681 38.2496 33.1677 38.2536 33.1673C38.7845 33.1247 39.193 32.6721 39.1736 32.1346C39.162 31.811 38.9974 31.5297 38.7524 31.3553L36.9029 29.5098H41.5531L44.4026 32.3594C44.5981 32.5549 44.8543 32.6526 45.1106 32.6526C45.3668 32.6526 45.6231 32.5549 45.8185 32.3595C46.2097 31.9685 46.2097 31.3345 45.8187 30.9437L44.3849 29.5099H47.6307C48.1838 29.5099 48.6319 29.0618 48.6319 28.5087C48.6319 27.9557 48.1838 27.5074 47.6307 27.5074ZM35.7891 25.5027L33.9239 27.5074H31.3199L33.3226 25.5047L35.7891 25.5027ZM31.7062 21.5381L31.7537 24.2082L29.8316 26.1192V23.3237L31.7062 21.5381ZM25.973 21.5489L27.8291 23.3274V26.0247L25.9702 24.1547L25.973 21.5489ZM21.9147 25.631L24.5528 25.5359L26.5242 27.5074H23.8144L21.9147 25.631ZM21.9659 31.3756L23.7019 29.5098H26.4854L24.6377 31.3575L21.9659 31.3756ZM26.0531 35.6637L25.9391 32.8548L27.8291 30.9537V33.8377L26.0531 35.6637ZM31.7875 35.619L29.8316 33.8198V30.859L31.7595 32.7759L31.7875 35.619ZM35.8153 31.2538L33.1969 31.348L31.3587 29.5098H34.0676L35.8153 31.2538Z" fill="#7DD3FF" stroke="#7DD3FF" stroke-width="6.56383" mask="url(#path-3-inside-1_72_2267)"/>
</g>
</svg>
