<svg xmlns="http://www.w3.org/2000/svg" viewBox="0 0 24 24">
	<path d="M12 11V20C12 20.5304 11.7893 21.0391 11.4142 21.4142C11.0391 21.7893 10.5304 22 10 22H8C7.46957 22 6.96086 21.7893 6.58579 21.4142C6.21071 21.0391 6 20.5304 6 20V11C6.0011 10.7354 6.0547 10.4736 6.15769 10.2299C6.26068 9.98612 6.41102 9.76523 6.6 9.58C8.1 7.89 8 4 8 4H7V2H11V4H10C10 4 9.9 7.89 11.4 9.58C11.589 9.76523 11.7393 9.98612 11.8423 10.2299C11.9453 10.4736 11.9989 10.7354 12 11Z" fill="black"/>
	<path d="M14.91 3.5H14.5V2.5H17.5V3.5H17.09H16.5116L16.5953 4.07234C16.8599 5.88184 17.5096 7.61288 18.5 9.14882V13.5574C18.2119 13.8531 17.978 14.1978 17.8096 14.576C17.6099 15.0242 17.5068 15.5093 17.5068 16C17.5068 16.4907 17.6099 16.9758 17.8096 17.424C17.978 17.8022 18.2119 18.1469 18.5 18.4426V20C18.5 20.3978 18.342 20.7794 18.0607 21.0607C17.7794 21.342 17.3978 21.5 17 21.5H15C14.6022 21.5 14.2206 21.342 13.9393 21.0607C13.658 20.7794 13.5 20.3978 13.5 20V18.4426C13.7881 18.1469 14.022 17.8022 14.1904 17.424C14.3901 16.9758 14.4932 16.4907 14.4932 16C14.4932 15.5093 14.3901 15.0242 14.1904 14.576C14.022 14.1978 13.7881 13.8531 13.5 13.5574V9.14882C14.4904 7.61288 15.1401 5.88184 15.4047 4.07234L15.4884 3.5H14.91Z" stroke="black"/>
</svg>
