<svg width="129" height="129" viewBox="0 0 129 129" fill="none" xmlns="http://www.w3.org/2000/svg">
<g clip-path="url(#clip0_641_6027)">
<path d="M129 0H0V129H129V0Z" fill="white"/>
<path d="M24.8947 4.52631H22.6316V6.78947H24.8947V4.52631Z" fill="black"/>
<path d="M29.4211 4.52631H27.158V6.78947H29.4211V4.52631Z" fill="black"/>
<path d="M31.6843 4.52631H29.4211V6.78947H31.6843V4.52631Z" fill="black"/>
<path d="M36.2105 4.52631H33.9474V6.78947H36.2105V4.52631Z" fill="black"/>
<path d="M40.7369 4.52631H38.4738V6.78947H40.7369V4.52631Z" fill="black"/>
<path d="M49.7895 4.52631H47.5264V6.78947H49.7895V4.52631Z" fill="black"/>
<path d="M52.0527 4.52631H49.7896V6.78947H52.0527V4.52631Z" fill="black"/>
<path d="M61.1053 4.52631H58.8422V6.78947H61.1053V4.52631Z" fill="black"/>
<path d="M67.8947 4.52631H65.6316V6.78947H67.8947V4.52631Z" fill="black"/>
<path d="M70.1579 4.52631H67.8948V6.78947H70.1579V4.52631Z" fill="black"/>
<path d="M72.4211 4.52631H70.158V6.78947H72.4211V4.52631Z" fill="black"/>
<path d="M74.6843 4.52631H72.4211V6.78947H74.6843V4.52631Z" fill="black"/>
<path d="M76.9474 4.52631H74.6842V6.78947H76.9474V4.52631Z" fill="black"/>
<path d="M101.842 4.52631H99.579V6.78947H101.842V4.52631Z" fill="black"/>
<path d="M24.8947 6.78947H22.6316V9.05263H24.8947V6.78947Z" fill="black"/>
<path d="M29.4211 6.78947H27.158V9.05263H29.4211V6.78947Z" fill="black"/>
<path d="M31.6843 6.78947H29.4211V9.05263H31.6843V6.78947Z" fill="black"/>
<path d="M33.9474 6.78947H31.6842V9.05263H33.9474V6.78947Z" fill="black"/>
<path d="M36.2105 6.78947H33.9474V9.05263H36.2105V6.78947Z" fill="black"/>
<path d="M38.4737 6.78947H36.2106V9.05263H38.4737V6.78947Z" fill="black"/>
<path d="M45.2632 6.78947H43V9.05263H45.2632V6.78947Z" fill="black"/>
<path d="M47.5263 6.78947H45.2632V9.05263H47.5263V6.78947Z" fill="black"/>
<path d="M49.7895 6.78947H47.5264V9.05263H49.7895V6.78947Z" fill="black"/>
<path d="M52.0527 6.78947H49.7896V9.05263H52.0527V6.78947Z" fill="black"/>
<path d="M63.3685 6.78947H61.1053V9.05263H63.3685V6.78947Z" fill="black"/>
<path d="M65.6317 6.78947H63.3685V9.05263H65.6317V6.78947Z" fill="black"/>
<path d="M72.4211 6.78947H70.158V9.05263H72.4211V6.78947Z" fill="black"/>
<path d="M76.9474 6.78947H74.6842V9.05263H76.9474V6.78947Z" fill="black"/>
<path d="M79.2105 6.78947H76.9474V9.05263H79.2105V6.78947Z" fill="black"/>
<path d="M83.7369 6.78947H81.4738V9.05263H83.7369V6.78947Z" fill="black"/>
<path d="M88.2632 6.78947H86V9.05263H88.2632V6.78947Z" fill="black"/>
<path d="M90.5263 6.78947H88.2632V9.05263H90.5263V6.78947Z" fill="black"/>
<path d="M95.0527 6.78947H92.7896V9.05263H95.0527V6.78947Z" fill="black"/>
<path d="M97.3159 6.78947H95.0527V9.05263H97.3159V6.78947Z" fill="black"/>
<path d="M101.842 6.78947H99.579V9.05263H101.842V6.78947Z" fill="black"/>
<path d="M104.105 6.78947H101.842V9.05263H104.105V6.78947Z" fill="black"/>
<path d="M31.6843 9.05263H29.4211V11.3158H31.6843V9.05263Z" fill="black"/>
<path d="M36.2105 9.05263H33.9474V11.3158H36.2105V9.05263Z" fill="black"/>
<path d="M40.7369 9.05263H38.4738V11.3158H40.7369V9.05263Z" fill="black"/>
<path d="M56.579 9.05263H54.3158V11.3158H56.579V9.05263Z" fill="black"/>
<path d="M63.3685 9.05263H61.1053V11.3158H63.3685V9.05263Z" fill="black"/>
<path d="M79.2105 9.05263H76.9474V11.3158H79.2105V9.05263Z" fill="black"/>
<path d="M83.7369 9.05263H81.4738V11.3158H83.7369V9.05263Z" fill="black"/>
<path d="M88.2632 9.05263H86V11.3158H88.2632V9.05263Z" fill="black"/>
<path d="M90.5263 9.05263H88.2632V11.3158H90.5263V9.05263Z" fill="black"/>
<path d="M104.105 9.05263H101.842V11.3158H104.105V9.05263Z" fill="black"/>
<path d="M24.8947 11.3158H22.6316V13.5789H24.8947V11.3158Z" fill="black"/>
<path d="M29.4211 11.3158H27.158V13.5789H29.4211V11.3158Z" fill="black"/>
<path d="M31.6843 11.3158H29.4211V13.5789H31.6843V11.3158Z" fill="black"/>
<path d="M40.7369 11.3158H38.4738V13.5789H40.7369V11.3158Z" fill="black"/>
<path d="M43.0001 11.3158H40.7369V13.5789H43.0001V11.3158Z" fill="black"/>
<path d="M49.7895 11.3158H47.5264V13.5789H49.7895V11.3158Z" fill="black"/>
<path d="M54.3159 11.3158H52.0527V13.5789H54.3159V11.3158Z" fill="black"/>
<path d="M58.8421 11.3158H56.579V13.5789H58.8421V11.3158Z" fill="black"/>
<path d="M63.3685 11.3158H61.1053V13.5789H63.3685V11.3158Z" fill="black"/>
<path d="M67.8947 11.3158H65.6316V13.5789H67.8947V11.3158Z" fill="black"/>
<path d="M74.6843 11.3158H72.4211V13.5789H74.6843V11.3158Z" fill="black"/>
<path d="M76.9474 11.3158H74.6842V13.5789H76.9474V11.3158Z" fill="black"/>
<path d="M81.4737 11.3158H79.2106V13.5789H81.4737V11.3158Z" fill="black"/>
<path d="M83.7369 11.3158H81.4738V13.5789H83.7369V11.3158Z" fill="black"/>
<path d="M86.0001 11.3158H83.7369V13.5789H86.0001V11.3158Z" fill="black"/>
<path d="M88.2632 11.3158H86V13.5789H88.2632V11.3158Z" fill="black"/>
<path d="M90.5263 11.3158H88.2632V13.5789H90.5263V11.3158Z" fill="black"/>
<path d="M95.0527 11.3158H92.7896V13.5789H95.0527V11.3158Z" fill="black"/>
<path d="M99.579 11.3158H97.3158V13.5789H99.579V11.3158Z" fill="black"/>
<path d="M101.842 11.3158H99.579V13.5789H101.842V11.3158Z" fill="black"/>
<path d="M106.369 11.3158H104.105V13.5789H106.369V11.3158Z" fill="black"/>
<path d="M27.1579 13.5789H24.8948V15.8421H27.1579V13.5789Z" fill="black"/>
<path d="M31.6843 13.5789H29.4211V15.8421H31.6843V13.5789Z" fill="black"/>
<path d="M38.4737 13.5789H36.2106V15.8421H38.4737V13.5789Z" fill="black"/>
<path d="M40.7369 13.5789H38.4738V15.8421H40.7369V13.5789Z" fill="black"/>
<path d="M43.0001 13.5789H40.7369V15.8421H43.0001V13.5789Z" fill="black"/>
<path d="M45.2632 13.5789H43V15.8421H45.2632V13.5789Z" fill="black"/>
<path d="M47.5263 13.5789H45.2632V15.8421H47.5263V13.5789Z" fill="black"/>
<path d="M49.7895 13.5789H47.5264V15.8421H49.7895V13.5789Z" fill="black"/>
<path d="M52.0527 13.5789H49.7896V15.8421H52.0527V13.5789Z" fill="black"/>
<path d="M56.579 13.5789H54.3158V15.8421H56.579V13.5789Z" fill="black"/>
<path d="M58.8421 13.5789H56.579V15.8421H58.8421V13.5789Z" fill="black"/>
<path d="M61.1053 13.5789H58.8422V15.8421H61.1053V13.5789Z" fill="black"/>
<path d="M63.3685 13.5789H61.1053V15.8421H63.3685V13.5789Z" fill="black"/>
<path d="M65.6317 13.5789H63.3685V15.8421H65.6317V13.5789Z" fill="black"/>
<path d="M67.8947 13.5789H65.6316V15.8421H67.8947V13.5789Z" fill="black"/>
<path d="M70.1579 13.5789H67.8948V15.8421H70.1579V13.5789Z" fill="black"/>
<path d="M72.4211 13.5789H70.158V15.8421H72.4211V13.5789Z" fill="black"/>
<path d="M88.2632 13.5789H86V15.8421H88.2632V13.5789Z" fill="black"/>
<path d="M90.5263 13.5789H88.2632V15.8421H90.5263V13.5789Z" fill="black"/>
<path d="M92.7895 13.5789H90.5264V15.8421H92.7895V13.5789Z" fill="black"/>
<path d="M101.842 13.5789H99.579V15.8421H101.842V13.5789Z" fill="black"/>
<path d="M29.4211 15.8421H27.158V18.1053H29.4211V15.8421Z" fill="black"/>
<path d="M31.6843 15.8421H29.4211V18.1053H31.6843V15.8421Z" fill="black"/>
<path d="M33.9474 15.8421H31.6842V18.1053H33.9474V15.8421Z" fill="black"/>
<path d="M36.2105 15.8421H33.9474V18.1053H36.2105V15.8421Z" fill="black"/>
<path d="M38.4737 15.8421H36.2106V18.1053H38.4737V15.8421Z" fill="black"/>
<path d="M40.7369 15.8421H38.4738V18.1053H40.7369V15.8421Z" fill="black"/>
<path d="M43.0001 15.8421H40.7369V18.1053H43.0001V15.8421Z" fill="black"/>
<path d="M47.5263 15.8421H45.2632V18.1053H47.5263V15.8421Z" fill="black"/>
<path d="M49.7895 15.8421H47.5264V18.1053H49.7895V15.8421Z" fill="black"/>
<path d="M52.0527 15.8421H49.7896V18.1053H52.0527V15.8421Z" fill="black"/>
<path d="M54.3159 15.8421H52.0527V18.1053H54.3159V15.8421Z" fill="black"/>
<path d="M56.579 15.8421H54.3158V18.1053H56.579V15.8421Z" fill="black"/>
<path d="M61.1053 15.8421H58.8422V18.1053H61.1053V15.8421Z" fill="black"/>
<path d="M70.1579 15.8421H67.8948V18.1053H70.1579V15.8421Z" fill="black"/>
<path d="M74.6843 15.8421H72.4211V18.1053H74.6843V15.8421Z" fill="black"/>
<path d="M76.9474 15.8421H74.6842V18.1053H76.9474V15.8421Z" fill="black"/>
<path d="M81.4737 15.8421H79.2106V18.1053H81.4737V15.8421Z" fill="black"/>
<path d="M86.0001 15.8421H83.7369V18.1053H86.0001V15.8421Z" fill="black"/>
<path d="M88.2632 15.8421H86V18.1053H88.2632V15.8421Z" fill="black"/>
<path d="M92.7895 15.8421H90.5264V18.1053H92.7895V15.8421Z" fill="black"/>
<path d="M97.3159 15.8421H95.0527V18.1053H97.3159V15.8421Z" fill="black"/>
<path d="M99.579 15.8421H97.3158V18.1053H99.579V15.8421Z" fill="black"/>
<path d="M101.842 15.8421H99.579V18.1053H101.842V15.8421Z" fill="black"/>
<path d="M24.8947 18.1053H22.6316V20.3684H24.8947V18.1053Z" fill="black"/>
<path d="M29.4211 18.1053H27.158V20.3684H29.4211V18.1053Z" fill="black"/>
<path d="M33.9474 18.1053H31.6842V20.3684H33.9474V18.1053Z" fill="black"/>
<path d="M38.4737 18.1053H36.2106V20.3684H38.4737V18.1053Z" fill="black"/>
<path d="M43.0001 18.1053H40.7369V20.3684H43.0001V18.1053Z" fill="black"/>
<path d="M47.5263 18.1053H45.2632V20.3684H47.5263V18.1053Z" fill="black"/>
<path d="M52.0527 18.1053H49.7896V20.3684H52.0527V18.1053Z" fill="black"/>
<path d="M56.579 18.1053H54.3158V20.3684H56.579V18.1053Z" fill="black"/>
<path d="M61.1053 18.1053H58.8422V20.3684H61.1053V18.1053Z" fill="black"/>
<path d="M65.6317 18.1053H63.3685V20.3684H65.6317V18.1053Z" fill="black"/>
<path d="M70.1579 18.1053H67.8948V20.3684H70.1579V18.1053Z" fill="black"/>
<path d="M74.6843 18.1053H72.4211V20.3684H74.6843V18.1053Z" fill="black"/>
<path d="M79.2105 18.1053H76.9474V20.3684H79.2105V18.1053Z" fill="black"/>
<path d="M83.7369 18.1053H81.4738V20.3684H83.7369V18.1053Z" fill="black"/>
<path d="M88.2632 18.1053H86V20.3684H88.2632V18.1053Z" fill="black"/>
<path d="M92.7895 18.1053H90.5264V20.3684H92.7895V18.1053Z" fill="black"/>
<path d="M97.3159 18.1053H95.0527V20.3684H97.3159V18.1053Z" fill="black"/>
<path d="M101.842 18.1053H99.579V20.3684H101.842V18.1053Z" fill="black"/>
<path d="M106.369 18.1053H104.105V20.3684H106.369V18.1053Z" fill="black"/>
<path d="M24.8947 20.3684H22.6316V22.6316H24.8947V20.3684Z" fill="black"/>
<path d="M31.6843 20.3684H29.4211V22.6316H31.6843V20.3684Z" fill="black"/>
<path d="M33.9474 20.3684H31.6842V22.6316H33.9474V20.3684Z" fill="black"/>
<path d="M36.2105 20.3684H33.9474V22.6316H36.2105V20.3684Z" fill="black"/>
<path d="M38.4737 20.3684H36.2106V22.6316H38.4737V20.3684Z" fill="black"/>
<path d="M40.7369 20.3684H38.4738V22.6316H40.7369V20.3684Z" fill="black"/>
<path d="M45.2632 20.3684H43V22.6316H45.2632V20.3684Z" fill="black"/>
<path d="M47.5263 20.3684H45.2632V22.6316H47.5263V20.3684Z" fill="black"/>
<path d="M49.7895 20.3684H47.5264V22.6316H49.7895V20.3684Z" fill="black"/>
<path d="M52.0527 20.3684H49.7896V22.6316H52.0527V20.3684Z" fill="black"/>
<path d="M58.8421 20.3684H56.579V22.6316H58.8421V20.3684Z" fill="black"/>
<path d="M61.1053 20.3684H58.8422V22.6316H61.1053V20.3684Z" fill="black"/>
<path d="M70.1579 20.3684H67.8948V22.6316H70.1579V20.3684Z" fill="black"/>
<path d="M79.2105 20.3684H76.9474V22.6316H79.2105V20.3684Z" fill="black"/>
<path d="M81.4737 20.3684H79.2106V22.6316H81.4737V20.3684Z" fill="black"/>
<path d="M88.2632 20.3684H86V22.6316H88.2632V20.3684Z" fill="black"/>
<path d="M90.5263 20.3684H88.2632V22.6316H90.5263V20.3684Z" fill="black"/>
<path d="M95.0527 20.3684H92.7896V22.6316H95.0527V20.3684Z" fill="black"/>
<path d="M97.3159 20.3684H95.0527V22.6316H97.3159V20.3684Z" fill="black"/>
<path d="M99.579 20.3684H97.3158V22.6316H99.579V20.3684Z" fill="black"/>
<path d="M106.369 20.3684H104.105V22.6316H106.369V20.3684Z" fill="black"/>
<path d="M6.78953 22.6316H4.52637V24.8947H6.78953V22.6316Z" fill="black"/>
<path d="M11.3159 22.6316H9.05273V24.8947H11.3159V22.6316Z" fill="black"/>
<path d="M13.579 22.6316H11.3158V24.8947H13.579V22.6316Z" fill="black"/>
<path d="M18.1053 22.6316H15.8422V24.8947H18.1053V22.6316Z" fill="black"/>
<path d="M20.3685 22.6316H18.1053V24.8947H20.3685V22.6316Z" fill="black"/>
<path d="M22.6317 22.6316H20.3685V24.8947H22.6317V22.6316Z" fill="black"/>
<path d="M29.4211 22.6316H27.158V24.8947H29.4211V22.6316Z" fill="black"/>
<path d="M31.6843 22.6316H29.4211V24.8947H31.6843V22.6316Z" fill="black"/>
<path d="M36.2105 22.6316H33.9474V24.8947H36.2105V22.6316Z" fill="black"/>
<path d="M40.7369 22.6316H38.4738V24.8947H40.7369V22.6316Z" fill="black"/>
<path d="M47.5263 22.6316H45.2632V24.8947H47.5263V22.6316Z" fill="black"/>
<path d="M52.0527 22.6316H49.7896V24.8947H52.0527V22.6316Z" fill="black"/>
<path d="M56.579 22.6316H54.3158V24.8947H56.579V22.6316Z" fill="black"/>
<path d="M58.8421 22.6316H56.579V24.8947H58.8421V22.6316Z" fill="black"/>
<path d="M61.1053 22.6316H58.8422V24.8947H61.1053V22.6316Z" fill="black"/>
<path d="M63.3685 22.6316H61.1053V24.8947H63.3685V22.6316Z" fill="black"/>
<path d="M65.6317 22.6316H63.3685V24.8947H65.6317V22.6316Z" fill="black"/>
<path d="M67.8947 22.6316H65.6316V24.8947H67.8947V22.6316Z" fill="black"/>
<path d="M70.1579 22.6316H67.8948V24.8947H70.1579V22.6316Z" fill="black"/>
<path d="M79.2105 22.6316H76.9474V24.8947H79.2105V22.6316Z" fill="black"/>
<path d="M81.4737 22.6316H79.2106V24.8947H81.4737V22.6316Z" fill="black"/>
<path d="M83.7369 22.6316H81.4738V24.8947H83.7369V22.6316Z" fill="black"/>
<path d="M97.3159 22.6316H95.0527V24.8947H97.3159V22.6316Z" fill="black"/>
<path d="M99.579 22.6316H97.3158V24.8947H99.579V22.6316Z" fill="black"/>
<path d="M104.105 22.6316H101.842V24.8947H104.105V22.6316Z" fill="black"/>
<path d="M110.895 22.6316H108.632V24.8947H110.895V22.6316Z" fill="black"/>
<path d="M117.684 22.6316H115.421V24.8947H117.684V22.6316Z" fill="black"/>
<path d="M122.211 22.6316H119.947V24.8947H122.211V22.6316Z" fill="black"/>
<path d="M124.474 22.6316H122.211V24.8947H124.474V22.6316Z" fill="black"/>
<path d="M15.8421 24.8947H13.579V27.1579H15.8421V24.8947Z" fill="black"/>
<path d="M22.6317 24.8947H20.3685V27.1579H22.6317V24.8947Z" fill="black"/>
<path d="M24.8947 24.8947H22.6316V27.1579H24.8947V24.8947Z" fill="black"/>
<path d="M43.0001 24.8947H40.7369V27.1579H43.0001V24.8947Z" fill="black"/>
<path d="M52.0527 24.8947H49.7896V27.1579H52.0527V24.8947Z" fill="black"/>
<path d="M54.3159 24.8947H52.0527V27.1579H54.3159V24.8947Z" fill="black"/>
<path d="M56.579 24.8947H54.3158V27.1579H56.579V24.8947Z" fill="black"/>
<path d="M58.8421 24.8947H56.579V27.1579H58.8421V24.8947Z" fill="black"/>
<path d="M61.1053 24.8947H58.8422V27.1579H61.1053V24.8947Z" fill="black"/>
<path d="M67.8947 24.8947H65.6316V27.1579H67.8947V24.8947Z" fill="black"/>
<path d="M74.6843 24.8947H72.4211V27.1579H74.6843V24.8947Z" fill="black"/>
<path d="M79.2105 24.8947H76.9474V27.1579H79.2105V24.8947Z" fill="black"/>
<path d="M88.2632 24.8947H86V27.1579H88.2632V24.8947Z" fill="black"/>
<path d="M99.579 24.8947H97.3158V27.1579H99.579V24.8947Z" fill="black"/>
<path d="M101.842 24.8947H99.579V27.1579H101.842V24.8947Z" fill="black"/>
<path d="M104.105 24.8947H101.842V27.1579H104.105V24.8947Z" fill="black"/>
<path d="M108.632 24.8947H106.368V27.1579H108.632V24.8947Z" fill="black"/>
<path d="M113.158 24.8947H110.895V27.1579H113.158V24.8947Z" fill="black"/>
<path d="M117.684 24.8947H115.421V27.1579H117.684V24.8947Z" fill="black"/>
<path d="M124.474 24.8947H122.211V27.1579H124.474V24.8947Z" fill="black"/>
<path d="M13.579 27.1579H11.3158V29.4211H13.579V27.1579Z" fill="black"/>
<path d="M18.1053 27.1579H15.8422V29.4211H18.1053V27.1579Z" fill="black"/>
<path d="M20.3685 27.1579H18.1053V29.4211H20.3685V27.1579Z" fill="black"/>
<path d="M27.1579 27.1579H24.8948V29.4211H27.1579V27.1579Z" fill="black"/>
<path d="M29.4211 27.1579H27.158V29.4211H29.4211V27.1579Z" fill="black"/>
<path d="M33.9474 27.1579H31.6842V29.4211H33.9474V27.1579Z" fill="black"/>
<path d="M40.7369 27.1579H38.4738V29.4211H40.7369V27.1579Z" fill="black"/>
<path d="M43.0001 27.1579H40.7369V29.4211H43.0001V27.1579Z" fill="black"/>
<path d="M45.2632 27.1579H43V29.4211H45.2632V27.1579Z" fill="black"/>
<path d="M47.5263 27.1579H45.2632V29.4211H47.5263V27.1579Z" fill="black"/>
<path d="M52.0527 27.1579H49.7896V29.4211H52.0527V27.1579Z" fill="black"/>
<path d="M58.8421 27.1579H56.579V29.4211H58.8421V27.1579Z" fill="black"/>
<path d="M65.6317 27.1579H63.3685V29.4211H65.6317V27.1579Z" fill="black"/>
<path d="M67.8947 27.1579H65.6316V29.4211H67.8947V27.1579Z" fill="black"/>
<path d="M74.6843 27.1579H72.4211V29.4211H74.6843V27.1579Z" fill="black"/>
<path d="M76.9474 27.1579H74.6842V29.4211H76.9474V27.1579Z" fill="black"/>
<path d="M95.0527 27.1579H92.7896V29.4211H95.0527V27.1579Z" fill="black"/>
<path d="M101.842 27.1579H99.579V29.4211H101.842V27.1579Z" fill="black"/>
<path d="M104.105 27.1579H101.842V29.4211H104.105V27.1579Z" fill="black"/>
<path d="M106.369 27.1579H104.105V29.4211H106.369V27.1579Z" fill="black"/>
<path d="M108.632 27.1579H106.368V29.4211H108.632V27.1579Z" fill="black"/>
<path d="M110.895 27.1579H108.632V29.4211H110.895V27.1579Z" fill="black"/>
<path d="M113.158 27.1579H110.895V29.4211H113.158V27.1579Z" fill="black"/>
<path d="M117.684 27.1579H115.421V29.4211H117.684V27.1579Z" fill="black"/>
<path d="M119.947 27.1579H117.684V29.4211H119.947V27.1579Z" fill="black"/>
<path d="M122.211 27.1579H119.947V29.4211H122.211V27.1579Z" fill="black"/>
<path d="M6.78953 29.4211H4.52637V31.6842H6.78953V29.4211Z" fill="black"/>
<path d="M9.05271 29.4211H6.78955V31.6842H9.05271V29.4211Z" fill="black"/>
<path d="M13.579 29.4211H11.3158V31.6842H13.579V29.4211Z" fill="black"/>
<path d="M15.8421 29.4211H13.579V31.6842H15.8421V29.4211Z" fill="black"/>
<path d="M24.8947 29.4211H22.6316V31.6842H24.8947V29.4211Z" fill="black"/>
<path d="M31.6843 29.4211H29.4211V31.6842H31.6843V29.4211Z" fill="black"/>
<path d="M33.9474 29.4211H31.6842V31.6842H33.9474V29.4211Z" fill="black"/>
<path d="M38.4737 29.4211H36.2106V31.6842H38.4737V29.4211Z" fill="black"/>
<path d="M43.0001 29.4211H40.7369V31.6842H43.0001V29.4211Z" fill="black"/>
<path d="M52.0527 29.4211H49.7896V31.6842H52.0527V29.4211Z" fill="black"/>
<path d="M54.3159 29.4211H52.0527V31.6842H54.3159V29.4211Z" fill="black"/>
<path d="M56.579 29.4211H54.3158V31.6842H56.579V29.4211Z" fill="black"/>
<path d="M58.8421 29.4211H56.579V31.6842H58.8421V29.4211Z" fill="black"/>
<path d="M63.3685 29.4211H61.1053V31.6842H63.3685V29.4211Z" fill="black"/>
<path d="M67.8947 29.4211H65.6316V31.6842H67.8947V29.4211Z" fill="black"/>
<path d="M70.1579 29.4211H67.8948V31.6842H70.1579V29.4211Z" fill="black"/>
<path d="M76.9474 29.4211H74.6842V31.6842H76.9474V29.4211Z" fill="black"/>
<path d="M83.7369 29.4211H81.4738V31.6842H83.7369V29.4211Z" fill="black"/>
<path d="M88.2632 29.4211H86V31.6842H88.2632V29.4211Z" fill="black"/>
<path d="M90.5263 29.4211H88.2632V31.6842H90.5263V29.4211Z" fill="black"/>
<path d="M92.7895 29.4211H90.5264V31.6842H92.7895V29.4211Z" fill="black"/>
<path d="M99.579 29.4211H97.3158V31.6842H99.579V29.4211Z" fill="black"/>
<path d="M113.158 29.4211H110.895V31.6842H113.158V29.4211Z" fill="black"/>
<path d="M115.421 29.4211H113.158V31.6842H115.421V29.4211Z" fill="black"/>
<path d="M124.474 29.4211H122.211V31.6842H124.474V29.4211Z" fill="black"/>
<path d="M9.05271 31.6842H6.78955V33.9474H9.05271V31.6842Z" fill="black"/>
<path d="M11.3159 31.6842H9.05273V33.9474H11.3159V31.6842Z" fill="black"/>
<path d="M13.579 31.6842H11.3158V33.9474H13.579V31.6842Z" fill="black"/>
<path d="M15.8421 31.6842H13.579V33.9474H15.8421V31.6842Z" fill="black"/>
<path d="M20.3685 31.6842H18.1053V33.9474H20.3685V31.6842Z" fill="black"/>
<path d="M29.4211 31.6842H27.158V33.9474H29.4211V31.6842Z" fill="black"/>
<path d="M31.6843 31.6842H29.4211V33.9474H31.6843V31.6842Z" fill="black"/>
<path d="M33.9474 31.6842H31.6842V33.9474H33.9474V31.6842Z" fill="black"/>
<path d="M38.4737 31.6842H36.2106V33.9474H38.4737V31.6842Z" fill="black"/>
<path d="M40.7369 31.6842H38.4738V33.9474H40.7369V31.6842Z" fill="black"/>
<path d="M43.0001 31.6842H40.7369V33.9474H43.0001V31.6842Z" fill="black"/>
<path d="M54.3159 31.6842H52.0527V33.9474H54.3159V31.6842Z" fill="black"/>
<path d="M65.6317 31.6842H63.3685V33.9474H65.6317V31.6842Z" fill="black"/>
<path d="M72.4211 31.6842H70.158V33.9474H72.4211V31.6842Z" fill="black"/>
<path d="M74.6843 31.6842H72.4211V33.9474H74.6843V31.6842Z" fill="black"/>
<path d="M76.9474 31.6842H74.6842V33.9474H76.9474V31.6842Z" fill="black"/>
<path d="M81.4737 31.6842H79.2106V33.9474H81.4737V31.6842Z" fill="black"/>
<path d="M88.2632 31.6842H86V33.9474H88.2632V31.6842Z" fill="black"/>
<path d="M95.0527 31.6842H92.7896V33.9474H95.0527V31.6842Z" fill="black"/>
<path d="M101.842 31.6842H99.579V33.9474H101.842V31.6842Z" fill="black"/>
<path d="M104.105 31.6842H101.842V33.9474H104.105V31.6842Z" fill="black"/>
<path d="M106.369 31.6842H104.105V33.9474H106.369V31.6842Z" fill="black"/>
<path d="M108.632 31.6842H106.368V33.9474H108.632V31.6842Z" fill="black"/>
<path d="M115.421 31.6842H113.158V33.9474H115.421V31.6842Z" fill="black"/>
<path d="M122.211 31.6842H119.947V33.9474H122.211V31.6842Z" fill="black"/>
<path d="M124.474 31.6842H122.211V33.9474H124.474V31.6842Z" fill="black"/>
<path d="M6.78953 33.9474H4.52637V36.2105H6.78953V33.9474Z" fill="black"/>
<path d="M11.3159 33.9474H9.05273V36.2105H11.3159V33.9474Z" fill="black"/>
<path d="M13.579 33.9474H11.3158V36.2105H13.579V33.9474Z" fill="black"/>
<path d="M27.1579 33.9474H24.8948V36.2105H27.1579V33.9474Z" fill="black"/>
<path d="M33.9474 33.9474H31.6842V36.2105H33.9474V33.9474Z" fill="black"/>
<path d="M40.7369 33.9474H38.4738V36.2105H40.7369V33.9474Z" fill="black"/>
<path d="M43.0001 33.9474H40.7369V36.2105H43.0001V33.9474Z" fill="black"/>
<path d="M47.5263 33.9474H45.2632V36.2105H47.5263V33.9474Z" fill="black"/>
<path d="M49.7895 33.9474H47.5264V36.2105H49.7895V33.9474Z" fill="black"/>
<path d="M56.579 33.9474H54.3158V36.2105H56.579V33.9474Z" fill="black"/>
<path d="M58.8421 33.9474H56.579V36.2105H58.8421V33.9474Z" fill="black"/>
<path d="M63.3685 33.9474H61.1053V36.2105H63.3685V33.9474Z" fill="black"/>
<path d="M65.6317 33.9474H63.3685V36.2105H65.6317V33.9474Z" fill="black"/>
<path d="M72.4211 33.9474H70.158V36.2105H72.4211V33.9474Z" fill="black"/>
<path d="M76.9474 33.9474H74.6842V36.2105H76.9474V33.9474Z" fill="black"/>
<path d="M79.2105 33.9474H76.9474V36.2105H79.2105V33.9474Z" fill="black"/>
<path d="M86.0001 33.9474H83.7369V36.2105H86.0001V33.9474Z" fill="black"/>
<path d="M92.7895 33.9474H90.5264V36.2105H92.7895V33.9474Z" fill="black"/>
<path d="M99.579 33.9474H97.3158V36.2105H99.579V33.9474Z" fill="black"/>
<path d="M106.369 33.9474H104.105V36.2105H106.369V33.9474Z" fill="black"/>
<path d="M113.158 33.9474H110.895V36.2105H113.158V33.9474Z" fill="black"/>
<path d="M115.421 33.9474H113.158V36.2105H115.421V33.9474Z" fill="black"/>
<path d="M117.684 33.9474H115.421V36.2105H117.684V33.9474Z" fill="black"/>
<path d="M119.947 33.9474H117.684V36.2105H119.947V33.9474Z" fill="black"/>
<path d="M122.211 33.9474H119.947V36.2105H122.211V33.9474Z" fill="black"/>
<path d="M124.474 33.9474H122.211V36.2105H124.474V33.9474Z" fill="black"/>
<path d="M15.8421 36.2105H13.579V38.4737H15.8421V36.2105Z" fill="black"/>
<path d="M20.3685 36.2105H18.1053V38.4737H20.3685V36.2105Z" fill="black"/>
<path d="M24.8947 36.2105H22.6316V38.4737H24.8947V36.2105Z" fill="black"/>
<path d="M31.6843 36.2105H29.4211V38.4737H31.6843V36.2105Z" fill="black"/>
<path d="M33.9474 36.2105H31.6842V38.4737H33.9474V36.2105Z" fill="black"/>
<path d="M36.2105 36.2105H33.9474V38.4737H36.2105V36.2105Z" fill="black"/>
<path d="M38.4737 36.2105H36.2106V38.4737H38.4737V36.2105Z" fill="black"/>
<path d="M43.0001 36.2105H40.7369V38.4737H43.0001V36.2105Z" fill="black"/>
<path d="M47.5263 36.2105H45.2632V38.4737H47.5263V36.2105Z" fill="black"/>
<path d="M49.7895 36.2105H47.5264V38.4737H49.7895V36.2105Z" fill="black"/>
<path d="M54.3159 36.2105H52.0527V38.4737H54.3159V36.2105Z" fill="black"/>
<path d="M56.579 36.2105H54.3158V38.4737H56.579V36.2105Z" fill="black"/>
<path d="M58.8421 36.2105H56.579V38.4737H58.8421V36.2105Z" fill="black"/>
<path d="M61.1053 36.2105H58.8422V38.4737H61.1053V36.2105Z" fill="black"/>
<path d="M63.3685 36.2105H61.1053V38.4737H63.3685V36.2105Z" fill="black"/>
<path d="M67.8947 36.2105H65.6316V38.4737H67.8947V36.2105Z" fill="black"/>
<path d="M70.1579 36.2105H67.8948V38.4737H70.1579V36.2105Z" fill="black"/>
<path d="M72.4211 36.2105H70.158V38.4737H72.4211V36.2105Z" fill="black"/>
<path d="M92.7895 36.2105H90.5264V38.4737H92.7895V36.2105Z" fill="black"/>
<path d="M99.579 36.2105H97.3158V38.4737H99.579V36.2105Z" fill="black"/>
<path d="M101.842 36.2105H99.579V38.4737H101.842V36.2105Z" fill="black"/>
<path d="M104.105 36.2105H101.842V38.4737H104.105V36.2105Z" fill="black"/>
<path d="M108.632 36.2105H106.368V38.4737H108.632V36.2105Z" fill="black"/>
<path d="M113.158 36.2105H110.895V38.4737H113.158V36.2105Z" fill="black"/>
<path d="M124.474 36.2105H122.211V38.4737H124.474V36.2105Z" fill="black"/>
<path d="M13.579 38.4737H11.3158V40.7368H13.579V38.4737Z" fill="black"/>
<path d="M22.6317 38.4737H20.3685V40.7368H22.6317V38.4737Z" fill="black"/>
<path d="M31.6843 38.4737H29.4211V40.7368H31.6843V38.4737Z" fill="black"/>
<path d="M33.9474 38.4737H31.6842V40.7368H33.9474V38.4737Z" fill="black"/>
<path d="M36.2105 38.4737H33.9474V40.7368H36.2105V38.4737Z" fill="black"/>
<path d="M38.4737 38.4737H36.2106V40.7368H38.4737V38.4737Z" fill="black"/>
<path d="M43.0001 38.4737H40.7369V40.7368H43.0001V38.4737Z" fill="black"/>
<path d="M47.5263 38.4737H45.2632V40.7368H47.5263V38.4737Z" fill="black"/>
<path d="M54.3159 38.4737H52.0527V40.7368H54.3159V38.4737Z" fill="black"/>
<path d="M61.1053 38.4737H58.8422V40.7368H61.1053V38.4737Z" fill="black"/>
<path d="M72.4211 38.4737H70.158V40.7368H72.4211V38.4737Z" fill="black"/>
<path d="M74.6843 38.4737H72.4211V40.7368H74.6843V38.4737Z" fill="black"/>
<path d="M76.9474 38.4737H74.6842V40.7368H76.9474V38.4737Z" fill="black"/>
<path d="M79.2105 38.4737H76.9474V40.7368H79.2105V38.4737Z" fill="black"/>
<path d="M83.7369 38.4737H81.4738V40.7368H83.7369V38.4737Z" fill="black"/>
<path d="M88.2632 38.4737H86V40.7368H88.2632V38.4737Z" fill="black"/>
<path d="M90.5263 38.4737H88.2632V40.7368H90.5263V38.4737Z" fill="black"/>
<path d="M95.0527 38.4737H92.7896V40.7368H95.0527V38.4737Z" fill="black"/>
<path d="M97.3159 38.4737H95.0527V40.7368H97.3159V38.4737Z" fill="black"/>
<path d="M101.842 38.4737H99.579V40.7368H101.842V38.4737Z" fill="black"/>
<path d="M106.369 38.4737H104.105V40.7368H106.369V38.4737Z" fill="black"/>
<path d="M117.684 38.4737H115.421V40.7368H117.684V38.4737Z" fill="black"/>
<path d="M6.78953 40.7368H4.52637V43H6.78953V40.7368Z" fill="black"/>
<path d="M20.3685 40.7368H18.1053V43H20.3685V40.7368Z" fill="black"/>
<path d="M24.8947 40.7368H22.6316V43H24.8947V40.7368Z" fill="black"/>
<path d="M27.1579 40.7368H24.8948V43H27.1579V40.7368Z" fill="black"/>
<path d="M29.4211 40.7368H27.158V43H29.4211V40.7368Z" fill="black"/>
<path d="M31.6843 40.7368H29.4211V43H31.6843V40.7368Z" fill="black"/>
<path d="M33.9474 40.7368H31.6842V43H33.9474V40.7368Z" fill="black"/>
<path d="M36.2105 40.7368H33.9474V43H36.2105V40.7368Z" fill="black"/>
<path d="M40.7369 40.7368H38.4738V43H40.7369V40.7368Z" fill="black"/>
<path d="M45.2632 40.7368H43V43H45.2632V40.7368Z" fill="black"/>
<path d="M47.5263 40.7368H45.2632V43H47.5263V40.7368Z" fill="black"/>
<path d="M49.7895 40.7368H47.5264V43H49.7895V40.7368Z" fill="black"/>
<path d="M52.0527 40.7368H49.7896V43H52.0527V40.7368Z" fill="black"/>
<path d="M58.8421 40.7368H56.579V43H58.8421V40.7368Z" fill="black"/>
<path d="M61.1053 40.7368H58.8422V43H61.1053V40.7368Z" fill="black"/>
<path d="M63.3685 40.7368H61.1053V43H63.3685V40.7368Z" fill="black"/>
<path d="M67.8947 40.7368H65.6316V43H67.8947V40.7368Z" fill="black"/>
<path d="M79.2105 40.7368H76.9474V43H79.2105V40.7368Z" fill="black"/>
<path d="M83.7369 40.7368H81.4738V43H83.7369V40.7368Z" fill="black"/>
<path d="M90.5263 40.7368H88.2632V43H90.5263V40.7368Z" fill="black"/>
<path d="M92.7895 40.7368H90.5264V43H92.7895V40.7368Z" fill="black"/>
<path d="M95.0527 40.7368H92.7896V43H95.0527V40.7368Z" fill="black"/>
<path d="M106.369 40.7368H104.105V43H106.369V40.7368Z" fill="black"/>
<path d="M113.158 40.7368H110.895V43H113.158V40.7368Z" fill="black"/>
<path d="M119.947 40.7368H117.684V43H119.947V40.7368Z" fill="black"/>
<path d="M122.211 40.7368H119.947V43H122.211V40.7368Z" fill="black"/>
<path d="M6.78953 43H4.52637V45.2632H6.78953V43Z" fill="black"/>
<path d="M9.05271 43H6.78955V45.2632H9.05271V43Z" fill="black"/>
<path d="M18.1053 43H15.8422V45.2632H18.1053V43Z" fill="black"/>
<path d="M22.6317 43H20.3685V45.2632H22.6317V43Z" fill="black"/>
<path d="M29.4211 43H27.158V45.2632H29.4211V43Z" fill="black"/>
<path d="M36.2105 43H33.9474V45.2632H36.2105V43Z" fill="black"/>
<path d="M38.4737 43H36.2106V45.2632H38.4737V43Z" fill="black"/>
<path d="M47.5263 43H45.2632V45.2632H47.5263V43Z" fill="black"/>
<path d="M49.7895 43H47.5264V45.2632H49.7895V43Z" fill="black"/>
<path d="M54.3159 43H52.0527V45.2632H54.3159V43Z" fill="black"/>
<path d="M67.8947 43H65.6316V45.2632H67.8947V43Z" fill="black"/>
<path d="M76.9474 43H74.6842V45.2632H76.9474V43Z" fill="black"/>
<path d="M81.4737 43H79.2106V45.2632H81.4737V43Z" fill="black"/>
<path d="M83.7369 43H81.4738V45.2632H83.7369V43Z" fill="black"/>
<path d="M86.0001 43H83.7369V45.2632H86.0001V43Z" fill="black"/>
<path d="M110.895 43H108.632V45.2632H110.895V43Z" fill="black"/>
<path d="M113.158 43H110.895V45.2632H113.158V43Z" fill="black"/>
<path d="M9.05271 45.2632H6.78955V47.5263H9.05271V45.2632Z" fill="black"/>
<path d="M11.3159 45.2632H9.05273V47.5263H11.3159V45.2632Z" fill="black"/>
<path d="M13.579 45.2632H11.3158V47.5263H13.579V45.2632Z" fill="black"/>
<path d="M18.1053 45.2632H15.8422V47.5263H18.1053V45.2632Z" fill="black"/>
<path d="M20.3685 45.2632H18.1053V47.5263H20.3685V45.2632Z" fill="black"/>
<path d="M22.6317 45.2632H20.3685V47.5263H22.6317V45.2632Z" fill="black"/>
<path d="M29.4211 45.2632H27.158V47.5263H29.4211V45.2632Z" fill="black"/>
<path d="M33.9474 45.2632H31.6842V47.5263H33.9474V45.2632Z" fill="black"/>
<path d="M36.2105 45.2632H33.9474V47.5263H36.2105V45.2632Z" fill="black"/>
<path d="M38.4737 45.2632H36.2106V47.5263H38.4737V45.2632Z" fill="black"/>
<path d="M43.0001 45.2632H40.7369V47.5263H43.0001V45.2632Z" fill="black"/>
<path d="M47.5263 45.2632H45.2632V47.5263H47.5263V45.2632Z" fill="black"/>
<path d="M52.0527 45.2632H49.7896V47.5263H52.0527V45.2632Z" fill="black"/>
<path d="M56.579 45.2632H54.3158V47.5263H56.579V45.2632Z" fill="black"/>
<path d="M58.8421 45.2632H56.579V47.5263H58.8421V45.2632Z" fill="black"/>
<path d="M76.9474 45.2632H74.6842V47.5263H76.9474V45.2632Z" fill="black"/>
<path d="M81.4737 45.2632H79.2106V47.5263H81.4737V45.2632Z" fill="black"/>
<path d="M83.7369 45.2632H81.4738V47.5263H83.7369V45.2632Z" fill="black"/>
<path d="M86.0001 45.2632H83.7369V47.5263H86.0001V45.2632Z" fill="black"/>
<path d="M88.2632 45.2632H86V47.5263H88.2632V45.2632Z" fill="black"/>
<path d="M97.3159 45.2632H95.0527V47.5263H97.3159V45.2632Z" fill="black"/>
<path d="M104.105 45.2632H101.842V47.5263H104.105V45.2632Z" fill="black"/>
<path d="M110.895 45.2632H108.632V47.5263H110.895V45.2632Z" fill="black"/>
<path d="M113.158 45.2632H110.895V47.5263H113.158V45.2632Z" fill="black"/>
<path d="M117.684 45.2632H115.421V47.5263H117.684V45.2632Z" fill="black"/>
<path d="M122.211 45.2632H119.947V47.5263H122.211V45.2632Z" fill="black"/>
<path d="M11.3159 47.5263H9.05273V49.7895H11.3159V47.5263Z" fill="black"/>
<path d="M15.8421 47.5263H13.579V49.7895H15.8421V47.5263Z" fill="black"/>
<path d="M22.6317 47.5263H20.3685V49.7895H22.6317V47.5263Z" fill="black"/>
<path d="M24.8947 47.5263H22.6316V49.7895H24.8947V47.5263Z" fill="black"/>
<path d="M27.1579 47.5263H24.8948V49.7895H27.1579V47.5263Z" fill="black"/>
<path d="M31.6843 47.5263H29.4211V49.7895H31.6843V47.5263Z" fill="black"/>
<path d="M33.9474 47.5263H31.6842V49.7895H33.9474V47.5263Z" fill="black"/>
<path d="M38.4737 47.5263H36.2106V49.7895H38.4737V47.5263Z" fill="black"/>
<path d="M43.0001 47.5263H40.7369V49.7895H43.0001V47.5263Z" fill="black"/>
<path d="M56.579 47.5263H54.3158V49.7895H56.579V47.5263Z" fill="black"/>
<path d="M58.8421 47.5263H56.579V49.7895H58.8421V47.5263Z" fill="black"/>
<path d="M65.6317 47.5263H63.3685V49.7895H65.6317V47.5263Z" fill="black"/>
<path d="M72.4211 47.5263H70.158V49.7895H72.4211V47.5263Z" fill="black"/>
<path d="M86.0001 47.5263H83.7369V49.7895H86.0001V47.5263Z" fill="black"/>
<path d="M88.2632 47.5263H86V49.7895H88.2632V47.5263Z" fill="black"/>
<path d="M90.5263 47.5263H88.2632V49.7895H90.5263V47.5263Z" fill="black"/>
<path d="M97.3159 47.5263H95.0527V49.7895H97.3159V47.5263Z" fill="black"/>
<path d="M99.579 47.5263H97.3158V49.7895H99.579V47.5263Z" fill="black"/>
<path d="M104.105 47.5263H101.842V49.7895H104.105V47.5263Z" fill="black"/>
<path d="M106.369 47.5263H104.105V49.7895H106.369V47.5263Z" fill="black"/>
<path d="M108.632 47.5263H106.368V49.7895H108.632V47.5263Z" fill="black"/>
<path d="M113.158 47.5263H110.895V49.7895H113.158V47.5263Z" fill="black"/>
<path d="M117.684 47.5263H115.421V49.7895H117.684V47.5263Z" fill="black"/>
<path d="M119.947 47.5263H117.684V49.7895H119.947V47.5263Z" fill="black"/>
<path d="M11.3159 49.7895H9.05273V52.0526H11.3159V49.7895Z" fill="black"/>
<path d="M15.8421 49.7895H13.579V52.0526H15.8421V49.7895Z" fill="black"/>
<path d="M18.1053 49.7895H15.8422V52.0526H18.1053V49.7895Z" fill="black"/>
<path d="M20.3685 49.7895H18.1053V52.0526H20.3685V49.7895Z" fill="black"/>
<path d="M22.6317 49.7895H20.3685V52.0526H22.6317V49.7895Z" fill="black"/>
<path d="M27.1579 49.7895H24.8948V52.0526H27.1579V49.7895Z" fill="black"/>
<path d="M33.9474 49.7895H31.6842V52.0526H33.9474V49.7895Z" fill="black"/>
<path d="M38.4737 49.7895H36.2106V52.0526H38.4737V49.7895Z" fill="black"/>
<path d="M40.7369 49.7895H38.4738V52.0526H40.7369V49.7895Z" fill="black"/>
<path d="M43.0001 49.7895H40.7369V52.0526H43.0001V49.7895Z" fill="black"/>
<path d="M47.5263 49.7895H45.2632V52.0526H47.5263V49.7895Z" fill="black"/>
<path d="M49.7895 49.7895H47.5264V52.0526H49.7895V49.7895Z" fill="black"/>
<path d="M52.0527 49.7895H49.7896V52.0526H52.0527V49.7895Z" fill="black"/>
<path d="M54.3159 49.7895H52.0527V52.0526H54.3159V49.7895Z" fill="black"/>
<path d="M65.6317 49.7895H63.3685V52.0526H65.6317V49.7895Z" fill="black"/>
<path d="M70.1579 49.7895H67.8948V52.0526H70.1579V49.7895Z" fill="black"/>
<path d="M74.6843 49.7895H72.4211V52.0526H74.6843V49.7895Z" fill="black"/>
<path d="M76.9474 49.7895H74.6842V52.0526H76.9474V49.7895Z" fill="black"/>
<path d="M81.4737 49.7895H79.2106V52.0526H81.4737V49.7895Z" fill="black"/>
<path d="M95.0527 49.7895H92.7896V52.0526H95.0527V49.7895Z" fill="black"/>
<path d="M97.3159 49.7895H95.0527V52.0526H97.3159V49.7895Z" fill="black"/>
<path d="M101.842 49.7895H99.579V52.0526H101.842V49.7895Z" fill="black"/>
<path d="M104.105 49.7895H101.842V52.0526H104.105V49.7895Z" fill="black"/>
<path d="M106.369 49.7895H104.105V52.0526H106.369V49.7895Z" fill="black"/>
<path d="M108.632 49.7895H106.368V52.0526H108.632V49.7895Z" fill="black"/>
<path d="M110.895 49.7895H108.632V52.0526H110.895V49.7895Z" fill="black"/>
<path d="M113.158 49.7895H110.895V52.0526H113.158V49.7895Z" fill="black"/>
<path d="M117.684 49.7895H115.421V52.0526H117.684V49.7895Z" fill="black"/>
<path d="M124.474 49.7895H122.211V52.0526H124.474V49.7895Z" fill="black"/>
<path d="M6.78953 52.0526H4.52637V54.3158H6.78953V52.0526Z" fill="black"/>
<path d="M9.05271 52.0526H6.78955V54.3158H9.05271V52.0526Z" fill="black"/>
<path d="M13.579 52.0526H11.3158V54.3158H13.579V52.0526Z" fill="black"/>
<path d="M18.1053 52.0526H15.8422V54.3158H18.1053V52.0526Z" fill="black"/>
<path d="M27.1579 52.0526H24.8948V54.3158H27.1579V52.0526Z" fill="black"/>
<path d="M31.6843 52.0526H29.4211V54.3158H31.6843V52.0526Z" fill="black"/>
<path d="M33.9474 52.0526H31.6842V54.3158H33.9474V52.0526Z" fill="black"/>
<path d="M40.7369 52.0526H38.4738V54.3158H40.7369V52.0526Z" fill="black"/>
<path d="M47.5263 52.0526H45.2632V54.3158H47.5263V52.0526Z" fill="black"/>
<path d="M49.7895 52.0526H47.5264V54.3158H49.7895V52.0526Z" fill="black"/>
<path d="M52.0527 52.0526H49.7896V54.3158H52.0527V52.0526Z" fill="black"/>
<path d="M54.3159 52.0526H52.0527V54.3158H54.3159V52.0526Z" fill="black"/>
<path d="M58.8421 52.0526H56.579V54.3158H58.8421V52.0526Z" fill="black"/>
<path d="M61.1053 52.0526H58.8422V54.3158H61.1053V52.0526Z" fill="black"/>
<path d="M63.3685 52.0526H61.1053V54.3158H63.3685V52.0526Z" fill="black"/>
<path d="M65.6317 52.0526H63.3685V54.3158H65.6317V52.0526Z" fill="black"/>
<path d="M67.8947 52.0526H65.6316V54.3158H67.8947V52.0526Z" fill="black"/>
<path d="M72.4211 52.0526H70.158V54.3158H72.4211V52.0526Z" fill="black"/>
<path d="M74.6843 52.0526H72.4211V54.3158H74.6843V52.0526Z" fill="black"/>
<path d="M86.0001 52.0526H83.7369V54.3158H86.0001V52.0526Z" fill="black"/>
<path d="M88.2632 52.0526H86V54.3158H88.2632V52.0526Z" fill="black"/>
<path d="M90.5263 52.0526H88.2632V54.3158H90.5263V52.0526Z" fill="black"/>
<path d="M95.0527 52.0526H92.7896V54.3158H95.0527V52.0526Z" fill="black"/>
<path d="M97.3159 52.0526H95.0527V54.3158H97.3159V52.0526Z" fill="black"/>
<path d="M101.842 52.0526H99.579V54.3158H101.842V52.0526Z" fill="black"/>
<path d="M104.105 52.0526H101.842V54.3158H104.105V52.0526Z" fill="black"/>
<path d="M113.158 52.0526H110.895V54.3158H113.158V52.0526Z" fill="black"/>
<path d="M115.421 52.0526H113.158V54.3158H115.421V52.0526Z" fill="black"/>
<path d="M117.684 52.0526H115.421V54.3158H117.684V52.0526Z" fill="black"/>
<path d="M122.211 52.0526H119.947V54.3158H122.211V52.0526Z" fill="black"/>
<path d="M124.474 52.0526H122.211V54.3158H124.474V52.0526Z" fill="black"/>
<path d="M13.579 54.3158H11.3158V56.5789H13.579V54.3158Z" fill="black"/>
<path d="M15.8421 54.3158H13.579V56.5789H15.8421V54.3158Z" fill="black"/>
<path d="M20.3685 54.3158H18.1053V56.5789H20.3685V54.3158Z" fill="black"/>
<path d="M22.6317 54.3158H20.3685V56.5789H22.6317V54.3158Z" fill="black"/>
<path d="M24.8947 54.3158H22.6316V56.5789H24.8947V54.3158Z" fill="black"/>
<path d="M27.1579 54.3158H24.8948V56.5789H27.1579V54.3158Z" fill="black"/>
<path d="M31.6843 54.3158H29.4211V56.5789H31.6843V54.3158Z" fill="black"/>
<path d="M38.4737 54.3158H36.2106V56.5789H38.4737V54.3158Z" fill="black"/>
<path d="M40.7369 54.3158H38.4738V56.5789H40.7369V54.3158Z" fill="black"/>
<path d="M45.2632 54.3158H43V56.5789H45.2632V54.3158Z" fill="black"/>
<path d="M54.3159 54.3158H52.0527V56.5789H54.3159V54.3158Z" fill="black"/>
<path d="M58.8421 54.3158H56.579V56.5789H58.8421V54.3158Z" fill="black"/>
<path d="M63.3685 54.3158H61.1053V56.5789H63.3685V54.3158Z" fill="black"/>
<path d="M67.8947 54.3158H65.6316V56.5789H67.8947V54.3158Z" fill="black"/>
<path d="M70.1579 54.3158H67.8948V56.5789H70.1579V54.3158Z" fill="black"/>
<path d="M72.4211 54.3158H70.158V56.5789H72.4211V54.3158Z" fill="black"/>
<path d="M79.2105 54.3158H76.9474V56.5789H79.2105V54.3158Z" fill="black"/>
<path d="M83.7369 54.3158H81.4738V56.5789H83.7369V54.3158Z" fill="black"/>
<path d="M101.842 54.3158H99.579V56.5789H101.842V54.3158Z" fill="black"/>
<path d="M104.105 54.3158H101.842V56.5789H104.105V54.3158Z" fill="black"/>
<path d="M119.947 54.3158H117.684V56.5789H119.947V54.3158Z" fill="black"/>
<path d="M9.05271 56.5789H6.78955V58.8421H9.05271V56.5789Z" fill="black"/>
<path d="M15.8421 56.5789H13.579V58.8421H15.8421V56.5789Z" fill="black"/>
<path d="M18.1053 56.5789H15.8422V58.8421H18.1053V56.5789Z" fill="black"/>
<path d="M24.8947 56.5789H22.6316V58.8421H24.8947V56.5789Z" fill="black"/>
<path d="M31.6843 56.5789H29.4211V58.8421H31.6843V56.5789Z" fill="black"/>
<path d="M36.2105 56.5789H33.9474V58.8421H36.2105V56.5789Z" fill="black"/>
<path d="M38.4737 56.5789H36.2106V58.8421H38.4737V56.5789Z" fill="black"/>
<path d="M40.7369 56.5789H38.4738V58.8421H40.7369V56.5789Z" fill="black"/>
<path d="M43.0001 56.5789H40.7369V58.8421H43.0001V56.5789Z" fill="black"/>
<path d="M49.7895 56.5789H47.5264V58.8421H49.7895V56.5789Z" fill="black"/>
<path d="M52.0527 56.5789H49.7896V58.8421H52.0527V56.5789Z" fill="black"/>
<path d="M54.3159 56.5789H52.0527V58.8421H54.3159V56.5789Z" fill="black"/>
<path d="M56.579 56.5789H54.3158V58.8421H56.579V56.5789Z" fill="black"/>
<path d="M58.8421 56.5789H56.579V58.8421H58.8421V56.5789Z" fill="black"/>
<path d="M61.1053 56.5789H58.8422V58.8421H61.1053V56.5789Z" fill="black"/>
<path d="M72.4211 56.5789H70.158V58.8421H72.4211V56.5789Z" fill="black"/>
<path d="M79.2105 56.5789H76.9474V58.8421H79.2105V56.5789Z" fill="black"/>
<path d="M81.4737 56.5789H79.2106V58.8421H81.4737V56.5789Z" fill="black"/>
<path d="M83.7369 56.5789H81.4738V58.8421H83.7369V56.5789Z" fill="black"/>
<path d="M88.2632 56.5789H86V58.8421H88.2632V56.5789Z" fill="black"/>
<path d="M90.5263 56.5789H88.2632V58.8421H90.5263V56.5789Z" fill="black"/>
<path d="M95.0527 56.5789H92.7896V58.8421H95.0527V56.5789Z" fill="black"/>
<path d="M99.579 56.5789H97.3158V58.8421H99.579V56.5789Z" fill="black"/>
<path d="M106.369 56.5789H104.105V58.8421H106.369V56.5789Z" fill="black"/>
<path d="M108.632 56.5789H106.368V58.8421H108.632V56.5789Z" fill="black"/>
<path d="M113.158 56.5789H110.895V58.8421H113.158V56.5789Z" fill="black"/>
<path d="M115.421 56.5789H113.158V58.8421H115.421V56.5789Z" fill="black"/>
<path d="M117.684 56.5789H115.421V58.8421H117.684V56.5789Z" fill="black"/>
<path d="M124.474 56.5789H122.211V58.8421H124.474V56.5789Z" fill="black"/>
<path d="M6.78953 58.8421H4.52637V61.1053H6.78953V58.8421Z" fill="black"/>
<path d="M9.05271 58.8421H6.78955V61.1053H9.05271V58.8421Z" fill="black"/>
<path d="M13.579 58.8421H11.3158V61.1053H13.579V58.8421Z" fill="black"/>
<path d="M15.8421 58.8421H13.579V61.1053H15.8421V58.8421Z" fill="black"/>
<path d="M18.1053 58.8421H15.8422V61.1053H18.1053V58.8421Z" fill="black"/>
<path d="M20.3685 58.8421H18.1053V61.1053H20.3685V58.8421Z" fill="black"/>
<path d="M22.6317 58.8421H20.3685V61.1053H22.6317V58.8421Z" fill="black"/>
<path d="M24.8947 58.8421H22.6316V61.1053H24.8947V58.8421Z" fill="black"/>
<path d="M29.4211 58.8421H27.158V61.1053H29.4211V58.8421Z" fill="black"/>
<path d="M43.0001 58.8421H40.7369V61.1053H43.0001V58.8421Z" fill="black"/>
<path d="M45.2632 58.8421H43V61.1053H45.2632V58.8421Z" fill="black"/>
<path d="M49.7895 58.8421H47.5264V61.1053H49.7895V58.8421Z" fill="black"/>
<path d="M61.1053 58.8421H58.8422V61.1053H61.1053V58.8421Z" fill="black"/>
<path d="M63.3685 58.8421H61.1053V61.1053H63.3685V58.8421Z" fill="black"/>
<path d="M65.6317 58.8421H63.3685V61.1053H65.6317V58.8421Z" fill="black"/>
<path d="M67.8947 58.8421H65.6316V61.1053H67.8947V58.8421Z" fill="black"/>
<path d="M70.1579 58.8421H67.8948V61.1053H70.1579V58.8421Z" fill="black"/>
<path d="M72.4211 58.8421H70.158V61.1053H72.4211V58.8421Z" fill="black"/>
<path d="M74.6843 58.8421H72.4211V61.1053H74.6843V58.8421Z" fill="black"/>
<path d="M76.9474 58.8421H74.6842V61.1053H76.9474V58.8421Z" fill="black"/>
<path d="M81.4737 58.8421H79.2106V61.1053H81.4737V58.8421Z" fill="black"/>
<path d="M86.0001 58.8421H83.7369V61.1053H86.0001V58.8421Z" fill="black"/>
<path d="M88.2632 58.8421H86V61.1053H88.2632V58.8421Z" fill="black"/>
<path d="M95.0527 58.8421H92.7896V61.1053H95.0527V58.8421Z" fill="black"/>
<path d="M101.842 58.8421H99.579V61.1053H101.842V58.8421Z" fill="black"/>
<path d="M106.369 58.8421H104.105V61.1053H106.369V58.8421Z" fill="black"/>
<path d="M108.632 58.8421H106.368V61.1053H108.632V58.8421Z" fill="black"/>
<path d="M110.895 58.8421H108.632V61.1053H110.895V58.8421Z" fill="black"/>
<path d="M113.158 58.8421H110.895V61.1053H113.158V58.8421Z" fill="black"/>
<path d="M115.421 58.8421H113.158V61.1053H115.421V58.8421Z" fill="black"/>
<path d="M117.684 58.8421H115.421V61.1053H117.684V58.8421Z" fill="black"/>
<path d="M119.947 58.8421H117.684V61.1053H119.947V58.8421Z" fill="black"/>
<path d="M122.211 58.8421H119.947V61.1053H122.211V58.8421Z" fill="black"/>
<path d="M6.78953 61.1053H4.52637V63.3684H6.78953V61.1053Z" fill="black"/>
<path d="M13.579 61.1053H11.3158V63.3684H13.579V61.1053Z" fill="black"/>
<path d="M15.8421 61.1053H13.579V63.3684H15.8421V61.1053Z" fill="black"/>
<path d="M24.8947 61.1053H22.6316V63.3684H24.8947V61.1053Z" fill="black"/>
<path d="M29.4211 61.1053H27.158V63.3684H29.4211V61.1053Z" fill="black"/>
<path d="M33.9474 61.1053H31.6842V63.3684H33.9474V61.1053Z" fill="black"/>
<path d="M43.0001 61.1053H40.7369V63.3684H43.0001V61.1053Z" fill="black"/>
<path d="M45.2632 61.1053H43V63.3684H45.2632V61.1053Z" fill="black"/>
<path d="M49.7895 61.1053H47.5264V63.3684H49.7895V61.1053Z" fill="black"/>
<path d="M61.1053 61.1053H58.8422V63.3684H61.1053V61.1053Z" fill="black"/>
<path d="M70.1579 61.1053H67.8948V63.3684H70.1579V61.1053Z" fill="black"/>
<path d="M76.9474 61.1053H74.6842V63.3684H76.9474V61.1053Z" fill="black"/>
<path d="M86.0001 61.1053H83.7369V63.3684H86.0001V61.1053Z" fill="black"/>
<path d="M90.5263 61.1053H88.2632V63.3684H90.5263V61.1053Z" fill="black"/>
<path d="M92.7895 61.1053H90.5264V63.3684H92.7895V61.1053Z" fill="black"/>
<path d="M104.105 61.1053H101.842V63.3684H104.105V61.1053Z" fill="black"/>
<path d="M106.369 61.1053H104.105V63.3684H106.369V61.1053Z" fill="black"/>
<path d="M115.421 61.1053H113.158V63.3684H115.421V61.1053Z" fill="black"/>
<path d="M117.684 61.1053H115.421V63.3684H117.684V61.1053Z" fill="black"/>
<path d="M119.947 61.1053H117.684V63.3684H119.947V61.1053Z" fill="black"/>
<path d="M124.474 61.1053H122.211V63.3684H124.474V61.1053Z" fill="black"/>
<path d="M11.3159 63.3684H9.05273V65.6316H11.3159V63.3684Z" fill="black"/>
<path d="M15.8421 63.3684H13.579V65.6316H15.8421V63.3684Z" fill="black"/>
<path d="M20.3685 63.3684H18.1053V65.6316H20.3685V63.3684Z" fill="black"/>
<path d="M24.8947 63.3684H22.6316V65.6316H24.8947V63.3684Z" fill="black"/>
<path d="M29.4211 63.3684H27.158V65.6316H29.4211V63.3684Z" fill="black"/>
<path d="M40.7369 63.3684H38.4738V65.6316H40.7369V63.3684Z" fill="black"/>
<path d="M45.2632 63.3684H43V65.6316H45.2632V63.3684Z" fill="black"/>
<path d="M47.5263 63.3684H45.2632V65.6316H47.5263V63.3684Z" fill="black"/>
<path d="M52.0527 63.3684H49.7896V65.6316H52.0527V63.3684Z" fill="black"/>
<path d="M54.3159 63.3684H52.0527V65.6316H54.3159V63.3684Z" fill="black"/>
<path d="M56.579 63.3684H54.3158V65.6316H56.579V63.3684Z" fill="black"/>
<path d="M58.8421 63.3684H56.579V65.6316H58.8421V63.3684Z" fill="black"/>
<path d="M61.1053 63.3684H58.8422V65.6316H61.1053V63.3684Z" fill="black"/>
<path d="M65.6317 63.3684H63.3685V65.6316H65.6317V63.3684Z" fill="black"/>
<path d="M70.1579 63.3684H67.8948V65.6316H70.1579V63.3684Z" fill="black"/>
<path d="M79.2105 63.3684H76.9474V65.6316H79.2105V63.3684Z" fill="black"/>
<path d="M88.2632 63.3684H86V65.6316H88.2632V63.3684Z" fill="black"/>
<path d="M92.7895 63.3684H90.5264V65.6316H92.7895V63.3684Z" fill="black"/>
<path d="M95.0527 63.3684H92.7896V65.6316H95.0527V63.3684Z" fill="black"/>
<path d="M97.3159 63.3684H95.0527V65.6316H97.3159V63.3684Z" fill="black"/>
<path d="M101.842 63.3684H99.579V65.6316H101.842V63.3684Z" fill="black"/>
<path d="M106.369 63.3684H104.105V65.6316H106.369V63.3684Z" fill="black"/>
<path d="M110.895 63.3684H108.632V65.6316H110.895V63.3684Z" fill="black"/>
<path d="M115.421 63.3684H113.158V65.6316H115.421V63.3684Z" fill="black"/>
<path d="M117.684 63.3684H115.421V65.6316H117.684V63.3684Z" fill="black"/>
<path d="M124.474 63.3684H122.211V65.6316H124.474V63.3684Z" fill="black"/>
<path d="M13.579 65.6316H11.3158V67.8947H13.579V65.6316Z" fill="black"/>
<path d="M15.8421 65.6316H13.579V67.8947H15.8421V65.6316Z" fill="black"/>
<path d="M24.8947 65.6316H22.6316V67.8947H24.8947V65.6316Z" fill="black"/>
<path d="M27.1579 65.6316H24.8948V67.8947H27.1579V65.6316Z" fill="black"/>
<path d="M29.4211 65.6316H27.158V67.8947H29.4211V65.6316Z" fill="black"/>
<path d="M36.2105 65.6316H33.9474V67.8947H36.2105V65.6316Z" fill="black"/>
<path d="M38.4737 65.6316H36.2106V67.8947H38.4737V65.6316Z" fill="black"/>
<path d="M45.2632 65.6316H43V67.8947H45.2632V65.6316Z" fill="black"/>
<path d="M58.8421 65.6316H56.579V67.8947H58.8421V65.6316Z" fill="black"/>
<path d="M61.1053 65.6316H58.8422V67.8947H61.1053V65.6316Z" fill="black"/>
<path d="M70.1579 65.6316H67.8948V67.8947H70.1579V65.6316Z" fill="black"/>
<path d="M74.6843 65.6316H72.4211V67.8947H74.6843V65.6316Z" fill="black"/>
<path d="M76.9474 65.6316H74.6842V67.8947H76.9474V65.6316Z" fill="black"/>
<path d="M81.4737 65.6316H79.2106V67.8947H81.4737V65.6316Z" fill="black"/>
<path d="M88.2632 65.6316H86V67.8947H88.2632V65.6316Z" fill="black"/>
<path d="M90.5263 65.6316H88.2632V67.8947H90.5263V65.6316Z" fill="black"/>
<path d="M95.0527 65.6316H92.7896V67.8947H95.0527V65.6316Z" fill="black"/>
<path d="M97.3159 65.6316H95.0527V67.8947H97.3159V65.6316Z" fill="black"/>
<path d="M101.842 65.6316H99.579V67.8947H101.842V65.6316Z" fill="black"/>
<path d="M106.369 65.6316H104.105V67.8947H106.369V65.6316Z" fill="black"/>
<path d="M115.421 65.6316H113.158V67.8947H115.421V65.6316Z" fill="black"/>
<path d="M117.684 65.6316H115.421V67.8947H117.684V65.6316Z" fill="black"/>
<path d="M6.78953 67.8947H4.52637V70.1579H6.78953V67.8947Z" fill="black"/>
<path d="M11.3159 67.8947H9.05273V70.1579H11.3159V67.8947Z" fill="black"/>
<path d="M13.579 67.8947H11.3158V70.1579H13.579V67.8947Z" fill="black"/>
<path d="M15.8421 67.8947H13.579V70.1579H15.8421V67.8947Z" fill="black"/>
<path d="M18.1053 67.8947H15.8422V70.1579H18.1053V67.8947Z" fill="black"/>
<path d="M20.3685 67.8947H18.1053V70.1579H20.3685V67.8947Z" fill="black"/>
<path d="M22.6317 67.8947H20.3685V70.1579H22.6317V67.8947Z" fill="black"/>
<path d="M24.8947 67.8947H22.6316V70.1579H24.8947V67.8947Z" fill="black"/>
<path d="M27.1579 67.8947H24.8948V70.1579H27.1579V67.8947Z" fill="black"/>
<path d="M38.4737 67.8947H36.2106V70.1579H38.4737V67.8947Z" fill="black"/>
<path d="M43.0001 67.8947H40.7369V70.1579H43.0001V67.8947Z" fill="black"/>
<path d="M47.5263 67.8947H45.2632V70.1579H47.5263V67.8947Z" fill="black"/>
<path d="M49.7895 67.8947H47.5264V70.1579H49.7895V67.8947Z" fill="black"/>
<path d="M54.3159 67.8947H52.0527V70.1579H54.3159V67.8947Z" fill="black"/>
<path d="M61.1053 67.8947H58.8422V70.1579H61.1053V67.8947Z" fill="black"/>
<path d="M63.3685 67.8947H61.1053V70.1579H63.3685V67.8947Z" fill="black"/>
<path d="M65.6317 67.8947H63.3685V70.1579H65.6317V67.8947Z" fill="black"/>
<path d="M67.8947 67.8947H65.6316V70.1579H67.8947V67.8947Z" fill="black"/>
<path d="M70.1579 67.8947H67.8948V70.1579H70.1579V67.8947Z" fill="black"/>
<path d="M79.2105 67.8947H76.9474V70.1579H79.2105V67.8947Z" fill="black"/>
<path d="M83.7369 67.8947H81.4738V70.1579H83.7369V67.8947Z" fill="black"/>
<path d="M90.5263 67.8947H88.2632V70.1579H90.5263V67.8947Z" fill="black"/>
<path d="M92.7895 67.8947H90.5264V70.1579H92.7895V67.8947Z" fill="black"/>
<path d="M99.579 67.8947H97.3158V70.1579H99.579V67.8947Z" fill="black"/>
<path d="M106.369 67.8947H104.105V70.1579H106.369V67.8947Z" fill="black"/>
<path d="M108.632 67.8947H106.368V70.1579H108.632V67.8947Z" fill="black"/>
<path d="M110.895 67.8947H108.632V70.1579H110.895V67.8947Z" fill="black"/>
<path d="M113.158 67.8947H110.895V70.1579H113.158V67.8947Z" fill="black"/>
<path d="M115.421 67.8947H113.158V70.1579H115.421V67.8947Z" fill="black"/>
<path d="M117.684 67.8947H115.421V70.1579H117.684V67.8947Z" fill="black"/>
<path d="M122.211 67.8947H119.947V70.1579H122.211V67.8947Z" fill="black"/>
<path d="M9.05271 70.1579H6.78955V72.4211H9.05271V70.1579Z" fill="black"/>
<path d="M11.3159 70.1579H9.05273V72.4211H11.3159V70.1579Z" fill="black"/>
<path d="M22.6317 70.1579H20.3685V72.4211H22.6317V70.1579Z" fill="black"/>
<path d="M27.1579 70.1579H24.8948V72.4211H27.1579V70.1579Z" fill="black"/>
<path d="M33.9474 70.1579H31.6842V72.4211H33.9474V70.1579Z" fill="black"/>
<path d="M36.2105 70.1579H33.9474V72.4211H36.2105V70.1579Z" fill="black"/>
<path d="M43.0001 70.1579H40.7369V72.4211H43.0001V70.1579Z" fill="black"/>
<path d="M45.2632 70.1579H43V72.4211H45.2632V70.1579Z" fill="black"/>
<path d="M49.7895 70.1579H47.5264V72.4211H49.7895V70.1579Z" fill="black"/>
<path d="M56.579 70.1579H54.3158V72.4211H56.579V70.1579Z" fill="black"/>
<path d="M58.8421 70.1579H56.579V72.4211H58.8421V70.1579Z" fill="black"/>
<path d="M63.3685 70.1579H61.1053V72.4211H63.3685V70.1579Z" fill="black"/>
<path d="M65.6317 70.1579H63.3685V72.4211H65.6317V70.1579Z" fill="black"/>
<path d="M67.8947 70.1579H65.6316V72.4211H67.8947V70.1579Z" fill="black"/>
<path d="M83.7369 70.1579H81.4738V72.4211H83.7369V70.1579Z" fill="black"/>
<path d="M86.0001 70.1579H83.7369V72.4211H86.0001V70.1579Z" fill="black"/>
<path d="M95.0527 70.1579H92.7896V72.4211H95.0527V70.1579Z" fill="black"/>
<path d="M97.3159 70.1579H95.0527V72.4211H97.3159V70.1579Z" fill="black"/>
<path d="M99.579 70.1579H97.3158V72.4211H99.579V70.1579Z" fill="black"/>
<path d="M104.105 70.1579H101.842V72.4211H104.105V70.1579Z" fill="black"/>
<path d="M106.369 70.1579H104.105V72.4211H106.369V70.1579Z" fill="black"/>
<path d="M108.632 70.1579H106.368V72.4211H108.632V70.1579Z" fill="black"/>
<path d="M6.78953 72.4211H4.52637V74.6842H6.78953V72.4211Z" fill="black"/>
<path d="M9.05271 72.4211H6.78955V74.6842H9.05271V72.4211Z" fill="black"/>
<path d="M13.579 72.4211H11.3158V74.6842H13.579V72.4211Z" fill="black"/>
<path d="M20.3685 72.4211H18.1053V74.6842H20.3685V72.4211Z" fill="black"/>
<path d="M22.6317 72.4211H20.3685V74.6842H22.6317V72.4211Z" fill="black"/>
<path d="M33.9474 72.4211H31.6842V74.6842H33.9474V72.4211Z" fill="black"/>
<path d="M36.2105 72.4211H33.9474V74.6842H36.2105V72.4211Z" fill="black"/>
<path d="M38.4737 72.4211H36.2106V74.6842H38.4737V72.4211Z" fill="black"/>
<path d="M40.7369 72.4211H38.4738V74.6842H40.7369V72.4211Z" fill="black"/>
<path d="M47.5263 72.4211H45.2632V74.6842H47.5263V72.4211Z" fill="black"/>
<path d="M61.1053 72.4211H58.8422V74.6842H61.1053V72.4211Z" fill="black"/>
<path d="M63.3685 72.4211H61.1053V74.6842H63.3685V72.4211Z" fill="black"/>
<path d="M65.6317 72.4211H63.3685V74.6842H65.6317V72.4211Z" fill="black"/>
<path d="M67.8947 72.4211H65.6316V74.6842H67.8947V72.4211Z" fill="black"/>
<path d="M83.7369 72.4211H81.4738V74.6842H83.7369V72.4211Z" fill="black"/>
<path d="M86.0001 72.4211H83.7369V74.6842H86.0001V72.4211Z" fill="black"/>
<path d="M88.2632 72.4211H86V74.6842H88.2632V72.4211Z" fill="black"/>
<path d="M95.0527 72.4211H92.7896V74.6842H95.0527V72.4211Z" fill="black"/>
<path d="M99.579 72.4211H97.3158V74.6842H99.579V72.4211Z" fill="black"/>
<path d="M104.105 72.4211H101.842V74.6842H104.105V72.4211Z" fill="black"/>
<path d="M113.158 72.4211H110.895V74.6842H113.158V72.4211Z" fill="black"/>
<path d="M115.421 72.4211H113.158V74.6842H115.421V72.4211Z" fill="black"/>
<path d="M9.05271 74.6842H6.78955V76.9474H9.05271V74.6842Z" fill="black"/>
<path d="M11.3159 74.6842H9.05273V76.9474H11.3159V74.6842Z" fill="black"/>
<path d="M13.579 74.6842H11.3158V76.9474H13.579V74.6842Z" fill="black"/>
<path d="M15.8421 74.6842H13.579V76.9474H15.8421V74.6842Z" fill="black"/>
<path d="M24.8947 74.6842H22.6316V76.9474H24.8947V74.6842Z" fill="black"/>
<path d="M27.1579 74.6842H24.8948V76.9474H27.1579V74.6842Z" fill="black"/>
<path d="M29.4211 74.6842H27.158V76.9474H29.4211V74.6842Z" fill="black"/>
<path d="M31.6843 74.6842H29.4211V76.9474H31.6843V74.6842Z" fill="black"/>
<path d="M40.7369 74.6842H38.4738V76.9474H40.7369V74.6842Z" fill="black"/>
<path d="M54.3159 74.6842H52.0527V76.9474H54.3159V74.6842Z" fill="black"/>
<path d="M58.8421 74.6842H56.579V76.9474H58.8421V74.6842Z" fill="black"/>
<path d="M61.1053 74.6842H58.8422V76.9474H61.1053V74.6842Z" fill="black"/>
<path d="M67.8947 74.6842H65.6316V76.9474H67.8947V74.6842Z" fill="black"/>
<path d="M74.6843 74.6842H72.4211V76.9474H74.6843V74.6842Z" fill="black"/>
<path d="M81.4737 74.6842H79.2106V76.9474H81.4737V74.6842Z" fill="black"/>
<path d="M88.2632 74.6842H86V76.9474H88.2632V74.6842Z" fill="black"/>
<path d="M92.7895 74.6842H90.5264V76.9474H92.7895V74.6842Z" fill="black"/>
<path d="M95.0527 74.6842H92.7896V76.9474H95.0527V74.6842Z" fill="black"/>
<path d="M97.3159 74.6842H95.0527V76.9474H97.3159V74.6842Z" fill="black"/>
<path d="M99.579 74.6842H97.3158V76.9474H99.579V74.6842Z" fill="black"/>
<path d="M104.105 74.6842H101.842V76.9474H104.105V74.6842Z" fill="black"/>
<path d="M106.369 74.6842H104.105V76.9474H106.369V74.6842Z" fill="black"/>
<path d="M108.632 74.6842H106.368V76.9474H108.632V74.6842Z" fill="black"/>
<path d="M110.895 74.6842H108.632V76.9474H110.895V74.6842Z" fill="black"/>
<path d="M119.947 74.6842H117.684V76.9474H119.947V74.6842Z" fill="black"/>
<path d="M122.211 74.6842H119.947V76.9474H122.211V74.6842Z" fill="black"/>
<path d="M6.78953 76.9474H4.52637V79.2105H6.78953V76.9474Z" fill="black"/>
<path d="M9.05271 76.9474H6.78955V79.2105H9.05271V76.9474Z" fill="black"/>
<path d="M13.579 76.9474H11.3158V79.2105H13.579V76.9474Z" fill="black"/>
<path d="M20.3685 76.9474H18.1053V79.2105H20.3685V76.9474Z" fill="black"/>
<path d="M29.4211 76.9474H27.158V79.2105H29.4211V76.9474Z" fill="black"/>
<path d="M31.6843 76.9474H29.4211V79.2105H31.6843V76.9474Z" fill="black"/>
<path d="M36.2105 76.9474H33.9474V79.2105H36.2105V76.9474Z" fill="black"/>
<path d="M40.7369 76.9474H38.4738V79.2105H40.7369V76.9474Z" fill="black"/>
<path d="M43.0001 76.9474H40.7369V79.2105H43.0001V76.9474Z" fill="black"/>
<path d="M45.2632 76.9474H43V79.2105H45.2632V76.9474Z" fill="black"/>
<path d="M54.3159 76.9474H52.0527V79.2105H54.3159V76.9474Z" fill="black"/>
<path d="M56.579 76.9474H54.3158V79.2105H56.579V76.9474Z" fill="black"/>
<path d="M65.6317 76.9474H63.3685V79.2105H65.6317V76.9474Z" fill="black"/>
<path d="M70.1579 76.9474H67.8948V79.2105H70.1579V76.9474Z" fill="black"/>
<path d="M74.6843 76.9474H72.4211V79.2105H74.6843V76.9474Z" fill="black"/>
<path d="M76.9474 76.9474H74.6842V79.2105H76.9474V76.9474Z" fill="black"/>
<path d="M81.4737 76.9474H79.2106V79.2105H81.4737V76.9474Z" fill="black"/>
<path d="M83.7369 76.9474H81.4738V79.2105H83.7369V76.9474Z" fill="black"/>
<path d="M90.5263 76.9474H88.2632V79.2105H90.5263V76.9474Z" fill="black"/>
<path d="M92.7895 76.9474H90.5264V79.2105H92.7895V76.9474Z" fill="black"/>
<path d="M97.3159 76.9474H95.0527V79.2105H97.3159V76.9474Z" fill="black"/>
<path d="M104.105 76.9474H101.842V79.2105H104.105V76.9474Z" fill="black"/>
<path d="M113.158 76.9474H110.895V79.2105H113.158V76.9474Z" fill="black"/>
<path d="M115.421 76.9474H113.158V79.2105H115.421V76.9474Z" fill="black"/>
<path d="M119.947 76.9474H117.684V79.2105H119.947V76.9474Z" fill="black"/>
<path d="M122.211 76.9474H119.947V79.2105H122.211V76.9474Z" fill="black"/>
<path d="M124.474 76.9474H122.211V79.2105H124.474V76.9474Z" fill="black"/>
<path d="M6.78953 79.2105H4.52637V81.4737H6.78953V79.2105Z" fill="black"/>
<path d="M9.05271 79.2105H6.78955V81.4737H9.05271V79.2105Z" fill="black"/>
<path d="M13.579 79.2105H11.3158V81.4737H13.579V79.2105Z" fill="black"/>
<path d="M18.1053 79.2105H15.8422V81.4737H18.1053V79.2105Z" fill="black"/>
<path d="M22.6317 79.2105H20.3685V81.4737H22.6317V79.2105Z" fill="black"/>
<path d="M24.8947 79.2105H22.6316V81.4737H24.8947V79.2105Z" fill="black"/>
<path d="M27.1579 79.2105H24.8948V81.4737H27.1579V79.2105Z" fill="black"/>
<path d="M31.6843 79.2105H29.4211V81.4737H31.6843V79.2105Z" fill="black"/>
<path d="M33.9474 79.2105H31.6842V81.4737H33.9474V79.2105Z" fill="black"/>
<path d="M40.7369 79.2105H38.4738V81.4737H40.7369V79.2105Z" fill="black"/>
<path d="M47.5263 79.2105H45.2632V81.4737H47.5263V79.2105Z" fill="black"/>
<path d="M52.0527 79.2105H49.7896V81.4737H52.0527V79.2105Z" fill="black"/>
<path d="M54.3159 79.2105H52.0527V81.4737H54.3159V79.2105Z" fill="black"/>
<path d="M67.8947 79.2105H65.6316V81.4737H67.8947V79.2105Z" fill="black"/>
<path d="M70.1579 79.2105H67.8948V81.4737H70.1579V79.2105Z" fill="black"/>
<path d="M72.4211 79.2105H70.158V81.4737H72.4211V79.2105Z" fill="black"/>
<path d="M88.2632 79.2105H86V81.4737H88.2632V79.2105Z" fill="black"/>
<path d="M95.0527 79.2105H92.7896V81.4737H95.0527V79.2105Z" fill="black"/>
<path d="M97.3159 79.2105H95.0527V81.4737H97.3159V79.2105Z" fill="black"/>
<path d="M101.842 79.2105H99.579V81.4737H101.842V79.2105Z" fill="black"/>
<path d="M108.632 79.2105H106.368V81.4737H108.632V79.2105Z" fill="black"/>
<path d="M110.895 79.2105H108.632V81.4737H110.895V79.2105Z" fill="black"/>
<path d="M113.158 79.2105H110.895V81.4737H113.158V79.2105Z" fill="black"/>
<path d="M115.421 79.2105H113.158V81.4737H115.421V79.2105Z" fill="black"/>
<path d="M124.474 79.2105H122.211V81.4737H124.474V79.2105Z" fill="black"/>
<path d="M9.05271 81.4737H6.78955V83.7368H9.05271V81.4737Z" fill="black"/>
<path d="M18.1053 81.4737H15.8422V83.7368H18.1053V81.4737Z" fill="black"/>
<path d="M20.3685 81.4737H18.1053V83.7368H20.3685V81.4737Z" fill="black"/>
<path d="M29.4211 81.4737H27.158V83.7368H29.4211V81.4737Z" fill="black"/>
<path d="M33.9474 81.4737H31.6842V83.7368H33.9474V81.4737Z" fill="black"/>
<path d="M38.4737 81.4737H36.2106V83.7368H38.4737V81.4737Z" fill="black"/>
<path d="M40.7369 81.4737H38.4738V83.7368H40.7369V81.4737Z" fill="black"/>
<path d="M43.0001 81.4737H40.7369V83.7368H43.0001V81.4737Z" fill="black"/>
<path d="M45.2632 81.4737H43V83.7368H45.2632V81.4737Z" fill="black"/>
<path d="M47.5263 81.4737H45.2632V83.7368H47.5263V81.4737Z" fill="black"/>
<path d="M49.7895 81.4737H47.5264V83.7368H49.7895V81.4737Z" fill="black"/>
<path d="M54.3159 81.4737H52.0527V83.7368H54.3159V81.4737Z" fill="black"/>
<path d="M58.8421 81.4737H56.579V83.7368H58.8421V81.4737Z" fill="black"/>
<path d="M61.1053 81.4737H58.8422V83.7368H61.1053V81.4737Z" fill="black"/>
<path d="M63.3685 81.4737H61.1053V83.7368H63.3685V81.4737Z" fill="black"/>
<path d="M70.1579 81.4737H67.8948V83.7368H70.1579V81.4737Z" fill="black"/>
<path d="M72.4211 81.4737H70.158V83.7368H72.4211V81.4737Z" fill="black"/>
<path d="M76.9474 81.4737H74.6842V83.7368H76.9474V81.4737Z" fill="black"/>
<path d="M79.2105 81.4737H76.9474V83.7368H79.2105V81.4737Z" fill="black"/>
<path d="M99.579 81.4737H97.3158V83.7368H99.579V81.4737Z" fill="black"/>
<path d="M101.842 81.4737H99.579V83.7368H101.842V81.4737Z" fill="black"/>
<path d="M113.158 81.4737H110.895V83.7368H113.158V81.4737Z" fill="black"/>
<path d="M6.78953 83.7368H4.52637V86H6.78953V83.7368Z" fill="black"/>
<path d="M9.05271 83.7368H6.78955V86H9.05271V83.7368Z" fill="black"/>
<path d="M11.3159 83.7368H9.05273V86H11.3159V83.7368Z" fill="black"/>
<path d="M18.1053 83.7368H15.8422V86H18.1053V83.7368Z" fill="black"/>
<path d="M29.4211 83.7368H27.158V86H29.4211V83.7368Z" fill="black"/>
<path d="M31.6843 83.7368H29.4211V86H31.6843V83.7368Z" fill="black"/>
<path d="M36.2105 83.7368H33.9474V86H36.2105V83.7368Z" fill="black"/>
<path d="M54.3159 83.7368H52.0527V86H54.3159V83.7368Z" fill="black"/>
<path d="M56.579 83.7368H54.3158V86H56.579V83.7368Z" fill="black"/>
<path d="M61.1053 83.7368H58.8422V86H61.1053V83.7368Z" fill="black"/>
<path d="M65.6317 83.7368H63.3685V86H65.6317V83.7368Z" fill="black"/>
<path d="M70.1579 83.7368H67.8948V86H70.1579V83.7368Z" fill="black"/>
<path d="M72.4211 83.7368H70.158V86H72.4211V83.7368Z" fill="black"/>
<path d="M74.6843 83.7368H72.4211V86H74.6843V83.7368Z" fill="black"/>
<path d="M76.9474 83.7368H74.6842V86H76.9474V83.7368Z" fill="black"/>
<path d="M81.4737 83.7368H79.2106V86H81.4737V83.7368Z" fill="black"/>
<path d="M83.7369 83.7368H81.4738V86H83.7369V83.7368Z" fill="black"/>
<path d="M88.2632 83.7368H86V86H88.2632V83.7368Z" fill="black"/>
<path d="M90.5263 83.7368H88.2632V86H90.5263V83.7368Z" fill="black"/>
<path d="M99.579 83.7368H97.3158V86H99.579V83.7368Z" fill="black"/>
<path d="M124.474 83.7368H122.211V86H124.474V83.7368Z" fill="black"/>
<path d="M9.05271 86H6.78955V88.2632H9.05271V86Z" fill="black"/>
<path d="M20.3685 86H18.1053V88.2632H20.3685V86Z" fill="black"/>
<path d="M29.4211 86H27.158V88.2632H29.4211V86Z" fill="black"/>
<path d="M33.9474 86H31.6842V88.2632H33.9474V86Z" fill="black"/>
<path d="M45.2632 86H43V88.2632H45.2632V86Z" fill="black"/>
<path d="M47.5263 86H45.2632V88.2632H47.5263V86Z" fill="black"/>
<path d="M49.7895 86H47.5264V88.2632H49.7895V86Z" fill="black"/>
<path d="M52.0527 86H49.7896V88.2632H52.0527V86Z" fill="black"/>
<path d="M54.3159 86H52.0527V88.2632H54.3159V86Z" fill="black"/>
<path d="M61.1053 86H58.8422V88.2632H61.1053V86Z" fill="black"/>
<path d="M67.8947 86H65.6316V88.2632H67.8947V86Z" fill="black"/>
<path d="M70.1579 86H67.8948V88.2632H70.1579V86Z" fill="black"/>
<path d="M72.4211 86H70.158V88.2632H72.4211V86Z" fill="black"/>
<path d="M76.9474 86H74.6842V88.2632H76.9474V86Z" fill="black"/>
<path d="M88.2632 86H86V88.2632H88.2632V86Z" fill="black"/>
<path d="M92.7895 86H90.5264V88.2632H92.7895V86Z" fill="black"/>
<path d="M95.0527 86H92.7896V88.2632H95.0527V86Z" fill="black"/>
<path d="M99.579 86H97.3158V88.2632H99.579V86Z" fill="black"/>
<path d="M101.842 86H99.579V88.2632H101.842V86Z" fill="black"/>
<path d="M106.369 86H104.105V88.2632H106.369V86Z" fill="black"/>
<path d="M108.632 86H106.368V88.2632H108.632V86Z" fill="black"/>
<path d="M113.158 86H110.895V88.2632H113.158V86Z" fill="black"/>
<path d="M122.211 86H119.947V88.2632H122.211V86Z" fill="black"/>
<path d="M124.474 86H122.211V88.2632H124.474V86Z" fill="black"/>
<path d="M6.78953 88.2632H4.52637V90.5263H6.78953V88.2632Z" fill="black"/>
<path d="M9.05271 88.2632H6.78955V90.5263H9.05271V88.2632Z" fill="black"/>
<path d="M15.8421 88.2632H13.579V90.5263H15.8421V88.2632Z" fill="black"/>
<path d="M22.6317 88.2632H20.3685V90.5263H22.6317V88.2632Z" fill="black"/>
<path d="M31.6843 88.2632H29.4211V90.5263H31.6843V88.2632Z" fill="black"/>
<path d="M33.9474 88.2632H31.6842V90.5263H33.9474V88.2632Z" fill="black"/>
<path d="M38.4737 88.2632H36.2106V90.5263H38.4737V88.2632Z" fill="black"/>
<path d="M45.2632 88.2632H43V90.5263H45.2632V88.2632Z" fill="black"/>
<path d="M47.5263 88.2632H45.2632V90.5263H47.5263V88.2632Z" fill="black"/>
<path d="M49.7895 88.2632H47.5264V90.5263H49.7895V88.2632Z" fill="black"/>
<path d="M52.0527 88.2632H49.7896V90.5263H52.0527V88.2632Z" fill="black"/>
<path d="M54.3159 88.2632H52.0527V90.5263H54.3159V88.2632Z" fill="black"/>
<path d="M56.579 88.2632H54.3158V90.5263H56.579V88.2632Z" fill="black"/>
<path d="M58.8421 88.2632H56.579V90.5263H58.8421V88.2632Z" fill="black"/>
<path d="M61.1053 88.2632H58.8422V90.5263H61.1053V88.2632Z" fill="black"/>
<path d="M76.9474 88.2632H74.6842V90.5263H76.9474V88.2632Z" fill="black"/>
<path d="M79.2105 88.2632H76.9474V90.5263H79.2105V88.2632Z" fill="black"/>
<path d="M86.0001 88.2632H83.7369V90.5263H86.0001V88.2632Z" fill="black"/>
<path d="M90.5263 88.2632H88.2632V90.5263H90.5263V88.2632Z" fill="black"/>
<path d="M92.7895 88.2632H90.5264V90.5263H92.7895V88.2632Z" fill="black"/>
<path d="M95.0527 88.2632H92.7896V90.5263H95.0527V88.2632Z" fill="black"/>
<path d="M97.3159 88.2632H95.0527V90.5263H97.3159V88.2632Z" fill="black"/>
<path d="M110.895 88.2632H108.632V90.5263H110.895V88.2632Z" fill="black"/>
<path d="M113.158 88.2632H110.895V90.5263H113.158V88.2632Z" fill="black"/>
<path d="M119.947 88.2632H117.684V90.5263H119.947V88.2632Z" fill="black"/>
<path d="M122.211 88.2632H119.947V90.5263H122.211V88.2632Z" fill="black"/>
<path d="M124.474 88.2632H122.211V90.5263H124.474V88.2632Z" fill="black"/>
<path d="M6.78953 90.5263H4.52637V92.7895H6.78953V90.5263Z" fill="black"/>
<path d="M11.3159 90.5263H9.05273V92.7895H11.3159V90.5263Z" fill="black"/>
<path d="M13.579 90.5263H11.3158V92.7895H13.579V90.5263Z" fill="black"/>
<path d="M15.8421 90.5263H13.579V92.7895H15.8421V90.5263Z" fill="black"/>
<path d="M20.3685 90.5263H18.1053V92.7895H20.3685V90.5263Z" fill="black"/>
<path d="M29.4211 90.5263H27.158V92.7895H29.4211V90.5263Z" fill="black"/>
<path d="M31.6843 90.5263H29.4211V92.7895H31.6843V90.5263Z" fill="black"/>
<path d="M33.9474 90.5263H31.6842V92.7895H33.9474V90.5263Z" fill="black"/>
<path d="M38.4737 90.5263H36.2106V92.7895H38.4737V90.5263Z" fill="black"/>
<path d="M43.0001 90.5263H40.7369V92.7895H43.0001V90.5263Z" fill="black"/>
<path d="M56.579 90.5263H54.3158V92.7895H56.579V90.5263Z" fill="black"/>
<path d="M61.1053 90.5263H58.8422V92.7895H61.1053V90.5263Z" fill="black"/>
<path d="M63.3685 90.5263H61.1053V92.7895H63.3685V90.5263Z" fill="black"/>
<path d="M74.6843 90.5263H72.4211V92.7895H74.6843V90.5263Z" fill="black"/>
<path d="M83.7369 90.5263H81.4738V92.7895H83.7369V90.5263Z" fill="black"/>
<path d="M90.5263 90.5263H88.2632V92.7895H90.5263V90.5263Z" fill="black"/>
<path d="M97.3159 90.5263H95.0527V92.7895H97.3159V90.5263Z" fill="black"/>
<path d="M104.105 90.5263H101.842V92.7895H104.105V90.5263Z" fill="black"/>
<path d="M110.895 90.5263H108.632V92.7895H110.895V90.5263Z" fill="black"/>
<path d="M113.158 90.5263H110.895V92.7895H113.158V90.5263Z" fill="black"/>
<path d="M117.684 90.5263H115.421V92.7895H117.684V90.5263Z" fill="black"/>
<path d="M119.947 90.5263H117.684V92.7895H119.947V90.5263Z" fill="black"/>
<path d="M124.474 90.5263H122.211V92.7895H124.474V90.5263Z" fill="black"/>
<path d="M6.78953 92.7895H4.52637V95.0526H6.78953V92.7895Z" fill="black"/>
<path d="M9.05271 92.7895H6.78955V95.0526H9.05271V92.7895Z" fill="black"/>
<path d="M11.3159 92.7895H9.05273V95.0526H11.3159V92.7895Z" fill="black"/>
<path d="M13.579 92.7895H11.3158V95.0526H13.579V92.7895Z" fill="black"/>
<path d="M15.8421 92.7895H13.579V95.0526H15.8421V92.7895Z" fill="black"/>
<path d="M18.1053 92.7895H15.8422V95.0526H18.1053V92.7895Z" fill="black"/>
<path d="M24.8947 92.7895H22.6316V95.0526H24.8947V92.7895Z" fill="black"/>
<path d="M27.1579 92.7895H24.8948V95.0526H27.1579V92.7895Z" fill="black"/>
<path d="M29.4211 92.7895H27.158V95.0526H29.4211V92.7895Z" fill="black"/>
<path d="M38.4737 92.7895H36.2106V95.0526H38.4737V92.7895Z" fill="black"/>
<path d="M40.7369 92.7895H38.4738V95.0526H40.7369V92.7895Z" fill="black"/>
<path d="M43.0001 92.7895H40.7369V95.0526H43.0001V92.7895Z" fill="black"/>
<path d="M45.2632 92.7895H43V95.0526H45.2632V92.7895Z" fill="black"/>
<path d="M49.7895 92.7895H47.5264V95.0526H49.7895V92.7895Z" fill="black"/>
<path d="M52.0527 92.7895H49.7896V95.0526H52.0527V92.7895Z" fill="black"/>
<path d="M67.8947 92.7895H65.6316V95.0526H67.8947V92.7895Z" fill="black"/>
<path d="M72.4211 92.7895H70.158V95.0526H72.4211V92.7895Z" fill="black"/>
<path d="M74.6843 92.7895H72.4211V95.0526H74.6843V92.7895Z" fill="black"/>
<path d="M76.9474 92.7895H74.6842V95.0526H76.9474V92.7895Z" fill="black"/>
<path d="M79.2105 92.7895H76.9474V95.0526H79.2105V92.7895Z" fill="black"/>
<path d="M83.7369 92.7895H81.4738V95.0526H83.7369V92.7895Z" fill="black"/>
<path d="M92.7895 92.7895H90.5264V95.0526H92.7895V92.7895Z" fill="black"/>
<path d="M97.3159 92.7895H95.0527V95.0526H97.3159V92.7895Z" fill="black"/>
<path d="M101.842 92.7895H99.579V95.0526H101.842V92.7895Z" fill="black"/>
<path d="M104.105 92.7895H101.842V95.0526H104.105V92.7895Z" fill="black"/>
<path d="M108.632 92.7895H106.368V95.0526H108.632V92.7895Z" fill="black"/>
<path d="M110.895 92.7895H108.632V95.0526H110.895V92.7895Z" fill="black"/>
<path d="M113.158 92.7895H110.895V95.0526H113.158V92.7895Z" fill="black"/>
<path d="M115.421 92.7895H113.158V95.0526H115.421V92.7895Z" fill="black"/>
<path d="M122.211 92.7895H119.947V95.0526H122.211V92.7895Z" fill="black"/>
<path d="M6.78953 95.0526H4.52637V97.3158H6.78953V95.0526Z" fill="black"/>
<path d="M15.8421 95.0526H13.579V97.3158H15.8421V95.0526Z" fill="black"/>
<path d="M18.1053 95.0526H15.8422V97.3158H18.1053V95.0526Z" fill="black"/>
<path d="M20.3685 95.0526H18.1053V97.3158H20.3685V95.0526Z" fill="black"/>
<path d="M22.6317 95.0526H20.3685V97.3158H22.6317V95.0526Z" fill="black"/>
<path d="M27.1579 95.0526H24.8948V97.3158H27.1579V95.0526Z" fill="black"/>
<path d="M29.4211 95.0526H27.158V97.3158H29.4211V95.0526Z" fill="black"/>
<path d="M31.6843 95.0526H29.4211V97.3158H31.6843V95.0526Z" fill="black"/>
<path d="M36.2105 95.0526H33.9474V97.3158H36.2105V95.0526Z" fill="black"/>
<path d="M38.4737 95.0526H36.2106V97.3158H38.4737V95.0526Z" fill="black"/>
<path d="M43.0001 95.0526H40.7369V97.3158H43.0001V95.0526Z" fill="black"/>
<path d="M45.2632 95.0526H43V97.3158H45.2632V95.0526Z" fill="black"/>
<path d="M47.5263 95.0526H45.2632V97.3158H47.5263V95.0526Z" fill="black"/>
<path d="M52.0527 95.0526H49.7896V97.3158H52.0527V95.0526Z" fill="black"/>
<path d="M58.8421 95.0526H56.579V97.3158H58.8421V95.0526Z" fill="black"/>
<path d="M65.6317 95.0526H63.3685V97.3158H65.6317V95.0526Z" fill="black"/>
<path d="M67.8947 95.0526H65.6316V97.3158H67.8947V95.0526Z" fill="black"/>
<path d="M79.2105 95.0526H76.9474V97.3158H79.2105V95.0526Z" fill="black"/>
<path d="M81.4737 95.0526H79.2106V97.3158H81.4737V95.0526Z" fill="black"/>
<path d="M83.7369 95.0526H81.4738V97.3158H83.7369V95.0526Z" fill="black"/>
<path d="M90.5263 95.0526H88.2632V97.3158H90.5263V95.0526Z" fill="black"/>
<path d="M92.7895 95.0526H90.5264V97.3158H92.7895V95.0526Z" fill="black"/>
<path d="M95.0527 95.0526H92.7896V97.3158H95.0527V95.0526Z" fill="black"/>
<path d="M99.579 95.0526H97.3158V97.3158H99.579V95.0526Z" fill="black"/>
<path d="M101.842 95.0526H99.579V97.3158H101.842V95.0526Z" fill="black"/>
<path d="M113.158 95.0526H110.895V97.3158H113.158V95.0526Z" fill="black"/>
<path d="M115.421 95.0526H113.158V97.3158H115.421V95.0526Z" fill="black"/>
<path d="M117.684 95.0526H115.421V97.3158H117.684V95.0526Z" fill="black"/>
<path d="M122.211 95.0526H119.947V97.3158H122.211V95.0526Z" fill="black"/>
<path d="M9.05271 97.3158H6.78955V99.579H9.05271V97.3158Z" fill="black"/>
<path d="M13.579 97.3158H11.3158V99.579H13.579V97.3158Z" fill="black"/>
<path d="M15.8421 97.3158H13.579V99.579H15.8421V97.3158Z" fill="black"/>
<path d="M18.1053 97.3158H15.8422V99.579H18.1053V97.3158Z" fill="black"/>
<path d="M27.1579 97.3158H24.8948V99.579H27.1579V97.3158Z" fill="black"/>
<path d="M33.9474 97.3158H31.6842V99.579H33.9474V97.3158Z" fill="black"/>
<path d="M45.2632 97.3158H43V99.579H45.2632V97.3158Z" fill="black"/>
<path d="M54.3159 97.3158H52.0527V99.579H54.3159V97.3158Z" fill="black"/>
<path d="M56.579 97.3158H54.3158V99.579H56.579V97.3158Z" fill="black"/>
<path d="M61.1053 97.3158H58.8422V99.579H61.1053V97.3158Z" fill="black"/>
<path d="M63.3685 97.3158H61.1053V99.579H63.3685V97.3158Z" fill="black"/>
<path d="M65.6317 97.3158H63.3685V99.579H65.6317V97.3158Z" fill="black"/>
<path d="M67.8947 97.3158H65.6316V99.579H67.8947V97.3158Z" fill="black"/>
<path d="M76.9474 97.3158H74.6842V99.579H76.9474V97.3158Z" fill="black"/>
<path d="M81.4737 97.3158H79.2106V99.579H81.4737V97.3158Z" fill="black"/>
<path d="M83.7369 97.3158H81.4738V99.579H83.7369V97.3158Z" fill="black"/>
<path d="M95.0527 97.3158H92.7896V99.579H95.0527V97.3158Z" fill="black"/>
<path d="M104.105 97.3158H101.842V99.579H104.105V97.3158Z" fill="black"/>
<path d="M106.369 97.3158H104.105V99.579H106.369V97.3158Z" fill="black"/>
<path d="M108.632 97.3158H106.368V99.579H108.632V97.3158Z" fill="black"/>
<path d="M110.895 97.3158H108.632V99.579H110.895V97.3158Z" fill="black"/>
<path d="M122.211 97.3158H119.947V99.579H122.211V97.3158Z" fill="black"/>
<path d="M6.78953 99.5789H4.52637V101.842H6.78953V99.5789Z" fill="black"/>
<path d="M9.05271 99.5789H6.78955V101.842H9.05271V99.5789Z" fill="black"/>
<path d="M13.579 99.5789H11.3158V101.842H13.579V99.5789Z" fill="black"/>
<path d="M15.8421 99.5789H13.579V101.842H15.8421V99.5789Z" fill="black"/>
<path d="M18.1053 99.5789H15.8422V101.842H18.1053V99.5789Z" fill="black"/>
<path d="M20.3685 99.5789H18.1053V101.842H20.3685V99.5789Z" fill="black"/>
<path d="M27.1579 99.5789H24.8948V101.842H27.1579V99.5789Z" fill="black"/>
<path d="M29.4211 99.5789H27.158V101.842H29.4211V99.5789Z" fill="black"/>
<path d="M31.6843 99.5789H29.4211V101.842H31.6843V99.5789Z" fill="black"/>
<path d="M36.2105 99.5789H33.9474V101.842H36.2105V99.5789Z" fill="black"/>
<path d="M43.0001 99.5789H40.7369V101.842H43.0001V99.5789Z" fill="black"/>
<path d="M49.7895 99.5789H47.5264V101.842H49.7895V99.5789Z" fill="black"/>
<path d="M52.0527 99.5789H49.7896V101.842H52.0527V99.5789Z" fill="black"/>
<path d="M54.3159 99.5789H52.0527V101.842H54.3159V99.5789Z" fill="black"/>
<path d="M70.1579 99.5789H67.8948V101.842H70.1579V99.5789Z" fill="black"/>
<path d="M76.9474 99.5789H74.6842V101.842H76.9474V99.5789Z" fill="black"/>
<path d="M81.4737 99.5789H79.2106V101.842H81.4737V99.5789Z" fill="black"/>
<path d="M83.7369 99.5789H81.4738V101.842H83.7369V99.5789Z" fill="black"/>
<path d="M86.0001 99.5789H83.7369V101.842H86.0001V99.5789Z" fill="black"/>
<path d="M90.5263 99.5789H88.2632V101.842H90.5263V99.5789Z" fill="black"/>
<path d="M92.7895 99.5789H90.5264V101.842H92.7895V99.5789Z" fill="black"/>
<path d="M97.3159 99.5789H95.0527V101.842H97.3159V99.5789Z" fill="black"/>
<path d="M104.105 99.5789H101.842V101.842H104.105V99.5789Z" fill="black"/>
<path d="M108.632 99.5789H106.368V101.842H108.632V99.5789Z" fill="black"/>
<path d="M115.421 99.5789H113.158V101.842H115.421V99.5789Z" fill="black"/>
<path d="M122.211 99.5789H119.947V101.842H122.211V99.5789Z" fill="black"/>
<path d="M9.05271 101.842H6.78955V104.105H9.05271V101.842Z" fill="black"/>
<path d="M11.3159 101.842H9.05273V104.105H11.3159V101.842Z" fill="black"/>
<path d="M22.6317 101.842H20.3685V104.105H22.6317V101.842Z" fill="black"/>
<path d="M24.8947 101.842H22.6316V104.105H24.8947V101.842Z" fill="black"/>
<path d="M27.1579 101.842H24.8948V104.105H27.1579V101.842Z" fill="black"/>
<path d="M29.4211 101.842H27.158V104.105H29.4211V101.842Z" fill="black"/>
<path d="M40.7369 101.842H38.4738V104.105H40.7369V101.842Z" fill="black"/>
<path d="M47.5263 101.842H45.2632V104.105H47.5263V101.842Z" fill="black"/>
<path d="M49.7895 101.842H47.5264V104.105H49.7895V101.842Z" fill="black"/>
<path d="M54.3159 101.842H52.0527V104.105H54.3159V101.842Z" fill="black"/>
<path d="M56.579 101.842H54.3158V104.105H56.579V101.842Z" fill="black"/>
<path d="M58.8421 101.842H56.579V104.105H58.8421V101.842Z" fill="black"/>
<path d="M61.1053 101.842H58.8422V104.105H61.1053V101.842Z" fill="black"/>
<path d="M65.6317 101.842H63.3685V104.105H65.6317V101.842Z" fill="black"/>
<path d="M67.8947 101.842H65.6316V104.105H67.8947V101.842Z" fill="black"/>
<path d="M72.4211 101.842H70.158V104.105H72.4211V101.842Z" fill="black"/>
<path d="M81.4737 101.842H79.2106V104.105H81.4737V101.842Z" fill="black"/>
<path d="M86.0001 101.842H83.7369V104.105H86.0001V101.842Z" fill="black"/>
<path d="M88.2632 101.842H86V104.105H88.2632V101.842Z" fill="black"/>
<path d="M92.7895 101.842H90.5264V104.105H92.7895V101.842Z" fill="black"/>
<path d="M104.105 101.842H101.842V104.105H104.105V101.842Z" fill="black"/>
<path d="M106.369 101.842H104.105V104.105H106.369V101.842Z" fill="black"/>
<path d="M110.895 101.842H108.632V104.105H110.895V101.842Z" fill="black"/>
<path d="M113.158 101.842H110.895V104.105H113.158V101.842Z" fill="black"/>
<path d="M119.947 101.842H117.684V104.105H119.947V101.842Z" fill="black"/>
<path d="M13.579 104.105H11.3158V106.368H13.579V104.105Z" fill="black"/>
<path d="M20.3685 104.105H18.1053V106.368H20.3685V104.105Z" fill="black"/>
<path d="M31.6843 104.105H29.4211V106.368H31.6843V104.105Z" fill="black"/>
<path d="M33.9474 104.105H31.6842V106.368H33.9474V104.105Z" fill="black"/>
<path d="M38.4737 104.105H36.2106V106.368H38.4737V104.105Z" fill="black"/>
<path d="M56.579 104.105H54.3158V106.368H56.579V104.105Z" fill="black"/>
<path d="M61.1053 104.105H58.8422V106.368H61.1053V104.105Z" fill="black"/>
<path d="M63.3685 104.105H61.1053V106.368H63.3685V104.105Z" fill="black"/>
<path d="M65.6317 104.105H63.3685V106.368H65.6317V104.105Z" fill="black"/>
<path d="M67.8947 104.105H65.6316V106.368H67.8947V104.105Z" fill="black"/>
<path d="M70.1579 104.105H67.8948V106.368H70.1579V104.105Z" fill="black"/>
<path d="M74.6843 104.105H72.4211V106.368H74.6843V104.105Z" fill="black"/>
<path d="M76.9474 104.105H74.6842V106.368H76.9474V104.105Z" fill="black"/>
<path d="M81.4737 104.105H79.2106V106.368H81.4737V104.105Z" fill="black"/>
<path d="M83.7369 104.105H81.4738V106.368H83.7369V104.105Z" fill="black"/>
<path d="M86.0001 104.105H83.7369V106.368H86.0001V104.105Z" fill="black"/>
<path d="M90.5263 104.105H88.2632V106.368H90.5263V104.105Z" fill="black"/>
<path d="M95.0527 104.105H92.7896V106.368H95.0527V104.105Z" fill="black"/>
<path d="M97.3159 104.105H95.0527V106.368H97.3159V104.105Z" fill="black"/>
<path d="M101.842 104.105H99.579V106.368H101.842V104.105Z" fill="black"/>
<path d="M104.105 104.105H101.842V106.368H104.105V104.105Z" fill="black"/>
<path d="M106.369 104.105H104.105V106.368H106.369V104.105Z" fill="black"/>
<path d="M108.632 104.105H106.368V106.368H108.632V104.105Z" fill="black"/>
<path d="M110.895 104.105H108.632V106.368H110.895V104.105Z" fill="black"/>
<path d="M113.158 104.105H110.895V106.368H113.158V104.105Z" fill="black"/>
<path d="M115.421 104.105H113.158V106.368H115.421V104.105Z" fill="black"/>
<path d="M119.947 104.105H117.684V106.368H119.947V104.105Z" fill="black"/>
<path d="M122.211 104.105H119.947V106.368H122.211V104.105Z" fill="black"/>
<path d="M124.474 104.105H122.211V106.368H124.474V104.105Z" fill="black"/>
<path d="M24.8947 106.368H22.6316V108.632H24.8947V106.368Z" fill="black"/>
<path d="M27.1579 106.368H24.8948V108.632H27.1579V106.368Z" fill="black"/>
<path d="M36.2105 106.368H33.9474V108.632H36.2105V106.368Z" fill="black"/>
<path d="M40.7369 106.368H38.4738V108.632H40.7369V106.368Z" fill="black"/>
<path d="M45.2632 106.368H43V108.632H45.2632V106.368Z" fill="black"/>
<path d="M49.7895 106.368H47.5264V108.632H49.7895V106.368Z" fill="black"/>
<path d="M56.579 106.368H54.3158V108.632H56.579V106.368Z" fill="black"/>
<path d="M58.8421 106.368H56.579V108.632H58.8421V106.368Z" fill="black"/>
<path d="M61.1053 106.368H58.8422V108.632H61.1053V106.368Z" fill="black"/>
<path d="M70.1579 106.368H67.8948V108.632H70.1579V106.368Z" fill="black"/>
<path d="M74.6843 106.368H72.4211V108.632H74.6843V106.368Z" fill="black"/>
<path d="M76.9474 106.368H74.6842V108.632H76.9474V106.368Z" fill="black"/>
<path d="M88.2632 106.368H86V108.632H88.2632V106.368Z" fill="black"/>
<path d="M90.5263 106.368H88.2632V108.632H90.5263V106.368Z" fill="black"/>
<path d="M99.579 106.368H97.3158V108.632H99.579V106.368Z" fill="black"/>
<path d="M101.842 106.368H99.579V108.632H101.842V106.368Z" fill="black"/>
<path d="M104.105 106.368H101.842V108.632H104.105V106.368Z" fill="black"/>
<path d="M106.369 106.368H104.105V108.632H106.369V106.368Z" fill="black"/>
<path d="M115.421 106.368H113.158V108.632H115.421V106.368Z" fill="black"/>
<path d="M117.684 106.368H115.421V108.632H117.684V106.368Z" fill="black"/>
<path d="M122.211 106.368H119.947V108.632H122.211V106.368Z" fill="black"/>
<path d="M24.8947 108.632H22.6316V110.895H24.8947V108.632Z" fill="black"/>
<path d="M27.1579 108.632H24.8948V110.895H27.1579V108.632Z" fill="black"/>
<path d="M29.4211 108.632H27.158V110.895H29.4211V108.632Z" fill="black"/>
<path d="M33.9474 108.632H31.6842V110.895H33.9474V108.632Z" fill="black"/>
<path d="M36.2105 108.632H33.9474V110.895H36.2105V108.632Z" fill="black"/>
<path d="M40.7369 108.632H38.4738V110.895H40.7369V108.632Z" fill="black"/>
<path d="M45.2632 108.632H43V110.895H45.2632V108.632Z" fill="black"/>
<path d="M47.5263 108.632H45.2632V110.895H47.5263V108.632Z" fill="black"/>
<path d="M54.3159 108.632H52.0527V110.895H54.3159V108.632Z" fill="black"/>
<path d="M56.579 108.632H54.3158V110.895H56.579V108.632Z" fill="black"/>
<path d="M58.8421 108.632H56.579V110.895H58.8421V108.632Z" fill="black"/>
<path d="M61.1053 108.632H58.8422V110.895H61.1053V108.632Z" fill="black"/>
<path d="M65.6317 108.632H63.3685V110.895H65.6317V108.632Z" fill="black"/>
<path d="M70.1579 108.632H67.8948V110.895H70.1579V108.632Z" fill="black"/>
<path d="M74.6843 108.632H72.4211V110.895H74.6843V108.632Z" fill="black"/>
<path d="M76.9474 108.632H74.6842V110.895H76.9474V108.632Z" fill="black"/>
<path d="M86.0001 108.632H83.7369V110.895H86.0001V108.632Z" fill="black"/>
<path d="M95.0527 108.632H92.7896V110.895H95.0527V108.632Z" fill="black"/>
<path d="M99.579 108.632H97.3158V110.895H99.579V108.632Z" fill="black"/>
<path d="M101.842 108.632H99.579V110.895H101.842V108.632Z" fill="black"/>
<path d="M104.105 108.632H101.842V110.895H104.105V108.632Z" fill="black"/>
<path d="M106.369 108.632H104.105V110.895H106.369V108.632Z" fill="black"/>
<path d="M110.895 108.632H108.632V110.895H110.895V108.632Z" fill="black"/>
<path d="M115.421 108.632H113.158V110.895H115.421V108.632Z" fill="black"/>
<path d="M119.947 108.632H117.684V110.895H119.947V108.632Z" fill="black"/>
<path d="M122.211 108.632H119.947V110.895H122.211V108.632Z" fill="black"/>
<path d="M24.8947 110.895H22.6316V113.158H24.8947V110.895Z" fill="black"/>
<path d="M31.6843 110.895H29.4211V113.158H31.6843V110.895Z" fill="black"/>
<path d="M36.2105 110.895H33.9474V113.158H36.2105V110.895Z" fill="black"/>
<path d="M38.4737 110.895H36.2106V113.158H38.4737V110.895Z" fill="black"/>
<path d="M43.0001 110.895H40.7369V113.158H43.0001V110.895Z" fill="black"/>
<path d="M45.2632 110.895H43V113.158H45.2632V110.895Z" fill="black"/>
<path d="M49.7895 110.895H47.5264V113.158H49.7895V110.895Z" fill="black"/>
<path d="M61.1053 110.895H58.8422V113.158H61.1053V110.895Z" fill="black"/>
<path d="M70.1579 110.895H67.8948V113.158H70.1579V110.895Z" fill="black"/>
<path d="M72.4211 110.895H70.158V113.158H72.4211V110.895Z" fill="black"/>
<path d="M76.9474 110.895H74.6842V113.158H76.9474V110.895Z" fill="black"/>
<path d="M83.7369 110.895H81.4738V113.158H83.7369V110.895Z" fill="black"/>
<path d="M88.2632 110.895H86V113.158H88.2632V110.895Z" fill="black"/>
<path d="M95.0527 110.895H92.7896V113.158H95.0527V110.895Z" fill="black"/>
<path d="M106.369 110.895H104.105V113.158H106.369V110.895Z" fill="black"/>
<path d="M115.421 110.895H113.158V113.158H115.421V110.895Z" fill="black"/>
<path d="M27.1579 113.158H24.8948V115.421H27.1579V113.158Z" fill="black"/>
<path d="M29.4211 113.158H27.158V115.421H29.4211V113.158Z" fill="black"/>
<path d="M31.6843 113.158H29.4211V115.421H31.6843V113.158Z" fill="black"/>
<path d="M40.7369 113.158H38.4738V115.421H40.7369V113.158Z" fill="black"/>
<path d="M43.0001 113.158H40.7369V115.421H43.0001V113.158Z" fill="black"/>
<path d="M49.7895 113.158H47.5264V115.421H49.7895V113.158Z" fill="black"/>
<path d="M56.579 113.158H54.3158V115.421H56.579V113.158Z" fill="black"/>
<path d="M61.1053 113.158H58.8422V115.421H61.1053V113.158Z" fill="black"/>
<path d="M63.3685 113.158H61.1053V115.421H63.3685V113.158Z" fill="black"/>
<path d="M65.6317 113.158H63.3685V115.421H65.6317V113.158Z" fill="black"/>
<path d="M67.8947 113.158H65.6316V115.421H67.8947V113.158Z" fill="black"/>
<path d="M70.1579 113.158H67.8948V115.421H70.1579V113.158Z" fill="black"/>
<path d="M72.4211 113.158H70.158V115.421H72.4211V113.158Z" fill="black"/>
<path d="M74.6843 113.158H72.4211V115.421H74.6843V113.158Z" fill="black"/>
<path d="M76.9474 113.158H74.6842V115.421H76.9474V113.158Z" fill="black"/>
<path d="M79.2105 113.158H76.9474V115.421H79.2105V113.158Z" fill="black"/>
<path d="M81.4737 113.158H79.2106V115.421H81.4737V113.158Z" fill="black"/>
<path d="M88.2632 113.158H86V115.421H88.2632V113.158Z" fill="black"/>
<path d="M95.0527 113.158H92.7896V115.421H95.0527V113.158Z" fill="black"/>
<path d="M101.842 113.158H99.579V115.421H101.842V113.158Z" fill="black"/>
<path d="M104.105 113.158H101.842V115.421H104.105V113.158Z" fill="black"/>
<path d="M106.369 113.158H104.105V115.421H106.369V113.158Z" fill="black"/>
<path d="M108.632 113.158H106.368V115.421H108.632V113.158Z" fill="black"/>
<path d="M110.895 113.158H108.632V115.421H110.895V113.158Z" fill="black"/>
<path d="M113.158 113.158H110.895V115.421H113.158V113.158Z" fill="black"/>
<path d="M115.421 113.158H113.158V115.421H115.421V113.158Z" fill="black"/>
<path d="M117.684 113.158H115.421V115.421H117.684V113.158Z" fill="black"/>
<path d="M119.947 113.158H117.684V115.421H119.947V113.158Z" fill="black"/>
<path d="M122.211 113.158H119.947V115.421H122.211V113.158Z" fill="black"/>
<path d="M24.8947 115.421H22.6316V117.684H24.8947V115.421Z" fill="black"/>
<path d="M27.1579 115.421H24.8948V117.684H27.1579V115.421Z" fill="black"/>
<path d="M31.6843 115.421H29.4211V117.684H31.6843V115.421Z" fill="black"/>
<path d="M33.9474 115.421H31.6842V117.684H33.9474V115.421Z" fill="black"/>
<path d="M40.7369 115.421H38.4738V117.684H40.7369V115.421Z" fill="black"/>
<path d="M43.0001 115.421H40.7369V117.684H43.0001V115.421Z" fill="black"/>
<path d="M45.2632 115.421H43V117.684H45.2632V115.421Z" fill="black"/>
<path d="M47.5263 115.421H45.2632V117.684H47.5263V115.421Z" fill="black"/>
<path d="M52.0527 115.421H49.7896V117.684H52.0527V115.421Z" fill="black"/>
<path d="M65.6317 115.421H63.3685V117.684H65.6317V115.421Z" fill="black"/>
<path d="M67.8947 115.421H65.6316V117.684H67.8947V115.421Z" fill="black"/>
<path d="M72.4211 115.421H70.158V117.684H72.4211V115.421Z" fill="black"/>
<path d="M92.7895 115.421H90.5264V117.684H92.7895V115.421Z" fill="black"/>
<path d="M108.632 115.421H106.368V117.684H108.632V115.421Z" fill="black"/>
<path d="M113.158 115.421H110.895V117.684H113.158V115.421Z" fill="black"/>
<path d="M115.421 115.421H113.158V117.684H115.421V115.421Z" fill="black"/>
<path d="M119.947 115.421H117.684V117.684H119.947V115.421Z" fill="black"/>
<path d="M124.474 115.421H122.211V117.684H124.474V115.421Z" fill="black"/>
<path d="M24.8947 117.684H22.6316V119.947H24.8947V117.684Z" fill="black"/>
<path d="M29.4211 117.684H27.158V119.947H29.4211V117.684Z" fill="black"/>
<path d="M36.2105 117.684H33.9474V119.947H36.2105V117.684Z" fill="black"/>
<path d="M38.4737 117.684H36.2106V119.947H38.4737V117.684Z" fill="black"/>
<path d="M43.0001 117.684H40.7369V119.947H43.0001V117.684Z" fill="black"/>
<path d="M45.2632 117.684H43V119.947H45.2632V117.684Z" fill="black"/>
<path d="M52.0527 117.684H49.7896V119.947H52.0527V117.684Z" fill="black"/>
<path d="M54.3159 117.684H52.0527V119.947H54.3159V117.684Z" fill="black"/>
<path d="M63.3685 117.684H61.1053V119.947H63.3685V117.684Z" fill="black"/>
<path d="M65.6317 117.684H63.3685V119.947H65.6317V117.684Z" fill="black"/>
<path d="M70.1579 117.684H67.8948V119.947H70.1579V117.684Z" fill="black"/>
<path d="M72.4211 117.684H70.158V119.947H72.4211V117.684Z" fill="black"/>
<path d="M74.6843 117.684H72.4211V119.947H74.6843V117.684Z" fill="black"/>
<path d="M79.2105 117.684H76.9474V119.947H79.2105V117.684Z" fill="black"/>
<path d="M86.0001 117.684H83.7369V119.947H86.0001V117.684Z" fill="black"/>
<path d="M92.7895 117.684H90.5264V119.947H92.7895V117.684Z" fill="black"/>
<path d="M95.0527 117.684H92.7896V119.947H95.0527V117.684Z" fill="black"/>
<path d="M97.3159 117.684H95.0527V119.947H97.3159V117.684Z" fill="black"/>
<path d="M99.579 117.684H97.3158V119.947H99.579V117.684Z" fill="black"/>
<path d="M101.842 117.684H99.579V119.947H101.842V117.684Z" fill="black"/>
<path d="M110.895 117.684H108.632V119.947H110.895V117.684Z" fill="black"/>
<path d="M31.6843 119.947H29.4211V122.211H31.6843V119.947Z" fill="black"/>
<path d="M36.2105 119.947H33.9474V122.211H36.2105V119.947Z" fill="black"/>
<path d="M43.0001 119.947H40.7369V122.211H43.0001V119.947Z" fill="black"/>
<path d="M45.2632 119.947H43V122.211H45.2632V119.947Z" fill="black"/>
<path d="M47.5263 119.947H45.2632V122.211H47.5263V119.947Z" fill="black"/>
<path d="M49.7895 119.947H47.5264V122.211H49.7895V119.947Z" fill="black"/>
<path d="M56.579 119.947H54.3158V122.211H56.579V119.947Z" fill="black"/>
<path d="M65.6317 119.947H63.3685V122.211H65.6317V119.947Z" fill="black"/>
<path d="M74.6843 119.947H72.4211V122.211H74.6843V119.947Z" fill="black"/>
<path d="M76.9474 119.947H74.6842V122.211H76.9474V119.947Z" fill="black"/>
<path d="M79.2105 119.947H76.9474V122.211H79.2105V119.947Z" fill="black"/>
<path d="M81.4737 119.947H79.2106V122.211H81.4737V119.947Z" fill="black"/>
<path d="M88.2632 119.947H86V122.211H88.2632V119.947Z" fill="black"/>
<path d="M90.5263 119.947H88.2632V122.211H90.5263V119.947Z" fill="black"/>
<path d="M95.0527 119.947H92.7896V122.211H95.0527V119.947Z" fill="black"/>
<path d="M99.579 119.947H97.3158V122.211H99.579V119.947Z" fill="black"/>
<path d="M101.842 119.947H99.579V122.211H101.842V119.947Z" fill="black"/>
<path d="M108.632 119.947H106.368V122.211H108.632V119.947Z" fill="black"/>
<path d="M113.158 119.947H110.895V122.211H113.158V119.947Z" fill="black"/>
<path d="M115.421 119.947H113.158V122.211H115.421V119.947Z" fill="black"/>
<path d="M122.211 119.947H119.947V122.211H122.211V119.947Z" fill="black"/>
<path d="M24.8947 122.211H22.6316V124.474H24.8947V122.211Z" fill="black"/>
<path d="M27.1579 122.211H24.8948V124.474H27.1579V122.211Z" fill="black"/>
<path d="M31.6843 122.211H29.4211V124.474H31.6843V122.211Z" fill="black"/>
<path d="M38.4737 122.211H36.2106V124.474H38.4737V122.211Z" fill="black"/>
<path d="M40.7369 122.211H38.4738V124.474H40.7369V122.211Z" fill="black"/>
<path d="M43.0001 122.211H40.7369V124.474H43.0001V122.211Z" fill="black"/>
<path d="M45.2632 122.211H43V124.474H45.2632V122.211Z" fill="black"/>
<path d="M47.5263 122.211H45.2632V124.474H47.5263V122.211Z" fill="black"/>
<path d="M56.579 122.211H54.3158V124.474H56.579V122.211Z" fill="black"/>
<path d="M63.3685 122.211H61.1053V124.474H63.3685V122.211Z" fill="black"/>
<path d="M65.6317 122.211H63.3685V124.474H65.6317V122.211Z" fill="black"/>
<path d="M79.2105 122.211H76.9474V124.474H79.2105V122.211Z" fill="black"/>
<path d="M83.7369 122.211H81.4738V124.474H83.7369V122.211Z" fill="black"/>
<path d="M90.5263 122.211H88.2632V124.474H90.5263V122.211Z" fill="black"/>
<path d="M92.7895 122.211H90.5264V124.474H92.7895V122.211Z" fill="black"/>
<path d="M95.0527 122.211H92.7896V124.474H95.0527V122.211Z" fill="black"/>
<path d="M106.369 122.211H104.105V124.474H106.369V122.211Z" fill="black"/>
<path d="M108.632 122.211H106.368V124.474H108.632V122.211Z" fill="black"/>
<path d="M110.895 122.211H108.632V124.474H110.895V122.211Z" fill="black"/>
<path d="M122.211 122.211H119.947V124.474H122.211V122.211Z" fill="black"/>
<path d="M17.9922 4.52631H6.90268H4.52637V6.90263V17.9921V20.3684H6.90268H17.9922H20.3685V17.9921V6.90263V4.52631H17.9922ZM17.9922 17.9921H6.90268V6.90263H17.9922V17.9921Z" fill="black"/>
<path d="M122.097 4.52631H111.008H108.632V6.90263V17.9921V20.3684H111.008H122.097H124.474V17.9921V6.90263V4.52631H122.097ZM122.097 17.9921H111.008V6.90263H122.097V17.9921Z" fill="black"/>
<path d="M17.9922 108.632H6.90268H4.52637V111.008V122.097V124.474H6.90268H17.9922H20.3685V122.097V111.008V108.632H17.9922ZM17.9922 122.097H6.90268V111.008H17.9922V122.097Z" fill="black"/>
<path d="M15.8422 9.05263H9.05273V15.8421H15.8422V9.05263Z" fill="black"/>
<path d="M119.947 9.05263H113.158V15.8421H119.947V9.05263Z" fill="black"/>
<path d="M15.8422 113.158H9.05273V119.947H15.8422V113.158Z" fill="black"/>
<path d="M79.2105 49.7895H49.7894V79.2105H79.2105V49.7895Z" fill="white"/>
<path d="M72.3616 71.2299C72.171 71.5634 71.9804 71.885 71.766 72.1947V72.1709C71.4801 72.5878 71.2061 72.9333 70.9679 73.2191C70.7297 73.505 70.5153 73.7432 70.3247 73.91C70.0507 74.172 69.753 74.3626 69.4433 74.5056C69.1217 74.6485 68.8001 74.72 68.4785 74.7319C68.2402 74.7319 67.9782 74.6961 67.6923 74.6247C67.4064 74.5532 67.0967 74.4579 66.7513 74.315C66.4297 74.1839 66.1081 74.0767 65.7984 74.0053C65.4887 73.9338 65.2028 73.8981 64.9289 73.8981C64.643 73.8981 64.3333 73.9338 64.0117 74.0053C63.6901 74.0767 63.3685 74.172 63.023 74.315C62.6776 74.4579 62.3679 74.5532 62.094 74.6247C61.82 74.6961 61.5818 74.7319 61.3793 74.7319C61.0696 74.7438 60.7599 74.6842 60.4383 74.5532C60.1167 74.4222 59.7951 74.2078 59.4735 73.91C59.2829 73.7432 59.0566 73.4931 58.8064 73.1953C58.5444 72.8856 58.2704 72.5164 57.9845 72.0875C57.6629 71.6468 57.3651 71.1585 57.1031 70.6224C56.841 70.0864 56.5909 69.5266 56.3765 68.931C56.1502 68.2759 55.9834 67.6446 55.8762 67.0133C55.769 66.3939 55.7095 65.7626 55.7095 65.1551C55.7095 64.4524 55.7809 63.7972 55.9358 63.2017C56.0906 62.6061 56.3169 62.0582 56.6266 61.5579C56.853 61.141 57.115 60.7837 57.4366 60.4621C57.7582 60.1405 58.1037 59.8665 58.5086 59.6283C58.8898 59.4019 59.2948 59.2352 59.7236 59.1042C60.1643 58.9731 60.605 58.9136 61.0696 58.9136C61.3316 58.9136 61.6175 58.9493 61.951 59.0327C62.2845 59.1042 62.6538 59.2233 63.0707 59.3781C63.4638 59.533 63.7973 59.6521 64.0593 59.7236C64.3214 59.795 64.512 59.8427 64.643 59.8427C64.7264 59.8427 64.917 59.795 65.2028 59.6997C65.4887 59.6044 65.8818 59.4615 66.382 59.2709C66.8466 59.1161 67.2754 58.997 67.6685 58.9255C68.0615 58.854 68.4189 58.8302 68.7524 58.8659C69.6219 58.9374 70.3962 59.1399 71.0513 59.4972C71.7064 59.8427 72.2663 60.331 72.707 60.9504C71.9208 61.4269 71.3372 61.9986 70.9441 62.6537C70.5629 63.3089 70.3604 64.0712 70.3604 64.9288C70.3604 65.5959 70.4796 66.2033 70.7297 66.7513C70.9798 67.2992 71.3372 67.7995 71.8017 68.2402C72.0042 68.4308 72.2305 68.6094 72.4688 68.7643C72.707 68.931 72.9571 69.0621 73.2192 69.1573L73.243 69.1812C73.1953 69.3479 73.1358 69.5147 73.0762 69.6695C73.0167 69.8244 72.9571 69.9792 72.8857 70.1341C72.7308 70.5391 72.5521 70.8964 72.3616 71.2299ZM68.5976 55.8405C68.3951 56.3288 68.1092 56.7934 67.7399 57.246C67.2754 57.782 66.7751 58.187 66.2391 58.4848C65.7031 58.7706 65.1314 58.9017 64.5358 58.8421C64.5239 58.7945 64.512 58.7349 64.512 58.6634C64.512 58.592 64.512 58.5324 64.512 58.4609C64.512 57.9607 64.6192 57.4604 64.8217 56.9482C65.0242 56.436 65.3219 55.9596 65.715 55.5069C65.9056 55.2806 66.12 55.0781 66.3701 54.8995C66.6203 54.7208 66.8823 54.554 67.1801 54.3992C67.4898 54.2682 67.7757 54.149 68.0496 54.0657C68.3236 53.9823 68.5976 53.9346 68.8715 53.9108C68.8715 53.9942 68.8715 54.0776 68.8834 54.1371C68.8953 54.2086 68.8953 54.2801 68.8953 54.3396C68.8953 54.8518 68.8001 55.3521 68.5976 55.8405Z" fill="black"/>
</g>
<defs>
<clipPath id="clip0_641_6027">
<rect width="129" height="129" fill="white"/>
</clipPath>
</defs>
</svg>
