<svg width="129" height="129" viewBox="0 0 129 129" fill="none" xmlns="http://www.w3.org/2000/svg">
<g clip-path="url(#clip0_641_9831)">
<path d="M129 0H0V129H129V0Z" fill="white"/>
<path d="M37.0081 4.66776H33.7727V7.90313H37.0081V4.66776Z" fill="black"/>
<path d="M43.4788 4.66776H40.2434V7.90313H43.4788V4.66776Z" fill="black"/>
<path d="M53.1817 4.66776H49.9463V7.90313H53.1817V4.66776Z" fill="black"/>
<path d="M59.6489 4.66776H56.4136V7.90313H59.6489V4.66776Z" fill="black"/>
<path d="M75.8194 4.66776H72.584V7.90313H75.8194V4.66776Z" fill="black"/>
<path d="M82.2866 4.66776H79.0513V7.90313H82.2866V4.66776Z" fill="black"/>
<path d="M88.7542 4.66776H85.5188V7.90313H88.7542V4.66776Z" fill="black"/>
<path d="M43.4788 7.90313H40.2434V11.1385H43.4788V7.90313Z" fill="black"/>
<path d="M46.711 7.90313H43.4756V11.1385H46.711V7.90313Z" fill="black"/>
<path d="M49.9463 7.90313H46.7109V11.1385H49.9463V7.90313Z" fill="black"/>
<path d="M56.4136 7.90313H53.1782V11.1385H56.4136V7.90313Z" fill="black"/>
<path d="M59.6489 7.90313H56.4136V11.1385H59.6489V7.90313Z" fill="black"/>
<path d="M62.8811 7.90313H59.6458V11.1385H62.8811V7.90313Z" fill="black"/>
<path d="M66.1165 7.90313H62.8811V11.1385H66.1165V7.90313Z" fill="black"/>
<path d="M72.5838 7.90313H69.3484V11.1385H72.5838V7.90313Z" fill="black"/>
<path d="M85.522 7.90313H82.2866V11.1385H85.522V7.90313Z" fill="black"/>
<path d="M88.7542 7.90313H85.5188V11.1385H88.7542V7.90313Z" fill="black"/>
<path d="M91.9895 7.90313H88.7542V11.1385H91.9895V7.90313Z" fill="black"/>
<path d="M95.2215 7.90313H91.9861V11.1385H95.2215V7.90313Z" fill="black"/>
<path d="M33.7761 11.1352H30.5408V14.3705H33.7761V11.1352Z" fill="black"/>
<path d="M43.4788 11.1352H40.2434V14.3705H43.4788V11.1352Z" fill="black"/>
<path d="M53.1817 11.1352H49.9463V14.3705H53.1817V11.1352Z" fill="black"/>
<path d="M56.4136 11.1352H53.1782V14.3705H56.4136V11.1352Z" fill="black"/>
<path d="M59.6489 11.1352H56.4136V14.3705H59.6489V11.1352Z" fill="black"/>
<path d="M75.8194 11.1352H72.584V14.3705H75.8194V11.1352Z" fill="black"/>
<path d="M79.0513 11.1352H75.8159V14.3705H79.0513V11.1352Z" fill="black"/>
<path d="M91.9895 11.1352H88.7542V14.3705H91.9895V11.1352Z" fill="black"/>
<path d="M95.2215 11.1352H91.9861V14.3705H95.2215V11.1352Z" fill="black"/>
<path d="M33.7761 14.3705H30.5408V17.6059H33.7761V14.3705Z" fill="black"/>
<path d="M37.0081 14.3705H33.7727V17.6059H37.0081V14.3705Z" fill="black"/>
<path d="M43.4788 14.3705H40.2434V17.6059H43.4788V14.3705Z" fill="black"/>
<path d="M46.711 14.3705H43.4756V17.6059H46.711V14.3705Z" fill="black"/>
<path d="M56.4136 14.3705H53.1782V17.6059H56.4136V14.3705Z" fill="black"/>
<path d="M59.6489 14.3705H56.4136V17.6059H59.6489V14.3705Z" fill="black"/>
<path d="M62.8811 14.3705H59.6458V17.6059H62.8811V14.3705Z" fill="black"/>
<path d="M66.1165 14.3705H62.8811V17.6059H66.1165V14.3705Z" fill="black"/>
<path d="M72.5838 14.3705H69.3484V17.6059H72.5838V14.3705Z" fill="black"/>
<path d="M79.0513 14.3705H75.8159V17.6059H79.0513V14.3705Z" fill="black"/>
<path d="M82.2866 14.3705H79.0513V17.6059H82.2866V14.3705Z" fill="black"/>
<path d="M88.7542 14.3705H85.5188V17.6059H88.7542V14.3705Z" fill="black"/>
<path d="M91.9895 14.3705H88.7542V17.6059H91.9895V14.3705Z" fill="black"/>
<path d="M95.2215 14.3705H91.9861V17.6059H95.2215V14.3705Z" fill="black"/>
<path d="M33.7761 17.6026H30.5408V20.838H33.7761V17.6026Z" fill="black"/>
<path d="M46.711 17.6026H43.4756V20.838H46.711V17.6026Z" fill="black"/>
<path d="M49.9463 17.6026H46.7109V20.838H49.9463V17.6026Z" fill="black"/>
<path d="M62.8811 17.6026H59.6458V20.838H62.8811V17.6026Z" fill="black"/>
<path d="M66.1165 17.6026H62.8811V20.838H66.1165V17.6026Z" fill="black"/>
<path d="M69.3518 17.6026H66.1165V20.838H69.3518V17.6026Z" fill="black"/>
<path d="M72.5838 17.6026H69.3484V20.838H72.5838V17.6026Z" fill="black"/>
<path d="M79.0513 17.6026H75.8159V20.838H79.0513V17.6026Z" fill="black"/>
<path d="M82.2866 17.6026H79.0513V20.838H82.2866V17.6026Z" fill="black"/>
<path d="M88.7542 17.6026H85.5188V20.838H88.7542V17.6026Z" fill="black"/>
<path d="M98.4568 17.6026H95.2214V20.838H98.4568V17.6026Z" fill="black"/>
<path d="M33.7761 20.838H30.5408V24.0733H33.7761V20.838Z" fill="black"/>
<path d="M40.2434 20.838H37.0081V24.0733H40.2434V20.838Z" fill="black"/>
<path d="M43.4788 20.838H40.2434V24.0733H43.4788V20.838Z" fill="black"/>
<path d="M49.9463 20.838H46.7109V24.0733H49.9463V20.838Z" fill="black"/>
<path d="M56.4136 20.838H53.1782V24.0733H56.4136V20.838Z" fill="black"/>
<path d="M59.6489 20.838H56.4136V24.0733H59.6489V20.838Z" fill="black"/>
<path d="M62.8811 20.838H59.6458V24.0733H62.8811V20.838Z" fill="black"/>
<path d="M75.8194 20.838H72.584V24.0733H75.8194V20.838Z" fill="black"/>
<path d="M88.7542 20.838H85.5188V24.0733H88.7542V20.838Z" fill="black"/>
<path d="M91.9895 20.838H88.7542V24.0733H91.9895V20.838Z" fill="black"/>
<path d="M95.2215 20.838H91.9861V24.0733H95.2215V20.838Z" fill="black"/>
<path d="M98.4568 20.838H95.2214V24.0733H98.4568V20.838Z" fill="black"/>
<path d="M33.7761 24.0733H30.5408V27.3087H33.7761V24.0733Z" fill="black"/>
<path d="M40.2434 24.0733H37.0081V27.3087H40.2434V24.0733Z" fill="black"/>
<path d="M46.711 24.0733H43.4756V27.3087H46.711V24.0733Z" fill="black"/>
<path d="M53.1817 24.0733H49.9463V27.3087H53.1817V24.0733Z" fill="black"/>
<path d="M59.6489 24.0733H56.4136V27.3087H59.6489V24.0733Z" fill="black"/>
<path d="M66.1165 24.0733H62.8811V27.3087H66.1165V24.0733Z" fill="black"/>
<path d="M72.5838 24.0733H69.3484V27.3087H72.5838V24.0733Z" fill="black"/>
<path d="M79.0513 24.0733H75.8159V27.3087H79.0513V24.0733Z" fill="black"/>
<path d="M85.522 24.0733H82.2866V27.3087H85.522V24.0733Z" fill="black"/>
<path d="M91.9895 24.0733H88.7542V27.3087H91.9895V24.0733Z" fill="black"/>
<path d="M98.4568 24.0733H95.2214V27.3087H98.4568V24.0733Z" fill="black"/>
<path d="M33.7761 27.3054H30.5408V30.5407H33.7761V27.3054Z" fill="black"/>
<path d="M37.0081 27.3054H33.7727V30.5407H37.0081V27.3054Z" fill="black"/>
<path d="M40.2434 27.3054H37.0081V30.5407H40.2434V27.3054Z" fill="black"/>
<path d="M43.4788 27.3054H40.2434V30.5407H43.4788V27.3054Z" fill="black"/>
<path d="M46.711 27.3054H43.4756V30.5407H46.711V27.3054Z" fill="black"/>
<path d="M49.9463 27.3054H46.7109V30.5407H49.9463V27.3054Z" fill="black"/>
<path d="M53.1817 27.3054H49.9463V30.5407H53.1817V27.3054Z" fill="black"/>
<path d="M56.4136 27.3054H53.1782V30.5407H56.4136V27.3054Z" fill="black"/>
<path d="M59.6489 27.3054H56.4136V30.5407H59.6489V27.3054Z" fill="black"/>
<path d="M62.8811 27.3054H59.6458V30.5407H62.8811V27.3054Z" fill="black"/>
<path d="M66.1165 27.3054H62.8811V30.5407H66.1165V27.3054Z" fill="black"/>
<path d="M75.8194 27.3054H72.584V30.5407H75.8194V27.3054Z" fill="black"/>
<path d="M79.0513 27.3054H75.8159V30.5407H79.0513V27.3054Z" fill="black"/>
<path d="M82.2866 27.3054H79.0513V30.5407H82.2866V27.3054Z" fill="black"/>
<path d="M98.4568 27.3054H95.2214V30.5407H98.4568V27.3054Z" fill="black"/>
<path d="M7.9031 30.5407H4.66772V33.7761H7.9031V30.5407Z" fill="black"/>
<path d="M14.3706 30.5407H11.1353V33.7761H14.3706V30.5407Z" fill="black"/>
<path d="M17.606 30.5407H14.3706V33.7761H17.606V30.5407Z" fill="black"/>
<path d="M20.8379 30.5407H17.6025V33.7761H20.8379V30.5407Z" fill="black"/>
<path d="M24.0733 30.5407H20.8379V33.7761H24.0733V30.5407Z" fill="black"/>
<path d="M27.3086 30.5407H24.0732V33.7761H27.3086V30.5407Z" fill="black"/>
<path d="M40.2434 30.5407H37.0081V33.7761H40.2434V30.5407Z" fill="black"/>
<path d="M43.4788 30.5407H40.2434V33.7761H43.4788V30.5407Z" fill="black"/>
<path d="M59.6489 30.5407H56.4136V33.7761H59.6489V30.5407Z" fill="black"/>
<path d="M82.2866 30.5407H79.0513V33.7761H82.2866V30.5407Z" fill="black"/>
<path d="M85.522 30.5407H82.2866V33.7761H85.522V30.5407Z" fill="black"/>
<path d="M88.7542 30.5407H85.5188V33.7761H88.7542V30.5407Z" fill="black"/>
<path d="M91.9895 30.5407H88.7542V33.7761H91.9895V30.5407Z" fill="black"/>
<path d="M98.4568 30.5407H95.2214V33.7761H98.4568V30.5407Z" fill="black"/>
<path d="M104.924 30.5407H101.689V33.7761H104.924V30.5407Z" fill="black"/>
<path d="M108.16 30.5407H104.924V33.7761H108.16V30.5407Z" fill="black"/>
<path d="M111.392 30.5407H108.156V33.7761H111.392V30.5407Z" fill="black"/>
<path d="M114.627 30.5407H111.392V33.7761H114.627V30.5407Z" fill="black"/>
<path d="M117.862 30.5407H114.627V33.7761H117.862V30.5407Z" fill="black"/>
<path d="M17.606 33.7728H14.3706V37.0081H17.606V33.7728Z" fill="black"/>
<path d="M20.8379 33.7728H17.6025V37.0081H20.8379V33.7728Z" fill="black"/>
<path d="M24.0733 33.7728H20.8379V37.0081H24.0733V33.7728Z" fill="black"/>
<path d="M30.5408 33.7728H27.3054V37.0081H30.5408V33.7728Z" fill="black"/>
<path d="M40.2434 33.7728H37.0081V37.0081H40.2434V33.7728Z" fill="black"/>
<path d="M43.4788 33.7728H40.2434V37.0081H43.4788V33.7728Z" fill="black"/>
<path d="M49.9463 33.7728H46.7109V37.0081H49.9463V33.7728Z" fill="black"/>
<path d="M56.4136 33.7728H53.1782V37.0081H56.4136V33.7728Z" fill="black"/>
<path d="M62.8811 33.7728H59.6458V37.0081H62.8811V33.7728Z" fill="black"/>
<path d="M66.1165 33.7728H62.8811V37.0081H66.1165V33.7728Z" fill="black"/>
<path d="M72.5838 33.7728H69.3484V37.0081H72.5838V33.7728Z" fill="black"/>
<path d="M75.8194 33.7728H72.584V37.0081H75.8194V33.7728Z" fill="black"/>
<path d="M79.0513 33.7728H75.8159V37.0081H79.0513V33.7728Z" fill="black"/>
<path d="M82.2866 33.7728H79.0513V37.0081H82.2866V33.7728Z" fill="black"/>
<path d="M98.4568 33.7728H95.2214V37.0081H98.4568V33.7728Z" fill="black"/>
<path d="M101.692 33.7728H98.4568V37.0081H101.692V33.7728Z" fill="black"/>
<path d="M108.16 33.7728H104.924V37.0081H108.16V33.7728Z" fill="black"/>
<path d="M121.095 33.7728H117.859V37.0081H121.095V33.7728Z" fill="black"/>
<path d="M11.1385 37.0081H7.90308V40.2435H11.1385V37.0081Z" fill="black"/>
<path d="M14.3706 37.0081H11.1353V40.2435H14.3706V37.0081Z" fill="black"/>
<path d="M17.606 37.0081H14.3706V40.2435H17.606V37.0081Z" fill="black"/>
<path d="M24.0733 37.0081H20.8379V40.2435H24.0733V37.0081Z" fill="black"/>
<path d="M27.3086 37.0081H24.0732V40.2435H27.3086V37.0081Z" fill="black"/>
<path d="M30.5408 37.0081H27.3054V40.2435H30.5408V37.0081Z" fill="black"/>
<path d="M33.7761 37.0081H30.5408V40.2435H33.7761V37.0081Z" fill="black"/>
<path d="M43.4788 37.0081H40.2434V40.2435H43.4788V37.0081Z" fill="black"/>
<path d="M49.9463 37.0081H46.7109V40.2435H49.9463V37.0081Z" fill="black"/>
<path d="M56.4136 37.0081H53.1782V40.2435H56.4136V37.0081Z" fill="black"/>
<path d="M59.6489 37.0081H56.4136V40.2435H59.6489V37.0081Z" fill="black"/>
<path d="M62.8811 37.0081H59.6458V40.2435H62.8811V37.0081Z" fill="black"/>
<path d="M69.3518 37.0081H66.1165V40.2435H69.3518V37.0081Z" fill="black"/>
<path d="M75.8194 37.0081H72.584V40.2435H75.8194V37.0081Z" fill="black"/>
<path d="M79.0513 37.0081H75.8159V40.2435H79.0513V37.0081Z" fill="black"/>
<path d="M85.522 37.0081H82.2866V40.2435H85.522V37.0081Z" fill="black"/>
<path d="M88.7542 37.0081H85.5188V40.2435H88.7542V37.0081Z" fill="black"/>
<path d="M91.9895 37.0081H88.7542V40.2435H91.9895V37.0081Z" fill="black"/>
<path d="M95.2215 37.0081H91.9861V40.2435H95.2215V37.0081Z" fill="black"/>
<path d="M98.4568 37.0081H95.2214V40.2435H98.4568V37.0081Z" fill="black"/>
<path d="M104.924 37.0081H101.689V40.2435H104.924V37.0081Z" fill="black"/>
<path d="M111.392 37.0081H108.156V40.2435H111.392V37.0081Z" fill="black"/>
<path d="M114.627 37.0081H111.392V40.2435H114.627V37.0081Z" fill="black"/>
<path d="M121.095 37.0081H117.859V40.2435H121.095V37.0081Z" fill="black"/>
<path d="M124.33 37.0081H121.094V40.2435H124.33V37.0081Z" fill="black"/>
<path d="M11.1385 40.2435H7.90308V43.4789H11.1385V40.2435Z" fill="black"/>
<path d="M20.8379 40.2435H17.6025V43.4789H20.8379V40.2435Z" fill="black"/>
<path d="M24.0733 40.2435H20.8379V43.4789H24.0733V40.2435Z" fill="black"/>
<path d="M33.7761 40.2435H30.5408V43.4789H33.7761V40.2435Z" fill="black"/>
<path d="M37.0081 40.2435H33.7727V43.4789H37.0081V40.2435Z" fill="black"/>
<path d="M40.2434 40.2435H37.0081V43.4789H40.2434V40.2435Z" fill="black"/>
<path d="M43.4788 40.2435H40.2434V43.4789H43.4788V40.2435Z" fill="black"/>
<path d="M49.9463 40.2435H46.7109V43.4789H49.9463V40.2435Z" fill="black"/>
<path d="M53.1817 40.2435H49.9463V43.4789H53.1817V40.2435Z" fill="black"/>
<path d="M56.4136 40.2435H53.1782V43.4789H56.4136V40.2435Z" fill="black"/>
<path d="M69.3518 40.2435H66.1165V43.4789H69.3518V40.2435Z" fill="black"/>
<path d="M72.5838 40.2435H69.3484V43.4789H72.5838V40.2435Z" fill="black"/>
<path d="M75.8194 40.2435H72.584V43.4789H75.8194V40.2435Z" fill="black"/>
<path d="M85.522 40.2435H82.2866V43.4789H85.522V40.2435Z" fill="black"/>
<path d="M91.9895 40.2435H88.7542V43.4789H91.9895V40.2435Z" fill="black"/>
<path d="M98.4568 40.2435H95.2214V43.4789H98.4568V40.2435Z" fill="black"/>
<path d="M104.924 40.2435H101.689V43.4789H104.924V40.2435Z" fill="black"/>
<path d="M114.627 40.2435H111.392V43.4789H114.627V40.2435Z" fill="black"/>
<path d="M124.33 40.2435H121.094V43.4789H124.33V40.2435Z" fill="black"/>
<path d="M11.1385 43.4756H7.90308V46.7109H11.1385V43.4756Z" fill="black"/>
<path d="M14.3706 43.4756H11.1353V46.7109H14.3706V43.4756Z" fill="black"/>
<path d="M17.606 43.4756H14.3706V46.7109H17.606V43.4756Z" fill="black"/>
<path d="M24.0733 43.4756H20.8379V46.7109H24.0733V43.4756Z" fill="black"/>
<path d="M27.3086 43.4756H24.0732V46.7109H27.3086V43.4756Z" fill="black"/>
<path d="M37.0081 43.4756H33.7727V46.7109H37.0081V43.4756Z" fill="black"/>
<path d="M40.2434 43.4756H37.0081V46.7109H40.2434V43.4756Z" fill="black"/>
<path d="M43.4788 43.4756H40.2434V46.7109H43.4788V43.4756Z" fill="black"/>
<path d="M46.711 43.4756H43.4756V46.7109H46.711V43.4756Z" fill="black"/>
<path d="M53.1817 43.4756H49.9463V46.7109H53.1817V43.4756Z" fill="black"/>
<path d="M56.4136 43.4756H53.1782V46.7109H56.4136V43.4756Z" fill="black"/>
<path d="M59.6489 43.4756H56.4136V46.7109H59.6489V43.4756Z" fill="black"/>
<path d="M62.8811 43.4756H59.6458V46.7109H62.8811V43.4756Z" fill="black"/>
<path d="M69.3518 43.4756H66.1165V46.7109H69.3518V43.4756Z" fill="black"/>
<path d="M72.5838 43.4756H69.3484V46.7109H72.5838V43.4756Z" fill="black"/>
<path d="M79.0513 43.4756H75.8159V46.7109H79.0513V43.4756Z" fill="black"/>
<path d="M85.522 43.4756H82.2866V46.7109H85.522V43.4756Z" fill="black"/>
<path d="M88.7542 43.4756H85.5188V46.7109H88.7542V43.4756Z" fill="black"/>
<path d="M91.9895 43.4756H88.7542V46.7109H91.9895V43.4756Z" fill="black"/>
<path d="M101.692 43.4756H98.4568V46.7109H101.692V43.4756Z" fill="black"/>
<path d="M104.924 43.4756H101.689V46.7109H104.924V43.4756Z" fill="black"/>
<path d="M108.16 43.4756H104.924V46.7109H108.16V43.4756Z" fill="black"/>
<path d="M111.392 43.4756H108.156V46.7109H111.392V43.4756Z" fill="black"/>
<path d="M117.862 43.4756H114.627V46.7109H117.862V43.4756Z" fill="black"/>
<path d="M121.095 43.4756H117.859V46.7109H121.095V43.4756Z" fill="black"/>
<path d="M124.33 43.4756H121.094V46.7109H124.33V43.4756Z" fill="black"/>
<path d="M20.8379 46.7109H17.6025V49.9463H20.8379V46.7109Z" fill="black"/>
<path d="M24.0733 46.7109H20.8379V49.9463H24.0733V46.7109Z" fill="black"/>
<path d="M30.5408 46.7109H27.3054V49.9463H30.5408V46.7109Z" fill="black"/>
<path d="M37.0081 46.7109H33.7727V49.9463H37.0081V46.7109Z" fill="black"/>
<path d="M40.2434 46.7109H37.0081V49.9463H40.2434V46.7109Z" fill="black"/>
<path d="M43.4788 46.7109H40.2434V49.9463H43.4788V46.7109Z" fill="black"/>
<path d="M49.9463 46.7109H46.7109V49.9463H49.9463V46.7109Z" fill="black"/>
<path d="M53.1817 46.7109H49.9463V49.9463H53.1817V46.7109Z" fill="black"/>
<path d="M59.6489 46.7109H56.4136V49.9463H59.6489V46.7109Z" fill="black"/>
<path d="M66.1165 46.7109H62.8811V49.9463H66.1165V46.7109Z" fill="black"/>
<path d="M69.3518 46.7109H66.1165V49.9463H69.3518V46.7109Z" fill="black"/>
<path d="M72.5838 46.7109H69.3484V49.9463H72.5838V46.7109Z" fill="black"/>
<path d="M82.2866 46.7109H79.0513V49.9463H82.2866V46.7109Z" fill="black"/>
<path d="M85.522 46.7109H82.2866V49.9463H85.522V46.7109Z" fill="black"/>
<path d="M88.7542 46.7109H85.5188V49.9463H88.7542V46.7109Z" fill="black"/>
<path d="M98.4568 46.7109H95.2214V49.9463H98.4568V46.7109Z" fill="black"/>
<path d="M108.16 46.7109H104.924V49.9463H108.16V46.7109Z" fill="black"/>
<path d="M7.9031 49.9463H4.66772V53.1817H7.9031V49.9463Z" fill="black"/>
<path d="M11.1385 49.9463H7.90308V53.1817H11.1385V49.9463Z" fill="black"/>
<path d="M17.606 49.9463H14.3706V53.1817H17.606V49.9463Z" fill="black"/>
<path d="M20.8379 49.9463H17.6025V53.1817H20.8379V49.9463Z" fill="black"/>
<path d="M27.3086 49.9463H24.0732V53.1817H27.3086V49.9463Z" fill="black"/>
<path d="M33.7761 49.9463H30.5408V53.1817H33.7761V49.9463Z" fill="black"/>
<path d="M43.4788 49.9463H40.2434V53.1817H43.4788V49.9463Z" fill="black"/>
<path d="M46.711 49.9463H43.4756V53.1817H46.711V49.9463Z" fill="black"/>
<path d="M53.1817 49.9463H49.9463V53.1817H53.1817V49.9463Z" fill="black"/>
<path d="M56.4136 49.9463H53.1782V53.1817H56.4136V49.9463Z" fill="black"/>
<path d="M66.1165 49.9463H62.8811V53.1817H66.1165V49.9463Z" fill="black"/>
<path d="M75.8194 49.9463H72.584V53.1817H75.8194V49.9463Z" fill="black"/>
<path d="M79.0513 49.9463H75.8159V53.1817H79.0513V49.9463Z" fill="black"/>
<path d="M88.7542 49.9463H85.5188V53.1817H88.7542V49.9463Z" fill="black"/>
<path d="M91.9895 49.9463H88.7542V53.1817H91.9895V49.9463Z" fill="black"/>
<path d="M95.2215 49.9463H91.9861V53.1817H95.2215V49.9463Z" fill="black"/>
<path d="M98.4568 49.9463H95.2214V53.1817H98.4568V49.9463Z" fill="black"/>
<path d="M104.924 49.9463H101.689V53.1817H104.924V49.9463Z" fill="black"/>
<path d="M108.16 49.9463H104.924V53.1817H108.16V49.9463Z" fill="black"/>
<path d="M111.392 49.9463H108.156V53.1817H111.392V49.9463Z" fill="black"/>
<path d="M114.627 49.9463H111.392V53.1817H114.627V49.9463Z" fill="black"/>
<path d="M121.095 49.9463H117.859V53.1817H121.095V49.9463Z" fill="black"/>
<path d="M124.33 49.9463H121.094V53.1817H124.33V49.9463Z" fill="black"/>
<path d="M11.1385 53.1783H7.90308V56.4137H11.1385V53.1783Z" fill="black"/>
<path d="M17.606 53.1783H14.3706V56.4137H17.606V53.1783Z" fill="black"/>
<path d="M24.0733 53.1783H20.8379V56.4137H24.0733V53.1783Z" fill="black"/>
<path d="M30.5408 53.1783H27.3054V56.4137H30.5408V53.1783Z" fill="black"/>
<path d="M37.0081 53.1783H33.7727V56.4137H37.0081V53.1783Z" fill="black"/>
<path d="M40.2434 53.1783H37.0081V56.4137H40.2434V53.1783Z" fill="black"/>
<path d="M46.711 53.1783H43.4756V56.4137H46.711V53.1783Z" fill="black"/>
<path d="M49.9463 53.1783H46.7109V56.4137H49.9463V53.1783Z" fill="black"/>
<path d="M56.4136 53.1783H53.1782V56.4137H56.4136V53.1783Z" fill="black"/>
<path d="M59.6489 53.1783H56.4136V56.4137H59.6489V53.1783Z" fill="black"/>
<path d="M75.8194 53.1783H72.584V56.4137H75.8194V53.1783Z" fill="black"/>
<path d="M79.0513 53.1783H75.8159V56.4137H79.0513V53.1783Z" fill="black"/>
<path d="M91.9895 53.1783H88.7542V56.4137H91.9895V53.1783Z" fill="black"/>
<path d="M98.4568 53.1783H95.2214V56.4137H98.4568V53.1783Z" fill="black"/>
<path d="M101.692 53.1783H98.4568V56.4137H101.692V53.1783Z" fill="black"/>
<path d="M108.16 53.1783H104.924V56.4137H108.16V53.1783Z" fill="black"/>
<path d="M111.392 53.1783H108.156V56.4137H111.392V53.1783Z" fill="black"/>
<path d="M121.095 53.1783H117.859V56.4137H121.095V53.1783Z" fill="black"/>
<path d="M124.33 53.1783H121.094V56.4137H124.33V53.1783Z" fill="black"/>
<path d="M7.9031 56.4137H4.66772V59.6491H7.9031V56.4137Z" fill="black"/>
<path d="M14.3706 56.4137H11.1353V59.6491H14.3706V56.4137Z" fill="black"/>
<path d="M24.0733 56.4137H20.8379V59.6491H24.0733V56.4137Z" fill="black"/>
<path d="M27.3086 56.4137H24.0732V59.6491H27.3086V56.4137Z" fill="black"/>
<path d="M30.5408 56.4137H27.3054V59.6491H30.5408V56.4137Z" fill="black"/>
<path d="M40.2434 56.4137H37.0081V59.6491H40.2434V56.4137Z" fill="black"/>
<path d="M43.4788 56.4137H40.2434V59.6491H43.4788V56.4137Z" fill="black"/>
<path d="M66.1165 56.4137H62.8811V59.6491H66.1165V56.4137Z" fill="black"/>
<path d="M72.5838 56.4137H69.3484V59.6491H72.5838V56.4137Z" fill="black"/>
<path d="M82.2866 56.4137H79.0513V59.6491H82.2866V56.4137Z" fill="black"/>
<path d="M88.7542 56.4137H85.5188V59.6491H88.7542V56.4137Z" fill="black"/>
<path d="M91.9895 56.4137H88.7542V59.6491H91.9895V56.4137Z" fill="black"/>
<path d="M95.2215 56.4137H91.9861V59.6491H95.2215V56.4137Z" fill="black"/>
<path d="M101.692 56.4137H98.4568V59.6491H101.692V56.4137Z" fill="black"/>
<path d="M104.924 56.4137H101.689V59.6491H104.924V56.4137Z" fill="black"/>
<path d="M108.16 56.4137H104.924V59.6491H108.16V56.4137Z" fill="black"/>
<path d="M111.392 56.4137H108.156V59.6491H111.392V56.4137Z" fill="black"/>
<path d="M117.862 56.4137H114.627V59.6491H117.862V56.4137Z" fill="black"/>
<path d="M11.1385 59.6458H7.90308V62.8811H11.1385V59.6458Z" fill="black"/>
<path d="M14.3706 59.6458H11.1353V62.8811H14.3706V59.6458Z" fill="black"/>
<path d="M37.0081 59.6458H33.7727V62.8811H37.0081V59.6458Z" fill="black"/>
<path d="M40.2434 59.6458H37.0081V62.8811H40.2434V59.6458Z" fill="black"/>
<path d="M56.4136 59.6458H53.1782V62.8811H56.4136V59.6458Z" fill="black"/>
<path d="M59.6489 59.6458H56.4136V62.8811H59.6489V59.6458Z" fill="black"/>
<path d="M79.0513 59.6458H75.8159V62.8811H79.0513V59.6458Z" fill="black"/>
<path d="M82.2866 59.6458H79.0513V62.8811H82.2866V59.6458Z" fill="black"/>
<path d="M88.7542 59.6458H85.5188V62.8811H88.7542V59.6458Z" fill="black"/>
<path d="M91.9895 59.6458H88.7542V62.8811H91.9895V59.6458Z" fill="black"/>
<path d="M98.4568 59.6458H95.2214V62.8811H98.4568V59.6458Z" fill="black"/>
<path d="M108.16 59.6458H104.924V62.8811H108.16V59.6458Z" fill="black"/>
<path d="M117.862 59.6458H114.627V62.8811H117.862V59.6458Z" fill="black"/>
<path d="M121.095 59.6458H117.859V62.8811H121.095V59.6458Z" fill="black"/>
<path d="M11.1385 62.8811H7.90308V66.1165H11.1385V62.8811Z" fill="black"/>
<path d="M14.3706 62.8811H11.1353V66.1165H14.3706V62.8811Z" fill="black"/>
<path d="M17.606 62.8811H14.3706V66.1165H17.606V62.8811Z" fill="black"/>
<path d="M20.8379 62.8811H17.6025V66.1165H20.8379V62.8811Z" fill="black"/>
<path d="M27.3086 62.8811H24.0732V66.1165H27.3086V62.8811Z" fill="black"/>
<path d="M33.7761 62.8811H30.5408V66.1165H33.7761V62.8811Z" fill="black"/>
<path d="M37.0081 62.8811H33.7727V66.1165H37.0081V62.8811Z" fill="black"/>
<path d="M46.711 62.8811H43.4756V66.1165H46.711V62.8811Z" fill="black"/>
<path d="M49.9463 62.8811H46.7109V66.1165H49.9463V62.8811Z" fill="black"/>
<path d="M72.5838 62.8811H69.3484V66.1165H72.5838V62.8811Z" fill="black"/>
<path d="M79.0513 62.8811H75.8159V66.1165H79.0513V62.8811Z" fill="black"/>
<path d="M85.522 62.8811H82.2866V66.1165H85.522V62.8811Z" fill="black"/>
<path d="M91.9895 62.8811H88.7542V66.1165H91.9895V62.8811Z" fill="black"/>
<path d="M95.2215 62.8811H91.9861V66.1165H95.2215V62.8811Z" fill="black"/>
<path d="M101.692 62.8811H98.4568V66.1165H101.692V62.8811Z" fill="black"/>
<path d="M111.392 62.8811H108.156V66.1165H111.392V62.8811Z" fill="black"/>
<path d="M121.095 62.8811H117.859V66.1165H121.095V62.8811Z" fill="black"/>
<path d="M124.33 62.8811H121.094V66.1165H124.33V62.8811Z" fill="black"/>
<path d="M11.1385 66.1165H7.90308V69.3519H11.1385V66.1165Z" fill="black"/>
<path d="M24.0733 66.1165H20.8379V69.3519H24.0733V66.1165Z" fill="black"/>
<path d="M30.5408 66.1165H27.3054V69.3519H30.5408V66.1165Z" fill="black"/>
<path d="M37.0081 66.1165H33.7727V69.3519H37.0081V66.1165Z" fill="black"/>
<path d="M43.4788 66.1165H40.2434V69.3519H43.4788V66.1165Z" fill="black"/>
<path d="M59.6489 66.1165H56.4136V69.3519H59.6489V66.1165Z" fill="black"/>
<path d="M66.1165 66.1165H62.8811V69.3519H66.1165V66.1165Z" fill="black"/>
<path d="M75.8194 66.1165H72.584V69.3519H75.8194V66.1165Z" fill="black"/>
<path d="M79.0513 66.1165H75.8159V69.3519H79.0513V66.1165Z" fill="black"/>
<path d="M82.2866 66.1165H79.0513V69.3519H82.2866V66.1165Z" fill="black"/>
<path d="M95.2215 66.1165H91.9861V69.3519H95.2215V66.1165Z" fill="black"/>
<path d="M104.924 66.1165H101.689V69.3519H104.924V66.1165Z" fill="black"/>
<path d="M108.16 66.1165H104.924V69.3519H108.16V66.1165Z" fill="black"/>
<path d="M111.392 66.1165H108.156V69.3519H111.392V66.1165Z" fill="black"/>
<path d="M124.33 66.1165H121.094V69.3519H124.33V66.1165Z" fill="black"/>
<path d="M11.1385 69.3485H7.90308V72.5839H11.1385V69.3485Z" fill="black"/>
<path d="M14.3706 69.3485H11.1353V72.5839H14.3706V69.3485Z" fill="black"/>
<path d="M17.606 69.3485H14.3706V72.5839H17.606V69.3485Z" fill="black"/>
<path d="M24.0733 69.3485H20.8379V72.5839H24.0733V69.3485Z" fill="black"/>
<path d="M27.3086 69.3485H24.0732V72.5839H27.3086V69.3485Z" fill="black"/>
<path d="M30.5408 69.3485H27.3054V72.5839H30.5408V69.3485Z" fill="black"/>
<path d="M33.7761 69.3485H30.5408V72.5839H33.7761V69.3485Z" fill="black"/>
<path d="M40.2434 69.3485H37.0081V72.5839H40.2434V69.3485Z" fill="black"/>
<path d="M46.711 69.3485H43.4756V72.5839H46.711V69.3485Z" fill="black"/>
<path d="M53.1817 69.3485H49.9463V72.5839H53.1817V69.3485Z" fill="black"/>
<path d="M62.8811 69.3485H59.6458V72.5839H62.8811V69.3485Z" fill="black"/>
<path d="M72.5838 69.3485H69.3484V72.5839H72.5838V69.3485Z" fill="black"/>
<path d="M79.0513 69.3485H75.8159V72.5839H79.0513V69.3485Z" fill="black"/>
<path d="M85.522 69.3485H82.2866V72.5839H85.522V69.3485Z" fill="black"/>
<path d="M88.7542 69.3485H85.5188V72.5839H88.7542V69.3485Z" fill="black"/>
<path d="M91.9895 69.3485H88.7542V72.5839H91.9895V69.3485Z" fill="black"/>
<path d="M101.692 69.3485H98.4568V72.5839H101.692V69.3485Z" fill="black"/>
<path d="M104.924 69.3485H101.689V72.5839H104.924V69.3485Z" fill="black"/>
<path d="M111.392 69.3485H108.156V72.5839H111.392V69.3485Z" fill="black"/>
<path d="M114.627 69.3485H111.392V72.5839H114.627V69.3485Z" fill="black"/>
<path d="M117.862 69.3485H114.627V72.5839H117.862V69.3485Z" fill="black"/>
<path d="M7.9031 72.5839H4.66772V75.8193H7.9031V72.5839Z" fill="black"/>
<path d="M20.8379 72.5839H17.6025V75.8193H20.8379V72.5839Z" fill="black"/>
<path d="M33.7761 72.5839H30.5408V75.8193H33.7761V72.5839Z" fill="black"/>
<path d="M49.9463 72.5839H46.7109V75.8193H49.9463V72.5839Z" fill="black"/>
<path d="M53.1817 72.5839H49.9463V75.8193H53.1817V72.5839Z" fill="black"/>
<path d="M59.6489 72.5839H56.4136V75.8193H59.6489V72.5839Z" fill="black"/>
<path d="M62.8811 72.5839H59.6458V75.8193H62.8811V72.5839Z" fill="black"/>
<path d="M66.1165 72.5839H62.8811V75.8193H66.1165V72.5839Z" fill="black"/>
<path d="M69.3518 72.5839H66.1165V75.8193H69.3518V72.5839Z" fill="black"/>
<path d="M72.5838 72.5839H69.3484V75.8193H72.5838V72.5839Z" fill="black"/>
<path d="M75.8194 72.5839H72.584V75.8193H75.8194V72.5839Z" fill="black"/>
<path d="M79.0513 72.5839H75.8159V75.8193H79.0513V72.5839Z" fill="black"/>
<path d="M82.2866 72.5839H79.0513V75.8193H82.2866V72.5839Z" fill="black"/>
<path d="M98.4568 72.5839H95.2214V75.8193H98.4568V72.5839Z" fill="black"/>
<path d="M114.627 72.5839H111.392V75.8193H114.627V72.5839Z" fill="black"/>
<path d="M11.1385 75.8159H7.90308V79.0513H11.1385V75.8159Z" fill="black"/>
<path d="M14.3706 75.8159H11.1353V79.0513H14.3706V75.8159Z" fill="black"/>
<path d="M17.606 75.8159H14.3706V79.0513H17.606V75.8159Z" fill="black"/>
<path d="M20.8379 75.8159H17.6025V79.0513H20.8379V75.8159Z" fill="black"/>
<path d="M27.3086 75.8159H24.0732V79.0513H27.3086V75.8159Z" fill="black"/>
<path d="M30.5408 75.8159H27.3054V79.0513H30.5408V75.8159Z" fill="black"/>
<path d="M33.7761 75.8159H30.5408V79.0513H33.7761V75.8159Z" fill="black"/>
<path d="M40.2434 75.8159H37.0081V79.0513H40.2434V75.8159Z" fill="black"/>
<path d="M46.711 75.8159H43.4756V79.0513H46.711V75.8159Z" fill="black"/>
<path d="M53.1817 75.8159H49.9463V79.0513H53.1817V75.8159Z" fill="black"/>
<path d="M56.4136 75.8159H53.1782V79.0513H56.4136V75.8159Z" fill="black"/>
<path d="M59.6489 75.8159H56.4136V79.0513H59.6489V75.8159Z" fill="black"/>
<path d="M62.8811 75.8159H59.6458V79.0513H62.8811V75.8159Z" fill="black"/>
<path d="M72.5838 75.8159H69.3484V79.0513H72.5838V75.8159Z" fill="black"/>
<path d="M75.8194 75.8159H72.584V79.0513H75.8194V75.8159Z" fill="black"/>
<path d="M91.9895 75.8159H88.7542V79.0513H91.9895V75.8159Z" fill="black"/>
<path d="M95.2215 75.8159H91.9861V79.0513H95.2215V75.8159Z" fill="black"/>
<path d="M101.692 75.8159H98.4568V79.0513H101.692V75.8159Z" fill="black"/>
<path d="M108.16 75.8159H104.924V79.0513H108.16V75.8159Z" fill="black"/>
<path d="M111.392 75.8159H108.156V79.0513H111.392V75.8159Z" fill="black"/>
<path d="M114.627 75.8159H111.392V79.0513H114.627V75.8159Z" fill="black"/>
<path d="M121.095 75.8159H117.859V79.0513H121.095V75.8159Z" fill="black"/>
<path d="M124.33 75.8159H121.094V79.0513H124.33V75.8159Z" fill="black"/>
<path d="M7.9031 79.0513H4.66772V82.2867H7.9031V79.0513Z" fill="black"/>
<path d="M37.0081 79.0513H33.7727V82.2867H37.0081V79.0513Z" fill="black"/>
<path d="M40.2434 79.0513H37.0081V82.2867H40.2434V79.0513Z" fill="black"/>
<path d="M49.9463 79.0513H46.7109V82.2867H49.9463V79.0513Z" fill="black"/>
<path d="M53.1817 79.0513H49.9463V82.2867H53.1817V79.0513Z" fill="black"/>
<path d="M56.4136 79.0513H53.1782V82.2867H56.4136V79.0513Z" fill="black"/>
<path d="M62.8811 79.0513H59.6458V82.2867H62.8811V79.0513Z" fill="black"/>
<path d="M66.1165 79.0513H62.8811V82.2867H66.1165V79.0513Z" fill="black"/>
<path d="M75.8194 79.0513H72.584V82.2867H75.8194V79.0513Z" fill="black"/>
<path d="M79.0513 79.0513H75.8159V82.2867H79.0513V79.0513Z" fill="black"/>
<path d="M82.2866 79.0513H79.0513V82.2867H82.2866V79.0513Z" fill="black"/>
<path d="M98.4568 79.0513H95.2214V82.2867H98.4568V79.0513Z" fill="black"/>
<path d="M101.692 79.0513H98.4568V82.2867H101.692V79.0513Z" fill="black"/>
<path d="M104.924 79.0513H101.689V82.2867H104.924V79.0513Z" fill="black"/>
<path d="M108.16 79.0513H104.924V82.2867H108.16V79.0513Z" fill="black"/>
<path d="M111.392 79.0513H108.156V82.2867H111.392V79.0513Z" fill="black"/>
<path d="M121.095 79.0513H117.859V82.2867H121.095V79.0513Z" fill="black"/>
<path d="M7.9031 82.2867H4.66772V85.5221H7.9031V82.2867Z" fill="black"/>
<path d="M11.1385 82.2867H7.90308V85.5221H11.1385V82.2867Z" fill="black"/>
<path d="M24.0733 82.2867H20.8379V85.5221H24.0733V82.2867Z" fill="black"/>
<path d="M27.3086 82.2867H24.0732V85.5221H27.3086V82.2867Z" fill="black"/>
<path d="M30.5408 82.2867H27.3054V85.5221H30.5408V82.2867Z" fill="black"/>
<path d="M37.0081 82.2867H33.7727V85.5221H37.0081V82.2867Z" fill="black"/>
<path d="M49.9463 82.2867H46.7109V85.5221H49.9463V82.2867Z" fill="black"/>
<path d="M59.6489 82.2867H56.4136V85.5221H59.6489V82.2867Z" fill="black"/>
<path d="M75.8194 82.2867H72.584V85.5221H75.8194V82.2867Z" fill="black"/>
<path d="M82.2866 82.2867H79.0513V85.5221H82.2866V82.2867Z" fill="black"/>
<path d="M85.522 82.2867H82.2866V85.5221H85.522V82.2867Z" fill="black"/>
<path d="M88.7542 82.2867H85.5188V85.5221H88.7542V82.2867Z" fill="black"/>
<path d="M91.9895 82.2867H88.7542V85.5221H91.9895V82.2867Z" fill="black"/>
<path d="M104.924 82.2867H101.689V85.5221H104.924V82.2867Z" fill="black"/>
<path d="M111.392 82.2867H108.156V85.5221H111.392V82.2867Z" fill="black"/>
<path d="M117.862 82.2867H114.627V85.5221H117.862V82.2867Z" fill="black"/>
<path d="M121.095 82.2867H117.859V85.5221H121.095V82.2867Z" fill="black"/>
<path d="M7.9031 85.5187H4.66772V88.7541H7.9031V85.5187Z" fill="black"/>
<path d="M14.3706 85.5187H11.1353V88.7541H14.3706V85.5187Z" fill="black"/>
<path d="M24.0733 85.5187H20.8379V88.7541H24.0733V85.5187Z" fill="black"/>
<path d="M30.5408 85.5187H27.3054V88.7541H30.5408V85.5187Z" fill="black"/>
<path d="M37.0081 85.5187H33.7727V88.7541H37.0081V85.5187Z" fill="black"/>
<path d="M40.2434 85.5187H37.0081V88.7541H40.2434V85.5187Z" fill="black"/>
<path d="M53.1817 85.5187H49.9463V88.7541H53.1817V85.5187Z" fill="black"/>
<path d="M56.4136 85.5187H53.1782V88.7541H56.4136V85.5187Z" fill="black"/>
<path d="M66.1165 85.5187H62.8811V88.7541H66.1165V85.5187Z" fill="black"/>
<path d="M72.5838 85.5187H69.3484V88.7541H72.5838V85.5187Z" fill="black"/>
<path d="M75.8194 85.5187H72.584V88.7541H75.8194V85.5187Z" fill="black"/>
<path d="M82.2866 85.5187H79.0513V88.7541H82.2866V85.5187Z" fill="black"/>
<path d="M85.522 85.5187H82.2866V88.7541H85.522V85.5187Z" fill="black"/>
<path d="M98.4568 85.5187H95.2214V88.7541H98.4568V85.5187Z" fill="black"/>
<path d="M114.627 85.5187H111.392V88.7541H114.627V85.5187Z" fill="black"/>
<path d="M7.9031 88.7541H4.66772V91.9895H7.9031V88.7541Z" fill="black"/>
<path d="M17.606 88.7541H14.3706V91.9895H17.606V88.7541Z" fill="black"/>
<path d="M27.3086 88.7541H24.0732V91.9895H27.3086V88.7541Z" fill="black"/>
<path d="M30.5408 88.7541H27.3054V91.9895H30.5408V88.7541Z" fill="black"/>
<path d="M33.7761 88.7541H30.5408V91.9895H33.7761V88.7541Z" fill="black"/>
<path d="M46.711 88.7541H43.4756V91.9895H46.711V88.7541Z" fill="black"/>
<path d="M49.9463 88.7541H46.7109V91.9895H49.9463V88.7541Z" fill="black"/>
<path d="M56.4136 88.7541H53.1782V91.9895H56.4136V88.7541Z" fill="black"/>
<path d="M59.6489 88.7541H56.4136V91.9895H59.6489V88.7541Z" fill="black"/>
<path d="M69.3518 88.7541H66.1165V91.9895H69.3518V88.7541Z" fill="black"/>
<path d="M91.9895 88.7541H88.7542V91.9895H91.9895V88.7541Z" fill="black"/>
<path d="M95.2215 88.7541H91.9861V91.9895H95.2215V88.7541Z" fill="black"/>
<path d="M98.4568 88.7541H95.2214V91.9895H98.4568V88.7541Z" fill="black"/>
<path d="M104.924 88.7541H101.689V91.9895H104.924V88.7541Z" fill="black"/>
<path d="M108.16 88.7541H104.924V91.9895H108.16V88.7541Z" fill="black"/>
<path d="M117.862 88.7541H114.627V91.9895H117.862V88.7541Z" fill="black"/>
<path d="M121.095 88.7541H117.859V91.9895H121.095V88.7541Z" fill="black"/>
<path d="M124.33 88.7541H121.094V91.9895H124.33V88.7541Z" fill="black"/>
<path d="M7.9031 91.9861H4.66772V95.2215H7.9031V91.9861Z" fill="black"/>
<path d="M14.3706 91.9861H11.1353V95.2215H14.3706V91.9861Z" fill="black"/>
<path d="M17.606 91.9861H14.3706V95.2215H17.606V91.9861Z" fill="black"/>
<path d="M24.0733 91.9861H20.8379V95.2215H24.0733V91.9861Z" fill="black"/>
<path d="M33.7761 91.9861H30.5408V95.2215H33.7761V91.9861Z" fill="black"/>
<path d="M37.0081 91.9861H33.7727V95.2215H37.0081V91.9861Z" fill="black"/>
<path d="M43.4788 91.9861H40.2434V95.2215H43.4788V91.9861Z" fill="black"/>
<path d="M49.9463 91.9861H46.7109V95.2215H49.9463V91.9861Z" fill="black"/>
<path d="M56.4136 91.9861H53.1782V95.2215H56.4136V91.9861Z" fill="black"/>
<path d="M69.3518 91.9861H66.1165V95.2215H69.3518V91.9861Z" fill="black"/>
<path d="M72.5838 91.9861H69.3484V95.2215H72.5838V91.9861Z" fill="black"/>
<path d="M75.8194 91.9861H72.584V95.2215H75.8194V91.9861Z" fill="black"/>
<path d="M82.2866 91.9861H79.0513V95.2215H82.2866V91.9861Z" fill="black"/>
<path d="M91.9895 91.9861H88.7542V95.2215H91.9895V91.9861Z" fill="black"/>
<path d="M101.692 91.9861H98.4568V95.2215H101.692V91.9861Z" fill="black"/>
<path d="M104.924 91.9861H101.689V95.2215H104.924V91.9861Z" fill="black"/>
<path d="M108.16 91.9861H104.924V95.2215H108.16V91.9861Z" fill="black"/>
<path d="M111.392 91.9861H108.156V95.2215H111.392V91.9861Z" fill="black"/>
<path d="M7.9031 95.2215H4.66772V98.4569H7.9031V95.2215Z" fill="black"/>
<path d="M14.3706 95.2215H11.1353V98.4569H14.3706V95.2215Z" fill="black"/>
<path d="M24.0733 95.2215H20.8379V98.4569H24.0733V95.2215Z" fill="black"/>
<path d="M27.3086 95.2215H24.0732V98.4569H27.3086V95.2215Z" fill="black"/>
<path d="M33.7761 95.2215H30.5408V98.4569H33.7761V95.2215Z" fill="black"/>
<path d="M37.0081 95.2215H33.7727V98.4569H37.0081V95.2215Z" fill="black"/>
<path d="M40.2434 95.2215H37.0081V98.4569H40.2434V95.2215Z" fill="black"/>
<path d="M49.9463 95.2215H46.7109V98.4569H49.9463V95.2215Z" fill="black"/>
<path d="M56.4136 95.2215H53.1782V98.4569H56.4136V95.2215Z" fill="black"/>
<path d="M62.8811 95.2215H59.6458V98.4569H62.8811V95.2215Z" fill="black"/>
<path d="M69.3518 95.2215H66.1165V98.4569H69.3518V95.2215Z" fill="black"/>
<path d="M79.0513 95.2215H75.8159V98.4569H79.0513V95.2215Z" fill="black"/>
<path d="M82.2866 95.2215H79.0513V98.4569H82.2866V95.2215Z" fill="black"/>
<path d="M85.522 95.2215H82.2866V98.4569H85.522V95.2215Z" fill="black"/>
<path d="M88.7542 95.2215H85.5188V98.4569H88.7542V95.2215Z" fill="black"/>
<path d="M95.2215 95.2215H91.9861V98.4569H95.2215V95.2215Z" fill="black"/>
<path d="M98.4568 95.2215H95.2214V98.4569H98.4568V95.2215Z" fill="black"/>
<path d="M101.692 95.2215H98.4568V98.4569H101.692V95.2215Z" fill="black"/>
<path d="M104.924 95.2215H101.689V98.4569H104.924V95.2215Z" fill="black"/>
<path d="M108.16 95.2215H104.924V98.4569H108.16V95.2215Z" fill="black"/>
<path d="M111.392 95.2215H108.156V98.4569H111.392V95.2215Z" fill="black"/>
<path d="M114.627 95.2215H111.392V98.4569H114.627V95.2215Z" fill="black"/>
<path d="M117.862 95.2215H114.627V98.4569H117.862V95.2215Z" fill="black"/>
<path d="M121.095 95.2215H117.859V98.4569H121.095V95.2215Z" fill="black"/>
<path d="M124.33 95.2215H121.094V98.4569H124.33V95.2215Z" fill="black"/>
<path d="M33.7761 98.4569H30.5408V101.692H33.7761V98.4569Z" fill="black"/>
<path d="M37.0081 98.4569H33.7727V101.692H37.0081V98.4569Z" fill="black"/>
<path d="M59.6489 98.4569H56.4136V101.692H59.6489V98.4569Z" fill="black"/>
<path d="M69.3518 98.4569H66.1165V101.692H69.3518V98.4569Z" fill="black"/>
<path d="M72.5838 98.4569H69.3484V101.692H72.5838V98.4569Z" fill="black"/>
<path d="M82.2866 98.4569H79.0513V101.692H82.2866V98.4569Z" fill="black"/>
<path d="M88.7542 98.4569H85.5188V101.692H88.7542V98.4569Z" fill="black"/>
<path d="M95.2215 98.4569H91.9861V101.692H95.2215V98.4569Z" fill="black"/>
<path d="M98.4568 98.4569H95.2214V101.692H98.4568V98.4569Z" fill="black"/>
<path d="M111.392 98.4569H108.156V101.692H111.392V98.4569Z" fill="black"/>
<path d="M114.627 98.4569H111.392V101.692H114.627V98.4569Z" fill="black"/>
<path d="M121.095 98.4569H117.859V101.692H121.095V98.4569Z" fill="black"/>
<path d="M40.2434 101.689H37.0081V104.924H40.2434V101.689Z" fill="black"/>
<path d="M46.711 101.689H43.4756V104.924H46.711V101.689Z" fill="black"/>
<path d="M56.4136 101.689H53.1782V104.924H56.4136V101.689Z" fill="black"/>
<path d="M59.6489 101.689H56.4136V104.924H59.6489V101.689Z" fill="black"/>
<path d="M66.1165 101.689H62.8811V104.924H66.1165V101.689Z" fill="black"/>
<path d="M72.5838 101.689H69.3484V104.924H72.5838V101.689Z" fill="black"/>
<path d="M79.0513 101.689H75.8159V104.924H79.0513V101.689Z" fill="black"/>
<path d="M98.4568 101.689H95.2214V104.924H98.4568V101.689Z" fill="black"/>
<path d="M104.924 101.689H101.689V104.924H104.924V101.689Z" fill="black"/>
<path d="M111.392 101.689H108.156V104.924H111.392V101.689Z" fill="black"/>
<path d="M117.862 101.689H114.627V104.924H117.862V101.689Z" fill="black"/>
<path d="M124.33 101.689H121.094V104.924H124.33V101.689Z" fill="black"/>
<path d="M33.7761 104.924H30.5408V108.16H33.7761V104.924Z" fill="black"/>
<path d="M49.9463 104.924H46.7109V108.16H49.9463V104.924Z" fill="black"/>
<path d="M56.4136 104.924H53.1782V108.16H56.4136V104.924Z" fill="black"/>
<path d="M69.3518 104.924H66.1165V108.16H69.3518V104.924Z" fill="black"/>
<path d="M72.5838 104.924H69.3484V108.16H72.5838V104.924Z" fill="black"/>
<path d="M82.2866 104.924H79.0513V108.16H82.2866V104.924Z" fill="black"/>
<path d="M85.522 104.924H82.2866V108.16H85.522V104.924Z" fill="black"/>
<path d="M91.9895 104.924H88.7542V108.16H91.9895V104.924Z" fill="black"/>
<path d="M95.2215 104.924H91.9861V108.16H95.2215V104.924Z" fill="black"/>
<path d="M98.4568 104.924H95.2214V108.16H98.4568V104.924Z" fill="black"/>
<path d="M111.392 104.924H108.156V108.16H111.392V104.924Z" fill="black"/>
<path d="M114.627 104.924H111.392V108.16H114.627V104.924Z" fill="black"/>
<path d="M121.095 104.924H117.859V108.16H121.095V104.924Z" fill="black"/>
<path d="M33.7761 108.156H30.5408V111.392H33.7761V108.156Z" fill="black"/>
<path d="M43.4788 108.156H40.2434V111.392H43.4788V108.156Z" fill="black"/>
<path d="M46.711 108.156H43.4756V111.392H46.711V108.156Z" fill="black"/>
<path d="M56.4136 108.156H53.1782V111.392H56.4136V108.156Z" fill="black"/>
<path d="M66.1165 108.156H62.8811V111.392H66.1165V108.156Z" fill="black"/>
<path d="M69.3518 108.156H66.1165V111.392H69.3518V108.156Z" fill="black"/>
<path d="M72.5838 108.156H69.3484V111.392H72.5838V108.156Z" fill="black"/>
<path d="M75.8194 108.156H72.584V111.392H75.8194V108.156Z" fill="black"/>
<path d="M79.0513 108.156H75.8159V111.392H79.0513V108.156Z" fill="black"/>
<path d="M85.522 108.156H82.2866V111.392H85.522V108.156Z" fill="black"/>
<path d="M88.7542 108.156H85.5188V111.392H88.7542V108.156Z" fill="black"/>
<path d="M91.9895 108.156H88.7542V111.392H91.9895V108.156Z" fill="black"/>
<path d="M95.2215 108.156H91.9861V111.392H95.2215V108.156Z" fill="black"/>
<path d="M98.4568 108.156H95.2214V111.392H98.4568V108.156Z" fill="black"/>
<path d="M101.692 108.156H98.4568V111.392H101.692V108.156Z" fill="black"/>
<path d="M104.924 108.156H101.689V111.392H104.924V108.156Z" fill="black"/>
<path d="M108.16 108.156H104.924V111.392H108.16V108.156Z" fill="black"/>
<path d="M111.392 108.156H108.156V111.392H111.392V108.156Z" fill="black"/>
<path d="M117.862 108.156H114.627V111.392H117.862V108.156Z" fill="black"/>
<path d="M124.33 108.156H121.094V111.392H124.33V108.156Z" fill="black"/>
<path d="M33.7761 111.392H30.5408V114.627H33.7761V111.392Z" fill="black"/>
<path d="M37.0081 111.392H33.7727V114.627H37.0081V111.392Z" fill="black"/>
<path d="M40.2434 111.392H37.0081V114.627H40.2434V111.392Z" fill="black"/>
<path d="M43.4788 111.392H40.2434V114.627H43.4788V111.392Z" fill="black"/>
<path d="M49.9463 111.392H46.7109V114.627H49.9463V111.392Z" fill="black"/>
<path d="M53.1817 111.392H49.9463V114.627H53.1817V111.392Z" fill="black"/>
<path d="M56.4136 111.392H53.1782V114.627H56.4136V111.392Z" fill="black"/>
<path d="M59.6489 111.392H56.4136V114.627H59.6489V111.392Z" fill="black"/>
<path d="M75.8194 111.392H72.584V114.627H75.8194V111.392Z" fill="black"/>
<path d="M82.2866 111.392H79.0513V114.627H82.2866V111.392Z" fill="black"/>
<path d="M88.7542 111.392H85.5188V114.627H88.7542V111.392Z" fill="black"/>
<path d="M101.692 111.392H98.4568V114.627H101.692V111.392Z" fill="black"/>
<path d="M104.924 111.392H101.689V114.627H104.924V111.392Z" fill="black"/>
<path d="M111.392 111.392H108.156V114.627H111.392V111.392Z" fill="black"/>
<path d="M117.862 111.392H114.627V114.627H117.862V111.392Z" fill="black"/>
<path d="M124.33 111.392H121.094V114.627H124.33V111.392Z" fill="black"/>
<path d="M33.7761 114.627H30.5408V117.862H33.7761V114.627Z" fill="black"/>
<path d="M37.0081 114.627H33.7727V117.862H37.0081V114.627Z" fill="black"/>
<path d="M43.4788 114.627H40.2434V117.862H43.4788V114.627Z" fill="black"/>
<path d="M46.711 114.627H43.4756V117.862H46.711V114.627Z" fill="black"/>
<path d="M72.5838 114.627H69.3484V117.862H72.5838V114.627Z" fill="black"/>
<path d="M75.8194 114.627H72.584V117.862H75.8194V114.627Z" fill="black"/>
<path d="M79.0513 114.627H75.8159V117.862H79.0513V114.627Z" fill="black"/>
<path d="M85.522 114.627H82.2866V117.862H85.522V114.627Z" fill="black"/>
<path d="M88.7542 114.627H85.5188V117.862H88.7542V114.627Z" fill="black"/>
<path d="M91.9895 114.627H88.7542V117.862H91.9895V114.627Z" fill="black"/>
<path d="M95.2215 114.627H91.9861V117.862H95.2215V114.627Z" fill="black"/>
<path d="M98.4568 114.627H95.2214V117.862H98.4568V114.627Z" fill="black"/>
<path d="M101.692 114.627H98.4568V117.862H101.692V114.627Z" fill="black"/>
<path d="M117.862 114.627H114.627V117.862H117.862V114.627Z" fill="black"/>
<path d="M121.095 114.627H117.859V117.862H121.095V114.627Z" fill="black"/>
<path d="M124.33 114.627H121.094V117.862H124.33V114.627Z" fill="black"/>
<path d="M37.0081 117.859H33.7727V121.094H37.0081V117.859Z" fill="black"/>
<path d="M40.2434 117.859H37.0081V121.094H40.2434V117.859Z" fill="black"/>
<path d="M43.4788 117.859H40.2434V121.094H43.4788V117.859Z" fill="black"/>
<path d="M46.711 117.859H43.4756V121.094H46.711V117.859Z" fill="black"/>
<path d="M53.1817 117.859H49.9463V121.094H53.1817V117.859Z" fill="black"/>
<path d="M59.6489 117.859H56.4136V121.094H59.6489V117.859Z" fill="black"/>
<path d="M66.1165 117.859H62.8811V121.094H66.1165V117.859Z" fill="black"/>
<path d="M75.8194 117.859H72.584V121.094H75.8194V117.859Z" fill="black"/>
<path d="M79.0513 117.859H75.8159V121.094H79.0513V117.859Z" fill="black"/>
<path d="M98.4568 117.859H95.2214V121.094H98.4568V117.859Z" fill="black"/>
<path d="M101.692 117.859H98.4568V121.094H101.692V117.859Z" fill="black"/>
<path d="M111.392 117.859H108.156V121.094H111.392V117.859Z" fill="black"/>
<path d="M124.33 117.859H121.094V121.094H124.33V117.859Z" fill="black"/>
<path d="M33.7761 121.094H30.5408V124.33H33.7761V121.094Z" fill="black"/>
<path d="M37.0081 121.094H33.7727V124.33H37.0081V121.094Z" fill="black"/>
<path d="M46.711 121.094H43.4756V124.33H46.711V121.094Z" fill="black"/>
<path d="M49.9463 121.094H46.7109V124.33H49.9463V121.094Z" fill="black"/>
<path d="M53.1817 121.094H49.9463V124.33H53.1817V121.094Z" fill="black"/>
<path d="M62.8811 121.094H59.6458V124.33H62.8811V121.094Z" fill="black"/>
<path d="M85.522 121.094H82.2866V124.33H85.522V121.094Z" fill="black"/>
<path d="M88.7542 121.094H85.5188V124.33H88.7542V121.094Z" fill="black"/>
<path d="M91.9895 121.094H88.7542V124.33H91.9895V121.094Z" fill="black"/>
<path d="M111.392 121.094H108.156V124.33H111.392V121.094Z" fill="black"/>
<path d="M114.627 121.094H111.392V124.33H114.627V121.094Z" fill="black"/>
<path d="M117.862 121.094H114.627V124.33H117.862V121.094Z" fill="black"/>
<path d="M121.095 121.094H117.859V124.33H121.095V121.094Z" fill="black"/>
<path d="M124.33 121.094H121.094V124.33H124.33V121.094Z" fill="black"/>
<path d="M23.903 4.66776H8.05669H4.66772V8.05672V23.903V27.292H8.05669H23.903H27.292V23.903V8.05672V4.66776H23.903ZM23.903 23.903H8.05669V8.05672H23.903V23.903Z" fill="black"/>
<path d="M120.937 4.66776H105.091H101.702V8.05672V23.903V27.292H105.091H120.937H124.326V23.903V8.05672V4.66776H120.937ZM120.937 23.903H105.091V8.05672H120.937V23.903Z" fill="black"/>
<path d="M23.903 101.679H8.05669H4.66772V105.068V120.914V124.303H8.05669H23.903H27.292V120.938V105.091V101.702H23.903V101.679ZM23.903 120.938H8.05669V105.091H23.903V120.938Z" fill="black"/>
<path d="M20.838 11.1318H11.1318V20.838H20.838V11.1318Z" fill="black"/>
<path d="M117.859 11.1318H108.153V20.838H117.859V11.1318Z" fill="black"/>
<path d="M20.838 108.153H11.1318V117.859H20.838V108.153Z" fill="black"/>
<path d="M82.4583 49.8447H53.0046V79.2984H82.4583V49.8447Z" fill="white"/>
<path d="M59.0624 56.1766L68.0893 65.2035L59.2175 74.0993C59.134 73.9443 59.0624 73.7773 59.0267 73.6104C58.979 73.4434 58.967 73.2407 58.967 73.0141V56.8921C58.967 56.7609 58.979 56.6298 58.9909 56.5105C59.0028 56.3913 59.0267 56.272 59.0624 56.1766ZM59.6348 55.3777C59.921 55.175 60.231 55.0796 60.553 55.0915C60.875 55.1034 61.1969 55.2108 61.5427 55.4015L72.0364 61.2923L68.7929 64.5358L59.6348 55.3777ZM68.781 65.8952L71.6906 68.8286L61.5547 74.5166C61.3639 74.624 61.185 74.6955 61.0061 74.7432C60.8273 74.7909 60.6484 74.8147 60.4815 74.8147C60.398 74.8147 60.3026 74.8028 60.2072 74.7909C60.1118 74.779 60.0283 74.7432 59.9329 74.7193L68.781 65.8952ZM72.573 68.3397L69.4607 65.2035L72.9069 61.7812L75.9715 63.4745C76.2934 63.6653 76.5439 63.8918 76.7227 64.1423C76.8897 64.4046 76.9851 64.6789 76.9851 64.9651C76.9851 65.2393 76.9016 65.5017 76.7227 65.764C76.5558 66.0263 76.3054 66.241 75.9715 66.4318L72.573 68.3397Z" fill="black"/>
</g>
<defs>
<clipPath id="clip0_641_9831">
<rect width="129" height="129" fill="white"/>
</clipPath>
</defs>
</svg>
